<?xml version="1.0" encoding="utf-8" standalone="no"?>
<!DOCTYPE svg PUBLIC "-//W3C//DTD SVG 1.1//EN"
  "http://www.w3.org/Graphics/SVG/1.1/DTD/svg11.dtd">
<svg xmlns:xlink="http://www.w3.org/1999/xlink" width="720pt" height="288pt" viewBox="0 0 720 288" xmlns="http://www.w3.org/2000/svg" version="1.1">
 <metadata>
  <rdf:RDF xmlns:dc="http://purl.org/dc/elements/1.1/" xmlns:cc="http://creativecommons.org/ns#" xmlns:rdf="http://www.w3.org/1999/02/22-rdf-syntax-ns#">
   <cc:Work>
    <dc:type rdf:resource="http://purl.org/dc/dcmitype/StillImage"/>
    <dc:date>2024-12-22T22:00:29.145602</dc:date>
    <dc:format>image/svg+xml</dc:format>
    <dc:creator>
     <cc:Agent>
      <dc:title>Matplotlib v3.9.2, https://matplotlib.org/</dc:title>
     </cc:Agent>
    </dc:creator>
   </cc:Work>
  </rdf:RDF>
 </metadata>
 <defs>
  <style type="text/css">*{stroke-linejoin: round; stroke-linecap: butt}</style>
 </defs>
 <g id="figure_1">
  <g id="patch_1">
   <path d="M 0 288 
L 720 288 
L 720 0 
L 0 0 
z
" style="fill: #ffffff"/>
  </g>
  <g id="axes_1">
   <g id="patch_2">
    <path d="M 47.72 244.63375 
L 709.2 244.63375 
L 709.2 31.6 
L 47.72 31.6 
z
" style="fill: #ffffff"/>
   </g>
   <g id="matplotlib.axis_1">
    <g id="xtick_1">
     <g id="line2d_1">
      <path d="M 113.245736 244.63375 
L 113.245736 31.6 
" clip-path="url(#p2b8e45191e)" style="fill: none; stroke: #b0b0b0; stroke-width: 0.8; stroke-linecap: square"/>
     </g>
     <g id="line2d_2">
      <defs>
       <path id="m127db67b96" d="M 0 0 
L 0 3.5 
" style="stroke: #000000; stroke-width: 0.8"/>
      </defs>
      <g>
       <use xlink:href="#m127db67b96" x="113.245736" y="244.63375" style="stroke: #000000; stroke-width: 0.8"/>
      </g>
     </g>
     <g id="text_1">
      <!-- 4400 -->
      <g transform="translate(100.520736 259.232188) scale(0.1 -0.1)">
       <defs>
        <path id="DejaVuSans-34" d="M 2419 4116 
L 825 1625 
L 2419 1625 
L 2419 4116 
z
M 2253 4666 
L 3047 4666 
L 3047 1625 
L 3713 1625 
L 3713 1100 
L 3047 1100 
L 3047 0 
L 2419 0 
L 2419 1100 
L 313 1100 
L 313 1709 
L 2253 4666 
z
" transform="scale(0.015625)"/>
        <path id="DejaVuSans-30" d="M 2034 4250 
Q 1547 4250 1301 3770 
Q 1056 3291 1056 2328 
Q 1056 1369 1301 889 
Q 1547 409 2034 409 
Q 2525 409 2770 889 
Q 3016 1369 3016 2328 
Q 3016 3291 2770 3770 
Q 2525 4250 2034 4250 
z
M 2034 4750 
Q 2819 4750 3233 4129 
Q 3647 3509 3647 2328 
Q 3647 1150 3233 529 
Q 2819 -91 2034 -91 
Q 1250 -91 836 529 
Q 422 1150 422 2328 
Q 422 3509 836 4129 
Q 1250 4750 2034 4750 
z
" transform="scale(0.015625)"/>
       </defs>
       <use xlink:href="#DejaVuSans-34"/>
       <use xlink:href="#DejaVuSans-34" x="63.623047"/>
       <use xlink:href="#DejaVuSans-30" x="127.246094"/>
       <use xlink:href="#DejaVuSans-30" x="190.869141"/>
      </g>
     </g>
    </g>
    <g id="xtick_2">
     <g id="line2d_3">
      <path d="M 220.062418 244.63375 
L 220.062418 31.6 
" clip-path="url(#p2b8e45191e)" style="fill: none; stroke: #b0b0b0; stroke-width: 0.8; stroke-linecap: square"/>
     </g>
     <g id="line2d_4">
      <g>
       <use xlink:href="#m127db67b96" x="220.062418" y="244.63375" style="stroke: #000000; stroke-width: 0.8"/>
      </g>
     </g>
     <g id="text_2">
      <!-- 4600 -->
      <g transform="translate(207.337418 259.232188) scale(0.1 -0.1)">
       <defs>
        <path id="DejaVuSans-36" d="M 2113 2584 
Q 1688 2584 1439 2293 
Q 1191 2003 1191 1497 
Q 1191 994 1439 701 
Q 1688 409 2113 409 
Q 2538 409 2786 701 
Q 3034 994 3034 1497 
Q 3034 2003 2786 2293 
Q 2538 2584 2113 2584 
z
M 3366 4563 
L 3366 3988 
Q 3128 4100 2886 4159 
Q 2644 4219 2406 4219 
Q 1781 4219 1451 3797 
Q 1122 3375 1075 2522 
Q 1259 2794 1537 2939 
Q 1816 3084 2150 3084 
Q 2853 3084 3261 2657 
Q 3669 2231 3669 1497 
Q 3669 778 3244 343 
Q 2819 -91 2113 -91 
Q 1303 -91 875 529 
Q 447 1150 447 2328 
Q 447 3434 972 4092 
Q 1497 4750 2381 4750 
Q 2619 4750 2861 4703 
Q 3103 4656 3366 4563 
z
" transform="scale(0.015625)"/>
       </defs>
       <use xlink:href="#DejaVuSans-34"/>
       <use xlink:href="#DejaVuSans-36" x="63.623047"/>
       <use xlink:href="#DejaVuSans-30" x="127.246094"/>
       <use xlink:href="#DejaVuSans-30" x="190.869141"/>
      </g>
     </g>
    </g>
    <g id="xtick_3">
     <g id="line2d_5">
      <path d="M 326.879101 244.63375 
L 326.879101 31.6 
" clip-path="url(#p2b8e45191e)" style="fill: none; stroke: #b0b0b0; stroke-width: 0.8; stroke-linecap: square"/>
     </g>
     <g id="line2d_6">
      <g>
       <use xlink:href="#m127db67b96" x="326.879101" y="244.63375" style="stroke: #000000; stroke-width: 0.8"/>
      </g>
     </g>
     <g id="text_3">
      <!-- 4800 -->
      <g transform="translate(314.154101 259.232188) scale(0.1 -0.1)">
       <defs>
        <path id="DejaVuSans-38" d="M 2034 2216 
Q 1584 2216 1326 1975 
Q 1069 1734 1069 1313 
Q 1069 891 1326 650 
Q 1584 409 2034 409 
Q 2484 409 2743 651 
Q 3003 894 3003 1313 
Q 3003 1734 2745 1975 
Q 2488 2216 2034 2216 
z
M 1403 2484 
Q 997 2584 770 2862 
Q 544 3141 544 3541 
Q 544 4100 942 4425 
Q 1341 4750 2034 4750 
Q 2731 4750 3128 4425 
Q 3525 4100 3525 3541 
Q 3525 3141 3298 2862 
Q 3072 2584 2669 2484 
Q 3125 2378 3379 2068 
Q 3634 1759 3634 1313 
Q 3634 634 3220 271 
Q 2806 -91 2034 -91 
Q 1263 -91 848 271 
Q 434 634 434 1313 
Q 434 1759 690 2068 
Q 947 2378 1403 2484 
z
M 1172 3481 
Q 1172 3119 1398 2916 
Q 1625 2713 2034 2713 
Q 2441 2713 2670 2916 
Q 2900 3119 2900 3481 
Q 2900 3844 2670 4047 
Q 2441 4250 2034 4250 
Q 1625 4250 1398 4047 
Q 1172 3844 1172 3481 
z
" transform="scale(0.015625)"/>
       </defs>
       <use xlink:href="#DejaVuSans-34"/>
       <use xlink:href="#DejaVuSans-38" x="63.623047"/>
       <use xlink:href="#DejaVuSans-30" x="127.246094"/>
       <use xlink:href="#DejaVuSans-30" x="190.869141"/>
      </g>
     </g>
    </g>
    <g id="xtick_4">
     <g id="line2d_7">
      <path d="M 433.695784 244.63375 
L 433.695784 31.6 
" clip-path="url(#p2b8e45191e)" style="fill: none; stroke: #b0b0b0; stroke-width: 0.8; stroke-linecap: square"/>
     </g>
     <g id="line2d_8">
      <g>
       <use xlink:href="#m127db67b96" x="433.695784" y="244.63375" style="stroke: #000000; stroke-width: 0.8"/>
      </g>
     </g>
     <g id="text_4">
      <!-- 5000 -->
      <g transform="translate(420.970784 259.232188) scale(0.1 -0.1)">
       <defs>
        <path id="DejaVuSans-35" d="M 691 4666 
L 3169 4666 
L 3169 4134 
L 1269 4134 
L 1269 2991 
Q 1406 3038 1543 3061 
Q 1681 3084 1819 3084 
Q 2600 3084 3056 2656 
Q 3513 2228 3513 1497 
Q 3513 744 3044 326 
Q 2575 -91 1722 -91 
Q 1428 -91 1123 -41 
Q 819 9 494 109 
L 494 744 
Q 775 591 1075 516 
Q 1375 441 1709 441 
Q 2250 441 2565 725 
Q 2881 1009 2881 1497 
Q 2881 1984 2565 2268 
Q 2250 2553 1709 2553 
Q 1456 2553 1204 2497 
Q 953 2441 691 2322 
L 691 4666 
z
" transform="scale(0.015625)"/>
       </defs>
       <use xlink:href="#DejaVuSans-35"/>
       <use xlink:href="#DejaVuSans-30" x="63.623047"/>
       <use xlink:href="#DejaVuSans-30" x="127.246094"/>
       <use xlink:href="#DejaVuSans-30" x="190.869141"/>
      </g>
     </g>
    </g>
    <g id="xtick_5">
     <g id="line2d_9">
      <path d="M 540.512467 244.63375 
L 540.512467 31.6 
" clip-path="url(#p2b8e45191e)" style="fill: none; stroke: #b0b0b0; stroke-width: 0.8; stroke-linecap: square"/>
     </g>
     <g id="line2d_10">
      <g>
       <use xlink:href="#m127db67b96" x="540.512467" y="244.63375" style="stroke: #000000; stroke-width: 0.8"/>
      </g>
     </g>
     <g id="text_5">
      <!-- 5200 -->
      <g transform="translate(527.787467 259.232188) scale(0.1 -0.1)">
       <defs>
        <path id="DejaVuSans-32" d="M 1228 531 
L 3431 531 
L 3431 0 
L 469 0 
L 469 531 
Q 828 903 1448 1529 
Q 2069 2156 2228 2338 
Q 2531 2678 2651 2914 
Q 2772 3150 2772 3378 
Q 2772 3750 2511 3984 
Q 2250 4219 1831 4219 
Q 1534 4219 1204 4116 
Q 875 4013 500 3803 
L 500 4441 
Q 881 4594 1212 4672 
Q 1544 4750 1819 4750 
Q 2544 4750 2975 4387 
Q 3406 4025 3406 3419 
Q 3406 3131 3298 2873 
Q 3191 2616 2906 2266 
Q 2828 2175 2409 1742 
Q 1991 1309 1228 531 
z
" transform="scale(0.015625)"/>
       </defs>
       <use xlink:href="#DejaVuSans-35"/>
       <use xlink:href="#DejaVuSans-32" x="63.623047"/>
       <use xlink:href="#DejaVuSans-30" x="127.246094"/>
       <use xlink:href="#DejaVuSans-30" x="190.869141"/>
      </g>
     </g>
    </g>
    <g id="xtick_6">
     <g id="line2d_11">
      <path d="M 647.32915 244.63375 
L 647.32915 31.6 
" clip-path="url(#p2b8e45191e)" style="fill: none; stroke: #b0b0b0; stroke-width: 0.8; stroke-linecap: square"/>
     </g>
     <g id="line2d_12">
      <g>
       <use xlink:href="#m127db67b96" x="647.32915" y="244.63375" style="stroke: #000000; stroke-width: 0.8"/>
      </g>
     </g>
     <g id="text_6">
      <!-- 5400 -->
      <g transform="translate(634.60415 259.232188) scale(0.1 -0.1)">
       <use xlink:href="#DejaVuSans-35"/>
       <use xlink:href="#DejaVuSans-34" x="63.623047"/>
       <use xlink:href="#DejaVuSans-30" x="127.246094"/>
       <use xlink:href="#DejaVuSans-30" x="190.869141"/>
      </g>
     </g>
    </g>
    <g id="text_7">
     <!-- Wavelength (Å) -->
     <g transform="translate(339.886563 274.594688) scale(0.1 -0.1)">
      <defs>
       <path id="DejaVuSans-57" d="M 213 4666 
L 850 4666 
L 1831 722 
L 2809 4666 
L 3519 4666 
L 4500 722 
L 5478 4666 
L 6119 4666 
L 4947 0 
L 4153 0 
L 3169 4050 
L 2175 0 
L 1381 0 
L 213 4666 
z
" transform="scale(0.015625)"/>
       <path id="DejaVuSans-61" d="M 2194 1759 
Q 1497 1759 1228 1600 
Q 959 1441 959 1056 
Q 959 750 1161 570 
Q 1363 391 1709 391 
Q 2188 391 2477 730 
Q 2766 1069 2766 1631 
L 2766 1759 
L 2194 1759 
z
M 3341 1997 
L 3341 0 
L 2766 0 
L 2766 531 
Q 2569 213 2275 61 
Q 1981 -91 1556 -91 
Q 1019 -91 701 211 
Q 384 513 384 1019 
Q 384 1609 779 1909 
Q 1175 2209 1959 2209 
L 2766 2209 
L 2766 2266 
Q 2766 2663 2505 2880 
Q 2244 3097 1772 3097 
Q 1472 3097 1187 3025 
Q 903 2953 641 2809 
L 641 3341 
Q 956 3463 1253 3523 
Q 1550 3584 1831 3584 
Q 2591 3584 2966 3190 
Q 3341 2797 3341 1997 
z
" transform="scale(0.015625)"/>
       <path id="DejaVuSans-76" d="M 191 3500 
L 800 3500 
L 1894 563 
L 2988 3500 
L 3597 3500 
L 2284 0 
L 1503 0 
L 191 3500 
z
" transform="scale(0.015625)"/>
       <path id="DejaVuSans-65" d="M 3597 1894 
L 3597 1613 
L 953 1613 
Q 991 1019 1311 708 
Q 1631 397 2203 397 
Q 2534 397 2845 478 
Q 3156 559 3463 722 
L 3463 178 
Q 3153 47 2828 -22 
Q 2503 -91 2169 -91 
Q 1331 -91 842 396 
Q 353 884 353 1716 
Q 353 2575 817 3079 
Q 1281 3584 2069 3584 
Q 2775 3584 3186 3129 
Q 3597 2675 3597 1894 
z
M 3022 2063 
Q 3016 2534 2758 2815 
Q 2500 3097 2075 3097 
Q 1594 3097 1305 2825 
Q 1016 2553 972 2059 
L 3022 2063 
z
" transform="scale(0.015625)"/>
       <path id="DejaVuSans-6c" d="M 603 4863 
L 1178 4863 
L 1178 0 
L 603 0 
L 603 4863 
z
" transform="scale(0.015625)"/>
       <path id="DejaVuSans-6e" d="M 3513 2113 
L 3513 0 
L 2938 0 
L 2938 2094 
Q 2938 2591 2744 2837 
Q 2550 3084 2163 3084 
Q 1697 3084 1428 2787 
Q 1159 2491 1159 1978 
L 1159 0 
L 581 0 
L 581 3500 
L 1159 3500 
L 1159 2956 
Q 1366 3272 1645 3428 
Q 1925 3584 2291 3584 
Q 2894 3584 3203 3211 
Q 3513 2838 3513 2113 
z
" transform="scale(0.015625)"/>
       <path id="DejaVuSans-67" d="M 2906 1791 
Q 2906 2416 2648 2759 
Q 2391 3103 1925 3103 
Q 1463 3103 1205 2759 
Q 947 2416 947 1791 
Q 947 1169 1205 825 
Q 1463 481 1925 481 
Q 2391 481 2648 825 
Q 2906 1169 2906 1791 
z
M 3481 434 
Q 3481 -459 3084 -895 
Q 2688 -1331 1869 -1331 
Q 1566 -1331 1297 -1286 
Q 1028 -1241 775 -1147 
L 775 -588 
Q 1028 -725 1275 -790 
Q 1522 -856 1778 -856 
Q 2344 -856 2625 -561 
Q 2906 -266 2906 331 
L 2906 616 
Q 2728 306 2450 153 
Q 2172 0 1784 0 
Q 1141 0 747 490 
Q 353 981 353 1791 
Q 353 2603 747 3093 
Q 1141 3584 1784 3584 
Q 2172 3584 2450 3431 
Q 2728 3278 2906 2969 
L 2906 3500 
L 3481 3500 
L 3481 434 
z
" transform="scale(0.015625)"/>
       <path id="DejaVuSans-74" d="M 1172 4494 
L 1172 3500 
L 2356 3500 
L 2356 3053 
L 1172 3053 
L 1172 1153 
Q 1172 725 1289 603 
Q 1406 481 1766 481 
L 2356 481 
L 2356 0 
L 1766 0 
Q 1100 0 847 248 
Q 594 497 594 1153 
L 594 3053 
L 172 3053 
L 172 3500 
L 594 3500 
L 594 4494 
L 1172 4494 
z
" transform="scale(0.015625)"/>
       <path id="DejaVuSans-68" d="M 3513 2113 
L 3513 0 
L 2938 0 
L 2938 2094 
Q 2938 2591 2744 2837 
Q 2550 3084 2163 3084 
Q 1697 3084 1428 2787 
Q 1159 2491 1159 1978 
L 1159 0 
L 581 0 
L 581 4863 
L 1159 4863 
L 1159 2956 
Q 1366 3272 1645 3428 
Q 1925 3584 2291 3584 
Q 2894 3584 3203 3211 
Q 3513 2838 3513 2113 
z
" transform="scale(0.015625)"/>
       <path id="DejaVuSans-20" transform="scale(0.015625)"/>
       <path id="DejaVuSans-28" d="M 1984 4856 
Q 1566 4138 1362 3434 
Q 1159 2731 1159 2009 
Q 1159 1288 1364 580 
Q 1569 -128 1984 -844 
L 1484 -844 
Q 1016 -109 783 600 
Q 550 1309 550 2009 
Q 550 2706 781 3412 
Q 1013 4119 1484 4856 
L 1984 4856 
z
" transform="scale(0.015625)"/>
       <path id="DejaVuSans-c5" d="M 2663 5081 
Q 2663 5278 2523 5417 
Q 2384 5556 2188 5556 
Q 1988 5556 1852 5420 
Q 1716 5284 1716 5081 
Q 1716 4884 1853 4746 
Q 1991 4609 2188 4609 
Q 2384 4609 2523 4746 
Q 2663 4884 2663 5081 
z
M 2188 4044 
L 1338 1722 
L 3041 1722 
L 2188 4044 
z
M 1716 4366 
Q 1525 4494 1428 4673 
Q 1331 4853 1331 5081 
Q 1331 5441 1579 5691 
Q 1828 5941 2188 5941 
Q 2544 5941 2795 5689 
Q 3047 5438 3047 5081 
Q 3047 4863 2948 4678 
Q 2850 4494 2663 4366 
L 4325 0 
L 3669 0 
L 3244 1197 
L 1141 1197 
L 716 0 
L 50 0 
L 1716 4366 
z
" transform="scale(0.015625)"/>
       <path id="DejaVuSans-29" d="M 513 4856 
L 1013 4856 
Q 1481 4119 1714 3412 
Q 1947 2706 1947 2009 
Q 1947 1309 1714 600 
Q 1481 -109 1013 -844 
L 513 -844 
Q 928 -128 1133 580 
Q 1338 1288 1338 2009 
Q 1338 2731 1133 3434 
Q 928 4138 513 4856 
z
" transform="scale(0.015625)"/>
      </defs>
      <use xlink:href="#DejaVuSans-57"/>
      <use xlink:href="#DejaVuSans-61" x="92.501953"/>
      <use xlink:href="#DejaVuSans-76" x="153.78125"/>
      <use xlink:href="#DejaVuSans-65" x="212.960938"/>
      <use xlink:href="#DejaVuSans-6c" x="274.484375"/>
      <use xlink:href="#DejaVuSans-65" x="302.267578"/>
      <use xlink:href="#DejaVuSans-6e" x="363.791016"/>
      <use xlink:href="#DejaVuSans-67" x="427.169922"/>
      <use xlink:href="#DejaVuSans-74" x="490.646484"/>
      <use xlink:href="#DejaVuSans-68" x="529.855469"/>
      <use xlink:href="#DejaVuSans-20" x="593.234375"/>
      <use xlink:href="#DejaVuSans-28" x="625.021484"/>
      <use xlink:href="#DejaVuSans-c5" x="664.035156"/>
      <use xlink:href="#DejaVuSans-29" x="732.443359"/>
     </g>
    </g>
   </g>
   <g id="matplotlib.axis_2">
    <g id="ytick_1">
     <g id="line2d_13">
      <path d="M 47.72 244.63375 
L 709.2 244.63375 
" clip-path="url(#p2b8e45191e)" style="fill: none; stroke: #b0b0b0; stroke-width: 0.8; stroke-linecap: square"/>
     </g>
     <g id="line2d_14">
      <defs>
       <path id="m43b3651e34" d="M 0 0 
L -3.5 0 
" style="stroke: #000000; stroke-width: 0.8"/>
      </defs>
      <g>
       <use xlink:href="#m43b3651e34" x="47.72" y="244.63375" style="stroke: #000000; stroke-width: 0.8"/>
      </g>
     </g>
     <g id="text_8">
      <!-- 0.0 -->
      <g transform="translate(24.816875 248.432969) scale(0.1 -0.1)">
       <defs>
        <path id="DejaVuSans-2e" d="M 684 794 
L 1344 794 
L 1344 0 
L 684 0 
L 684 794 
z
" transform="scale(0.015625)"/>
       </defs>
       <use xlink:href="#DejaVuSans-30"/>
       <use xlink:href="#DejaVuSans-2e" x="63.623047"/>
       <use xlink:href="#DejaVuSans-30" x="95.410156"/>
      </g>
     </g>
    </g>
    <g id="ytick_2">
     <g id="line2d_15">
      <path d="M 47.72 205.900341 
L 709.2 205.900341 
" clip-path="url(#p2b8e45191e)" style="fill: none; stroke: #b0b0b0; stroke-width: 0.8; stroke-linecap: square"/>
     </g>
     <g id="line2d_16">
      <g>
       <use xlink:href="#m43b3651e34" x="47.72" y="205.900341" style="stroke: #000000; stroke-width: 0.8"/>
      </g>
     </g>
     <g id="text_9">
      <!-- 0.2 -->
      <g transform="translate(24.816875 209.69956) scale(0.1 -0.1)">
       <use xlink:href="#DejaVuSans-30"/>
       <use xlink:href="#DejaVuSans-2e" x="63.623047"/>
       <use xlink:href="#DejaVuSans-32" x="95.410156"/>
      </g>
     </g>
    </g>
    <g id="ytick_3">
     <g id="line2d_17">
      <path d="M 47.72 167.166932 
L 709.2 167.166932 
" clip-path="url(#p2b8e45191e)" style="fill: none; stroke: #b0b0b0; stroke-width: 0.8; stroke-linecap: square"/>
     </g>
     <g id="line2d_18">
      <g>
       <use xlink:href="#m43b3651e34" x="47.72" y="167.166932" style="stroke: #000000; stroke-width: 0.8"/>
      </g>
     </g>
     <g id="text_10">
      <!-- 0.4 -->
      <g transform="translate(24.816875 170.966151) scale(0.1 -0.1)">
       <use xlink:href="#DejaVuSans-30"/>
       <use xlink:href="#DejaVuSans-2e" x="63.623047"/>
       <use xlink:href="#DejaVuSans-34" x="95.410156"/>
      </g>
     </g>
    </g>
    <g id="ytick_4">
     <g id="line2d_19">
      <path d="M 47.72 128.433523 
L 709.2 128.433523 
" clip-path="url(#p2b8e45191e)" style="fill: none; stroke: #b0b0b0; stroke-width: 0.8; stroke-linecap: square"/>
     </g>
     <g id="line2d_20">
      <g>
       <use xlink:href="#m43b3651e34" x="47.72" y="128.433523" style="stroke: #000000; stroke-width: 0.8"/>
      </g>
     </g>
     <g id="text_11">
      <!-- 0.6 -->
      <g transform="translate(24.816875 132.232741) scale(0.1 -0.1)">
       <use xlink:href="#DejaVuSans-30"/>
       <use xlink:href="#DejaVuSans-2e" x="63.623047"/>
       <use xlink:href="#DejaVuSans-36" x="95.410156"/>
      </g>
     </g>
    </g>
    <g id="ytick_5">
     <g id="line2d_21">
      <path d="M 47.72 89.700114 
L 709.2 89.700114 
" clip-path="url(#p2b8e45191e)" style="fill: none; stroke: #b0b0b0; stroke-width: 0.8; stroke-linecap: square"/>
     </g>
     <g id="line2d_22">
      <g>
       <use xlink:href="#m43b3651e34" x="47.72" y="89.700114" style="stroke: #000000; stroke-width: 0.8"/>
      </g>
     </g>
     <g id="text_12">
      <!-- 0.8 -->
      <g transform="translate(24.816875 93.499332) scale(0.1 -0.1)">
       <use xlink:href="#DejaVuSans-30"/>
       <use xlink:href="#DejaVuSans-2e" x="63.623047"/>
       <use xlink:href="#DejaVuSans-38" x="95.410156"/>
      </g>
     </g>
    </g>
    <g id="ytick_6">
     <g id="line2d_23">
      <path d="M 47.72 50.966705 
L 709.2 50.966705 
" clip-path="url(#p2b8e45191e)" style="fill: none; stroke: #b0b0b0; stroke-width: 0.8; stroke-linecap: square"/>
     </g>
     <g id="line2d_24">
      <g>
       <use xlink:href="#m43b3651e34" x="47.72" y="50.966705" style="stroke: #000000; stroke-width: 0.8"/>
      </g>
     </g>
     <g id="text_13">
      <!-- 1.0 -->
      <g transform="translate(24.816875 54.765923) scale(0.1 -0.1)">
       <defs>
        <path id="DejaVuSans-31" d="M 794 531 
L 1825 531 
L 1825 4091 
L 703 3866 
L 703 4441 
L 1819 4666 
L 2450 4666 
L 2450 531 
L 3481 531 
L 3481 0 
L 794 0 
L 794 531 
z
" transform="scale(0.015625)"/>
       </defs>
       <use xlink:href="#DejaVuSans-31"/>
       <use xlink:href="#DejaVuSans-2e" x="63.623047"/>
       <use xlink:href="#DejaVuSans-30" x="95.410156"/>
      </g>
     </g>
    </g>
    <g id="text_14">
     <!-- Intensity (normalized) -->
     <g transform="translate(18.737187 193.153594) rotate(-90) scale(0.1 -0.1)">
      <defs>
       <path id="DejaVuSans-49" d="M 628 4666 
L 1259 4666 
L 1259 0 
L 628 0 
L 628 4666 
z
" transform="scale(0.015625)"/>
       <path id="DejaVuSans-73" d="M 2834 3397 
L 2834 2853 
Q 2591 2978 2328 3040 
Q 2066 3103 1784 3103 
Q 1356 3103 1142 2972 
Q 928 2841 928 2578 
Q 928 2378 1081 2264 
Q 1234 2150 1697 2047 
L 1894 2003 
Q 2506 1872 2764 1633 
Q 3022 1394 3022 966 
Q 3022 478 2636 193 
Q 2250 -91 1575 -91 
Q 1294 -91 989 -36 
Q 684 19 347 128 
L 347 722 
Q 666 556 975 473 
Q 1284 391 1588 391 
Q 1994 391 2212 530 
Q 2431 669 2431 922 
Q 2431 1156 2273 1281 
Q 2116 1406 1581 1522 
L 1381 1569 
Q 847 1681 609 1914 
Q 372 2147 372 2553 
Q 372 3047 722 3315 
Q 1072 3584 1716 3584 
Q 2034 3584 2315 3537 
Q 2597 3491 2834 3397 
z
" transform="scale(0.015625)"/>
       <path id="DejaVuSans-69" d="M 603 3500 
L 1178 3500 
L 1178 0 
L 603 0 
L 603 3500 
z
M 603 4863 
L 1178 4863 
L 1178 4134 
L 603 4134 
L 603 4863 
z
" transform="scale(0.015625)"/>
       <path id="DejaVuSans-79" d="M 2059 -325 
Q 1816 -950 1584 -1140 
Q 1353 -1331 966 -1331 
L 506 -1331 
L 506 -850 
L 844 -850 
Q 1081 -850 1212 -737 
Q 1344 -625 1503 -206 
L 1606 56 
L 191 3500 
L 800 3500 
L 1894 763 
L 2988 3500 
L 3597 3500 
L 2059 -325 
z
" transform="scale(0.015625)"/>
       <path id="DejaVuSans-6f" d="M 1959 3097 
Q 1497 3097 1228 2736 
Q 959 2375 959 1747 
Q 959 1119 1226 758 
Q 1494 397 1959 397 
Q 2419 397 2687 759 
Q 2956 1122 2956 1747 
Q 2956 2369 2687 2733 
Q 2419 3097 1959 3097 
z
M 1959 3584 
Q 2709 3584 3137 3096 
Q 3566 2609 3566 1747 
Q 3566 888 3137 398 
Q 2709 -91 1959 -91 
Q 1206 -91 779 398 
Q 353 888 353 1747 
Q 353 2609 779 3096 
Q 1206 3584 1959 3584 
z
" transform="scale(0.015625)"/>
       <path id="DejaVuSans-72" d="M 2631 2963 
Q 2534 3019 2420 3045 
Q 2306 3072 2169 3072 
Q 1681 3072 1420 2755 
Q 1159 2438 1159 1844 
L 1159 0 
L 581 0 
L 581 3500 
L 1159 3500 
L 1159 2956 
Q 1341 3275 1631 3429 
Q 1922 3584 2338 3584 
Q 2397 3584 2469 3576 
Q 2541 3569 2628 3553 
L 2631 2963 
z
" transform="scale(0.015625)"/>
       <path id="DejaVuSans-6d" d="M 3328 2828 
Q 3544 3216 3844 3400 
Q 4144 3584 4550 3584 
Q 5097 3584 5394 3201 
Q 5691 2819 5691 2113 
L 5691 0 
L 5113 0 
L 5113 2094 
Q 5113 2597 4934 2840 
Q 4756 3084 4391 3084 
Q 3944 3084 3684 2787 
Q 3425 2491 3425 1978 
L 3425 0 
L 2847 0 
L 2847 2094 
Q 2847 2600 2669 2842 
Q 2491 3084 2119 3084 
Q 1678 3084 1418 2786 
Q 1159 2488 1159 1978 
L 1159 0 
L 581 0 
L 581 3500 
L 1159 3500 
L 1159 2956 
Q 1356 3278 1631 3431 
Q 1906 3584 2284 3584 
Q 2666 3584 2933 3390 
Q 3200 3197 3328 2828 
z
" transform="scale(0.015625)"/>
       <path id="DejaVuSans-7a" d="M 353 3500 
L 3084 3500 
L 3084 2975 
L 922 459 
L 3084 459 
L 3084 0 
L 275 0 
L 275 525 
L 2438 3041 
L 353 3041 
L 353 3500 
z
" transform="scale(0.015625)"/>
       <path id="DejaVuSans-64" d="M 2906 2969 
L 2906 4863 
L 3481 4863 
L 3481 0 
L 2906 0 
L 2906 525 
Q 2725 213 2448 61 
Q 2172 -91 1784 -91 
Q 1150 -91 751 415 
Q 353 922 353 1747 
Q 353 2572 751 3078 
Q 1150 3584 1784 3584 
Q 2172 3584 2448 3432 
Q 2725 3281 2906 2969 
z
M 947 1747 
Q 947 1113 1208 752 
Q 1469 391 1925 391 
Q 2381 391 2643 752 
Q 2906 1113 2906 1747 
Q 2906 2381 2643 2742 
Q 2381 3103 1925 3103 
Q 1469 3103 1208 2742 
Q 947 2381 947 1747 
z
" transform="scale(0.015625)"/>
      </defs>
      <use xlink:href="#DejaVuSans-49"/>
      <use xlink:href="#DejaVuSans-6e" x="29.492188"/>
      <use xlink:href="#DejaVuSans-74" x="92.871094"/>
      <use xlink:href="#DejaVuSans-65" x="132.080078"/>
      <use xlink:href="#DejaVuSans-6e" x="193.603516"/>
      <use xlink:href="#DejaVuSans-73" x="256.982422"/>
      <use xlink:href="#DejaVuSans-69" x="309.082031"/>
      <use xlink:href="#DejaVuSans-74" x="336.865234"/>
      <use xlink:href="#DejaVuSans-79" x="376.074219"/>
      <use xlink:href="#DejaVuSans-20" x="435.253906"/>
      <use xlink:href="#DejaVuSans-28" x="467.041016"/>
      <use xlink:href="#DejaVuSans-6e" x="506.054688"/>
      <use xlink:href="#DejaVuSans-6f" x="569.433594"/>
      <use xlink:href="#DejaVuSans-72" x="630.615234"/>
      <use xlink:href="#DejaVuSans-6d" x="669.978516"/>
      <use xlink:href="#DejaVuSans-61" x="767.390625"/>
      <use xlink:href="#DejaVuSans-6c" x="828.669922"/>
      <use xlink:href="#DejaVuSans-69" x="856.453125"/>
      <use xlink:href="#DejaVuSans-7a" x="884.236328"/>
      <use xlink:href="#DejaVuSans-65" x="936.726562"/>
      <use xlink:href="#DejaVuSans-64" x="998.25"/>
      <use xlink:href="#DejaVuSans-29" x="1061.726562"/>
     </g>
    </g>
   </g>
   <g id="line2d_25">
    <path d="M 47.72 230.116381 
L 47.988082 233.263191 
L 48.256289 232.391815 
L 48.52462 231.036796 
L 48.793076 228.667095 
L 49.061656 229.098687 
L 49.330362 229.092379 
L 49.599192 229.930105 
L 49.868148 229.129427 
L 50.137229 229.470577 
L 50.406436 230.374205 
L 50.675769 230.417766 
L 51.214813 229.602773 
L 51.484524 228.6081 
L 51.754362 229.76885 
L 52.024327 229.307529 
L 52.294418 229.557772 
L 52.564637 229.591865 
L 52.834983 229.487942 
L 53.105456 229.521338 
L 53.917643 232.750508 
L 54.188628 233.223275 
L 54.459741 233.206321 
L 54.730983 233.754437 
L 55.002353 232.846124 
L 55.273853 232.351564 
L 55.545481 232.270194 
L 55.817239 231.938588 
L 56.089126 231.90823 
L 56.633289 229.886869 
L 56.905566 229.245282 
L 57.177972 228.966303 
L 57.450509 228.183414 
L 57.723176 228.84942 
L 58.268903 231.697926 
L 59.361931 237.486398 
L 59.909235 240.806406 
L 61.005429 243.569191 
L 61.279809 243.80731 
L 61.554322 243.272118 
L 61.828968 243.046155 
L 62.103748 242.591072 
L 62.378661 241.81266 
L 62.653708 241.552883 
L 62.928888 241.74504 
L 63.204203 241.769702 
L 63.755236 242.809152 
L 64.030954 243.957015 
L 64.306807 244.120253 
L 64.582795 244.431299 
L 64.858918 244.393655 
L 65.135176 244.63375 
L 65.6881 243.97565 
L 65.964765 242.95316 
L 67.072789 234.796002 
L 67.350136 232.77509 
L 68.460897 221.729433 
L 69.017103 216.883215 
L 69.295413 216.135356 
L 69.852447 213.049046 
L 70.410035 213.60583 
L 71.24746 216.058483 
L 72.64596 226.401144 
L 72.92608 228.753508 
L 73.486742 230.774928 
L 73.767285 231.050386 
L 74.047968 230.404291 
L 74.328793 227.96881 
L 74.609759 226.725374 
L 76.016716 216.875697 
L 76.298535 216.271209 
L 76.580496 215.264923 
L 76.862599 214.950776 
L 77.144846 215.925161 
L 77.427236 216.013067 
L 77.70977 215.813797 
L 77.992447 215.773177 
L 78.275267 214.377189 
L 78.558232 216.597335 
L 78.841341 216.638123 
L 80.259052 225.935277 
L 80.827152 231.68231 
L 81.11142 232.457972 
L 81.395834 232.824373 
L 81.680393 232.770916 
L 81.965099 231.097137 
L 82.249951 231.038957 
L 82.534949 230.102962 
L 83.105386 225.724646 
L 83.67641 220.787789 
L 84.248024 218.424506 
L 84.820229 216.198419 
L 85.106553 215.316441 
L 85.393026 213.438111 
L 85.679646 212.689895 
L 85.966416 212.54458 
L 86.253334 213.382568 
L 86.540401 215.485776 
L 87.114983 216.527196 
L 87.402498 216.060924 
L 87.690163 216.554564 
L 87.977977 215.976025 
L 88.265942 216.857043 
L 88.554057 217.083662 
L 89.130737 214.783544 
L 89.419304 212.649393 
L 89.996889 209.822181 
L 90.285909 209.72457 
L 90.57508 210.649856 
L 91.443504 208.003383 
L 91.733282 206.248162 
L 92.023213 206.098243 
L 92.313297 204.952743 
L 92.603533 205.157527 
L 92.893922 204.368251 
L 94.05701 199.953334 
L 94.348166 199.982079 
L 94.639477 201.005209 
L 94.930941 200.876289 
L 95.222559 200.600282 
L 95.514332 200.806127 
L 95.80626 201.358735 
L 96.39058 201.804944 
L 96.682973 202.405599 
L 96.975521 202.179021 
L 97.268224 202.850961 
L 97.561084 201.834303 
L 97.854099 202.868202 
L 98.14727 203.187544 
L 98.440598 203.908559 
L 98.734082 204.959034 
L 99.027723 204.909694 
L 99.321521 205.026675 
L 99.615475 205.59363 
L 99.909587 205.208843 
L 100.203856 204.158126 
L 100.498283 203.941997 
L 101.087609 202.462476 
L 101.38251 203.059582 
L 101.677568 201.075862 
L 101.972785 200.988916 
L 102.268161 200.503374 
L 102.563695 202.215313 
L 102.859388 203.174959 
L 103.747424 212.079241 
L 104.043755 213.853581 
L 104.340246 214.17368 
L 104.636897 214.890944 
L 104.933708 215.262187 
L 105.230679 214.852537 
L 105.527811 214.197544 
L 105.825104 212.84779 
L 106.122558 210.147307 
L 106.420173 209.14906 
L 107.015886 205.382631 
L 107.313986 206.40486 
L 107.612247 205.626784 
L 107.91067 206.059392 
L 108.209255 205.515351 
L 108.508003 204.425435 
L 108.806913 205.587709 
L 109.105986 205.651977 
L 109.405222 204.47178 
L 109.704621 205.155911 
L 110.004183 203.548253 
L 110.303908 203.500483 
L 110.603798 201.599394 
L 110.903851 202.058456 
L 111.204068 201.336791 
L 111.504449 202.248034 
L 111.804994 201.25435 
L 112.105704 201.301836 
L 112.707618 201.996624 
L 113.008823 201.970605 
L 113.310193 202.565964 
L 113.611728 202.124895 
L 114.819527 207.922175 
L 115.121892 206.910357 
L 115.727121 205.79311 
L 116.333018 207.324422 
L 116.636218 206.630709 
L 116.939584 205.18397 
L 117.54682 201.295329 
L 117.85069 199.752631 
L 118.154728 199.727362 
L 118.458934 196.791169 
L 118.763309 196.566081 
L 119.067852 196.063921 
L 119.372564 194.735732 
L 119.677445 194.979617 
L 119.982495 196.372723 
L 120.287715 197.164275 
L 120.593104 197.297808 
L 120.898663 197.749695 
L 121.204391 197.649315 
L 121.816359 198.337683 
L 122.122598 198.095218 
L 122.429008 195.751455 
L 122.735589 194.63054 
L 123.042341 192.247427 
L 123.349264 192.067802 
L 123.963624 191.299523 
L 124.271061 191.694373 
L 124.57867 191.452553 
L 124.886452 191.982096 
L 125.194405 191.907279 
L 125.810829 193.663041 
L 126.427945 192.82728 
L 127.045752 190.488149 
L 127.354916 191.233105 
L 127.664254 190.859651 
L 127.973766 190.003422 
L 128.283451 191.02538 
L 128.593311 190.131233 
L 128.903345 190.250114 
L 129.213553 189.305632 
L 129.523937 189.315531 
L 130.145228 190.123241 
L 130.456136 191.568418 
L 130.76722 191.021253 
L 131.389915 190.941247 
L 131.701527 189.884633 
L 132.013314 189.898577 
L 132.325278 188.223927 
L 132.637418 188.035653 
L 132.949735 186.001442 
L 133.262229 184.994801 
L 133.5749 184.558656 
L 133.887748 183.80722 
L 134.200774 183.403609 
L 134.827358 184.093682 
L 135.140917 184.792537 
L 135.768569 184.258144 
L 136.396935 184.494955 
L 136.711386 182.796157 
L 137.026017 182.239349 
L 137.340826 181.415722 
L 137.655815 179.74824 
L 137.970983 179.454566 
L 138.286331 178.8797 
L 138.60186 178.804999 
L 138.917568 178.162829 
L 139.233456 178.65559 
L 139.549525 178.722682 
L 139.865774 177.495374 
L 140.182205 179.474841 
L 140.498816 179.150884 
L 141.449738 183.202122 
L 141.767075 183.172074 
L 142.084594 184.370047 
L 142.402294 184.139646 
L 142.720178 185.600888 
L 143.038243 186.136332 
L 143.356492 185.922373 
L 143.674923 185.912749 
L 143.993537 185.173714 
L 144.312334 183.949287 
L 144.631314 184.492672 
L 144.950478 184.069862 
L 145.269826 182.845538 
L 145.589357 182.11002 
L 146.228972 179.500398 
L 146.549056 179.506601 
L 147.510417 176.192327 
L 147.83124 175.685564 
L 148.152249 174.795131 
L 148.473443 175.457002 
L 148.794823 176.958411 
L 149.116388 175.956177 
L 149.43814 176.122882 
L 149.760078 175.910497 
L 150.082202 176.204987 
L 150.72701 173.579694 
L 151.049694 173.802779 
L 151.372566 172.774918 
L 151.695624 171.340973 
L 152.01887 171.585363 
L 152.342304 170.855264 
L 152.665926 169.439506 
L 152.989735 169.583997 
L 153.313733 168.907054 
L 153.637919 169.444026 
L 153.962293 170.758915 
L 154.286856 171.414043 
L 154.611608 173.197844 
L 154.936549 173.607801 
L 155.261679 175.309439 
L 155.586999 176.080818 
L 155.912508 176.078104 
L 156.238207 177.612398 
L 156.564096 176.365191 
L 156.890175 176.379326 
L 157.216445 174.69622 
L 157.542905 174.007913 
L 157.869555 171.776212 
L 158.523429 169.280524 
L 158.850652 169.989372 
L 159.178067 170.005755 
L 159.833472 171.026055 
L 160.161462 172.696064 
L 160.489644 171.557723 
L 160.818019 170.977561 
L 161.475345 171.292 
L 161.804298 172.184345 
L 162.133443 171.435816 
L 162.462781 171.051837 
L 162.792313 170.955276 
L 163.122039 169.991537 
L 163.451958 169.463829 
L 163.782071 169.606972 
L 164.112378 169.114921 
L 164.442879 168.204909 
L 164.773574 167.834042 
L 165.104465 167.000637 
L 165.43555 166.485365 
L 165.76683 165.315018 
L 166.098305 164.559627 
L 166.429975 164.246043 
L 166.761841 162.244516 
L 167.093903 162.508862 
L 167.42616 161.415804 
L 167.758614 161.944705 
L 168.091263 160.104192 
L 168.424109 159.011199 
L 169.090391 157.792368 
L 169.423828 157.286088 
L 169.757461 157.038588 
L 170.759546 155.948208 
L 171.093969 156.336539 
L 171.428591 155.932973 
L 171.763411 155.897101 
L 172.098429 156.357714 
L 172.433645 157.273782 
L 172.769061 156.541627 
L 173.104675 157.078387 
L 173.440488 156.79193 
L 173.776501 157.589688 
L 174.449125 155.781775 
L 174.785736 157.552732 
L 175.796771 154.427024 
L 176.134183 154.995421 
L 176.471796 155.153116 
L 176.80961 153.95953 
L 177.147625 154.066347 
L 177.824259 154.754977 
L 178.162878 154.254986 
L 178.501699 154.762717 
L 178.840722 156.748837 
L 179.179947 157.160896 
L 180.198836 160.727868 
L 180.538871 160.392562 
L 180.879109 161.432964 
L 181.219551 161.78254 
L 181.560196 161.761693 
L 181.901044 161.242072 
L 182.242096 161.060332 
L 182.583352 160.481857 
L 182.924812 160.322449 
L 183.266476 159.270981 
L 183.608345 159.859196 
L 184.292697 157.264404 
L 184.63518 155.198522 
L 185.320762 153.107558 
L 185.663861 152.363555 
L 186.007166 151.245319 
L 186.350677 149.650188 
L 186.694394 149.783354 
L 187.382446 147.215084 
L 187.726782 147.324536 
L 188.071325 147.273626 
L 188.761032 148.178488 
L 189.106196 149.373955 
L 189.451568 149.943853 
L 189.797147 149.003177 
L 190.142934 150.846234 
L 190.48893 151.084018 
L 191.528165 154.275701 
L 191.874995 153.697733 
L 192.222033 154.85075 
L 192.56928 153.56084 
L 193.264402 153.950908 
L 193.612278 154.315139 
L 193.960363 153.89797 
L 194.308658 154.821623 
L 194.657164 153.835352 
L 195.00588 153.455663 
L 195.354806 152.582708 
L 195.703943 151.149145 
L 196.053291 151.013074 
L 196.752621 150.197879 
L 197.102602 148.631503 
L 197.803201 146.453071 
L 198.153818 147.168614 
L 198.504647 146.641071 
L 198.855689 146.375679 
L 199.55841 148.364218 
L 199.910089 148.545788 
L 200.261982 150.00894 
L 200.614088 148.737373 
L 200.966407 149.151796 
L 201.31894 148.094798 
L 201.671687 148.256793 
L 202.024647 148.888541 
L 202.377822 148.476351 
L 202.731211 147.562134 
L 203.084814 147.867021 
L 203.438632 147.120106 
L 203.792665 146.798396 
L 204.146913 146.816663 
L 204.501376 147.768909 
L 204.856055 146.949197 
L 205.210949 147.219145 
L 205.566058 146.110086 
L 205.921384 146.326457 
L 206.276926 144.997069 
L 206.632684 146.378027 
L 206.988658 146.492742 
L 207.344849 146.336781 
L 207.701257 148.192139 
L 208.057882 148.547291 
L 208.414724 149.88593 
L 208.771783 150.605082 
L 209.12906 149.967732 
L 209.486554 151.541111 
L 209.844267 151.92045 
L 210.202197 151.525945 
L 210.560346 150.604641 
L 210.918713 150.525441 
L 211.277299 150.563789 
L 211.995127 147.094894 
L 212.354369 147.569562 
L 212.713831 146.137057 
L 213.073512 145.340564 
L 213.433413 145.204853 
L 213.793534 144.211663 
L 214.153875 143.685121 
L 214.514436 143.577424 
L 214.875217 142.825746 
L 215.236219 144.394072 
L 215.597442 144.495892 
L 215.958886 144.837768 
L 216.320551 144.576722 
L 216.682437 144.460926 
L 217.044544 144.218671 
L 217.406873 144.714238 
L 217.769424 143.028945 
L 218.132197 143.047153 
L 218.495192 142.762642 
L 218.858409 142.207947 
L 219.221849 142.454785 
L 219.585512 140.952319 
L 219.949398 141.992816 
L 220.313506 140.957257 
L 221.042393 139.748047 
L 221.407172 138.594954 
L 221.772175 138.236805 
L 222.137402 137.657915 
L 222.502852 135.89081 
L 222.868527 133.522097 
L 223.234427 133.426959 
L 223.600551 133.006337 
L 223.9669 133.130764 
L 224.333475 132.671853 
L 224.700274 133.12917 
L 225.067299 132.426088 
L 225.434549 130.508827 
L 226.169727 131.636759 
L 226.537655 131.507407 
L 226.90581 132.394613 
L 227.274191 131.674889 
L 227.642798 130.677889 
L 228.011633 130.69771 
L 228.380694 129.981477 
L 228.749983 130.097704 
L 229.119499 128.813214 
L 229.489242 129.163062 
L 229.859213 127.655348 
L 230.229412 127.630015 
L 230.599839 126.546853 
L 230.970495 127.648892 
L 231.341379 126.932282 
L 231.712491 125.743893 
L 232.455403 127.454113 
L 232.827202 127.620695 
L 233.199231 126.830695 
L 233.571489 127.321358 
L 233.943977 127.186048 
L 234.689643 127.356191 
L 235.062821 127.093058 
L 235.43623 127.531525 
L 235.809869 128.474979 
L 236.183738 128.144679 
L 236.557839 128.571548 
L 236.932171 129.305799 
L 237.306734 128.631243 
L 237.681529 129.20481 
L 238.056556 131.31285 
L 238.431814 130.578691 
L 238.807304 131.796805 
L 239.183026 131.219206 
L 239.558981 131.276876 
L 239.935169 131.177962 
L 240.311589 132.01411 
L 240.688242 130.662572 
L 241.442247 132.172754 
L 241.8196 131.08259 
L 242.197186 131.190575 
L 242.575007 131.661969 
L 242.953061 132.691858 
L 243.331349 133.305613 
L 243.709872 134.751512 
L 244.08863 133.481751 
L 244.846848 134.422469 
L 245.22631 134.256289 
L 245.606008 132.992287 
L 245.98594 133.015707 
L 246.366108 132.381922 
L 246.746512 132.335697 
L 247.127152 130.891309 
L 247.508029 131.82051 
L 247.889141 131.020727 
L 248.652075 131.150847 
L 249.033898 130.377976 
L 249.415957 130.333461 
L 249.798254 129.104341 
L 250.56356 128.294661 
L 250.946569 127.076488 
L 251.329816 127.46901 
L 251.713302 126.761255 
L 252.097026 127.845972 
L 252.480988 128.222201 
L 253.249628 130.710752 
L 254.019225 136.106204 
L 254.404382 137.596526 
L 255.175415 137.523544 
L 255.561291 137.30866 
L 255.947408 136.873865 
L 256.333765 136.906403 
L 256.720362 136.153994 
L 257.494278 134.263406 
L 257.881597 131.994357 
L 259.045004 128.60938 
L 259.433289 128.628965 
L 259.821816 128.464845 
L 260.210585 128.176301 
L 260.599596 129.171388 
L 260.98885 129.852838 
L 261.378346 130.301508 
L 261.768085 129.20398 
L 262.158067 128.845244 
L 262.548292 129.456891 
L 262.938761 129.480488 
L 263.329473 128.357519 
L 264.503071 126.345798 
L 264.894759 125.241417 
L 265.286691 124.666118 
L 266.071289 124.879824 
L 266.463955 123.730046 
L 266.856866 124.36703 
L 267.250023 124.219146 
L 267.643425 124.757083 
L 268.037072 123.232568 
L 268.430966 123.545717 
L 268.825105 122.97141 
L 269.219491 122.027281 
L 269.614123 121.497949 
L 270.009001 121.976679 
L 270.404126 121.698797 
L 270.799498 122.219732 
L 271.195117 123.039067 
L 271.590984 121.796751 
L 271.987097 122.713688 
L 272.383459 124.226603 
L 272.780068 124.629299 
L 273.176925 125.903255 
L 273.971384 126.656756 
L 274.766836 125.090261 
L 275.164936 126.113888 
L 275.563285 125.386078 
L 275.961882 124.93924 
L 276.759826 123.225651 
L 277.159173 121.674205 
L 277.558769 121.226941 
L 277.958616 121.798249 
L 278.358712 119.350064 
L 278.75906 120.683151 
L 279.159658 118.639125 
L 279.560506 118.930287 
L 279.961606 118.459432 
L 280.362957 116.980214 
L 280.764559 116.596987 
L 281.166413 115.957338 
L 281.970876 113.992706 
L 282.373485 112.256999 
L 282.776347 112.896731 
L 283.179461 111.424582 
L 283.582828 111.193328 
L 283.986448 110.352591 
L 284.39032 110.877678 
L 284.794446 110.043844 
L 285.603457 110.841576 
L 286.008344 112.577139 
L 286.413484 113.1766 
L 286.818878 113.114022 
L 287.224526 116.185046 
L 287.630429 115.794855 
L 288.036586 117.834885 
L 288.442998 117.860848 
L 289.256587 120.374076 
L 289.663765 119.234133 
L 290.071198 119.499341 
L 290.478886 119.135346 
L 290.886831 118.583499 
L 291.295031 119.103666 
L 291.703488 118.324216 
L 292.112201 116.90525 
L 292.930396 118.405507 
L 293.33988 117.569903 
L 293.74962 118.285617 
L 294.159617 116.978391 
L 294.569872 116.129893 
L 294.980385 116.253518 
L 295.391155 114.545374 
L 295.802184 114.629659 
L 296.21347 115.381429 
L 296.625015 114.944192 
L 297.036818 114.876725 
L 297.44888 114.339019 
L 297.861201 114.147232 
L 298.273781 114.879566 
L 298.686621 114.957949 
L 299.099719 114.705178 
L 299.513078 115.8322 
L 299.926696 115.717536 
L 300.340574 117.30706 
L 300.754712 117.206125 
L 301.16911 117.96634 
L 301.583769 118.256094 
L 301.998689 119.394736 
L 302.413869 118.112246 
L 302.829311 118.310555 
L 303.245013 117.228897 
L 303.660977 118.014279 
L 304.077203 117.834072 
L 304.91044 117.746949 
L 305.327451 118.351699 
L 305.744725 119.187533 
L 306.162261 118.355032 
L 306.58006 119.733582 
L 306.998121 120.694023 
L 307.416446 120.649335 
L 307.835034 120.310143 
L 309.092378 118.311161 
L 309.51202 117.899886 
L 309.931926 116.823706 
L 310.352097 116.328863 
L 310.772532 113.28183 
L 311.193232 113.001675 
L 311.614196 112.34894 
L 312.035425 112.531099 
L 312.45692 111.663847 
L 312.87868 110.381162 
L 313.300705 109.516031 
L 313.722996 109.241469 
L 314.145553 107.390328 
L 314.568376 108.809985 
L 314.991465 107.354488 
L 315.414821 106.796463 
L 315.838443 108.305474 
L 316.262332 106.778345 
L 316.686487 107.355447 
L 317.11091 108.155414 
L 317.535601 107.384734 
L 317.960558 109.356101 
L 318.385784 109.249286 
L 318.811277 110.183788 
L 319.237038 110.031433 
L 319.663067 109.640204 
L 320.089365 108.046299 
L 320.515931 108.125935 
L 320.942766 108.445903 
L 321.36987 107.099987 
L 321.797243 105.049933 
L 322.224886 104.870252 
L 323.50943 101.731462 
L 323.938151 101.315205 
L 324.367142 100.594146 
L 324.796404 101.005074 
L 325.225936 99.847109 
L 325.655739 100.064532 
L 326.085812 100.67432 
L 326.516157 100.717705 
L 326.946773 101.209158 
L 327.377661 100.736083 
L 327.80882 99.516692 
L 328.24025 99.624625 
L 328.671953 100.017924 
L 329.103928 99.298563 
L 329.536175 99.54983 
L 329.968695 99.404132 
L 330.401487 99.759906 
L 330.834552 98.999904 
L 331.26789 97.820929 
L 331.701502 98.1544 
L 332.135387 97.21572 
L 332.569545 97.415981 
L 333.003977 95.904263 
L 333.438683 93.854841 
L 333.873663 94.728575 
L 334.308917 93.969295 
L 334.744446 93.961375 
L 335.18025 92.479909 
L 335.616328 92.856181 
L 336.052681 92.509055 
L 336.489309 93.11819 
L 336.926213 92.467686 
L 337.800848 93.991697 
L 338.238578 95.009937 
L 338.676585 94.331225 
L 339.114869 95.757016 
L 339.992265 95.368814 
L 340.431378 96.0794 
L 340.870768 96.073903 
L 341.750379 95.644603 
L 342.190601 95.212001 
L 342.631101 96.197449 
L 343.512934 95.940931 
L 343.954268 96.491281 
L 344.39588 95.455954 
L 344.83777 96.039901 
L 345.27994 95.101156 
L 345.722388 96.337601 
L 346.165116 97.236867 
L 346.608123 96.814261 
L 347.051409 97.292474 
L 347.938821 99.27754 
L 348.382946 99.550345 
L 348.827352 99.499321 
L 349.272039 99.726357 
L 349.717006 98.763149 
L 350.162253 99.294867 
L 350.607782 99.290796 
L 351.053591 97.733141 
L 351.499682 98.085205 
L 351.946054 98.218543 
L 352.392708 96.932687 
L 352.839644 97.827564 
L 353.734361 100.664506 
L 354.182144 100.74313 
L 354.630208 103.565286 
L 355.078556 104.84699 
L 355.527186 105.51658 
L 356.425296 111.30581 
L 357.324539 119.646465 
L 358.675533 126.727131 
L 359.126433 126.798379 
L 359.577617 125.639928 
L 360.029086 125.668717 
L 360.480839 124.381551 
L 362.290706 112.034901 
L 362.743886 110.353855 
L 363.197353 109.228064 
L 364.105144 107.550554 
L 364.55947 107.585687 
L 365.46898 105.778353 
L 365.924166 105.771193 
L 366.379639 104.553689 
L 366.835399 102.217718 
L 367.291447 101.416658 
L 368.204406 96.573546 
L 368.661317 97.144515 
L 369.118517 95.039397 
L 369.576005 95.742759 
L 370.033781 95.534254 
L 370.491847 95.660061 
L 370.950201 96.270423 
L 371.408845 96.306559 
L 371.867778 96.841843 
L 372.327 98.698842 
L 372.786512 98.192485 
L 373.246314 101.246723 
L 373.706406 101.564372 
L 374.166788 101.629377 
L 374.627461 99.481501 
L 375.088424 98.319128 
L 376.011223 94.737939 
L 376.473059 93.280827 
L 376.935186 89.696389 
L 377.860315 85.973053 
L 378.323317 83.669408 
L 378.786611 84.08606 
L 379.250197 82.348067 
L 380.178247 83.767278 
L 380.642711 83.456137 
L 381.107468 84.16105 
L 382.037861 82.997484 
L 382.503498 83.088797 
L 382.969428 84.47902 
L 383.435652 84.208803 
L 383.90217 86.422195 
L 384.368982 84.560843 
L 384.836089 85.63458 
L 385.30349 85.271216 
L 385.771186 84.707017 
L 386.707462 85.185407 
L 387.176043 85.360163 
L 387.644919 84.343442 
L 388.114091 86.936274 
L 388.583558 88.047569 
L 389.053322 89.901225 
L 389.523381 91.296881 
L 389.993737 91.904189 
L 390.46439 93.77027 
L 390.935339 95.137237 
L 391.406585 95.451141 
L 392.349968 93.984862 
L 392.822106 90.904669 
L 393.294541 89.277523 
L 394.240304 84.865185 
L 395.18726 82.633815 
L 395.661186 83.22089 
L 396.13541 82.823177 
L 396.609933 82.597946 
L 397.084755 83.751773 
L 397.559876 84.080472 
L 398.035296 85.094603 
L 398.511016 86.619313 
L 398.987036 88.674904 
L 399.463356 88.843246 
L 399.939975 89.710582 
L 400.416895 88.491743 
L 400.894116 88.435483 
L 401.371637 86.890483 
L 401.849458 86.627219 
L 402.327581 85.417013 
L 403.28473 84.126316 
L 403.763756 82.531289 
L 404.722715 80.79498 
L 405.202647 80.835911 
L 406.163418 81.619845 
L 406.644257 81.538564 
L 407.1254 81.031441 
L 407.606845 80.982995 
L 408.088593 82.436374 
L 409.052999 86.586265 
L 409.535657 88.270871 
L 410.01862 87.584288 
L 410.501886 87.808962 
L 410.985457 87.585318 
L 411.469331 86.827142 
L 411.953511 86.753183 
L 412.437995 85.764446 
L 412.922784 85.228047 
L 413.407878 83.454305 
L 413.893277 82.270369 
L 414.378982 81.89961 
L 414.864993 81.845051 
L 415.351309 82.591507 
L 415.837931 82.885195 
L 416.324859 83.708093 
L 416.812094 82.60925 
L 417.299635 83.078625 
L 417.787483 82.736149 
L 418.275638 80.941371 
L 418.764099 81.480217 
L 419.252868 81.041594 
L 419.741945 80.812118 
L 420.231329 80.797535 
L 420.72102 80.015979 
L 421.21102 81.338085 
L 421.701328 83.572508 
L 422.191944 84.96692 
L 422.682868 85.059867 
L 423.174101 88.365581 
L 423.665644 87.657174 
L 424.157495 89.330553 
L 424.649655 89.075158 
L 425.142124 88.397007 
L 425.634904 87.161795 
L 426.621391 85.196099 
L 427.1151 83.950441 
L 428.598089 78.33669 
L 429.09304 77.410891 
L 429.588302 78.048995 
L 430.083876 78.993905 
L 430.57976 78.759256 
L 431.075956 77.783974 
L 432.069284 79.125918 
L 432.566415 80.147478 
L 433.063859 80.388223 
L 433.561616 80.847894 
L 434.558066 83.531422 
L 435.555769 85.120985 
L 436.05509 84.903711 
L 436.554725 85.071625 
L 437.054673 84.483178 
L 437.554935 84.881842 
L 438.556401 84.525263 
L 439.057606 84.759774 
L 439.559126 85.818454 
L 440.06096 84.547035 
L 440.563109 85.770727 
L 441.065573 86.134279 
L 441.568352 87.172802 
L 442.071447 86.945101 
L 442.574857 87.24031 
L 443.078584 86.922915 
L 443.582626 86.318595 
L 445.096651 83.369211 
L 445.601959 83.847417 
L 446.107584 83.189045 
L 446.613526 82.984805 
L 447.119785 81.670379 
L 447.626362 81.684414 
L 448.133256 81.447631 
L 448.640468 80.612345 
L 449.147998 79.505492 
L 450.164013 81.329527 
L 450.672498 81.06037 
L 451.181302 81.534571 
L 451.690425 81.291522 
L 452.199866 82.168129 
L 452.709627 84.1199 
L 453.730107 89.138997 
L 454.240827 90.182457 
L 455.263226 89.990803 
L 455.774906 89.229871 
L 456.286907 87.669779 
L 456.799228 87.451681 
L 457.31187 86.711083 
L 457.824833 84.498216 
L 458.338117 84.570632 
L 458.851722 82.744716 
L 459.365649 83.320115 
L 459.879898 83.08294 
L 460.394469 83.92156 
L 460.909362 82.735654 
L 461.424577 84.140363 
L 462.455974 81.628318 
L 462.972157 80.709447 
L 463.488663 80.99646 
L 464.005492 78.368194 
L 464.522644 78.355377 
L 465.04012 77.86726 
L 465.55792 77.939837 
L 466.076043 79.850075 
L 466.594491 79.682769 
L 467.113263 79.84747 
L 467.632359 81.323819 
L 468.15178 81.194916 
L 468.671525 81.954954 
L 469.711991 84.034714 
L 470.232712 83.540247 
L 470.753759 83.512966 
L 471.275131 84.189255 
L 471.796829 83.148017 
L 472.841203 83.108846 
L 473.36388 84.67338 
L 473.886883 85.191416 
L 474.410213 85.535172 
L 475.457853 86.483726 
L 475.982164 86.645903 
L 476.506803 86.351952 
L 477.031769 85.332886 
L 477.557063 85.444243 
L 478.082685 84.716858 
L 479.134914 80.999772 
L 479.661521 80.541233 
L 480.188457 79.585454 
L 480.715722 77.601612 
L 481.243316 76.389082 
L 481.771239 76.206042 
L 482.299491 75.883014 
L 482.828073 76.576531 
L 484.415799 79.781142 
L 484.945701 78.924163 
L 485.475934 80.429616 
L 486.006498 79.854164 
L 486.537392 80.138225 
L 487.068617 79.706972 
L 487.600174 79.131063 
L 488.132062 79.289975 
L 488.664282 78.313425 
L 489.196833 78.471541 
L 490.262932 76.78692 
L 490.796479 76.678105 
L 491.864572 76.169814 
L 492.399118 74.669144 
L 492.933996 74.985995 
L 494.540632 71.491467 
L 495.076845 70.522637 
L 495.613391 70.196872 
L 496.150271 70.535856 
L 496.687486 70.719282 
L 497.225035 72.195221 
L 497.762919 72.842166 
L 498.301138 73.907005 
L 498.839691 74.660604 
L 499.917804 76.979778 
L 500.457363 76.41944 
L 500.997259 77.025207 
L 501.53749 77.987246 
L 502.078057 76.771114 
L 503.1602 75.071726 
L 503.701777 75.755075 
L 504.24369 75.366919 
L 504.78594 76.502507 
L 505.328527 76.068742 
L 506.414714 76.665686 
L 506.958314 77.631052 
L 507.502251 77.476534 
L 508.046527 77.830921 
L 508.59114 78.660663 
L 509.136093 78.622068 
L 509.681383 78.166818 
L 510.227013 77.949328 
L 510.772981 76.21111 
L 511.865935 76.480952 
L 512.412922 75.481166 
L 512.960247 76.060287 
L 513.507913 75.825972 
L 514.055919 75.089915 
L 514.604264 74.832082 
L 515.152951 73.920943 
L 515.701977 74.880805 
L 516.251345 74.037984 
L 516.801053 74.018164 
L 517.351102 74.507404 
L 517.901493 74.520056 
L 518.452225 75.083311 
L 519.003299 77.459835 
L 520.658571 88.100508 
L 521.211013 90.160147 
L 522.316924 95.792271 
L 522.870394 99.07816 
L 523.424207 99.037144 
L 523.978363 98.752617 
L 524.532862 97.101649 
L 525.642892 90.592665 
L 526.198423 88.605835 
L 526.754298 87.449868 
L 527.310517 85.391569 
L 527.867081 84.768042 
L 528.423989 85.39573 
L 528.981242 87.171356 
L 529.53884 87.424189 
L 530.096784 88.594505 
L 530.655072 89.363789 
L 531.213707 89.619879 
L 532.332012 89.274868 
L 532.891684 88.064715 
L 533.451702 85.119937 
L 534.012067 82.954491 
L 535.133836 80.606541 
L 535.695241 79.911119 
L 536.256993 79.412889 
L 536.819093 78.65206 
L 537.38154 77.077278 
L 538.507477 75.082222 
L 539.070968 75.51888 
L 539.634807 74.993917 
L 540.198994 75.187159 
L 540.76353 75.855058 
L 541.328414 75.732117 
L 541.893648 76.357005 
L 542.459231 76.551699 
L 543.025162 76.032555 
L 543.591444 74.995326 
L 544.158075 75.101513 
L 544.725056 75.048961 
L 545.292387 73.685888 
L 546.4281 72.130291 
L 546.996482 71.858036 
L 547.565215 71.115601 
L 548.134298 69.85781 
L 549.273519 70.315602 
L 549.843657 70.614266 
L 550.984987 71.77034 
L 551.55618 73.524133 
L 552.127725 73.205775 
L 552.699623 73.447569 
L 553.844476 74.893405 
L 554.417431 75.23336 
L 554.99074 75.751079 
L 555.564402 75.313716 
L 556.712786 70.772921 
L 557.287509 69.989278 
L 557.862586 69.537806 
L 558.438017 68.242723 
L 559.589941 66.450759 
L 560.166436 64.417211 
L 560.743285 63.867032 
L 561.320489 64.042264 
L 561.898049 63.275661 
L 562.475963 64.164903 
L 563.054234 65.671413 
L 563.63286 65.351998 
L 564.211842 64.877977 
L 564.79118 66.865573 
L 565.370875 67.051472 
L 565.950926 67.656562 
L 566.531333 67.405794 
L 567.693219 66.053962 
L 568.274698 66.531376 
L 568.856534 66.435298 
L 569.438727 68.576842 
L 570.604187 71.563044 
L 572.355064 77.320139 
L 573.524108 82.916575 
L 574.694587 83.986552 
L 575.280366 83.373929 
L 575.866504 82.934837 
L 577.627078 78.596641 
L 578.214656 75.764107 
L 579.390893 73.110506 
L 579.979553 72.394142 
L 580.568574 72.866443 
L 581.157956 71.429803 
L 581.747699 70.91921 
L 582.337804 70.640935 
L 582.92827 69.551284 
L 583.519098 68.986304 
L 584.110288 67.996001 
L 584.701841 67.235261 
L 585.293755 66.99179 
L 585.886033 65.766535 
L 586.478673 64.946127 
L 587.665042 65.52039 
L 588.258771 67.663832 
L 588.852864 68.491659 
L 590.04214 70.933853 
L 591.232873 70.740824 
L 591.828786 70.926008 
L 592.425063 70.487706 
L 593.021705 68.954384 
L 593.618712 68.303899 
L 594.81382 66.065388 
L 595.411923 64.93908 
L 596.609225 65.32781 
L 597.208425 66.157095 
L 597.807991 66.620172 
L 598.407923 66.940428 
L 599.008222 67.121471 
L 599.608887 67.485232 
L 600.20992 69.0421 
L 600.811319 69.639728 
L 601.413085 71.645105 
L 602.015219 72.335948 
L 603.22059 75.352979 
L 605.031406 78.088869 
L 605.635748 77.708281 
L 606.240459 77.477211 
L 606.845538 76.302511 
L 607.450987 76.169373 
L 608.056804 74.267898 
L 609.269548 71.799631 
L 609.876474 71.72503 
L 610.48377 71.257496 
L 611.091437 71.485531 
L 611.699473 70.693615 
L 612.30788 71.040325 
L 612.916658 70.97287 
L 613.525806 71.549777 
L 614.135325 71.609975 
L 615.355478 70.578486 
L 615.966111 69.1723 
L 617.188493 67.81106 
L 617.800241 66.982866 
L 618.412363 67.070063 
L 619.024856 65.424217 
L 619.637722 64.896832 
L 620.250961 63.93631 
L 620.864573 64.348641 
L 621.478558 64.357781 
L 622.092916 64.626959 
L 622.707648 65.115389 
L 623.322753 66.36924 
L 623.938232 68.167438 
L 624.554085 68.305679 
L 625.170313 70.561741 
L 625.786914 71.23487 
L 626.403891 72.374655 
L 627.021242 72.312906 
L 627.638968 71.330421 
L 628.257069 70.879626 
L 628.875545 69.82473 
L 629.494397 69.418863 
L 630.113624 69.399364 
L 630.733227 67.699757 
L 631.973562 66.94777 
L 632.594293 65.832286 
L 633.215401 66.584755 
L 633.836886 66.869996 
L 634.458748 67.489704 
L 635.080987 67.651385 
L 636.326596 69.833874 
L 636.949967 69.558432 
L 637.573716 69.811166 
L 638.197843 71.449756 
L 638.822348 71.751518 
L 639.447231 73.092233 
L 640.698133 74.290246 
L 641.324152 74.164117 
L 642.577328 76.039379 
L 643.204485 76.138869 
L 643.832021 76.577908 
L 644.459937 76.699434 
L 645.088233 77.266251 
L 646.345966 77.442253 
L 646.975403 78.138003 
L 647.60522 77.547159 
L 648.235419 76.726025 
L 648.865998 76.158065 
L 649.496959 75.118287 
L 650.128301 74.86311 
L 650.760024 74.121657 
L 651.392129 73.927052 
L 652.657485 74.7371 
L 653.290737 73.661633 
L 653.92437 74.202237 
L 654.558387 73.994554 
L 655.192786 74.407534 
L 655.827568 75.68255 
L 656.462733 75.841624 
L 657.098282 76.394205 
L 658.37053 76.820692 
L 659.00723 76.458308 
L 659.644313 76.573605 
L 660.281781 76.286742 
L 660.919634 74.89471 
L 661.55787 74.244278 
L 662.196492 74.559242 
L 662.835499 74.434905 
L 663.47489 74.012707 
L 664.75483 74.356314 
L 665.395378 74.712589 
L 666.036312 74.378 
L 667.961431 76.70557 
L 668.60391 76.252736 
L 669.246776 76.442989 
L 669.890028 75.868215 
L 670.533668 75.053703 
L 671.177695 75.264766 
L 671.82211 76.91917 
L 672.466912 77.63013 
L 673.112102 78.006857 
L 674.403646 77.887889 
L 675.05 77.011495 
L 675.696743 77.516344 
L 676.343874 78.517813 
L 676.991395 78.944007 
L 677.639305 78.504736 
L 678.936291 80.473843 
L 679.585369 81.548608 
L 680.234837 81.761398 
L 682.18558 84.414004 
L 682.836608 84.193255 
L 683.488027 84.42359 
L 684.139837 83.938617 
L 684.792038 83.714355 
L 685.44463 82.310727 
L 686.097614 82.457458 
L 687.404756 81.841544 
L 688.058915 82.036528 
L 688.713466 81.460826 
L 689.368409 81.45733 
L 690.023744 81.249541 
L 690.679473 81.630979 
L 691.335594 81.06074 
L 691.992108 81.161563 
L 692.649015 80.69457 
L 693.306315 80.712751 
L 693.964009 80.320875 
L 695.280579 78.54012 
L 695.939455 77.441858 
L 696.598725 76.841088 
L 697.258389 75.664318 
L 697.918448 74.742026 
L 698.578902 73.479407 
L 699.239751 73.757973 
L 699.900995 70.560528 
L 700.562634 68.66632 
L 701.224669 67.140417 
L 702.549925 62.799742 
L 703.213148 63.129352 
L 704.540781 61.635305 
L 705.205193 59.677348 
L 705.870001 58.362596 
L 706.535206 57.531519 
L 707.200809 56.397156 
L 707.866808 55.50478 
L 709.2 50.966705 
L 709.2 50.966705 
" clip-path="url(#p2b8e45191e)" style="fill: none; stroke: #1f77b4; stroke-width: 1.5; stroke-linecap: square"/>
   </g>
   <g id="patch_3">
    <path d="M 47.72 244.63375 
L 47.72 31.6 
" style="fill: none; stroke: #000000; stroke-width: 0.8; stroke-linejoin: miter; stroke-linecap: square"/>
   </g>
   <g id="patch_4">
    <path d="M 709.2 244.63375 
L 709.2 31.6 
" style="fill: none; stroke: #000000; stroke-width: 0.8; stroke-linejoin: miter; stroke-linecap: square"/>
   </g>
   <g id="patch_5">
    <path d="M 47.72 244.63375 
L 709.2 244.63375 
" style="fill: none; stroke: #000000; stroke-width: 0.8; stroke-linejoin: miter; stroke-linecap: square"/>
   </g>
   <g id="patch_6">
    <path d="M 47.72 31.6 
L 709.2 31.6 
" style="fill: none; stroke: #000000; stroke-width: 0.8; stroke-linejoin: miter; stroke-linecap: square"/>
   </g>
   <g id="text_15">
    <!-- Spectrum of sun (polynomial 3rd degree) -->
    <g transform="translate(233.973438 21.6) scale(0.14 -0.14)">
     <defs>
      <path id="DejaVuSans-53" d="M 3425 4513 
L 3425 3897 
Q 3066 4069 2747 4153 
Q 2428 4238 2131 4238 
Q 1616 4238 1336 4038 
Q 1056 3838 1056 3469 
Q 1056 3159 1242 3001 
Q 1428 2844 1947 2747 
L 2328 2669 
Q 3034 2534 3370 2195 
Q 3706 1856 3706 1288 
Q 3706 609 3251 259 
Q 2797 -91 1919 -91 
Q 1588 -91 1214 -16 
Q 841 59 441 206 
L 441 856 
Q 825 641 1194 531 
Q 1563 422 1919 422 
Q 2459 422 2753 634 
Q 3047 847 3047 1241 
Q 3047 1584 2836 1778 
Q 2625 1972 2144 2069 
L 1759 2144 
Q 1053 2284 737 2584 
Q 422 2884 422 3419 
Q 422 4038 858 4394 
Q 1294 4750 2059 4750 
Q 2388 4750 2728 4690 
Q 3069 4631 3425 4513 
z
" transform="scale(0.015625)"/>
      <path id="DejaVuSans-70" d="M 1159 525 
L 1159 -1331 
L 581 -1331 
L 581 3500 
L 1159 3500 
L 1159 2969 
Q 1341 3281 1617 3432 
Q 1894 3584 2278 3584 
Q 2916 3584 3314 3078 
Q 3713 2572 3713 1747 
Q 3713 922 3314 415 
Q 2916 -91 2278 -91 
Q 1894 -91 1617 61 
Q 1341 213 1159 525 
z
M 3116 1747 
Q 3116 2381 2855 2742 
Q 2594 3103 2138 3103 
Q 1681 3103 1420 2742 
Q 1159 2381 1159 1747 
Q 1159 1113 1420 752 
Q 1681 391 2138 391 
Q 2594 391 2855 752 
Q 3116 1113 3116 1747 
z
" transform="scale(0.015625)"/>
      <path id="DejaVuSans-63" d="M 3122 3366 
L 3122 2828 
Q 2878 2963 2633 3030 
Q 2388 3097 2138 3097 
Q 1578 3097 1268 2742 
Q 959 2388 959 1747 
Q 959 1106 1268 751 
Q 1578 397 2138 397 
Q 2388 397 2633 464 
Q 2878 531 3122 666 
L 3122 134 
Q 2881 22 2623 -34 
Q 2366 -91 2075 -91 
Q 1284 -91 818 406 
Q 353 903 353 1747 
Q 353 2603 823 3093 
Q 1294 3584 2113 3584 
Q 2378 3584 2631 3529 
Q 2884 3475 3122 3366 
z
" transform="scale(0.015625)"/>
      <path id="DejaVuSans-75" d="M 544 1381 
L 544 3500 
L 1119 3500 
L 1119 1403 
Q 1119 906 1312 657 
Q 1506 409 1894 409 
Q 2359 409 2629 706 
Q 2900 1003 2900 1516 
L 2900 3500 
L 3475 3500 
L 3475 0 
L 2900 0 
L 2900 538 
Q 2691 219 2414 64 
Q 2138 -91 1772 -91 
Q 1169 -91 856 284 
Q 544 659 544 1381 
z
M 1991 3584 
L 1991 3584 
z
" transform="scale(0.015625)"/>
      <path id="DejaVuSans-66" d="M 2375 4863 
L 2375 4384 
L 1825 4384 
Q 1516 4384 1395 4259 
Q 1275 4134 1275 3809 
L 1275 3500 
L 2222 3500 
L 2222 3053 
L 1275 3053 
L 1275 0 
L 697 0 
L 697 3053 
L 147 3053 
L 147 3500 
L 697 3500 
L 697 3744 
Q 697 4328 969 4595 
Q 1241 4863 1831 4863 
L 2375 4863 
z
" transform="scale(0.015625)"/>
      <path id="DejaVuSans-33" d="M 2597 2516 
Q 3050 2419 3304 2112 
Q 3559 1806 3559 1356 
Q 3559 666 3084 287 
Q 2609 -91 1734 -91 
Q 1441 -91 1130 -33 
Q 819 25 488 141 
L 488 750 
Q 750 597 1062 519 
Q 1375 441 1716 441 
Q 2309 441 2620 675 
Q 2931 909 2931 1356 
Q 2931 1769 2642 2001 
Q 2353 2234 1838 2234 
L 1294 2234 
L 1294 2753 
L 1863 2753 
Q 2328 2753 2575 2939 
Q 2822 3125 2822 3475 
Q 2822 3834 2567 4026 
Q 2313 4219 1838 4219 
Q 1578 4219 1281 4162 
Q 984 4106 628 3988 
L 628 4550 
Q 988 4650 1302 4700 
Q 1616 4750 1894 4750 
Q 2613 4750 3031 4423 
Q 3450 4097 3450 3541 
Q 3450 3153 3228 2886 
Q 3006 2619 2597 2516 
z
" transform="scale(0.015625)"/>
     </defs>
     <use xlink:href="#DejaVuSans-53"/>
     <use xlink:href="#DejaVuSans-70" x="63.476562"/>
     <use xlink:href="#DejaVuSans-65" x="126.953125"/>
     <use xlink:href="#DejaVuSans-63" x="188.476562"/>
     <use xlink:href="#DejaVuSans-74" x="243.457031"/>
     <use xlink:href="#DejaVuSans-72" x="282.666016"/>
     <use xlink:href="#DejaVuSans-75" x="323.779297"/>
     <use xlink:href="#DejaVuSans-6d" x="387.158203"/>
     <use xlink:href="#DejaVuSans-20" x="484.570312"/>
     <use xlink:href="#DejaVuSans-6f" x="516.357422"/>
     <use xlink:href="#DejaVuSans-66" x="577.539062"/>
     <use xlink:href="#DejaVuSans-20" x="612.744141"/>
     <use xlink:href="#DejaVuSans-73" x="644.53125"/>
     <use xlink:href="#DejaVuSans-75" x="696.630859"/>
     <use xlink:href="#DejaVuSans-6e" x="760.009766"/>
     <use xlink:href="#DejaVuSans-20" x="823.388672"/>
     <use xlink:href="#DejaVuSans-28" x="855.175781"/>
     <use xlink:href="#DejaVuSans-70" x="894.189453"/>
     <use xlink:href="#DejaVuSans-6f" x="957.666016"/>
     <use xlink:href="#DejaVuSans-6c" x="1018.847656"/>
     <use xlink:href="#DejaVuSans-79" x="1046.630859"/>
     <use xlink:href="#DejaVuSans-6e" x="1105.810547"/>
     <use xlink:href="#DejaVuSans-6f" x="1169.189453"/>
     <use xlink:href="#DejaVuSans-6d" x="1230.371094"/>
     <use xlink:href="#DejaVuSans-69" x="1327.783203"/>
     <use xlink:href="#DejaVuSans-61" x="1355.566406"/>
     <use xlink:href="#DejaVuSans-6c" x="1416.845703"/>
     <use xlink:href="#DejaVuSans-20" x="1444.628906"/>
     <use xlink:href="#DejaVuSans-33" x="1476.416016"/>
     <use xlink:href="#DejaVuSans-72" x="1540.039062"/>
     <use xlink:href="#DejaVuSans-64" x="1579.402344"/>
     <use xlink:href="#DejaVuSans-20" x="1642.878906"/>
     <use xlink:href="#DejaVuSans-64" x="1674.666016"/>
     <use xlink:href="#DejaVuSans-65" x="1738.142578"/>
     <use xlink:href="#DejaVuSans-67" x="1799.666016"/>
     <use xlink:href="#DejaVuSans-72" x="1863.142578"/>
     <use xlink:href="#DejaVuSans-65" x="1902.005859"/>
     <use xlink:href="#DejaVuSans-65" x="1963.529297"/>
     <use xlink:href="#DejaVuSans-29" x="2025.052734"/>
    </g>
   </g>
  </g>
 </g>
 <defs>
  <clipPath id="p2b8e45191e">
   <rect x="47.72" y="31.6" width="661.48" height="213.03375"/>
  </clipPath>
 </defs>
</svg>
