<?xml version="1.0" encoding="utf-8" standalone="no"?>
<!DOCTYPE svg PUBLIC "-//W3C//DTD SVG 1.1//EN"
  "http://www.w3.org/Graphics/SVG/1.1/DTD/svg11.dtd">
<svg xmlns:xlink="http://www.w3.org/1999/xlink" width="720pt" height="432pt" viewBox="0 0 720 432" xmlns="http://www.w3.org/2000/svg" version="1.1">
 <metadata>
  <rdf:RDF xmlns:dc="http://purl.org/dc/elements/1.1/" xmlns:cc="http://creativecommons.org/ns#" xmlns:rdf="http://www.w3.org/1999/02/22-rdf-syntax-ns#">
   <cc:Work>
    <dc:type rdf:resource="http://purl.org/dc/dcmitype/StillImage"/>
    <dc:date>2024-12-22T21:58:04.879165</dc:date>
    <dc:format>image/svg+xml</dc:format>
    <dc:creator>
     <cc:Agent>
      <dc:title>Matplotlib v3.9.2, https://matplotlib.org/</dc:title>
     </cc:Agent>
    </dc:creator>
   </cc:Work>
  </rdf:RDF>
 </metadata>
 <defs>
  <style type="text/css">*{stroke-linejoin: round; stroke-linecap: butt}</style>
 </defs>
 <g id="figure_1">
  <g id="patch_1">
   <path d="M 0 432 
L 720 432 
L 720 0 
L 0 0 
z
" style="fill: #ffffff"/>
  </g>
  <g id="axes_1">
   <g id="patch_2">
    <path d="M 62.3 388.63375 
L 709.2 388.63375 
L 709.2 31.96 
L 62.3 31.96 
z
" style="fill: #ffffff"/>
   </g>
   <g id="matplotlib.axis_1">
    <g id="xtick_1">
     <g id="line2d_1">
      <path d="M 126.381451 388.63375 
L 126.381451 31.96 
" clip-path="url(#p0310ad097a)" style="fill: none; stroke: #b0b0b0; stroke-width: 0.8; stroke-linecap: square"/>
     </g>
     <g id="line2d_2">
      <defs>
       <path id="m621ed26808" d="M 0 0 
L 0 3.5 
" style="stroke: #000000; stroke-width: 0.8"/>
      </defs>
      <g>
       <use xlink:href="#m621ed26808" x="126.381451" y="388.63375" style="stroke: #000000; stroke-width: 0.8"/>
      </g>
     </g>
     <g id="text_1">
      <!-- 4400 -->
      <g transform="translate(113.656451 403.232188) scale(0.1 -0.1)">
       <defs>
        <path id="DejaVuSans-34" d="M 2419 4116 
L 825 1625 
L 2419 1625 
L 2419 4116 
z
M 2253 4666 
L 3047 4666 
L 3047 1625 
L 3713 1625 
L 3713 1100 
L 3047 1100 
L 3047 0 
L 2419 0 
L 2419 1100 
L 313 1100 
L 313 1709 
L 2253 4666 
z
" transform="scale(0.015625)"/>
        <path id="DejaVuSans-30" d="M 2034 4250 
Q 1547 4250 1301 3770 
Q 1056 3291 1056 2328 
Q 1056 1369 1301 889 
Q 1547 409 2034 409 
Q 2525 409 2770 889 
Q 3016 1369 3016 2328 
Q 3016 3291 2770 3770 
Q 2525 4250 2034 4250 
z
M 2034 4750 
Q 2819 4750 3233 4129 
Q 3647 3509 3647 2328 
Q 3647 1150 3233 529 
Q 2819 -91 2034 -91 
Q 1250 -91 836 529 
Q 422 1150 422 2328 
Q 422 3509 836 4129 
Q 1250 4750 2034 4750 
z
" transform="scale(0.015625)"/>
       </defs>
       <use xlink:href="#DejaVuSans-34"/>
       <use xlink:href="#DejaVuSans-34" x="63.623047"/>
       <use xlink:href="#DejaVuSans-30" x="127.246094"/>
       <use xlink:href="#DejaVuSans-30" x="190.869141"/>
      </g>
     </g>
    </g>
    <g id="xtick_2">
     <g id="line2d_3">
      <path d="M 230.843736 388.63375 
L 230.843736 31.96 
" clip-path="url(#p0310ad097a)" style="fill: none; stroke: #b0b0b0; stroke-width: 0.8; stroke-linecap: square"/>
     </g>
     <g id="line2d_4">
      <g>
       <use xlink:href="#m621ed26808" x="230.843736" y="388.63375" style="stroke: #000000; stroke-width: 0.8"/>
      </g>
     </g>
     <g id="text_2">
      <!-- 4600 -->
      <g transform="translate(218.118736 403.232188) scale(0.1 -0.1)">
       <defs>
        <path id="DejaVuSans-36" d="M 2113 2584 
Q 1688 2584 1439 2293 
Q 1191 2003 1191 1497 
Q 1191 994 1439 701 
Q 1688 409 2113 409 
Q 2538 409 2786 701 
Q 3034 994 3034 1497 
Q 3034 2003 2786 2293 
Q 2538 2584 2113 2584 
z
M 3366 4563 
L 3366 3988 
Q 3128 4100 2886 4159 
Q 2644 4219 2406 4219 
Q 1781 4219 1451 3797 
Q 1122 3375 1075 2522 
Q 1259 2794 1537 2939 
Q 1816 3084 2150 3084 
Q 2853 3084 3261 2657 
Q 3669 2231 3669 1497 
Q 3669 778 3244 343 
Q 2819 -91 2113 -91 
Q 1303 -91 875 529 
Q 447 1150 447 2328 
Q 447 3434 972 4092 
Q 1497 4750 2381 4750 
Q 2619 4750 2861 4703 
Q 3103 4656 3366 4563 
z
" transform="scale(0.015625)"/>
       </defs>
       <use xlink:href="#DejaVuSans-34"/>
       <use xlink:href="#DejaVuSans-36" x="63.623047"/>
       <use xlink:href="#DejaVuSans-30" x="127.246094"/>
       <use xlink:href="#DejaVuSans-30" x="190.869141"/>
      </g>
     </g>
    </g>
    <g id="xtick_3">
     <g id="line2d_5">
      <path d="M 335.306021 388.63375 
L 335.306021 31.96 
" clip-path="url(#p0310ad097a)" style="fill: none; stroke: #b0b0b0; stroke-width: 0.8; stroke-linecap: square"/>
     </g>
     <g id="line2d_6">
      <g>
       <use xlink:href="#m621ed26808" x="335.306021" y="388.63375" style="stroke: #000000; stroke-width: 0.8"/>
      </g>
     </g>
     <g id="text_3">
      <!-- 4800 -->
      <g transform="translate(322.581021 403.232188) scale(0.1 -0.1)">
       <defs>
        <path id="DejaVuSans-38" d="M 2034 2216 
Q 1584 2216 1326 1975 
Q 1069 1734 1069 1313 
Q 1069 891 1326 650 
Q 1584 409 2034 409 
Q 2484 409 2743 651 
Q 3003 894 3003 1313 
Q 3003 1734 2745 1975 
Q 2488 2216 2034 2216 
z
M 1403 2484 
Q 997 2584 770 2862 
Q 544 3141 544 3541 
Q 544 4100 942 4425 
Q 1341 4750 2034 4750 
Q 2731 4750 3128 4425 
Q 3525 4100 3525 3541 
Q 3525 3141 3298 2862 
Q 3072 2584 2669 2484 
Q 3125 2378 3379 2068 
Q 3634 1759 3634 1313 
Q 3634 634 3220 271 
Q 2806 -91 2034 -91 
Q 1263 -91 848 271 
Q 434 634 434 1313 
Q 434 1759 690 2068 
Q 947 2378 1403 2484 
z
M 1172 3481 
Q 1172 3119 1398 2916 
Q 1625 2713 2034 2713 
Q 2441 2713 2670 2916 
Q 2900 3119 2900 3481 
Q 2900 3844 2670 4047 
Q 2441 4250 2034 4250 
Q 1625 4250 1398 4047 
Q 1172 3844 1172 3481 
z
" transform="scale(0.015625)"/>
       </defs>
       <use xlink:href="#DejaVuSans-34"/>
       <use xlink:href="#DejaVuSans-38" x="63.623047"/>
       <use xlink:href="#DejaVuSans-30" x="127.246094"/>
       <use xlink:href="#DejaVuSans-30" x="190.869141"/>
      </g>
     </g>
    </g>
    <g id="xtick_4">
     <g id="line2d_7">
      <path d="M 439.768305 388.63375 
L 439.768305 31.96 
" clip-path="url(#p0310ad097a)" style="fill: none; stroke: #b0b0b0; stroke-width: 0.8; stroke-linecap: square"/>
     </g>
     <g id="line2d_8">
      <g>
       <use xlink:href="#m621ed26808" x="439.768305" y="388.63375" style="stroke: #000000; stroke-width: 0.8"/>
      </g>
     </g>
     <g id="text_4">
      <!-- 5000 -->
      <g transform="translate(427.043305 403.232188) scale(0.1 -0.1)">
       <defs>
        <path id="DejaVuSans-35" d="M 691 4666 
L 3169 4666 
L 3169 4134 
L 1269 4134 
L 1269 2991 
Q 1406 3038 1543 3061 
Q 1681 3084 1819 3084 
Q 2600 3084 3056 2656 
Q 3513 2228 3513 1497 
Q 3513 744 3044 326 
Q 2575 -91 1722 -91 
Q 1428 -91 1123 -41 
Q 819 9 494 109 
L 494 744 
Q 775 591 1075 516 
Q 1375 441 1709 441 
Q 2250 441 2565 725 
Q 2881 1009 2881 1497 
Q 2881 1984 2565 2268 
Q 2250 2553 1709 2553 
Q 1456 2553 1204 2497 
Q 953 2441 691 2322 
L 691 4666 
z
" transform="scale(0.015625)"/>
       </defs>
       <use xlink:href="#DejaVuSans-35"/>
       <use xlink:href="#DejaVuSans-30" x="63.623047"/>
       <use xlink:href="#DejaVuSans-30" x="127.246094"/>
       <use xlink:href="#DejaVuSans-30" x="190.869141"/>
      </g>
     </g>
    </g>
    <g id="xtick_5">
     <g id="line2d_9">
      <path d="M 544.23059 388.63375 
L 544.23059 31.96 
" clip-path="url(#p0310ad097a)" style="fill: none; stroke: #b0b0b0; stroke-width: 0.8; stroke-linecap: square"/>
     </g>
     <g id="line2d_10">
      <g>
       <use xlink:href="#m621ed26808" x="544.23059" y="388.63375" style="stroke: #000000; stroke-width: 0.8"/>
      </g>
     </g>
     <g id="text_5">
      <!-- 5200 -->
      <g transform="translate(531.50559 403.232188) scale(0.1 -0.1)">
       <defs>
        <path id="DejaVuSans-32" d="M 1228 531 
L 3431 531 
L 3431 0 
L 469 0 
L 469 531 
Q 828 903 1448 1529 
Q 2069 2156 2228 2338 
Q 2531 2678 2651 2914 
Q 2772 3150 2772 3378 
Q 2772 3750 2511 3984 
Q 2250 4219 1831 4219 
Q 1534 4219 1204 4116 
Q 875 4013 500 3803 
L 500 4441 
Q 881 4594 1212 4672 
Q 1544 4750 1819 4750 
Q 2544 4750 2975 4387 
Q 3406 4025 3406 3419 
Q 3406 3131 3298 2873 
Q 3191 2616 2906 2266 
Q 2828 2175 2409 1742 
Q 1991 1309 1228 531 
z
" transform="scale(0.015625)"/>
       </defs>
       <use xlink:href="#DejaVuSans-35"/>
       <use xlink:href="#DejaVuSans-32" x="63.623047"/>
       <use xlink:href="#DejaVuSans-30" x="127.246094"/>
       <use xlink:href="#DejaVuSans-30" x="190.869141"/>
      </g>
     </g>
    </g>
    <g id="xtick_6">
     <g id="line2d_11">
      <path d="M 648.692875 388.63375 
L 648.692875 31.96 
" clip-path="url(#p0310ad097a)" style="fill: none; stroke: #b0b0b0; stroke-width: 0.8; stroke-linecap: square"/>
     </g>
     <g id="line2d_12">
      <g>
       <use xlink:href="#m621ed26808" x="648.692875" y="388.63375" style="stroke: #000000; stroke-width: 0.8"/>
      </g>
     </g>
     <g id="text_6">
      <!-- 5400 -->
      <g transform="translate(635.967875 403.232188) scale(0.1 -0.1)">
       <use xlink:href="#DejaVuSans-35"/>
       <use xlink:href="#DejaVuSans-34" x="63.623047"/>
       <use xlink:href="#DejaVuSans-30" x="127.246094"/>
       <use xlink:href="#DejaVuSans-30" x="190.869141"/>
      </g>
     </g>
    </g>
    <g id="text_7">
     <!-- Wavelength (Å) -->
     <g transform="translate(347.176562 418.594688) scale(0.1 -0.1)">
      <defs>
       <path id="DejaVuSans-57" d="M 213 4666 
L 850 4666 
L 1831 722 
L 2809 4666 
L 3519 4666 
L 4500 722 
L 5478 4666 
L 6119 4666 
L 4947 0 
L 4153 0 
L 3169 4050 
L 2175 0 
L 1381 0 
L 213 4666 
z
" transform="scale(0.015625)"/>
       <path id="DejaVuSans-61" d="M 2194 1759 
Q 1497 1759 1228 1600 
Q 959 1441 959 1056 
Q 959 750 1161 570 
Q 1363 391 1709 391 
Q 2188 391 2477 730 
Q 2766 1069 2766 1631 
L 2766 1759 
L 2194 1759 
z
M 3341 1997 
L 3341 0 
L 2766 0 
L 2766 531 
Q 2569 213 2275 61 
Q 1981 -91 1556 -91 
Q 1019 -91 701 211 
Q 384 513 384 1019 
Q 384 1609 779 1909 
Q 1175 2209 1959 2209 
L 2766 2209 
L 2766 2266 
Q 2766 2663 2505 2880 
Q 2244 3097 1772 3097 
Q 1472 3097 1187 3025 
Q 903 2953 641 2809 
L 641 3341 
Q 956 3463 1253 3523 
Q 1550 3584 1831 3584 
Q 2591 3584 2966 3190 
Q 3341 2797 3341 1997 
z
" transform="scale(0.015625)"/>
       <path id="DejaVuSans-76" d="M 191 3500 
L 800 3500 
L 1894 563 
L 2988 3500 
L 3597 3500 
L 2284 0 
L 1503 0 
L 191 3500 
z
" transform="scale(0.015625)"/>
       <path id="DejaVuSans-65" d="M 3597 1894 
L 3597 1613 
L 953 1613 
Q 991 1019 1311 708 
Q 1631 397 2203 397 
Q 2534 397 2845 478 
Q 3156 559 3463 722 
L 3463 178 
Q 3153 47 2828 -22 
Q 2503 -91 2169 -91 
Q 1331 -91 842 396 
Q 353 884 353 1716 
Q 353 2575 817 3079 
Q 1281 3584 2069 3584 
Q 2775 3584 3186 3129 
Q 3597 2675 3597 1894 
z
M 3022 2063 
Q 3016 2534 2758 2815 
Q 2500 3097 2075 3097 
Q 1594 3097 1305 2825 
Q 1016 2553 972 2059 
L 3022 2063 
z
" transform="scale(0.015625)"/>
       <path id="DejaVuSans-6c" d="M 603 4863 
L 1178 4863 
L 1178 0 
L 603 0 
L 603 4863 
z
" transform="scale(0.015625)"/>
       <path id="DejaVuSans-6e" d="M 3513 2113 
L 3513 0 
L 2938 0 
L 2938 2094 
Q 2938 2591 2744 2837 
Q 2550 3084 2163 3084 
Q 1697 3084 1428 2787 
Q 1159 2491 1159 1978 
L 1159 0 
L 581 0 
L 581 3500 
L 1159 3500 
L 1159 2956 
Q 1366 3272 1645 3428 
Q 1925 3584 2291 3584 
Q 2894 3584 3203 3211 
Q 3513 2838 3513 2113 
z
" transform="scale(0.015625)"/>
       <path id="DejaVuSans-67" d="M 2906 1791 
Q 2906 2416 2648 2759 
Q 2391 3103 1925 3103 
Q 1463 3103 1205 2759 
Q 947 2416 947 1791 
Q 947 1169 1205 825 
Q 1463 481 1925 481 
Q 2391 481 2648 825 
Q 2906 1169 2906 1791 
z
M 3481 434 
Q 3481 -459 3084 -895 
Q 2688 -1331 1869 -1331 
Q 1566 -1331 1297 -1286 
Q 1028 -1241 775 -1147 
L 775 -588 
Q 1028 -725 1275 -790 
Q 1522 -856 1778 -856 
Q 2344 -856 2625 -561 
Q 2906 -266 2906 331 
L 2906 616 
Q 2728 306 2450 153 
Q 2172 0 1784 0 
Q 1141 0 747 490 
Q 353 981 353 1791 
Q 353 2603 747 3093 
Q 1141 3584 1784 3584 
Q 2172 3584 2450 3431 
Q 2728 3278 2906 2969 
L 2906 3500 
L 3481 3500 
L 3481 434 
z
" transform="scale(0.015625)"/>
       <path id="DejaVuSans-74" d="M 1172 4494 
L 1172 3500 
L 2356 3500 
L 2356 3053 
L 1172 3053 
L 1172 1153 
Q 1172 725 1289 603 
Q 1406 481 1766 481 
L 2356 481 
L 2356 0 
L 1766 0 
Q 1100 0 847 248 
Q 594 497 594 1153 
L 594 3053 
L 172 3053 
L 172 3500 
L 594 3500 
L 594 4494 
L 1172 4494 
z
" transform="scale(0.015625)"/>
       <path id="DejaVuSans-68" d="M 3513 2113 
L 3513 0 
L 2938 0 
L 2938 2094 
Q 2938 2591 2744 2837 
Q 2550 3084 2163 3084 
Q 1697 3084 1428 2787 
Q 1159 2491 1159 1978 
L 1159 0 
L 581 0 
L 581 4863 
L 1159 4863 
L 1159 2956 
Q 1366 3272 1645 3428 
Q 1925 3584 2291 3584 
Q 2894 3584 3203 3211 
Q 3513 2838 3513 2113 
z
" transform="scale(0.015625)"/>
       <path id="DejaVuSans-20" transform="scale(0.015625)"/>
       <path id="DejaVuSans-28" d="M 1984 4856 
Q 1566 4138 1362 3434 
Q 1159 2731 1159 2009 
Q 1159 1288 1364 580 
Q 1569 -128 1984 -844 
L 1484 -844 
Q 1016 -109 783 600 
Q 550 1309 550 2009 
Q 550 2706 781 3412 
Q 1013 4119 1484 4856 
L 1984 4856 
z
" transform="scale(0.015625)"/>
       <path id="DejaVuSans-c5" d="M 2663 5081 
Q 2663 5278 2523 5417 
Q 2384 5556 2188 5556 
Q 1988 5556 1852 5420 
Q 1716 5284 1716 5081 
Q 1716 4884 1853 4746 
Q 1991 4609 2188 4609 
Q 2384 4609 2523 4746 
Q 2663 4884 2663 5081 
z
M 2188 4044 
L 1338 1722 
L 3041 1722 
L 2188 4044 
z
M 1716 4366 
Q 1525 4494 1428 4673 
Q 1331 4853 1331 5081 
Q 1331 5441 1579 5691 
Q 1828 5941 2188 5941 
Q 2544 5941 2795 5689 
Q 3047 5438 3047 5081 
Q 3047 4863 2948 4678 
Q 2850 4494 2663 4366 
L 4325 0 
L 3669 0 
L 3244 1197 
L 1141 1197 
L 716 0 
L 50 0 
L 1716 4366 
z
" transform="scale(0.015625)"/>
       <path id="DejaVuSans-29" d="M 513 4856 
L 1013 4856 
Q 1481 4119 1714 3412 
Q 1947 2706 1947 2009 
Q 1947 1309 1714 600 
Q 1481 -109 1013 -844 
L 513 -844 
Q 928 -128 1133 580 
Q 1338 1288 1338 2009 
Q 1338 2731 1133 3434 
Q 928 4138 513 4856 
z
" transform="scale(0.015625)"/>
      </defs>
      <use xlink:href="#DejaVuSans-57"/>
      <use xlink:href="#DejaVuSans-61" x="92.501953"/>
      <use xlink:href="#DejaVuSans-76" x="153.78125"/>
      <use xlink:href="#DejaVuSans-65" x="212.960938"/>
      <use xlink:href="#DejaVuSans-6c" x="274.484375"/>
      <use xlink:href="#DejaVuSans-65" x="302.267578"/>
      <use xlink:href="#DejaVuSans-6e" x="363.791016"/>
      <use xlink:href="#DejaVuSans-67" x="427.169922"/>
      <use xlink:href="#DejaVuSans-74" x="490.646484"/>
      <use xlink:href="#DejaVuSans-68" x="529.855469"/>
      <use xlink:href="#DejaVuSans-20" x="593.234375"/>
      <use xlink:href="#DejaVuSans-28" x="625.021484"/>
      <use xlink:href="#DejaVuSans-c5" x="664.035156"/>
      <use xlink:href="#DejaVuSans-29" x="732.443359"/>
     </g>
    </g>
   </g>
   <g id="matplotlib.axis_2">
    <g id="ytick_1">
     <g id="line2d_13">
      <path d="M 62.3 388.63375 
L 709.2 388.63375 
" clip-path="url(#p0310ad097a)" style="fill: none; stroke: #b0b0b0; stroke-width: 0.8; stroke-linecap: square"/>
     </g>
     <g id="line2d_14">
      <defs>
       <path id="m5f67ca77f0" d="M 0 0 
L -3.5 0 
" style="stroke: #000000; stroke-width: 0.8"/>
      </defs>
      <g>
       <use xlink:href="#m5f67ca77f0" x="62.3" y="388.63375" style="stroke: #000000; stroke-width: 0.8"/>
      </g>
     </g>
     <g id="text_8">
      <!-- −0.50 -->
      <g transform="translate(24.654688 392.432969) scale(0.1 -0.1)">
       <defs>
        <path id="DejaVuSans-2212" d="M 678 2272 
L 4684 2272 
L 4684 1741 
L 678 1741 
L 678 2272 
z
" transform="scale(0.015625)"/>
        <path id="DejaVuSans-2e" d="M 684 794 
L 1344 794 
L 1344 0 
L 684 0 
L 684 794 
z
" transform="scale(0.015625)"/>
       </defs>
       <use xlink:href="#DejaVuSans-2212"/>
       <use xlink:href="#DejaVuSans-30" x="83.789062"/>
       <use xlink:href="#DejaVuSans-2e" x="147.412109"/>
       <use xlink:href="#DejaVuSans-35" x="179.199219"/>
       <use xlink:href="#DejaVuSans-30" x="242.822266"/>
      </g>
     </g>
    </g>
    <g id="ytick_2">
     <g id="line2d_15">
      <path d="M 62.3 344.049531 
L 709.2 344.049531 
" clip-path="url(#p0310ad097a)" style="fill: none; stroke: #b0b0b0; stroke-width: 0.8; stroke-linecap: square"/>
     </g>
     <g id="line2d_16">
      <g>
       <use xlink:href="#m5f67ca77f0" x="62.3" y="344.049531" style="stroke: #000000; stroke-width: 0.8"/>
      </g>
     </g>
     <g id="text_9">
      <!-- −0.25 -->
      <g transform="translate(24.654688 347.84875) scale(0.1 -0.1)">
       <use xlink:href="#DejaVuSans-2212"/>
       <use xlink:href="#DejaVuSans-30" x="83.789062"/>
       <use xlink:href="#DejaVuSans-2e" x="147.412109"/>
       <use xlink:href="#DejaVuSans-32" x="179.199219"/>
       <use xlink:href="#DejaVuSans-35" x="242.822266"/>
      </g>
     </g>
    </g>
    <g id="ytick_3">
     <g id="line2d_17">
      <path d="M 62.3 299.465313 
L 709.2 299.465313 
" clip-path="url(#p0310ad097a)" style="fill: none; stroke: #b0b0b0; stroke-width: 0.8; stroke-linecap: square"/>
     </g>
     <g id="line2d_18">
      <g>
       <use xlink:href="#m5f67ca77f0" x="62.3" y="299.465313" style="stroke: #000000; stroke-width: 0.8"/>
      </g>
     </g>
     <g id="text_10">
      <!-- 0.00 -->
      <g transform="translate(33.034375 303.264531) scale(0.1 -0.1)">
       <use xlink:href="#DejaVuSans-30"/>
       <use xlink:href="#DejaVuSans-2e" x="63.623047"/>
       <use xlink:href="#DejaVuSans-30" x="95.410156"/>
       <use xlink:href="#DejaVuSans-30" x="159.033203"/>
      </g>
     </g>
    </g>
    <g id="ytick_4">
     <g id="line2d_19">
      <path d="M 62.3 254.881094 
L 709.2 254.881094 
" clip-path="url(#p0310ad097a)" style="fill: none; stroke: #b0b0b0; stroke-width: 0.8; stroke-linecap: square"/>
     </g>
     <g id="line2d_20">
      <g>
       <use xlink:href="#m5f67ca77f0" x="62.3" y="254.881094" style="stroke: #000000; stroke-width: 0.8"/>
      </g>
     </g>
     <g id="text_11">
      <!-- 0.25 -->
      <g transform="translate(33.034375 258.680313) scale(0.1 -0.1)">
       <use xlink:href="#DejaVuSans-30"/>
       <use xlink:href="#DejaVuSans-2e" x="63.623047"/>
       <use xlink:href="#DejaVuSans-32" x="95.410156"/>
       <use xlink:href="#DejaVuSans-35" x="159.033203"/>
      </g>
     </g>
    </g>
    <g id="ytick_5">
     <g id="line2d_21">
      <path d="M 62.3 210.296875 
L 709.2 210.296875 
" clip-path="url(#p0310ad097a)" style="fill: none; stroke: #b0b0b0; stroke-width: 0.8; stroke-linecap: square"/>
     </g>
     <g id="line2d_22">
      <g>
       <use xlink:href="#m5f67ca77f0" x="62.3" y="210.296875" style="stroke: #000000; stroke-width: 0.8"/>
      </g>
     </g>
     <g id="text_12">
      <!-- 0.50 -->
      <g transform="translate(33.034375 214.096094) scale(0.1 -0.1)">
       <use xlink:href="#DejaVuSans-30"/>
       <use xlink:href="#DejaVuSans-2e" x="63.623047"/>
       <use xlink:href="#DejaVuSans-35" x="95.410156"/>
       <use xlink:href="#DejaVuSans-30" x="159.033203"/>
      </g>
     </g>
    </g>
    <g id="ytick_6">
     <g id="line2d_23">
      <path d="M 62.3 165.712656 
L 709.2 165.712656 
" clip-path="url(#p0310ad097a)" style="fill: none; stroke: #b0b0b0; stroke-width: 0.8; stroke-linecap: square"/>
     </g>
     <g id="line2d_24">
      <g>
       <use xlink:href="#m5f67ca77f0" x="62.3" y="165.712656" style="stroke: #000000; stroke-width: 0.8"/>
      </g>
     </g>
     <g id="text_13">
      <!-- 0.75 -->
      <g transform="translate(33.034375 169.511875) scale(0.1 -0.1)">
       <defs>
        <path id="DejaVuSans-37" d="M 525 4666 
L 3525 4666 
L 3525 4397 
L 1831 0 
L 1172 0 
L 2766 4134 
L 525 4134 
L 525 4666 
z
" transform="scale(0.015625)"/>
       </defs>
       <use xlink:href="#DejaVuSans-30"/>
       <use xlink:href="#DejaVuSans-2e" x="63.623047"/>
       <use xlink:href="#DejaVuSans-37" x="95.410156"/>
       <use xlink:href="#DejaVuSans-35" x="159.033203"/>
      </g>
     </g>
    </g>
    <g id="ytick_7">
     <g id="line2d_25">
      <path d="M 62.3 121.128438 
L 709.2 121.128438 
" clip-path="url(#p0310ad097a)" style="fill: none; stroke: #b0b0b0; stroke-width: 0.8; stroke-linecap: square"/>
     </g>
     <g id="line2d_26">
      <g>
       <use xlink:href="#m5f67ca77f0" x="62.3" y="121.128438" style="stroke: #000000; stroke-width: 0.8"/>
      </g>
     </g>
     <g id="text_14">
      <!-- 1.00 -->
      <g transform="translate(33.034375 124.927656) scale(0.1 -0.1)">
       <defs>
        <path id="DejaVuSans-31" d="M 794 531 
L 1825 531 
L 1825 4091 
L 703 3866 
L 703 4441 
L 1819 4666 
L 2450 4666 
L 2450 531 
L 3481 531 
L 3481 0 
L 794 0 
L 794 531 
z
" transform="scale(0.015625)"/>
       </defs>
       <use xlink:href="#DejaVuSans-31"/>
       <use xlink:href="#DejaVuSans-2e" x="63.623047"/>
       <use xlink:href="#DejaVuSans-30" x="95.410156"/>
       <use xlink:href="#DejaVuSans-30" x="159.033203"/>
      </g>
     </g>
    </g>
    <g id="ytick_8">
     <g id="line2d_27">
      <path d="M 62.3 76.544219 
L 709.2 76.544219 
" clip-path="url(#p0310ad097a)" style="fill: none; stroke: #b0b0b0; stroke-width: 0.8; stroke-linecap: square"/>
     </g>
     <g id="line2d_28">
      <g>
       <use xlink:href="#m5f67ca77f0" x="62.3" y="76.544219" style="stroke: #000000; stroke-width: 0.8"/>
      </g>
     </g>
     <g id="text_15">
      <!-- 1.25 -->
      <g transform="translate(33.034375 80.343438) scale(0.1 -0.1)">
       <use xlink:href="#DejaVuSans-31"/>
       <use xlink:href="#DejaVuSans-2e" x="63.623047"/>
       <use xlink:href="#DejaVuSans-32" x="95.410156"/>
       <use xlink:href="#DejaVuSans-35" x="159.033203"/>
      </g>
     </g>
    </g>
    <g id="ytick_9">
     <g id="line2d_29">
      <path d="M 62.3 31.96 
L 709.2 31.96 
" clip-path="url(#p0310ad097a)" style="fill: none; stroke: #b0b0b0; stroke-width: 0.8; stroke-linecap: square"/>
     </g>
     <g id="line2d_30">
      <g>
       <use xlink:href="#m5f67ca77f0" x="62.3" y="31.96" style="stroke: #000000; stroke-width: 0.8"/>
      </g>
     </g>
     <g id="text_16">
      <!-- 1.50 -->
      <g transform="translate(33.034375 35.759219) scale(0.1 -0.1)">
       <use xlink:href="#DejaVuSans-31"/>
       <use xlink:href="#DejaVuSans-2e" x="63.623047"/>
       <use xlink:href="#DejaVuSans-35" x="95.410156"/>
       <use xlink:href="#DejaVuSans-30" x="159.033203"/>
      </g>
     </g>
    </g>
    <g id="text_17">
     <!-- Intensity (normalized) -->
     <g transform="translate(18.575 265.333594) rotate(-90) scale(0.1 -0.1)">
      <defs>
       <path id="DejaVuSans-49" d="M 628 4666 
L 1259 4666 
L 1259 0 
L 628 0 
L 628 4666 
z
" transform="scale(0.015625)"/>
       <path id="DejaVuSans-73" d="M 2834 3397 
L 2834 2853 
Q 2591 2978 2328 3040 
Q 2066 3103 1784 3103 
Q 1356 3103 1142 2972 
Q 928 2841 928 2578 
Q 928 2378 1081 2264 
Q 1234 2150 1697 2047 
L 1894 2003 
Q 2506 1872 2764 1633 
Q 3022 1394 3022 966 
Q 3022 478 2636 193 
Q 2250 -91 1575 -91 
Q 1294 -91 989 -36 
Q 684 19 347 128 
L 347 722 
Q 666 556 975 473 
Q 1284 391 1588 391 
Q 1994 391 2212 530 
Q 2431 669 2431 922 
Q 2431 1156 2273 1281 
Q 2116 1406 1581 1522 
L 1381 1569 
Q 847 1681 609 1914 
Q 372 2147 372 2553 
Q 372 3047 722 3315 
Q 1072 3584 1716 3584 
Q 2034 3584 2315 3537 
Q 2597 3491 2834 3397 
z
" transform="scale(0.015625)"/>
       <path id="DejaVuSans-69" d="M 603 3500 
L 1178 3500 
L 1178 0 
L 603 0 
L 603 3500 
z
M 603 4863 
L 1178 4863 
L 1178 4134 
L 603 4134 
L 603 4863 
z
" transform="scale(0.015625)"/>
       <path id="DejaVuSans-79" d="M 2059 -325 
Q 1816 -950 1584 -1140 
Q 1353 -1331 966 -1331 
L 506 -1331 
L 506 -850 
L 844 -850 
Q 1081 -850 1212 -737 
Q 1344 -625 1503 -206 
L 1606 56 
L 191 3500 
L 800 3500 
L 1894 763 
L 2988 3500 
L 3597 3500 
L 2059 -325 
z
" transform="scale(0.015625)"/>
       <path id="DejaVuSans-6f" d="M 1959 3097 
Q 1497 3097 1228 2736 
Q 959 2375 959 1747 
Q 959 1119 1226 758 
Q 1494 397 1959 397 
Q 2419 397 2687 759 
Q 2956 1122 2956 1747 
Q 2956 2369 2687 2733 
Q 2419 3097 1959 3097 
z
M 1959 3584 
Q 2709 3584 3137 3096 
Q 3566 2609 3566 1747 
Q 3566 888 3137 398 
Q 2709 -91 1959 -91 
Q 1206 -91 779 398 
Q 353 888 353 1747 
Q 353 2609 779 3096 
Q 1206 3584 1959 3584 
z
" transform="scale(0.015625)"/>
       <path id="DejaVuSans-72" d="M 2631 2963 
Q 2534 3019 2420 3045 
Q 2306 3072 2169 3072 
Q 1681 3072 1420 2755 
Q 1159 2438 1159 1844 
L 1159 0 
L 581 0 
L 581 3500 
L 1159 3500 
L 1159 2956 
Q 1341 3275 1631 3429 
Q 1922 3584 2338 3584 
Q 2397 3584 2469 3576 
Q 2541 3569 2628 3553 
L 2631 2963 
z
" transform="scale(0.015625)"/>
       <path id="DejaVuSans-6d" d="M 3328 2828 
Q 3544 3216 3844 3400 
Q 4144 3584 4550 3584 
Q 5097 3584 5394 3201 
Q 5691 2819 5691 2113 
L 5691 0 
L 5113 0 
L 5113 2094 
Q 5113 2597 4934 2840 
Q 4756 3084 4391 3084 
Q 3944 3084 3684 2787 
Q 3425 2491 3425 1978 
L 3425 0 
L 2847 0 
L 2847 2094 
Q 2847 2600 2669 2842 
Q 2491 3084 2119 3084 
Q 1678 3084 1418 2786 
Q 1159 2488 1159 1978 
L 1159 0 
L 581 0 
L 581 3500 
L 1159 3500 
L 1159 2956 
Q 1356 3278 1631 3431 
Q 1906 3584 2284 3584 
Q 2666 3584 2933 3390 
Q 3200 3197 3328 2828 
z
" transform="scale(0.015625)"/>
       <path id="DejaVuSans-7a" d="M 353 3500 
L 3084 3500 
L 3084 2975 
L 922 459 
L 3084 459 
L 3084 0 
L 275 0 
L 275 525 
L 2438 3041 
L 353 3041 
L 353 3500 
z
" transform="scale(0.015625)"/>
       <path id="DejaVuSans-64" d="M 2906 2969 
L 2906 4863 
L 3481 4863 
L 3481 0 
L 2906 0 
L 2906 525 
Q 2725 213 2448 61 
Q 2172 -91 1784 -91 
Q 1150 -91 751 415 
Q 353 922 353 1747 
Q 353 2572 751 3078 
Q 1150 3584 1784 3584 
Q 2172 3584 2448 3432 
Q 2725 3281 2906 2969 
z
M 947 1747 
Q 947 1113 1208 752 
Q 1469 391 1925 391 
Q 2381 391 2643 752 
Q 2906 1113 2906 1747 
Q 2906 2381 2643 2742 
Q 2381 3103 1925 3103 
Q 1469 3103 1208 2742 
Q 947 2381 947 1747 
z
" transform="scale(0.015625)"/>
      </defs>
      <use xlink:href="#DejaVuSans-49"/>
      <use xlink:href="#DejaVuSans-6e" x="29.492188"/>
      <use xlink:href="#DejaVuSans-74" x="92.871094"/>
      <use xlink:href="#DejaVuSans-65" x="132.080078"/>
      <use xlink:href="#DejaVuSans-6e" x="193.603516"/>
      <use xlink:href="#DejaVuSans-73" x="256.982422"/>
      <use xlink:href="#DejaVuSans-69" x="309.082031"/>
      <use xlink:href="#DejaVuSans-74" x="336.865234"/>
      <use xlink:href="#DejaVuSans-79" x="376.074219"/>
      <use xlink:href="#DejaVuSans-20" x="435.253906"/>
      <use xlink:href="#DejaVuSans-28" x="467.041016"/>
      <use xlink:href="#DejaVuSans-6e" x="506.054688"/>
      <use xlink:href="#DejaVuSans-6f" x="569.433594"/>
      <use xlink:href="#DejaVuSans-72" x="630.615234"/>
      <use xlink:href="#DejaVuSans-6d" x="669.978516"/>
      <use xlink:href="#DejaVuSans-61" x="767.390625"/>
      <use xlink:href="#DejaVuSans-6c" x="828.669922"/>
      <use xlink:href="#DejaVuSans-69" x="856.453125"/>
      <use xlink:href="#DejaVuSans-7a" x="884.236328"/>
      <use xlink:href="#DejaVuSans-65" x="936.726562"/>
      <use xlink:href="#DejaVuSans-64" x="998.25"/>
      <use xlink:href="#DejaVuSans-29" x="1061.726562"/>
     </g>
    </g>
   </g>
   <g id="line2d_31">
    <path d="M 62.3 286.0971 
L 62.562174 288.994817 
L 62.824469 288.192417 
L 63.086885 286.944657 
L 63.349424 284.762535 
L 63.612084 285.159964 
L 63.874867 285.154155 
L 64.137772 285.925569 
L 64.4008 285.18827 
L 64.66395 285.502416 
L 64.927223 286.334516 
L 65.190619 286.374628 
L 65.717782 285.624148 
L 65.981548 284.70821 
L 66.245439 285.777078 
L 66.509453 285.352275 
L 66.773591 285.582709 
L 67.037854 285.614103 
L 67.302241 285.518406 
L 67.566753 285.549159 
L 68.361037 288.522716 
L 68.62605 288.958061 
L 68.891187 288.942449 
L 69.15645 289.447177 
L 69.421839 288.610764 
L 69.687355 288.155351 
L 69.952996 288.080423 
L 70.218764 287.775066 
L 70.484658 287.747111 
L 71.016827 285.885756 
L 71.283102 285.294955 
L 71.549504 285.038059 
L 71.816034 284.317142 
L 72.082692 284.930429 
L 72.61639 287.553454 
L 73.685326 292.883726 
L 74.220566 295.940931 
L 75.292598 298.485021 
L 75.56093 298.704292 
L 75.829393 298.211463 
L 76.097985 298.003387 
L 76.366709 297.584327 
L 76.635562 296.867532 
L 76.904547 296.628319 
L 77.173662 296.805265 
L 77.442908 296.827975 
L 77.981795 297.785145 
L 78.251436 298.842146 
L 78.521209 298.992462 
L 78.791114 299.278887 
L 79.061151 299.244223 
L 79.33132 299.465313 
L 79.872056 298.859306 
L 80.142623 297.917754 
L 81.226225 290.406295 
L 81.497459 288.545353 
L 82.583737 278.374041 
L 83.127683 273.911436 
L 83.399859 273.222776 
L 83.944615 270.38077 
L 84.489913 270.893481 
L 85.30888 273.151988 
L 86.676555 282.675951 
L 86.950501 284.842109 
L 87.498805 286.703518 
L 87.773164 286.957171 
L 88.047661 286.36222 
L 88.322295 284.119525 
L 88.597069 282.974516 
L 89.973015 273.904513 
L 90.248621 273.347875 
L 90.524368 272.421244 
L 90.800253 272.131964 
L 91.076279 273.029219 
L 91.352445 273.110167 
L 91.628751 272.926671 
L 91.905197 272.889266 
L 92.181784 271.603781 
L 92.458512 273.648185 
L 92.73538 273.685745 
L 94.121843 282.246961 
L 94.677421 287.539074 
L 94.955423 288.253336 
L 95.233568 288.590734 
L 95.511856 288.541509 
L 95.790286 287.000222 
L 96.068859 286.946647 
L 96.347576 286.084743 
L 96.905439 282.053003 
L 97.463878 277.506935 
L 98.022892 275.330723 
L 98.582485 273.280847 
L 98.862498 272.468684 
L 99.142656 270.739038 
L 99.42296 270.050049 
L 99.703408 269.916236 
L 99.984002 270.687891 
L 100.264742 272.624615 
L 100.826659 273.583599 
L 101.107837 273.154236 
L 101.389161 273.608801 
L 101.670632 273.076057 
L 101.952249 273.887336 
L 102.234013 274.096016 
L 102.797983 271.97797 
L 103.080189 270.012753 
L 103.645044 267.409335 
L 103.927693 267.319451 
L 104.21049 268.171494 
L 105.059773 265.734508 
L 105.343164 264.118226 
L 105.626705 263.980174 
L 105.910394 262.925349 
L 106.194233 263.113922 
L 106.478222 262.387124 
L 107.615674 258.32168 
L 107.900413 258.34815 
L 108.185302 259.290291 
L 108.470342 259.171576 
L 108.755532 258.917417 
L 109.040874 259.106968 
L 109.326367 259.615834 
L 109.897808 260.026721 
L 110.183756 260.57983 
L 110.469856 260.371187 
L 110.756108 260.989939 
L 111.042512 260.053757 
L 111.329069 261.005814 
L 111.615779 261.299878 
L 111.902641 261.96382 
L 112.189656 262.931142 
L 112.476825 262.885707 
L 112.764147 262.993428 
L 113.051622 263.515505 
L 113.339251 263.161177 
L 113.627034 262.193632 
L 113.914971 261.994611 
L 114.491308 260.632204 
L 114.779708 261.182046 
L 115.068263 259.355352 
L 115.356973 259.275288 
L 115.645838 258.82818 
L 115.934859 260.404607 
L 116.224035 261.288289 
L 117.092496 269.487732 
L 117.382296 271.12162 
L 117.672252 271.416381 
L 117.962364 272.076868 
L 118.252633 272.418724 
L 118.543059 272.041502 
L 118.833641 271.438356 
L 119.124381 270.195445 
L 119.415279 267.708725 
L 119.706334 266.789496 
L 120.288917 263.321208 
L 120.580446 264.26252 
L 120.872133 263.546035 
L 121.163978 263.944399 
L 121.455982 263.443422 
L 121.748145 262.439781 
L 122.040467 263.510053 
L 122.332948 263.569233 
L 122.625588 262.482458 
L 122.918388 263.112435 
L 123.211347 261.632035 
L 123.504466 261.588046 
L 123.797745 259.837442 
L 124.091185 260.260166 
L 124.384785 259.595626 
L 124.678545 260.434737 
L 124.972466 259.519711 
L 125.266548 259.563438 
L 125.855195 260.203229 
L 126.149761 260.179269 
L 126.444488 260.727501 
L 126.739377 260.321346 
L 127.920554 265.659729 
L 128.216254 264.728003 
L 128.808144 263.699195 
L 129.400686 265.109292 
L 129.697202 264.470492 
L 129.993882 263.138273 
L 130.884906 258.136864 
L 131.182242 258.113595 
L 131.479743 255.409824 
L 131.777409 255.202552 
L 132.075239 254.740142 
L 132.373235 253.51709 
L 132.671396 253.741669 
L 132.969723 255.024501 
L 133.268215 255.753395 
L 133.566873 255.876359 
L 133.865696 256.292475 
L 134.164686 256.200041 
L 134.763165 256.83392 
L 135.062655 256.610647 
L 135.362311 254.452411 
L 135.662134 253.420224 
L 135.962125 251.225752 
L 136.262283 251.060346 
L 136.863101 250.352882 
L 137.163762 250.716476 
L 137.464591 250.493798 
L 137.765589 250.981424 
L 138.066754 250.91253 
L 138.669592 252.529309 
L 139.273105 251.759705 
L 139.877295 249.605734 
L 140.179645 250.291721 
L 140.482164 249.947829 
L 140.784854 249.159377 
L 141.087713 250.100439 
L 141.390743 249.27707 
L 141.693943 249.386541 
L 141.997314 248.516821 
L 142.300856 248.525937 
L 142.908454 249.269711 
L 143.212509 250.600492 
L 143.516736 250.096639 
L 144.125706 250.022966 
L 144.430449 249.049991 
L 144.735364 249.06283 
L 145.040452 247.520741 
L 145.345712 247.347371 
L 145.651145 245.474183 
L 145.956752 244.547225 
L 146.262531 244.145604 
L 146.568483 243.453649 
L 146.874609 243.081987 
L 147.487382 243.717436 
L 147.79403 244.360971 
L 148.407848 243.86888 
L 149.022364 244.086946 
L 149.329884 242.52262 
L 149.63758 242.009887 
L 149.94545 241.251456 
L 150.253496 239.715968 
L 150.561718 239.44554 
L 150.870115 238.916179 
L 151.178689 238.847391 
L 151.487438 238.256053 
L 151.796364 238.709809 
L 152.105466 238.77159 
L 152.414745 237.641433 
L 152.724201 239.464211 
L 153.033833 239.165896 
L 153.963795 242.89645 
L 154.274138 242.86878 
L 154.584658 243.971925 
L 154.895356 243.759761 
L 155.206233 245.105335 
L 155.517288 245.598395 
L 155.828521 245.401372 
L 156.139934 245.39251 
L 156.451525 244.711976 
L 156.763295 243.584471 
L 157.075245 244.084843 
L 157.387374 243.695501 
L 157.699683 242.568092 
L 158.012171 241.890795 
L 158.637688 239.487744 
L 158.950717 239.493456 
L 159.890888 236.441531 
L 160.20464 235.974882 
L 160.518573 235.154934 
L 160.832688 235.764412 
L 161.146984 237.146974 
L 161.461461 236.224074 
L 161.776121 236.377583 
L 162.090963 236.18201 
L 162.405987 236.453189 
L 163.036583 234.035707 
L 163.352155 234.241134 
L 163.667909 233.294636 
L 163.983847 231.974198 
L 164.299969 232.199243 
L 164.616273 231.526936 
L 164.932762 230.223246 
L 165.249434 230.356299 
L 165.56629 229.732941 
L 165.883331 230.227407 
L 166.200555 231.438214 
L 166.517965 232.041483 
L 166.835559 233.684083 
L 167.153337 234.06159 
L 167.471301 235.62853 
L 167.789451 236.338849 
L 168.107785 236.33635 
L 168.426305 237.749193 
L 168.745011 236.600712 
L 169.063903 236.613728 
L 169.382981 235.063852 
L 169.702245 234.43003 
L 170.021696 232.374985 
L 170.661157 230.076848 
L 170.981168 230.729585 
L 171.301366 230.744672 
L 171.942325 231.684208 
L 172.263086 233.222023 
L 172.584034 232.173791 
L 172.905171 231.639552 
L 173.548009 231.929101 
L 173.86971 232.750811 
L 174.191601 232.061533 
L 174.51368 231.707949 
L 174.835949 231.619031 
L 175.158407 230.73158 
L 175.481054 230.245644 
L 175.80389 230.377455 
L 176.126917 229.924354 
L 176.450134 229.086376 
L 176.77354 228.744866 
L 177.097137 227.977431 
L 177.420924 227.502947 
L 178.069071 225.729645 
L 178.393431 225.440884 
L 178.717982 223.597792 
L 179.042725 223.841213 
L 179.367659 222.834679 
L 179.692785 223.321713 
L 180.018102 221.62689 
L 180.343612 220.620416 
L 180.995208 219.498064 
L 181.321295 219.03186 
L 181.647574 218.803952 
L 182.627572 217.799883 
L 182.954624 218.157475 
L 183.28187 217.785854 
L 183.60931 217.752821 
L 183.936944 218.176974 
L 184.264772 219.020528 
L 184.592794 218.346329 
L 184.921011 218.8406 
L 185.249422 218.576818 
L 185.578029 219.311428 
L 186.235827 217.646624 
L 186.565019 219.277397 
L 187.553769 216.399112 
L 187.883744 216.922516 
L 188.213916 217.067728 
L 188.544284 215.968623 
L 188.874848 216.066985 
L 189.536568 216.701105 
L 189.867723 216.240692 
L 190.199076 216.708233 
L 190.530627 218.537136 
L 190.862375 218.916578 
L 191.858806 222.201198 
L 192.191346 221.892434 
L 192.524085 222.850481 
L 192.857023 223.172385 
L 193.190159 223.153189 
L 193.523495 222.674699 
L 193.85703 222.507345 
L 194.190764 221.97466 
L 194.524698 221.827871 
L 194.858831 220.859634 
L 195.193165 221.401288 
L 195.862432 219.011892 
L 196.197366 217.10954 
L 196.867837 215.184092 
L 197.203374 214.498981 
L 197.539112 213.469262 
L 197.875051 212.000398 
L 198.211192 212.123023 
L 198.884079 209.75805 
L 199.220825 209.858838 
L 199.557774 209.811958 
L 200.232278 210.645194 
L 200.569835 211.746031 
L 200.907594 212.270817 
L 201.245556 211.404602 
L 201.583722 213.101768 
L 201.922091 213.320729 
L 202.93842 216.259767 
L 203.277605 215.72755 
L 203.616994 216.789297 
L 203.956587 215.601493 
L 204.636388 215.960684 
L 204.976596 216.296083 
L 205.317009 215.911937 
L 205.657627 216.762476 
L 205.998451 215.854275 
L 206.339481 215.504641 
L 206.680716 214.700787 
L 207.022158 213.380701 
L 207.363806 213.255401 
L 208.047721 212.504735 
L 208.389988 211.062349 
L 209.075145 209.056356 
L 209.418034 209.715258 
L 209.76113 209.229474 
L 210.104434 208.98509 
L 210.791666 210.816222 
L 211.135594 210.983419 
L 211.479731 212.330752 
L 211.824076 211.159838 
L 212.168629 211.541457 
L 212.513392 210.568128 
L 212.858363 210.7173 
L 213.203544 211.299041 
L 213.548934 210.919479 
L 213.894534 210.077628 
L 214.240343 210.358382 
L 214.586363 209.670591 
L 214.932592 209.374346 
L 215.279032 209.391167 
L 215.625682 210.268036 
L 215.972543 209.51321 
L 216.319615 209.76179 
L 216.666897 208.74052 
L 217.014391 208.939765 
L 217.362096 207.715608 
L 217.710013 208.987252 
L 218.058141 209.092887 
L 218.406481 208.949271 
L 218.755033 210.657764 
L 219.103797 210.984803 
L 219.452774 212.217479 
L 219.801963 212.879705 
L 220.151365 212.292806 
L 220.50098 213.741641 
L 220.850808 214.090952 
L 221.200849 213.727675 
L 221.551103 212.879299 
L 222.252253 212.841681 
L 222.954259 209.647374 
L 223.305584 210.084468 
L 223.657122 208.765357 
L 224.008876 208.031912 
L 224.360844 207.906943 
L 224.713027 206.992372 
L 225.065426 206.507509 
L 225.418039 206.408338 
L 225.770869 205.716161 
L 226.123914 207.160342 
L 226.477174 207.254103 
L 226.830651 207.568916 
L 227.538254 207.221904 
L 227.89238 206.998825 
L 228.246723 207.455165 
L 228.601283 205.903275 
L 228.956059 205.920041 
L 229.311054 205.658051 
L 229.666265 205.147265 
L 230.021694 205.374564 
L 230.377341 203.991029 
L 230.733206 204.949163 
L 231.089289 203.995576 
L 231.802111 202.882084 
L 232.158849 201.820267 
L 232.515807 201.490468 
L 232.872983 200.957401 
L 233.230379 199.330175 
L 233.587994 197.148964 
L 233.945829 197.061357 
L 234.303883 196.67403 
L 234.662157 196.788608 
L 235.020652 196.366023 
L 235.379366 196.78714 
L 235.738301 196.139712 
L 236.097457 194.374216 
L 236.816431 195.412864 
L 237.176249 195.293751 
L 237.536289 196.110728 
L 237.89655 195.447976 
L 238.257033 194.529896 
L 238.617738 194.548147 
L 238.978664 193.88861 
L 239.339813 193.995637 
L 239.701185 192.812823 
L 240.062778 193.134978 
L 240.424595 191.746611 
L 240.786634 191.723283 
L 241.148897 190.725862 
L 241.511382 191.740666 
L 241.874091 191.080781 
L 242.237024 189.986461 
L 242.963561 191.561305 
L 243.327165 191.714701 
L 243.690994 190.987236 
L 244.055047 191.439059 
L 244.419325 191.314459 
L 245.148555 191.471134 
L 245.513507 191.228831 
L 245.878685 191.63259 
L 246.244089 192.501362 
L 246.609718 192.197208 
L 246.975573 192.590287 
L 247.341654 193.266416 
L 247.707962 192.645257 
L 248.074495 193.173422 
L 248.441256 195.114595 
L 248.808243 194.43855 
L 249.175456 195.560241 
L 249.542897 195.028363 
L 249.910566 195.081468 
L 250.278461 194.990384 
L 250.646584 195.760345 
L 251.014936 194.515791 
L 251.752322 195.906431 
L 252.121357 194.902562 
L 252.490621 195.001999 
L 252.860113 195.436079 
L 253.229835 196.384444 
L 253.599785 196.949616 
L 253.969965 198.281061 
L 254.340374 197.111812 
L 255.08188 197.978065 
L 255.452978 197.825039 
L 255.824307 196.661092 
L 256.195865 196.682658 
L 256.567654 196.099042 
L 256.939673 196.056476 
L 257.311923 194.726422 
L 257.684404 195.58207 
L 258.057116 194.845596 
L 258.803235 194.965415 
L 259.176641 194.253723 
L 259.550279 194.212732 
L 259.92415 193.080906 
L 260.672587 192.335317 
L 261.047154 191.213572 
L 261.421954 191.575023 
L 261.796987 190.923292 
L 262.172253 191.922146 
L 262.547752 192.268594 
L 263.29945 194.560157 
L 264.052084 199.52852 
L 264.428752 200.900871 
L 265.18279 200.833667 
L 265.560161 200.635793 
L 265.937767 200.235414 
L 266.315608 200.265377 
L 266.693684 199.572526 
L 267.450542 197.831593 
L 267.829324 195.742156 
L 268.967087 192.625125 
L 269.346814 192.643159 
L 270.106977 192.226327 
L 270.868088 193.770153 
L 271.248999 194.183308 
L 271.630148 193.172658 
L 272.011534 192.842318 
L 272.393158 193.405548 
L 272.77502 193.427278 
L 273.15712 192.3932 
L 274.304851 190.540722 
L 274.687905 189.52376 
L 275.071198 188.994 
L 275.838502 189.190791 
L 276.222514 188.132025 
L 276.606765 188.718587 
L 276.991255 188.58241 
L 277.375986 189.077765 
L 277.760957 187.673927 
L 278.146169 187.962287 
L 278.531621 187.433442 
L 278.917313 186.564047 
L 279.303247 186.076615 
L 279.689422 186.51745 
L 280.075838 186.261565 
L 280.462495 186.741264 
L 280.849394 187.495743 
L 281.236535 186.351765 
L 281.623918 187.19612 
L 282.011543 188.589277 
L 282.39941 188.960096 
L 282.78752 190.133209 
L 283.564468 190.827065 
L 284.342387 189.38457 
L 284.731712 190.327169 
L 285.121281 189.656971 
L 285.511093 189.245503 
L 286.291449 187.667557 
L 286.681993 186.238919 
L 287.072782 185.827059 
L 287.463815 186.353145 
L 287.855093 184.098752 
L 288.246616 185.326314 
L 288.638384 183.444088 
L 289.030398 183.712203 
L 289.422657 183.27862 
L 289.815161 181.916493 
L 290.207912 181.563601 
L 290.600908 180.974585 
L 291.387639 179.165468 
L 291.781375 177.567155 
L 292.175357 178.156247 
L 292.569586 176.800629 
L 292.964062 176.587681 
L 293.358785 175.813494 
L 293.753755 176.297017 
L 294.148974 175.529187 
L 294.940153 176.263773 
L 295.336115 177.861953 
L 295.732325 178.413962 
L 296.128784 178.356338 
L 296.525491 181.184268 
L 296.922447 180.824963 
L 297.319652 182.70351 
L 297.717106 182.727418 
L 298.512763 185.041705 
L 298.910965 183.991997 
L 299.309418 184.236211 
L 299.70812 183.901029 
L 300.107073 183.392866 
L 300.506276 183.871857 
L 300.90573 183.154107 
L 301.305434 181.847462 
L 302.105596 183.228963 
L 302.506053 182.459503 
L 302.906762 183.118563 
L 303.307723 181.914813 
L 303.708935 181.13348 
L 304.110399 181.24732 
L 304.512116 179.674388 
L 304.914084 179.752001 
L 305.316306 180.444263 
L 305.718779 180.041636 
L 306.121506 179.97951 
L 306.524486 179.484368 
L 306.927718 179.307762 
L 307.331205 179.982126 
L 307.734944 180.054305 
L 308.138938 179.821542 
L 308.543185 180.859352 
L 308.947686 180.753764 
L 309.352442 182.217466 
L 309.757452 182.124521 
L 310.162716 182.824559 
L 310.568235 183.091377 
L 310.974009 184.139888 
L 311.380039 182.958916 
L 311.786323 183.141527 
L 312.192863 182.14549 
L 312.599659 182.868704 
L 313.00671 182.702761 
L 313.821581 182.622534 
L 314.229401 183.179414 
L 314.637477 183.949086 
L 315.04581 183.182483 
L 315.4544 184.451911 
L 315.863247 185.336326 
L 316.272351 185.295176 
L 316.681713 184.982833 
L 317.911343 183.142085 
L 318.321736 182.763366 
L 318.732387 181.772373 
L 319.143296 181.316701 
L 319.554464 178.510863 
L 319.965891 178.252884 
L 320.377577 177.651817 
L 320.789521 177.819557 
L 321.201726 177.020955 
L 321.614189 175.839804 
L 322.026913 175.043154 
L 322.439896 174.790326 
L 322.853139 173.085716 
L 323.266642 174.392997 
L 323.680406 173.052713 
L 324.09443 172.53886 
L 324.508715 173.928422 
L 324.92326 172.522177 
L 325.338067 173.053596 
L 325.753135 173.79024 
L 326.168465 173.080565 
L 326.584056 174.895884 
L 326.999908 174.797524 
L 327.416023 175.658053 
L 327.8324 175.517759 
L 328.249039 175.157498 
L 328.66594 173.689762 
L 329.083105 173.763095 
L 329.500532 174.057735 
L 329.918221 172.818358 
L 330.336175 170.93058 
L 330.754391 170.765123 
L 332.010622 167.874792 
L 332.429893 167.491484 
L 332.849429 166.827502 
L 333.269229 167.205902 
L 333.689294 166.139598 
L 334.109623 166.339811 
L 334.530217 166.90133 
L 334.951077 166.941281 
L 335.372201 167.393831 
L 335.793591 166.958203 
L 336.215247 165.835337 
L 336.637168 165.934726 
L 337.059355 166.296893 
L 337.481809 165.634474 
L 337.904529 165.865851 
L 338.327515 165.731687 
L 338.750768 166.059298 
L 339.174288 165.359456 
L 339.598074 164.273806 
L 340.022128 164.58088 
L 340.44645 163.716503 
L 340.871038 163.900912 
L 341.295895 162.508858 
L 341.721019 160.621663 
L 342.146412 161.426235 
L 342.572073 160.727056 
L 342.998002 160.719764 
L 343.424199 159.355566 
L 343.850666 159.702054 
L 344.277401 159.382406 
L 344.704406 159.943323 
L 345.131679 159.344311 
L 345.987036 160.747685 
L 346.415118 161.685324 
L 346.843471 161.060337 
L 347.272094 162.373266 
L 348.130151 162.015794 
L 348.559585 162.670131 
L 348.98929 162.66507 
L 349.849514 162.269751 
L 350.280033 161.871393 
L 350.710823 162.778836 
L 351.573219 162.542624 
L 352.004825 163.049409 
L 352.436703 162.096036 
L 352.868854 162.633759 
L 353.301278 161.769323 
L 354.166943 163.735977 
L 354.600185 163.346822 
L 355.033701 163.787181 
L 355.901553 165.615115 
L 356.335889 165.866325 
L 356.7705 165.81934 
L 357.205385 166.028405 
L 357.640544 165.141442 
L 358.075978 165.631071 
L 358.511686 165.627322 
L 358.947669 164.192967 
L 359.383927 164.517162 
L 359.820461 164.639945 
L 360.25727 163.455874 
L 360.694355 164.279915 
L 361.569351 166.892293 
L 362.007264 166.964693 
L 362.445452 169.563454 
L 362.883917 170.743703 
L 363.322659 171.360289 
L 364.200973 176.691259 
L 365.080396 184.37169 
L 366.401612 190.891869 
L 366.842573 190.957478 
L 367.283813 189.890726 
L 367.72533 189.917237 
L 368.167127 188.731959 
L 369.937101 177.362637 
L 370.380293 175.814659 
L 370.823764 174.777982 
L 371.711547 173.233259 
L 372.155858 173.265611 
L 373.045321 171.601341 
L 373.490474 171.594748 
L 373.935908 170.473618 
L 374.381622 168.322557 
L 374.827618 167.584907 
L 375.720454 163.125162 
L 376.167294 163.650935 
L 376.614417 161.712452 
L 377.061821 162.360138 
L 377.509508 162.168138 
L 377.957477 162.283986 
L 378.405728 162.846034 
L 378.854263 162.879309 
L 379.30308 163.372221 
L 379.752181 165.082225 
L 380.201564 164.61595 
L 380.651232 167.428423 
L 381.101182 167.720927 
L 381.551417 167.780787 
L 382.001936 165.802931 
L 382.452738 164.732568 
L 383.355197 161.434857 
L 383.806854 160.093086 
L 384.258795 156.792383 
L 385.61633 151.242481 
L 386.069412 151.626153 
L 386.52278 150.025735 
L 387.430375 151.332604 
L 387.884601 151.046093 
L 388.339114 151.695207 
L 389.249 150.623745 
L 389.704373 150.707831 
L 390.160034 151.988007 
L 390.615981 151.73918 
L 391.072217 153.777365 
L 391.52874 152.063353 
L 391.98555 153.052096 
L 392.442649 152.717495 
L 392.900036 152.197956 
L 393.815675 152.638478 
L 394.273928 152.799401 
L 394.73247 151.863161 
L 395.1913 154.250751 
L 395.65042 155.274079 
L 396.569528 158.266184 
L 397.029517 158.825419 
L 397.489795 160.543786 
L 397.950364 161.802547 
L 398.411223 162.091604 
L 399.333813 160.741392 
L 399.795543 157.905019 
L 400.257565 156.406673 
L 401.182483 152.343604 
L 402.108567 150.288864 
L 402.572046 150.829467 
L 403.035818 150.463236 
L 403.499881 150.255833 
L 403.964238 151.318327 
L 404.428886 151.621007 
L 404.893828 152.554862 
L 405.359062 153.95888 
L 405.82459 155.851756 
L 406.290411 156.006773 
L 406.756525 156.805452 
L 407.222933 155.683093 
L 407.689634 155.631287 
L 408.15663 154.208585 
L 408.62392 153.96616 
L 409.091504 152.851751 
L 410.027556 151.663222 
L 410.496024 150.194453 
L 411.433846 148.595585 
L 411.903199 148.633276 
L 412.842794 149.355156 
L 413.313035 149.280309 
L 413.783572 148.813329 
L 414.254405 148.768718 
L 414.725535 150.107052 
L 415.668684 153.928448 
L 416.140704 155.479705 
L 416.613021 154.84747 
L 417.085635 155.05436 
L 417.558547 154.848419 
L 418.031757 154.150258 
L 418.505264 154.082153 
L 418.97907 153.171682 
L 419.453173 152.677743 
L 419.927575 151.044405 
L 420.402275 149.954187 
L 420.877275 149.612776 
L 421.352573 149.562535 
L 421.82817 150.249905 
L 422.304066 150.520345 
L 422.780262 151.278104 
L 423.256757 150.266243 
L 423.733552 150.698463 
L 424.210647 150.383097 
L 424.688042 148.730389 
L 425.165737 149.226581 
L 425.643733 148.822678 
L 426.122029 148.611367 
L 426.600627 148.597939 
L 427.079525 147.878248 
L 427.558724 149.0957 
L 428.038225 151.153252 
L 428.518027 152.437286 
L 428.998131 152.522875 
L 429.478536 155.566918 
L 429.959244 154.914587 
L 430.440254 156.455506 
L 430.921566 156.220326 
L 431.403181 155.595856 
L 431.885099 154.45842 
L 432.849843 152.648324 
L 433.33267 151.501269 
L 434.782971 146.331888 
L 435.267013 145.479372 
L 435.751359 146.066966 
L 436.236009 146.937079 
L 436.720963 146.721004 
L 437.206222 145.822923 
L 438.177655 147.058642 
L 438.66383 147.999338 
L 439.150309 148.221026 
L 439.637094 148.644311 
L 441.099284 151.952601 
L 441.587293 152.579156 
L 442.075609 152.37908 
L 442.564231 152.533702 
L 443.053159 151.991835 
L 443.542395 152.358943 
L 444.521788 152.030589 
L 445.011945 152.246537 
L 445.50241 153.221415 
L 445.993183 152.050638 
L 446.484264 153.177466 
L 446.975653 153.51224 
L 447.46735 154.468556 
L 447.959356 154.258879 
L 448.451671 154.53072 
L 448.944294 154.238449 
L 449.437227 153.681966 
L 450.91788 150.966047 
L 451.41205 151.4064 
L 451.906531 150.800143 
L 452.401321 150.61207 
L 452.896422 149.40169 
L 453.391833 149.414615 
L 453.887554 149.196575 
L 454.383587 148.427407 
L 454.87993 147.40817 
L 455.87355 149.08782 
L 456.370828 148.839968 
L 456.868417 149.276632 
L 457.366318 149.052822 
L 457.86453 149.860039 
L 458.363055 151.657313 
L 459.361043 156.279112 
L 459.860505 157.239975 
L 460.860369 157.063492 
L 461.360771 156.362793 
L 461.861486 154.926193 
L 462.362515 154.72536 
L 462.863858 154.043386 
L 463.365514 152.005683 
L 463.867485 152.072367 
L 464.36977 150.390985 
L 464.872369 150.920838 
L 465.375283 150.702437 
L 465.878512 151.474674 
L 466.382055 150.382641 
L 466.885914 151.676157 
L 467.894578 149.362958 
L 468.399384 148.516824 
L 468.904505 148.781117 
L 469.409943 146.360898 
L 469.915696 146.349095 
L 470.421766 145.899616 
L 470.928153 145.966448 
L 471.434856 147.725477 
L 471.941876 147.571414 
L 472.449213 147.723078 
L 472.956868 149.082563 
L 473.46484 148.963864 
L 473.97313 149.66374 
L 474.990662 151.578871 
L 475.499906 151.123545 
L 476.009468 151.098423 
L 476.519348 151.721179 
L 477.029547 150.762363 
L 478.050901 150.726292 
L 478.562057 152.166982 
L 479.073533 152.644011 
L 479.585328 152.960556 
L 480.609877 153.834026 
L 481.122631 153.983365 
L 481.635706 153.712683 
L 482.149101 152.774283 
L 482.662817 152.876825 
L 483.176854 152.207018 
L 484.20589 148.784167 
L 484.72089 148.361925 
L 485.236211 147.481802 
L 485.751854 145.654996 
L 486.267819 144.538447 
L 486.784106 144.369896 
L 487.300715 144.072438 
L 487.817646 144.711058 
L 489.370376 147.662 
L 489.888599 146.872858 
L 490.407144 148.259142 
L 490.926013 147.729242 
L 491.445206 147.990818 
L 492.484563 147.06338 
L 493.004727 147.209713 
L 493.525216 146.310464 
L 494.046029 146.456064 
L 495.088629 144.904793 
L 495.610417 144.804591 
L 496.654967 144.336535 
L 497.177731 142.954655 
L 497.70082 143.246425 
L 499.272043 140.028514 
L 499.796436 139.136374 
L 500.321157 138.836396 
L 500.846203 139.148547 
L 501.371577 139.317453 
L 501.897278 140.676561 
L 502.423306 141.272295 
L 502.949661 142.252844 
L 503.476344 142.94679 
L 504.530694 145.082385 
L 505.058361 144.566402 
L 505.586356 145.124218 
L 506.114679 146.010104 
L 506.643332 144.890238 
L 507.701623 143.325369 
L 508.231262 143.954627 
L 508.761231 143.597195 
L 509.291529 144.642893 
L 509.822157 144.243464 
L 510.884402 144.793156 
L 511.41602 145.682106 
L 511.947969 145.539819 
L 512.480247 145.866154 
L 513.012857 146.630215 
L 513.545798 146.594675 
L 514.079069 146.175462 
L 514.612672 145.975188 
L 515.146607 144.374563 
L 516.215471 144.623045 
L 516.750401 143.702399 
L 517.285663 144.235678 
L 517.821257 144.019911 
L 518.357184 143.342119 
L 518.893443 143.104695 
L 519.430035 142.265679 
L 519.966961 143.149561 
L 520.504219 142.373456 
L 521.041811 142.355204 
L 521.579737 142.805718 
L 522.117996 142.817368 
L 522.656589 143.336037 
L 523.195516 145.524442 
L 524.814304 155.322828 
L 525.354569 157.219431 
L 526.977375 165.431518 
L 527.518981 165.393749 
L 528.060922 165.131743 
L 528.6032 163.611462 
L 529.688763 157.617712 
L 530.232049 155.788154 
L 530.775672 154.72369 
L 531.319631 152.82832 
L 531.863927 152.254151 
L 532.40856 152.832153 
L 532.953531 154.467225 
L 533.498839 154.700044 
L 534.044484 155.777721 
L 534.590467 156.486111 
L 535.136788 156.721929 
L 536.230445 156.404228 
L 536.777781 155.289868 
L 537.325455 152.57819 
L 537.873469 150.584156 
L 538.970513 148.422063 
L 539.519543 147.781689 
L 540.068914 147.322898 
L 540.618624 146.622294 
L 541.168674 145.172167 
L 542.269793 143.335034 
L 542.820864 143.737128 
L 543.372275 143.253719 
L 543.924027 143.431665 
L 544.476119 144.046695 
L 545.028553 143.933486 
L 545.581328 144.508909 
L 546.134444 144.688192 
L 546.687902 144.210142 
L 547.241702 143.255017 
L 547.795844 143.352798 
L 548.350328 143.304406 
L 548.905154 142.04923 
L 550.015834 140.61677 
L 550.571688 140.366066 
L 551.127885 139.6824 
L 551.684425 138.524173 
L 552.798536 138.945728 
L 553.356107 139.22075 
L 554.472281 140.285312 
L 555.030884 141.90028 
L 555.589831 141.607122 
L 556.149123 141.829776 
L 557.268742 143.161164 
L 557.829069 143.474209 
L 558.389741 143.950946 
L 558.950758 143.548204 
L 560.073831 139.366846 
L 560.635886 138.645235 
L 561.198287 138.2295 
L 561.761034 137.036932 
L 562.887569 135.386815 
L 563.451357 133.514238 
L 564.015491 133.007609 
L 564.579973 133.168971 
L 565.144802 132.463049 
L 565.709979 133.281902 
L 566.275503 134.669161 
L 566.841376 134.375029 
L 567.407596 133.93853 
L 567.974165 135.768794 
L 568.541082 135.939977 
L 569.108348 136.49717 
L 569.675962 136.266252 
L 570.812238 135.021428 
L 571.3809 135.461051 
L 571.949912 135.372578 
L 572.519273 137.344603 
L 573.659045 140.094425 
L 575.371329 145.395804 
L 576.514605 150.54924 
L 577.659286 151.534521 
L 578.232153 150.970392 
L 578.805372 150.566057 
L 580.52714 146.571261 
L 581.101767 143.962943 
L 582.252079 141.519395 
L 582.827763 140.859736 
L 583.403801 141.294651 
L 583.980192 139.971732 
L 584.556937 139.501555 
L 585.134035 139.245308 
L 585.711486 138.241911 
L 586.289292 137.721653 
L 586.867451 136.80974 
L 587.445965 136.109218 
L 588.024833 135.885019 
L 588.604055 134.756753 
L 589.183633 134.001286 
L 590.343852 134.530092 
L 590.924495 136.503865 
L 591.505493 137.266163 
L 592.668556 139.515039 
L 593.833043 139.33729 
L 594.415821 139.507815 
L 594.998956 139.104208 
L 595.582447 137.69226 
L 596.166295 137.093266 
L 597.919981 133.994796 
L 599.090893 134.352756 
L 599.676885 135.116396 
L 600.849945 135.837724 
L 601.437012 136.004436 
L 602.024438 136.339402 
L 602.612223 137.773032 
L 603.200366 138.323354 
L 603.788869 140.169991 
L 604.377731 140.806149 
L 605.556533 143.584359 
L 607.327436 146.103684 
L 607.918458 145.753222 
L 608.50984 145.540443 
L 609.101582 144.458729 
L 609.693686 144.33613 
L 610.28615 142.585171 
L 611.472163 140.312285 
L 612.065712 140.243589 
L 612.659623 139.813063 
L 613.253895 140.023048 
L 613.848529 139.293818 
L 614.443526 139.613083 
L 615.038885 139.550968 
L 615.634607 140.082209 
L 616.230692 140.137642 
L 617.42395 139.187802 
L 618.021124 137.892926 
L 619.216563 136.639438 
L 619.814828 135.876802 
L 620.413457 135.957097 
L 621.01245 134.441531 
L 621.611808 133.955893 
L 622.21153 133.071403 
L 622.811617 133.451095 
L 623.412068 133.459512 
L 624.012885 133.707382 
L 624.614067 134.157149 
L 625.215615 135.311749 
L 625.817528 136.967606 
L 626.419807 137.094905 
L 627.022451 139.172383 
L 627.625462 139.792229 
L 628.22884 140.841792 
L 628.832583 140.78493 
L 629.436694 139.880216 
L 630.041171 139.465105 
L 630.646015 138.493712 
L 631.251226 138.119972 
L 631.856805 138.102017 
L 632.462751 136.536945 
L 633.675747 135.844484 
L 634.282797 134.817299 
L 634.890215 135.510205 
L 635.498001 135.772866 
L 636.106156 136.34352 
L 636.71468 136.492403 
L 637.932834 138.502132 
L 638.542465 138.248493 
L 639.152466 138.481221 
L 639.762836 139.990104 
L 640.373576 140.26798 
L 640.984685 141.502568 
L 642.208016 142.605749 
L 642.820237 142.489604 
L 644.04579 144.216425 
L 644.659124 144.30804 
L 645.272828 144.712326 
L 645.886904 144.824232 
L 646.501352 145.346181 
L 647.731362 145.508252 
L 648.346925 146.148928 
L 648.962861 145.604854 
L 649.579169 144.848718 
L 650.195849 144.325717 
L 650.812902 143.368245 
L 651.430328 143.133266 
L 652.048128 142.450505 
L 652.6663 142.271305 
L 653.903766 143.017232 
L 654.52306 142.026896 
L 655.142727 142.524707 
L 655.762769 142.333463 
L 656.383185 142.713753 
L 657.003976 143.887842 
L 657.625141 144.034324 
L 658.246681 144.543164 
L 659.490887 144.935892 
L 660.113553 144.602193 
L 660.736594 144.708364 
L 661.360011 144.444207 
L 661.983804 143.162366 
L 662.607974 142.56342 
L 663.232519 142.853452 
L 663.857441 142.738957 
L 664.48274 142.350179 
L 665.734467 142.666587 
L 666.360897 142.99466 
L 666.987704 142.686557 
L 668.87039 144.829883 
L 669.498708 144.412894 
L 670.127404 144.588087 
L 670.756478 144.05881 
L 671.385931 143.308773 
L 672.015763 143.503129 
L 672.645974 145.026574 
L 673.276563 145.681257 
L 673.907532 146.028163 
L 675.170609 145.918612 
L 675.802717 145.111592 
L 676.435204 145.576478 
L 677.068072 146.498673 
L 677.70132 146.891131 
L 678.334949 146.486632 
L 679.603348 148.299869 
L 680.23812 149.289558 
L 680.873272 149.485505 
L 682.781018 151.928137 
L 683.417697 151.724862 
L 684.054757 151.936965 
L 684.6922 151.49038 
L 685.330026 151.283871 
L 685.968234 149.99135 
L 686.606825 150.126466 
L 687.885155 149.559306 
L 688.524896 149.738856 
L 689.165019 149.208725 
L 689.805526 149.205506 
L 690.446417 149.014164 
L 691.087692 149.36541 
L 691.729352 148.840309 
L 692.371395 148.933151 
L 693.013823 148.503124 
L 693.656636 148.519865 
L 694.299833 148.15901 
L 695.587384 146.519215 
L 696.231737 145.507888 
L 696.876476 144.954673 
L 697.5216 143.871053 
L 698.16711 143.021767 
L 698.813007 141.859094 
L 699.459289 142.115609 
L 700.105959 139.171266 
L 700.753014 137.426998 
L 701.400457 136.021881 
L 702.696503 132.024803 
L 703.345107 132.328322 
L 704.643477 130.95254 
L 705.293244 129.149569 
L 705.943399 127.938889 
L 706.593942 127.173598 
L 707.244874 126.129029 
L 707.896194 125.307291 
L 709.2 121.128438 
L 709.2 121.128438 
" clip-path="url(#p0310ad097a)" style="fill: none; stroke: #0000ff; stroke-width: 1.5; stroke-linecap: square"/>
   </g>
   <g id="LineCollection_1">
    <path d="M 76.761866 388.63375 
L 76.761866 31.96 
" clip-path="url(#p0310ad097a)" style="fill: none; stroke-dasharray: 5.55,2.4; stroke-dashoffset: 0; stroke: #008000; stroke-width: 1.5"/>
   </g>
   <g id="LineCollection_2">
    <path d="M 88.252717 388.63375 
L 88.252717 31.96 
" clip-path="url(#p0310ad097a)" style="fill: none; stroke-dasharray: 5.55,2.4; stroke-dashoffset: 0; stroke: #808080; stroke-width: 1.5"/>
   </g>
   <g id="LineCollection_3">
    <path d="M 95.042766 388.63375 
L 95.042766 31.96 
" clip-path="url(#p0310ad097a)" style="fill: none; stroke-dasharray: 5.55,2.4; stroke-dashoffset: 0; stroke: #ff0000; stroke-width: 1.5"/>
   </g>
   <g id="LineCollection_4">
    <path d="M 118.024468 388.63375 
L 118.024468 31.96 
" clip-path="url(#p0310ad097a)" style="fill: none; stroke-dasharray: 5.55,2.4; stroke-dashoffset: 0; stroke: #808080; stroke-width: 1.5"/>
   </g>
   <g id="LineCollection_5">
    <path d="M 156.153202 388.63375 
L 156.153202 31.96 
" clip-path="url(#p0310ad097a)" style="fill: none; stroke-dasharray: 5.55,2.4; stroke-dashoffset: 0; stroke: #808080; stroke-width: 1.5"/>
   </g>
   <g id="LineCollection_6">
    <path d="M 265.838601 388.63375 
L 265.838601 31.96 
" clip-path="url(#p0310ad097a)" style="fill: none; stroke-dasharray: 5.55,2.4; stroke-dashoffset: 0; stroke: #808080; stroke-width: 1.5"/>
   </g>
   <g id="LineCollection_7">
    <path d="M 367.167017 388.63375 
L 367.167017 31.96 
" clip-path="url(#p0310ad097a)" style="fill: none; stroke-dasharray: 5.55,2.4; stroke-dashoffset: 0; stroke: #ff0000; stroke-width: 1.5"/>
   </g>
   <g id="LineCollection_8">
    <path d="M 526.994313 388.63375 
L 526.994313 31.96 
" clip-path="url(#p0310ad097a)" style="fill: none; stroke-dasharray: 5.55,2.4; stroke-dashoffset: 0; stroke: #ffa500; stroke-width: 1.5"/>
   </g>
   <g id="LineCollection_9">
    <path d="M 579.747767 388.63375 
L 579.747767 31.96 
" clip-path="url(#p0310ad097a)" style="fill: none; stroke-dasharray: 5.55,2.4; stroke-dashoffset: 0; stroke: #808080; stroke-width: 1.5"/>
   </g>
   <g id="patch_3">
    <path d="M 62.3 388.63375 
L 62.3 31.96 
" style="fill: none; stroke: #000000; stroke-width: 0.8; stroke-linejoin: miter; stroke-linecap: square"/>
   </g>
   <g id="patch_4">
    <path d="M 709.2 388.63375 
L 709.2 31.96 
" style="fill: none; stroke: #000000; stroke-width: 0.8; stroke-linejoin: miter; stroke-linecap: square"/>
   </g>
   <g id="patch_5">
    <path d="M 62.3 388.63375 
L 709.2 388.63375 
" style="fill: none; stroke: #000000; stroke-width: 0.8; stroke-linejoin: miter; stroke-linecap: square"/>
   </g>
   <g id="patch_6">
    <path d="M 62.3 31.96 
L 709.2 31.96 
" style="fill: none; stroke: #000000; stroke-width: 0.8; stroke-linejoin: miter; stroke-linecap: square"/>
   </g>
   <g id="text_18">
    <!-- Sun´s Spectrum with prominent lines -->
    <g transform="translate(255.204375 21.96) scale(0.14 -0.14)">
     <defs>
      <path id="DejaVuSans-53" d="M 3425 4513 
L 3425 3897 
Q 3066 4069 2747 4153 
Q 2428 4238 2131 4238 
Q 1616 4238 1336 4038 
Q 1056 3838 1056 3469 
Q 1056 3159 1242 3001 
Q 1428 2844 1947 2747 
L 2328 2669 
Q 3034 2534 3370 2195 
Q 3706 1856 3706 1288 
Q 3706 609 3251 259 
Q 2797 -91 1919 -91 
Q 1588 -91 1214 -16 
Q 841 59 441 206 
L 441 856 
Q 825 641 1194 531 
Q 1563 422 1919 422 
Q 2459 422 2753 634 
Q 3047 847 3047 1241 
Q 3047 1584 2836 1778 
Q 2625 1972 2144 2069 
L 1759 2144 
Q 1053 2284 737 2584 
Q 422 2884 422 3419 
Q 422 4038 858 4394 
Q 1294 4750 2059 4750 
Q 2388 4750 2728 4690 
Q 3069 4631 3425 4513 
z
" transform="scale(0.015625)"/>
      <path id="DejaVuSans-75" d="M 544 1381 
L 544 3500 
L 1119 3500 
L 1119 1403 
Q 1119 906 1312 657 
Q 1506 409 1894 409 
Q 2359 409 2629 706 
Q 2900 1003 2900 1516 
L 2900 3500 
L 3475 3500 
L 3475 0 
L 2900 0 
L 2900 538 
Q 2691 219 2414 64 
Q 2138 -91 1772 -91 
Q 1169 -91 856 284 
Q 544 659 544 1381 
z
M 1991 3584 
L 1991 3584 
z
" transform="scale(0.015625)"/>
      <path id="DejaVuSans-b4" d="M 2034 5119 
L 2656 5119 
L 1638 3944 
L 1159 3944 
L 2034 5119 
z
" transform="scale(0.015625)"/>
      <path id="DejaVuSans-70" d="M 1159 525 
L 1159 -1331 
L 581 -1331 
L 581 3500 
L 1159 3500 
L 1159 2969 
Q 1341 3281 1617 3432 
Q 1894 3584 2278 3584 
Q 2916 3584 3314 3078 
Q 3713 2572 3713 1747 
Q 3713 922 3314 415 
Q 2916 -91 2278 -91 
Q 1894 -91 1617 61 
Q 1341 213 1159 525 
z
M 3116 1747 
Q 3116 2381 2855 2742 
Q 2594 3103 2138 3103 
Q 1681 3103 1420 2742 
Q 1159 2381 1159 1747 
Q 1159 1113 1420 752 
Q 1681 391 2138 391 
Q 2594 391 2855 752 
Q 3116 1113 3116 1747 
z
" transform="scale(0.015625)"/>
      <path id="DejaVuSans-63" d="M 3122 3366 
L 3122 2828 
Q 2878 2963 2633 3030 
Q 2388 3097 2138 3097 
Q 1578 3097 1268 2742 
Q 959 2388 959 1747 
Q 959 1106 1268 751 
Q 1578 397 2138 397 
Q 2388 397 2633 464 
Q 2878 531 3122 666 
L 3122 134 
Q 2881 22 2623 -34 
Q 2366 -91 2075 -91 
Q 1284 -91 818 406 
Q 353 903 353 1747 
Q 353 2603 823 3093 
Q 1294 3584 2113 3584 
Q 2378 3584 2631 3529 
Q 2884 3475 3122 3366 
z
" transform="scale(0.015625)"/>
      <path id="DejaVuSans-77" d="M 269 3500 
L 844 3500 
L 1563 769 
L 2278 3500 
L 2956 3500 
L 3675 769 
L 4391 3500 
L 4966 3500 
L 4050 0 
L 3372 0 
L 2619 2869 
L 1863 0 
L 1184 0 
L 269 3500 
z
" transform="scale(0.015625)"/>
     </defs>
     <use xlink:href="#DejaVuSans-53"/>
     <use xlink:href="#DejaVuSans-75" x="63.476562"/>
     <use xlink:href="#DejaVuSans-6e" x="126.855469"/>
     <use xlink:href="#DejaVuSans-b4" x="190.234375"/>
     <use xlink:href="#DejaVuSans-73" x="240.234375"/>
     <use xlink:href="#DejaVuSans-20" x="292.333984"/>
     <use xlink:href="#DejaVuSans-53" x="324.121094"/>
     <use xlink:href="#DejaVuSans-70" x="387.597656"/>
     <use xlink:href="#DejaVuSans-65" x="451.074219"/>
     <use xlink:href="#DejaVuSans-63" x="512.597656"/>
     <use xlink:href="#DejaVuSans-74" x="567.578125"/>
     <use xlink:href="#DejaVuSans-72" x="606.787109"/>
     <use xlink:href="#DejaVuSans-75" x="647.900391"/>
     <use xlink:href="#DejaVuSans-6d" x="711.279297"/>
     <use xlink:href="#DejaVuSans-20" x="808.691406"/>
     <use xlink:href="#DejaVuSans-77" x="840.478516"/>
     <use xlink:href="#DejaVuSans-69" x="922.265625"/>
     <use xlink:href="#DejaVuSans-74" x="950.048828"/>
     <use xlink:href="#DejaVuSans-68" x="989.257812"/>
     <use xlink:href="#DejaVuSans-20" x="1052.636719"/>
     <use xlink:href="#DejaVuSans-70" x="1084.423828"/>
     <use xlink:href="#DejaVuSans-72" x="1147.900391"/>
     <use xlink:href="#DejaVuSans-6f" x="1186.763672"/>
     <use xlink:href="#DejaVuSans-6d" x="1247.945312"/>
     <use xlink:href="#DejaVuSans-69" x="1345.357422"/>
     <use xlink:href="#DejaVuSans-6e" x="1373.140625"/>
     <use xlink:href="#DejaVuSans-65" x="1436.519531"/>
     <use xlink:href="#DejaVuSans-6e" x="1498.042969"/>
     <use xlink:href="#DejaVuSans-74" x="1561.421875"/>
     <use xlink:href="#DejaVuSans-20" x="1600.630859"/>
     <use xlink:href="#DejaVuSans-6c" x="1632.417969"/>
     <use xlink:href="#DejaVuSans-69" x="1660.201172"/>
     <use xlink:href="#DejaVuSans-6e" x="1687.984375"/>
     <use xlink:href="#DejaVuSans-65" x="1751.363281"/>
     <use xlink:href="#DejaVuSans-73" x="1812.886719"/>
    </g>
   </g>
   <g id="legend_1">
    <g id="patch_7">
     <path d="M 507.379688 383.63375 
L 702.2 383.63375 
Q 704.2 383.63375 704.2 381.63375 
L 704.2 235.310313 
Q 704.2 233.310313 702.2 233.310313 
L 507.379688 233.310313 
Q 505.379688 233.310313 505.379688 235.310313 
L 505.379688 381.63375 
Q 505.379688 383.63375 507.379688 383.63375 
z
" style="fill: #ffffff; opacity: 0.8; stroke: #cccccc; stroke-linejoin: miter"/>
    </g>
    <g id="line2d_32">
     <path d="M 509.379688 241.80875 
L 519.379688 241.80875 
L 529.379688 241.80875 
" style="fill: none; stroke: #0000ff; stroke-width: 1.5; stroke-linecap: square"/>
    </g>
    <g id="text_19">
     <!-- Spectrum (Coudé + Silver-Nova) -->
     <g transform="translate(537.379688 245.30875) scale(0.1 -0.1)">
      <defs>
       <path id="DejaVuSans-43" d="M 4122 4306 
L 4122 3641 
Q 3803 3938 3442 4084 
Q 3081 4231 2675 4231 
Q 1875 4231 1450 3742 
Q 1025 3253 1025 2328 
Q 1025 1406 1450 917 
Q 1875 428 2675 428 
Q 3081 428 3442 575 
Q 3803 722 4122 1019 
L 4122 359 
Q 3791 134 3420 21 
Q 3050 -91 2638 -91 
Q 1578 -91 968 557 
Q 359 1206 359 2328 
Q 359 3453 968 4101 
Q 1578 4750 2638 4750 
Q 3056 4750 3426 4639 
Q 3797 4528 4122 4306 
z
" transform="scale(0.015625)"/>
       <path id="DejaVuSans-e9" d="M 3597 1894 
L 3597 1613 
L 953 1613 
Q 991 1019 1311 708 
Q 1631 397 2203 397 
Q 2534 397 2845 478 
Q 3156 559 3463 722 
L 3463 178 
Q 3153 47 2828 -22 
Q 2503 -91 2169 -91 
Q 1331 -91 842 396 
Q 353 884 353 1716 
Q 353 2575 817 3079 
Q 1281 3584 2069 3584 
Q 2775 3584 3186 3129 
Q 3597 2675 3597 1894 
z
M 3022 2063 
Q 3016 2534 2758 2815 
Q 2500 3097 2075 3097 
Q 1594 3097 1305 2825 
Q 1016 2553 972 2059 
L 3022 2063 
z
M 2466 5119 
L 3088 5119 
L 2070 3944 
L 1591 3944 
L 2466 5119 
z
" transform="scale(0.015625)"/>
       <path id="DejaVuSans-2b" d="M 2944 4013 
L 2944 2272 
L 4684 2272 
L 4684 1741 
L 2944 1741 
L 2944 0 
L 2419 0 
L 2419 1741 
L 678 1741 
L 678 2272 
L 2419 2272 
L 2419 4013 
L 2944 4013 
z
" transform="scale(0.015625)"/>
       <path id="DejaVuSans-2d" d="M 313 2009 
L 1997 2009 
L 1997 1497 
L 313 1497 
L 313 2009 
z
" transform="scale(0.015625)"/>
       <path id="DejaVuSans-4e" d="M 628 4666 
L 1478 4666 
L 3547 763 
L 3547 4666 
L 4159 4666 
L 4159 0 
L 3309 0 
L 1241 3903 
L 1241 0 
L 628 0 
L 628 4666 
z
" transform="scale(0.015625)"/>
      </defs>
      <use xlink:href="#DejaVuSans-53"/>
      <use xlink:href="#DejaVuSans-70" x="63.476562"/>
      <use xlink:href="#DejaVuSans-65" x="126.953125"/>
      <use xlink:href="#DejaVuSans-63" x="188.476562"/>
      <use xlink:href="#DejaVuSans-74" x="243.457031"/>
      <use xlink:href="#DejaVuSans-72" x="282.666016"/>
      <use xlink:href="#DejaVuSans-75" x="323.779297"/>
      <use xlink:href="#DejaVuSans-6d" x="387.158203"/>
      <use xlink:href="#DejaVuSans-20" x="484.570312"/>
      <use xlink:href="#DejaVuSans-28" x="516.357422"/>
      <use xlink:href="#DejaVuSans-43" x="555.371094"/>
      <use xlink:href="#DejaVuSans-6f" x="625.195312"/>
      <use xlink:href="#DejaVuSans-75" x="686.376953"/>
      <use xlink:href="#DejaVuSans-64" x="749.755859"/>
      <use xlink:href="#DejaVuSans-e9" x="813.232422"/>
      <use xlink:href="#DejaVuSans-20" x="874.755859"/>
      <use xlink:href="#DejaVuSans-2b" x="906.542969"/>
      <use xlink:href="#DejaVuSans-20" x="990.332031"/>
      <use xlink:href="#DejaVuSans-53" x="1022.119141"/>
      <use xlink:href="#DejaVuSans-69" x="1085.595703"/>
      <use xlink:href="#DejaVuSans-6c" x="1113.378906"/>
      <use xlink:href="#DejaVuSans-76" x="1141.162109"/>
      <use xlink:href="#DejaVuSans-65" x="1200.341797"/>
      <use xlink:href="#DejaVuSans-72" x="1261.865234"/>
      <use xlink:href="#DejaVuSans-2d" x="1296.603516"/>
      <use xlink:href="#DejaVuSans-4e" x="1332.6875"/>
      <use xlink:href="#DejaVuSans-6f" x="1407.492188"/>
      <use xlink:href="#DejaVuSans-76" x="1468.673828"/>
      <use xlink:href="#DejaVuSans-61" x="1527.853516"/>
      <use xlink:href="#DejaVuSans-29" x="1589.132812"/>
     </g>
    </g>
    <g id="line2d_33">
     <path d="M 509.379688 256.486875 
L 529.379688 256.486875 
" style="fill: none; stroke-dasharray: 5.55,2.4; stroke-dashoffset: 0; stroke: #008000; stroke-width: 1.5"/>
    </g>
    <g id="text_20">
     <!-- Ca -->
     <g transform="translate(537.379688 259.986875) scale(0.1 -0.1)">
      <use xlink:href="#DejaVuSans-43"/>
      <use xlink:href="#DejaVuSans-61" x="69.824219"/>
     </g>
    </g>
    <g id="line2d_34">
     <path d="M 509.379688 271.165 
L 529.379688 271.165 
" style="fill: none; stroke-dasharray: 5.55,2.4; stroke-dashoffset: 0; stroke: #808080; stroke-width: 1.5"/>
    </g>
    <g id="text_21">
     <!-- Fe I -->
     <g transform="translate(537.379688 274.665) scale(0.1 -0.1)">
      <defs>
       <path id="DejaVuSans-46" d="M 628 4666 
L 3309 4666 
L 3309 4134 
L 1259 4134 
L 1259 2759 
L 3109 2759 
L 3109 2228 
L 1259 2228 
L 1259 0 
L 628 0 
L 628 4666 
z
" transform="scale(0.015625)"/>
      </defs>
      <use xlink:href="#DejaVuSans-46"/>
      <use xlink:href="#DejaVuSans-65" x="52.019531"/>
      <use xlink:href="#DejaVuSans-20" x="113.542969"/>
      <use xlink:href="#DejaVuSans-49" x="145.330078"/>
     </g>
    </g>
    <g id="line2d_35">
     <path d="M 509.379688 285.843125 
L 529.379688 285.843125 
" style="fill: none; stroke-dasharray: 5.55,2.4; stroke-dashoffset: 0; stroke: #ff0000; stroke-width: 1.5"/>
    </g>
    <g id="text_22">
     <!-- H$\gamma$ -->
     <g transform="translate(537.379688 289.343125) scale(0.1 -0.1)">
      <defs>
       <path id="DejaVuSans-48" d="M 628 4666 
L 1259 4666 
L 1259 2753 
L 3553 2753 
L 3553 4666 
L 4184 4666 
L 4184 0 
L 3553 0 
L 3553 2222 
L 1259 2222 
L 1259 0 
L 628 0 
L 628 4666 
z
" transform="scale(0.015625)"/>
       <path id="DejaVuSans-Oblique-3b3" d="M 1491 2950 
L 1838 788 
L 3456 3500 
L 4066 3500 
L 1972 0 
L 1713 -1331 
L 1138 -1331 
L 1397 0 
L 988 2613 
Q 925 3006 628 3006 
L 475 3006 
L 569 3500 
L 788 3500 
Q 1403 3500 1491 2950 
z
" transform="scale(0.015625)"/>
      </defs>
      <use xlink:href="#DejaVuSans-48" transform="translate(0 0.09375)"/>
      <use xlink:href="#DejaVuSans-Oblique-3b3" transform="translate(75.195312 0.09375)"/>
     </g>
    </g>
    <g id="line2d_36">
     <path d="M 509.379688 300.541563 
L 529.379688 300.541563 
" style="fill: none; stroke-dasharray: 5.55,2.4; stroke-dashoffset: 0; stroke: #808080; stroke-width: 1.5"/>
    </g>
    <g id="text_23">
     <!-- Fe I -->
     <g transform="translate(537.379688 304.041563) scale(0.1 -0.1)">
      <use xlink:href="#DejaVuSans-46"/>
      <use xlink:href="#DejaVuSans-65" x="52.019531"/>
      <use xlink:href="#DejaVuSans-20" x="113.542969"/>
      <use xlink:href="#DejaVuSans-49" x="145.330078"/>
     </g>
    </g>
    <g id="line2d_37">
     <path d="M 509.379688 315.219688 
L 529.379688 315.219688 
" style="fill: none; stroke-dasharray: 5.55,2.4; stroke-dashoffset: 0; stroke: #808080; stroke-width: 1.5"/>
    </g>
    <g id="text_24">
     <!-- Fe I -->
     <g transform="translate(537.379688 318.719688) scale(0.1 -0.1)">
      <use xlink:href="#DejaVuSans-46"/>
      <use xlink:href="#DejaVuSans-65" x="52.019531"/>
      <use xlink:href="#DejaVuSans-20" x="113.542969"/>
      <use xlink:href="#DejaVuSans-49" x="145.330078"/>
     </g>
    </g>
    <g id="line2d_38">
     <path d="M 509.379688 329.897813 
L 529.379688 329.897813 
" style="fill: none; stroke-dasharray: 5.55,2.4; stroke-dashoffset: 0; stroke: #808080; stroke-width: 1.5"/>
    </g>
    <g id="text_25">
     <!-- Fe I -->
     <g transform="translate(537.379688 333.397813) scale(0.1 -0.1)">
      <use xlink:href="#DejaVuSans-46"/>
      <use xlink:href="#DejaVuSans-65" x="52.019531"/>
      <use xlink:href="#DejaVuSans-20" x="113.542969"/>
      <use xlink:href="#DejaVuSans-49" x="145.330078"/>
     </g>
    </g>
    <g id="line2d_39">
     <path d="M 509.379688 344.6775 
L 529.379688 344.6775 
" style="fill: none; stroke-dasharray: 5.55,2.4; stroke-dashoffset: 0; stroke: #ff0000; stroke-width: 1.5"/>
    </g>
    <g id="text_26">
     <!-- H$\beta$ -->
     <g transform="translate(537.379688 348.1775) scale(0.1 -0.1)">
      <defs>
       <path id="DejaVuSans-Oblique-3b2" d="M 872 216 
L 572 -1331 
L -6 -1331 
L 928 3478 
Q 1206 4903 2538 4903 
Q 3888 4903 3659 3700 
Q 3503 2844 2894 2531 
Q 3713 2250 3553 1416 
Q 3272 -69 1759 -66 
Q 1097 -63 872 216 
z
M 1019 966 
Q 1259 422 1875 425 
Q 2775 425 2966 1406 
Q 3138 2288 1675 2219 
L 1778 2750 
Q 2909 2731 3106 3750 
Q 3241 4438 2509 4434 
Q 1691 4434 1503 3459 
L 1019 966 
z
" transform="scale(0.015625)"/>
      </defs>
      <use xlink:href="#DejaVuSans-48" transform="translate(0 0.390625)"/>
      <use xlink:href="#DejaVuSans-Oblique-3b2" transform="translate(75.195312 0.390625)"/>
     </g>
    </g>
    <g id="line2d_40">
     <path d="M 509.379688 359.375938 
L 529.379688 359.375938 
" style="fill: none; stroke-dasharray: 5.55,2.4; stroke-dashoffset: 0; stroke: #ffa500; stroke-width: 1.5"/>
    </g>
    <g id="text_27">
     <!-- Mg I -->
     <g transform="translate(537.379688 362.875938) scale(0.1 -0.1)">
      <defs>
       <path id="DejaVuSans-4d" d="M 628 4666 
L 1569 4666 
L 2759 1491 
L 3956 4666 
L 4897 4666 
L 4897 0 
L 4281 0 
L 4281 4097 
L 3078 897 
L 2444 897 
L 1241 4097 
L 1241 0 
L 628 0 
L 628 4666 
z
" transform="scale(0.015625)"/>
      </defs>
      <use xlink:href="#DejaVuSans-4d"/>
      <use xlink:href="#DejaVuSans-67" x="86.279297"/>
      <use xlink:href="#DejaVuSans-20" x="149.755859"/>
      <use xlink:href="#DejaVuSans-49" x="181.542969"/>
     </g>
    </g>
    <g id="line2d_41">
     <path d="M 509.379688 374.054062 
L 529.379688 374.054062 
" style="fill: none; stroke-dasharray: 5.55,2.4; stroke-dashoffset: 0; stroke: #808080; stroke-width: 1.5"/>
    </g>
    <g id="text_28">
     <!-- Fe I -->
     <g transform="translate(537.379688 377.554062) scale(0.1 -0.1)">
      <use xlink:href="#DejaVuSans-46"/>
      <use xlink:href="#DejaVuSans-65" x="52.019531"/>
      <use xlink:href="#DejaVuSans-20" x="113.542969"/>
      <use xlink:href="#DejaVuSans-49" x="145.330078"/>
     </g>
    </g>
   </g>
  </g>
 </g>
 <defs>
  <clipPath id="p0310ad097a">
   <rect x="62.3" y="31.96" width="646.9" height="356.67375"/>
  </clipPath>
 </defs>
</svg>
