<?xml version="1.0" encoding="utf-8" standalone="no"?>
<!DOCTYPE svg PUBLIC "-//W3C//DTD SVG 1.1//EN"
  "http://www.w3.org/Graphics/SVG/1.1/DTD/svg11.dtd">
<svg xmlns:xlink="http://www.w3.org/1999/xlink" width="864pt" height="432pt" viewBox="0 0 864 432" xmlns="http://www.w3.org/2000/svg" version="1.1">
 <metadata>
  <rdf:RDF xmlns:dc="http://purl.org/dc/elements/1.1/" xmlns:cc="http://creativecommons.org/ns#" xmlns:rdf="http://www.w3.org/1999/02/22-rdf-syntax-ns#">
   <cc:Work>
    <dc:type rdf:resource="http://purl.org/dc/dcmitype/StillImage"/>
    <dc:date>2024-12-22T21:58:05.369212</dc:date>
    <dc:format>image/svg+xml</dc:format>
    <dc:creator>
     <cc:Agent>
      <dc:title>Matplotlib v3.9.2, https://matplotlib.org/</dc:title>
     </cc:Agent>
    </dc:creator>
   </cc:Work>
  </rdf:RDF>
 </metadata>
 <defs>
  <style type="text/css">*{stroke-linejoin: round; stroke-linecap: butt}</style>
 </defs>
 <g id="figure_1">
  <g id="patch_1">
   <path d="M 0 432 
L 864 432 
L 864 0 
L 0 0 
z
" style="fill: #ffffff"/>
  </g>
  <g id="axes_1">
   <g id="patch_2">
    <path d="M 62.3 388.63375 
L 853.2 388.63375 
L 853.2 31.96 
L 62.3 31.96 
z
" style="fill: #ffffff"/>
   </g>
   <g id="matplotlib.axis_1">
    <g id="xtick_1">
     <g id="line2d_1">
      <path d="M 140.645988 388.63375 
L 140.645988 31.96 
" clip-path="url(#pe23ecd2abf)" style="fill: none; stroke: #b0b0b0; stroke-width: 0.8; stroke-linecap: square"/>
     </g>
     <g id="line2d_2">
      <defs>
       <path id="m97cf3d64c2" d="M 0 0 
L 0 3.5 
" style="stroke: #000000; stroke-width: 0.8"/>
      </defs>
      <g>
       <use xlink:href="#m97cf3d64c2" x="140.645988" y="388.63375" style="stroke: #000000; stroke-width: 0.8"/>
      </g>
     </g>
     <g id="text_1">
      <!-- 4400 -->
      <g transform="translate(127.920988 403.232188) scale(0.1 -0.1)">
       <defs>
        <path id="DejaVuSans-34" d="M 2419 4116 
L 825 1625 
L 2419 1625 
L 2419 4116 
z
M 2253 4666 
L 3047 4666 
L 3047 1625 
L 3713 1625 
L 3713 1100 
L 3047 1100 
L 3047 0 
L 2419 0 
L 2419 1100 
L 313 1100 
L 313 1709 
L 2253 4666 
z
" transform="scale(0.015625)"/>
        <path id="DejaVuSans-30" d="M 2034 4250 
Q 1547 4250 1301 3770 
Q 1056 3291 1056 2328 
Q 1056 1369 1301 889 
Q 1547 409 2034 409 
Q 2525 409 2770 889 
Q 3016 1369 3016 2328 
Q 3016 3291 2770 3770 
Q 2525 4250 2034 4250 
z
M 2034 4750 
Q 2819 4750 3233 4129 
Q 3647 3509 3647 2328 
Q 3647 1150 3233 529 
Q 2819 -91 2034 -91 
Q 1250 -91 836 529 
Q 422 1150 422 2328 
Q 422 3509 836 4129 
Q 1250 4750 2034 4750 
z
" transform="scale(0.015625)"/>
       </defs>
       <use xlink:href="#DejaVuSans-34"/>
       <use xlink:href="#DejaVuSans-34" x="63.623047"/>
       <use xlink:href="#DejaVuSans-30" x="127.246094"/>
       <use xlink:href="#DejaVuSans-30" x="190.869141"/>
      </g>
     </g>
    </g>
    <g id="xtick_2">
     <g id="line2d_3">
      <path d="M 268.361587 388.63375 
L 268.361587 31.96 
" clip-path="url(#pe23ecd2abf)" style="fill: none; stroke: #b0b0b0; stroke-width: 0.8; stroke-linecap: square"/>
     </g>
     <g id="line2d_4">
      <g>
       <use xlink:href="#m97cf3d64c2" x="268.361587" y="388.63375" style="stroke: #000000; stroke-width: 0.8"/>
      </g>
     </g>
     <g id="text_2">
      <!-- 4600 -->
      <g transform="translate(255.636587 403.232188) scale(0.1 -0.1)">
       <defs>
        <path id="DejaVuSans-36" d="M 2113 2584 
Q 1688 2584 1439 2293 
Q 1191 2003 1191 1497 
Q 1191 994 1439 701 
Q 1688 409 2113 409 
Q 2538 409 2786 701 
Q 3034 994 3034 1497 
Q 3034 2003 2786 2293 
Q 2538 2584 2113 2584 
z
M 3366 4563 
L 3366 3988 
Q 3128 4100 2886 4159 
Q 2644 4219 2406 4219 
Q 1781 4219 1451 3797 
Q 1122 3375 1075 2522 
Q 1259 2794 1537 2939 
Q 1816 3084 2150 3084 
Q 2853 3084 3261 2657 
Q 3669 2231 3669 1497 
Q 3669 778 3244 343 
Q 2819 -91 2113 -91 
Q 1303 -91 875 529 
Q 447 1150 447 2328 
Q 447 3434 972 4092 
Q 1497 4750 2381 4750 
Q 2619 4750 2861 4703 
Q 3103 4656 3366 4563 
z
" transform="scale(0.015625)"/>
       </defs>
       <use xlink:href="#DejaVuSans-34"/>
       <use xlink:href="#DejaVuSans-36" x="63.623047"/>
       <use xlink:href="#DejaVuSans-30" x="127.246094"/>
       <use xlink:href="#DejaVuSans-30" x="190.869141"/>
      </g>
     </g>
    </g>
    <g id="xtick_3">
     <g id="line2d_5">
      <path d="M 396.077186 388.63375 
L 396.077186 31.96 
" clip-path="url(#pe23ecd2abf)" style="fill: none; stroke: #b0b0b0; stroke-width: 0.8; stroke-linecap: square"/>
     </g>
     <g id="line2d_6">
      <g>
       <use xlink:href="#m97cf3d64c2" x="396.077186" y="388.63375" style="stroke: #000000; stroke-width: 0.8"/>
      </g>
     </g>
     <g id="text_3">
      <!-- 4800 -->
      <g transform="translate(383.352186 403.232188) scale(0.1 -0.1)">
       <defs>
        <path id="DejaVuSans-38" d="M 2034 2216 
Q 1584 2216 1326 1975 
Q 1069 1734 1069 1313 
Q 1069 891 1326 650 
Q 1584 409 2034 409 
Q 2484 409 2743 651 
Q 3003 894 3003 1313 
Q 3003 1734 2745 1975 
Q 2488 2216 2034 2216 
z
M 1403 2484 
Q 997 2584 770 2862 
Q 544 3141 544 3541 
Q 544 4100 942 4425 
Q 1341 4750 2034 4750 
Q 2731 4750 3128 4425 
Q 3525 4100 3525 3541 
Q 3525 3141 3298 2862 
Q 3072 2584 2669 2484 
Q 3125 2378 3379 2068 
Q 3634 1759 3634 1313 
Q 3634 634 3220 271 
Q 2806 -91 2034 -91 
Q 1263 -91 848 271 
Q 434 634 434 1313 
Q 434 1759 690 2068 
Q 947 2378 1403 2484 
z
M 1172 3481 
Q 1172 3119 1398 2916 
Q 1625 2713 2034 2713 
Q 2441 2713 2670 2916 
Q 2900 3119 2900 3481 
Q 2900 3844 2670 4047 
Q 2441 4250 2034 4250 
Q 1625 4250 1398 4047 
Q 1172 3844 1172 3481 
z
" transform="scale(0.015625)"/>
       </defs>
       <use xlink:href="#DejaVuSans-34"/>
       <use xlink:href="#DejaVuSans-38" x="63.623047"/>
       <use xlink:href="#DejaVuSans-30" x="127.246094"/>
       <use xlink:href="#DejaVuSans-30" x="190.869141"/>
      </g>
     </g>
    </g>
    <g id="xtick_4">
     <g id="line2d_7">
      <path d="M 523.792785 388.63375 
L 523.792785 31.96 
" clip-path="url(#pe23ecd2abf)" style="fill: none; stroke: #b0b0b0; stroke-width: 0.8; stroke-linecap: square"/>
     </g>
     <g id="line2d_8">
      <g>
       <use xlink:href="#m97cf3d64c2" x="523.792785" y="388.63375" style="stroke: #000000; stroke-width: 0.8"/>
      </g>
     </g>
     <g id="text_4">
      <!-- 5000 -->
      <g transform="translate(511.067785 403.232188) scale(0.1 -0.1)">
       <defs>
        <path id="DejaVuSans-35" d="M 691 4666 
L 3169 4666 
L 3169 4134 
L 1269 4134 
L 1269 2991 
Q 1406 3038 1543 3061 
Q 1681 3084 1819 3084 
Q 2600 3084 3056 2656 
Q 3513 2228 3513 1497 
Q 3513 744 3044 326 
Q 2575 -91 1722 -91 
Q 1428 -91 1123 -41 
Q 819 9 494 109 
L 494 744 
Q 775 591 1075 516 
Q 1375 441 1709 441 
Q 2250 441 2565 725 
Q 2881 1009 2881 1497 
Q 2881 1984 2565 2268 
Q 2250 2553 1709 2553 
Q 1456 2553 1204 2497 
Q 953 2441 691 2322 
L 691 4666 
z
" transform="scale(0.015625)"/>
       </defs>
       <use xlink:href="#DejaVuSans-35"/>
       <use xlink:href="#DejaVuSans-30" x="63.623047"/>
       <use xlink:href="#DejaVuSans-30" x="127.246094"/>
       <use xlink:href="#DejaVuSans-30" x="190.869141"/>
      </g>
     </g>
    </g>
    <g id="xtick_5">
     <g id="line2d_9">
      <path d="M 651.508384 388.63375 
L 651.508384 31.96 
" clip-path="url(#pe23ecd2abf)" style="fill: none; stroke: #b0b0b0; stroke-width: 0.8; stroke-linecap: square"/>
     </g>
     <g id="line2d_10">
      <g>
       <use xlink:href="#m97cf3d64c2" x="651.508384" y="388.63375" style="stroke: #000000; stroke-width: 0.8"/>
      </g>
     </g>
     <g id="text_5">
      <!-- 5200 -->
      <g transform="translate(638.783384 403.232188) scale(0.1 -0.1)">
       <defs>
        <path id="DejaVuSans-32" d="M 1228 531 
L 3431 531 
L 3431 0 
L 469 0 
L 469 531 
Q 828 903 1448 1529 
Q 2069 2156 2228 2338 
Q 2531 2678 2651 2914 
Q 2772 3150 2772 3378 
Q 2772 3750 2511 3984 
Q 2250 4219 1831 4219 
Q 1534 4219 1204 4116 
Q 875 4013 500 3803 
L 500 4441 
Q 881 4594 1212 4672 
Q 1544 4750 1819 4750 
Q 2544 4750 2975 4387 
Q 3406 4025 3406 3419 
Q 3406 3131 3298 2873 
Q 3191 2616 2906 2266 
Q 2828 2175 2409 1742 
Q 1991 1309 1228 531 
z
" transform="scale(0.015625)"/>
       </defs>
       <use xlink:href="#DejaVuSans-35"/>
       <use xlink:href="#DejaVuSans-32" x="63.623047"/>
       <use xlink:href="#DejaVuSans-30" x="127.246094"/>
       <use xlink:href="#DejaVuSans-30" x="190.869141"/>
      </g>
     </g>
    </g>
    <g id="xtick_6">
     <g id="line2d_11">
      <path d="M 779.223983 388.63375 
L 779.223983 31.96 
" clip-path="url(#pe23ecd2abf)" style="fill: none; stroke: #b0b0b0; stroke-width: 0.8; stroke-linecap: square"/>
     </g>
     <g id="line2d_12">
      <g>
       <use xlink:href="#m97cf3d64c2" x="779.223983" y="388.63375" style="stroke: #000000; stroke-width: 0.8"/>
      </g>
     </g>
     <g id="text_6">
      <!-- 5400 -->
      <g transform="translate(766.498983 403.232188) scale(0.1 -0.1)">
       <use xlink:href="#DejaVuSans-35"/>
       <use xlink:href="#DejaVuSans-34" x="63.623047"/>
       <use xlink:href="#DejaVuSans-30" x="127.246094"/>
       <use xlink:href="#DejaVuSans-30" x="190.869141"/>
      </g>
     </g>
    </g>
    <g id="text_7">
     <!-- Wavelength (Å) -->
     <g transform="translate(419.176562 418.594688) scale(0.1 -0.1)">
      <defs>
       <path id="DejaVuSans-57" d="M 213 4666 
L 850 4666 
L 1831 722 
L 2809 4666 
L 3519 4666 
L 4500 722 
L 5478 4666 
L 6119 4666 
L 4947 0 
L 4153 0 
L 3169 4050 
L 2175 0 
L 1381 0 
L 213 4666 
z
" transform="scale(0.015625)"/>
       <path id="DejaVuSans-61" d="M 2194 1759 
Q 1497 1759 1228 1600 
Q 959 1441 959 1056 
Q 959 750 1161 570 
Q 1363 391 1709 391 
Q 2188 391 2477 730 
Q 2766 1069 2766 1631 
L 2766 1759 
L 2194 1759 
z
M 3341 1997 
L 3341 0 
L 2766 0 
L 2766 531 
Q 2569 213 2275 61 
Q 1981 -91 1556 -91 
Q 1019 -91 701 211 
Q 384 513 384 1019 
Q 384 1609 779 1909 
Q 1175 2209 1959 2209 
L 2766 2209 
L 2766 2266 
Q 2766 2663 2505 2880 
Q 2244 3097 1772 3097 
Q 1472 3097 1187 3025 
Q 903 2953 641 2809 
L 641 3341 
Q 956 3463 1253 3523 
Q 1550 3584 1831 3584 
Q 2591 3584 2966 3190 
Q 3341 2797 3341 1997 
z
" transform="scale(0.015625)"/>
       <path id="DejaVuSans-76" d="M 191 3500 
L 800 3500 
L 1894 563 
L 2988 3500 
L 3597 3500 
L 2284 0 
L 1503 0 
L 191 3500 
z
" transform="scale(0.015625)"/>
       <path id="DejaVuSans-65" d="M 3597 1894 
L 3597 1613 
L 953 1613 
Q 991 1019 1311 708 
Q 1631 397 2203 397 
Q 2534 397 2845 478 
Q 3156 559 3463 722 
L 3463 178 
Q 3153 47 2828 -22 
Q 2503 -91 2169 -91 
Q 1331 -91 842 396 
Q 353 884 353 1716 
Q 353 2575 817 3079 
Q 1281 3584 2069 3584 
Q 2775 3584 3186 3129 
Q 3597 2675 3597 1894 
z
M 3022 2063 
Q 3016 2534 2758 2815 
Q 2500 3097 2075 3097 
Q 1594 3097 1305 2825 
Q 1016 2553 972 2059 
L 3022 2063 
z
" transform="scale(0.015625)"/>
       <path id="DejaVuSans-6c" d="M 603 4863 
L 1178 4863 
L 1178 0 
L 603 0 
L 603 4863 
z
" transform="scale(0.015625)"/>
       <path id="DejaVuSans-6e" d="M 3513 2113 
L 3513 0 
L 2938 0 
L 2938 2094 
Q 2938 2591 2744 2837 
Q 2550 3084 2163 3084 
Q 1697 3084 1428 2787 
Q 1159 2491 1159 1978 
L 1159 0 
L 581 0 
L 581 3500 
L 1159 3500 
L 1159 2956 
Q 1366 3272 1645 3428 
Q 1925 3584 2291 3584 
Q 2894 3584 3203 3211 
Q 3513 2838 3513 2113 
z
" transform="scale(0.015625)"/>
       <path id="DejaVuSans-67" d="M 2906 1791 
Q 2906 2416 2648 2759 
Q 2391 3103 1925 3103 
Q 1463 3103 1205 2759 
Q 947 2416 947 1791 
Q 947 1169 1205 825 
Q 1463 481 1925 481 
Q 2391 481 2648 825 
Q 2906 1169 2906 1791 
z
M 3481 434 
Q 3481 -459 3084 -895 
Q 2688 -1331 1869 -1331 
Q 1566 -1331 1297 -1286 
Q 1028 -1241 775 -1147 
L 775 -588 
Q 1028 -725 1275 -790 
Q 1522 -856 1778 -856 
Q 2344 -856 2625 -561 
Q 2906 -266 2906 331 
L 2906 616 
Q 2728 306 2450 153 
Q 2172 0 1784 0 
Q 1141 0 747 490 
Q 353 981 353 1791 
Q 353 2603 747 3093 
Q 1141 3584 1784 3584 
Q 2172 3584 2450 3431 
Q 2728 3278 2906 2969 
L 2906 3500 
L 3481 3500 
L 3481 434 
z
" transform="scale(0.015625)"/>
       <path id="DejaVuSans-74" d="M 1172 4494 
L 1172 3500 
L 2356 3500 
L 2356 3053 
L 1172 3053 
L 1172 1153 
Q 1172 725 1289 603 
Q 1406 481 1766 481 
L 2356 481 
L 2356 0 
L 1766 0 
Q 1100 0 847 248 
Q 594 497 594 1153 
L 594 3053 
L 172 3053 
L 172 3500 
L 594 3500 
L 594 4494 
L 1172 4494 
z
" transform="scale(0.015625)"/>
       <path id="DejaVuSans-68" d="M 3513 2113 
L 3513 0 
L 2938 0 
L 2938 2094 
Q 2938 2591 2744 2837 
Q 2550 3084 2163 3084 
Q 1697 3084 1428 2787 
Q 1159 2491 1159 1978 
L 1159 0 
L 581 0 
L 581 4863 
L 1159 4863 
L 1159 2956 
Q 1366 3272 1645 3428 
Q 1925 3584 2291 3584 
Q 2894 3584 3203 3211 
Q 3513 2838 3513 2113 
z
" transform="scale(0.015625)"/>
       <path id="DejaVuSans-20" transform="scale(0.015625)"/>
       <path id="DejaVuSans-28" d="M 1984 4856 
Q 1566 4138 1362 3434 
Q 1159 2731 1159 2009 
Q 1159 1288 1364 580 
Q 1569 -128 1984 -844 
L 1484 -844 
Q 1016 -109 783 600 
Q 550 1309 550 2009 
Q 550 2706 781 3412 
Q 1013 4119 1484 4856 
L 1984 4856 
z
" transform="scale(0.015625)"/>
       <path id="DejaVuSans-c5" d="M 2663 5081 
Q 2663 5278 2523 5417 
Q 2384 5556 2188 5556 
Q 1988 5556 1852 5420 
Q 1716 5284 1716 5081 
Q 1716 4884 1853 4746 
Q 1991 4609 2188 4609 
Q 2384 4609 2523 4746 
Q 2663 4884 2663 5081 
z
M 2188 4044 
L 1338 1722 
L 3041 1722 
L 2188 4044 
z
M 1716 4366 
Q 1525 4494 1428 4673 
Q 1331 4853 1331 5081 
Q 1331 5441 1579 5691 
Q 1828 5941 2188 5941 
Q 2544 5941 2795 5689 
Q 3047 5438 3047 5081 
Q 3047 4863 2948 4678 
Q 2850 4494 2663 4366 
L 4325 0 
L 3669 0 
L 3244 1197 
L 1141 1197 
L 716 0 
L 50 0 
L 1716 4366 
z
" transform="scale(0.015625)"/>
       <path id="DejaVuSans-29" d="M 513 4856 
L 1013 4856 
Q 1481 4119 1714 3412 
Q 1947 2706 1947 2009 
Q 1947 1309 1714 600 
Q 1481 -109 1013 -844 
L 513 -844 
Q 928 -128 1133 580 
Q 1338 1288 1338 2009 
Q 1338 2731 1133 3434 
Q 928 4138 513 4856 
z
" transform="scale(0.015625)"/>
      </defs>
      <use xlink:href="#DejaVuSans-57"/>
      <use xlink:href="#DejaVuSans-61" x="92.501953"/>
      <use xlink:href="#DejaVuSans-76" x="153.78125"/>
      <use xlink:href="#DejaVuSans-65" x="212.960938"/>
      <use xlink:href="#DejaVuSans-6c" x="274.484375"/>
      <use xlink:href="#DejaVuSans-65" x="302.267578"/>
      <use xlink:href="#DejaVuSans-6e" x="363.791016"/>
      <use xlink:href="#DejaVuSans-67" x="427.169922"/>
      <use xlink:href="#DejaVuSans-74" x="490.646484"/>
      <use xlink:href="#DejaVuSans-68" x="529.855469"/>
      <use xlink:href="#DejaVuSans-20" x="593.234375"/>
      <use xlink:href="#DejaVuSans-28" x="625.021484"/>
      <use xlink:href="#DejaVuSans-c5" x="664.035156"/>
      <use xlink:href="#DejaVuSans-29" x="732.443359"/>
     </g>
    </g>
   </g>
   <g id="matplotlib.axis_2">
    <g id="ytick_1">
     <g id="line2d_13">
      <path d="M 62.3 388.63375 
L 853.2 388.63375 
" clip-path="url(#pe23ecd2abf)" style="fill: none; stroke: #b0b0b0; stroke-width: 0.8; stroke-linecap: square"/>
     </g>
     <g id="line2d_14">
      <defs>
       <path id="mdba56361f7" d="M 0 0 
L -3.5 0 
" style="stroke: #000000; stroke-width: 0.8"/>
      </defs>
      <g>
       <use xlink:href="#mdba56361f7" x="62.3" y="388.63375" style="stroke: #000000; stroke-width: 0.8"/>
      </g>
     </g>
     <g id="text_8">
      <!-- −0.50 -->
      <g transform="translate(24.654687 392.432969) scale(0.1 -0.1)">
       <defs>
        <path id="DejaVuSans-2212" d="M 678 2272 
L 4684 2272 
L 4684 1741 
L 678 1741 
L 678 2272 
z
" transform="scale(0.015625)"/>
        <path id="DejaVuSans-2e" d="M 684 794 
L 1344 794 
L 1344 0 
L 684 0 
L 684 794 
z
" transform="scale(0.015625)"/>
       </defs>
       <use xlink:href="#DejaVuSans-2212"/>
       <use xlink:href="#DejaVuSans-30" x="83.789062"/>
       <use xlink:href="#DejaVuSans-2e" x="147.412109"/>
       <use xlink:href="#DejaVuSans-35" x="179.199219"/>
       <use xlink:href="#DejaVuSans-30" x="242.822266"/>
      </g>
     </g>
    </g>
    <g id="ytick_2">
     <g id="line2d_15">
      <path d="M 62.3 344.049531 
L 853.2 344.049531 
" clip-path="url(#pe23ecd2abf)" style="fill: none; stroke: #b0b0b0; stroke-width: 0.8; stroke-linecap: square"/>
     </g>
     <g id="line2d_16">
      <g>
       <use xlink:href="#mdba56361f7" x="62.3" y="344.049531" style="stroke: #000000; stroke-width: 0.8"/>
      </g>
     </g>
     <g id="text_9">
      <!-- −0.25 -->
      <g transform="translate(24.654687 347.84875) scale(0.1 -0.1)">
       <use xlink:href="#DejaVuSans-2212"/>
       <use xlink:href="#DejaVuSans-30" x="83.789062"/>
       <use xlink:href="#DejaVuSans-2e" x="147.412109"/>
       <use xlink:href="#DejaVuSans-32" x="179.199219"/>
       <use xlink:href="#DejaVuSans-35" x="242.822266"/>
      </g>
     </g>
    </g>
    <g id="ytick_3">
     <g id="line2d_17">
      <path d="M 62.3 299.465313 
L 853.2 299.465313 
" clip-path="url(#pe23ecd2abf)" style="fill: none; stroke: #b0b0b0; stroke-width: 0.8; stroke-linecap: square"/>
     </g>
     <g id="line2d_18">
      <g>
       <use xlink:href="#mdba56361f7" x="62.3" y="299.465313" style="stroke: #000000; stroke-width: 0.8"/>
      </g>
     </g>
     <g id="text_10">
      <!-- 0.00 -->
      <g transform="translate(33.034375 303.264531) scale(0.1 -0.1)">
       <use xlink:href="#DejaVuSans-30"/>
       <use xlink:href="#DejaVuSans-2e" x="63.623047"/>
       <use xlink:href="#DejaVuSans-30" x="95.410156"/>
       <use xlink:href="#DejaVuSans-30" x="159.033203"/>
      </g>
     </g>
    </g>
    <g id="ytick_4">
     <g id="line2d_19">
      <path d="M 62.3 254.881094 
L 853.2 254.881094 
" clip-path="url(#pe23ecd2abf)" style="fill: none; stroke: #b0b0b0; stroke-width: 0.8; stroke-linecap: square"/>
     </g>
     <g id="line2d_20">
      <g>
       <use xlink:href="#mdba56361f7" x="62.3" y="254.881094" style="stroke: #000000; stroke-width: 0.8"/>
      </g>
     </g>
     <g id="text_11">
      <!-- 0.25 -->
      <g transform="translate(33.034375 258.680313) scale(0.1 -0.1)">
       <use xlink:href="#DejaVuSans-30"/>
       <use xlink:href="#DejaVuSans-2e" x="63.623047"/>
       <use xlink:href="#DejaVuSans-32" x="95.410156"/>
       <use xlink:href="#DejaVuSans-35" x="159.033203"/>
      </g>
     </g>
    </g>
    <g id="ytick_5">
     <g id="line2d_21">
      <path d="M 62.3 210.296875 
L 853.2 210.296875 
" clip-path="url(#pe23ecd2abf)" style="fill: none; stroke: #b0b0b0; stroke-width: 0.8; stroke-linecap: square"/>
     </g>
     <g id="line2d_22">
      <g>
       <use xlink:href="#mdba56361f7" x="62.3" y="210.296875" style="stroke: #000000; stroke-width: 0.8"/>
      </g>
     </g>
     <g id="text_12">
      <!-- 0.50 -->
      <g transform="translate(33.034375 214.096094) scale(0.1 -0.1)">
       <use xlink:href="#DejaVuSans-30"/>
       <use xlink:href="#DejaVuSans-2e" x="63.623047"/>
       <use xlink:href="#DejaVuSans-35" x="95.410156"/>
       <use xlink:href="#DejaVuSans-30" x="159.033203"/>
      </g>
     </g>
    </g>
    <g id="ytick_6">
     <g id="line2d_23">
      <path d="M 62.3 165.712656 
L 853.2 165.712656 
" clip-path="url(#pe23ecd2abf)" style="fill: none; stroke: #b0b0b0; stroke-width: 0.8; stroke-linecap: square"/>
     </g>
     <g id="line2d_24">
      <g>
       <use xlink:href="#mdba56361f7" x="62.3" y="165.712656" style="stroke: #000000; stroke-width: 0.8"/>
      </g>
     </g>
     <g id="text_13">
      <!-- 0.75 -->
      <g transform="translate(33.034375 169.511875) scale(0.1 -0.1)">
       <defs>
        <path id="DejaVuSans-37" d="M 525 4666 
L 3525 4666 
L 3525 4397 
L 1831 0 
L 1172 0 
L 2766 4134 
L 525 4134 
L 525 4666 
z
" transform="scale(0.015625)"/>
       </defs>
       <use xlink:href="#DejaVuSans-30"/>
       <use xlink:href="#DejaVuSans-2e" x="63.623047"/>
       <use xlink:href="#DejaVuSans-37" x="95.410156"/>
       <use xlink:href="#DejaVuSans-35" x="159.033203"/>
      </g>
     </g>
    </g>
    <g id="ytick_7">
     <g id="line2d_25">
      <path d="M 62.3 121.128438 
L 853.2 121.128438 
" clip-path="url(#pe23ecd2abf)" style="fill: none; stroke: #b0b0b0; stroke-width: 0.8; stroke-linecap: square"/>
     </g>
     <g id="line2d_26">
      <g>
       <use xlink:href="#mdba56361f7" x="62.3" y="121.128438" style="stroke: #000000; stroke-width: 0.8"/>
      </g>
     </g>
     <g id="text_14">
      <!-- 1.00 -->
      <g transform="translate(33.034375 124.927656) scale(0.1 -0.1)">
       <defs>
        <path id="DejaVuSans-31" d="M 794 531 
L 1825 531 
L 1825 4091 
L 703 3866 
L 703 4441 
L 1819 4666 
L 2450 4666 
L 2450 531 
L 3481 531 
L 3481 0 
L 794 0 
L 794 531 
z
" transform="scale(0.015625)"/>
       </defs>
       <use xlink:href="#DejaVuSans-31"/>
       <use xlink:href="#DejaVuSans-2e" x="63.623047"/>
       <use xlink:href="#DejaVuSans-30" x="95.410156"/>
       <use xlink:href="#DejaVuSans-30" x="159.033203"/>
      </g>
     </g>
    </g>
    <g id="ytick_8">
     <g id="line2d_27">
      <path d="M 62.3 76.544219 
L 853.2 76.544219 
" clip-path="url(#pe23ecd2abf)" style="fill: none; stroke: #b0b0b0; stroke-width: 0.8; stroke-linecap: square"/>
     </g>
     <g id="line2d_28">
      <g>
       <use xlink:href="#mdba56361f7" x="62.3" y="76.544219" style="stroke: #000000; stroke-width: 0.8"/>
      </g>
     </g>
     <g id="text_15">
      <!-- 1.25 -->
      <g transform="translate(33.034375 80.343438) scale(0.1 -0.1)">
       <use xlink:href="#DejaVuSans-31"/>
       <use xlink:href="#DejaVuSans-2e" x="63.623047"/>
       <use xlink:href="#DejaVuSans-32" x="95.410156"/>
       <use xlink:href="#DejaVuSans-35" x="159.033203"/>
      </g>
     </g>
    </g>
    <g id="ytick_9">
     <g id="line2d_29">
      <path d="M 62.3 31.96 
L 853.2 31.96 
" clip-path="url(#pe23ecd2abf)" style="fill: none; stroke: #b0b0b0; stroke-width: 0.8; stroke-linecap: square"/>
     </g>
     <g id="line2d_30">
      <g>
       <use xlink:href="#mdba56361f7" x="62.3" y="31.96" style="stroke: #000000; stroke-width: 0.8"/>
      </g>
     </g>
     <g id="text_16">
      <!-- 1.50 -->
      <g transform="translate(33.034375 35.759219) scale(0.1 -0.1)">
       <use xlink:href="#DejaVuSans-31"/>
       <use xlink:href="#DejaVuSans-2e" x="63.623047"/>
       <use xlink:href="#DejaVuSans-35" x="95.410156"/>
       <use xlink:href="#DejaVuSans-30" x="159.033203"/>
      </g>
     </g>
    </g>
    <g id="text_17">
     <!-- Intensity (normalized) -->
     <g transform="translate(18.575 265.333594) rotate(-90) scale(0.1 -0.1)">
      <defs>
       <path id="DejaVuSans-49" d="M 628 4666 
L 1259 4666 
L 1259 0 
L 628 0 
L 628 4666 
z
" transform="scale(0.015625)"/>
       <path id="DejaVuSans-73" d="M 2834 3397 
L 2834 2853 
Q 2591 2978 2328 3040 
Q 2066 3103 1784 3103 
Q 1356 3103 1142 2972 
Q 928 2841 928 2578 
Q 928 2378 1081 2264 
Q 1234 2150 1697 2047 
L 1894 2003 
Q 2506 1872 2764 1633 
Q 3022 1394 3022 966 
Q 3022 478 2636 193 
Q 2250 -91 1575 -91 
Q 1294 -91 989 -36 
Q 684 19 347 128 
L 347 722 
Q 666 556 975 473 
Q 1284 391 1588 391 
Q 1994 391 2212 530 
Q 2431 669 2431 922 
Q 2431 1156 2273 1281 
Q 2116 1406 1581 1522 
L 1381 1569 
Q 847 1681 609 1914 
Q 372 2147 372 2553 
Q 372 3047 722 3315 
Q 1072 3584 1716 3584 
Q 2034 3584 2315 3537 
Q 2597 3491 2834 3397 
z
" transform="scale(0.015625)"/>
       <path id="DejaVuSans-69" d="M 603 3500 
L 1178 3500 
L 1178 0 
L 603 0 
L 603 3500 
z
M 603 4863 
L 1178 4863 
L 1178 4134 
L 603 4134 
L 603 4863 
z
" transform="scale(0.015625)"/>
       <path id="DejaVuSans-79" d="M 2059 -325 
Q 1816 -950 1584 -1140 
Q 1353 -1331 966 -1331 
L 506 -1331 
L 506 -850 
L 844 -850 
Q 1081 -850 1212 -737 
Q 1344 -625 1503 -206 
L 1606 56 
L 191 3500 
L 800 3500 
L 1894 763 
L 2988 3500 
L 3597 3500 
L 2059 -325 
z
" transform="scale(0.015625)"/>
       <path id="DejaVuSans-6f" d="M 1959 3097 
Q 1497 3097 1228 2736 
Q 959 2375 959 1747 
Q 959 1119 1226 758 
Q 1494 397 1959 397 
Q 2419 397 2687 759 
Q 2956 1122 2956 1747 
Q 2956 2369 2687 2733 
Q 2419 3097 1959 3097 
z
M 1959 3584 
Q 2709 3584 3137 3096 
Q 3566 2609 3566 1747 
Q 3566 888 3137 398 
Q 2709 -91 1959 -91 
Q 1206 -91 779 398 
Q 353 888 353 1747 
Q 353 2609 779 3096 
Q 1206 3584 1959 3584 
z
" transform="scale(0.015625)"/>
       <path id="DejaVuSans-72" d="M 2631 2963 
Q 2534 3019 2420 3045 
Q 2306 3072 2169 3072 
Q 1681 3072 1420 2755 
Q 1159 2438 1159 1844 
L 1159 0 
L 581 0 
L 581 3500 
L 1159 3500 
L 1159 2956 
Q 1341 3275 1631 3429 
Q 1922 3584 2338 3584 
Q 2397 3584 2469 3576 
Q 2541 3569 2628 3553 
L 2631 2963 
z
" transform="scale(0.015625)"/>
       <path id="DejaVuSans-6d" d="M 3328 2828 
Q 3544 3216 3844 3400 
Q 4144 3584 4550 3584 
Q 5097 3584 5394 3201 
Q 5691 2819 5691 2113 
L 5691 0 
L 5113 0 
L 5113 2094 
Q 5113 2597 4934 2840 
Q 4756 3084 4391 3084 
Q 3944 3084 3684 2787 
Q 3425 2491 3425 1978 
L 3425 0 
L 2847 0 
L 2847 2094 
Q 2847 2600 2669 2842 
Q 2491 3084 2119 3084 
Q 1678 3084 1418 2786 
Q 1159 2488 1159 1978 
L 1159 0 
L 581 0 
L 581 3500 
L 1159 3500 
L 1159 2956 
Q 1356 3278 1631 3431 
Q 1906 3584 2284 3584 
Q 2666 3584 2933 3390 
Q 3200 3197 3328 2828 
z
" transform="scale(0.015625)"/>
       <path id="DejaVuSans-7a" d="M 353 3500 
L 3084 3500 
L 3084 2975 
L 922 459 
L 3084 459 
L 3084 0 
L 275 0 
L 275 525 
L 2438 3041 
L 353 3041 
L 353 3500 
z
" transform="scale(0.015625)"/>
       <path id="DejaVuSans-64" d="M 2906 2969 
L 2906 4863 
L 3481 4863 
L 3481 0 
L 2906 0 
L 2906 525 
Q 2725 213 2448 61 
Q 2172 -91 1784 -91 
Q 1150 -91 751 415 
Q 353 922 353 1747 
Q 353 2572 751 3078 
Q 1150 3584 1784 3584 
Q 2172 3584 2448 3432 
Q 2725 3281 2906 2969 
z
M 947 1747 
Q 947 1113 1208 752 
Q 1469 391 1925 391 
Q 2381 391 2643 752 
Q 2906 1113 2906 1747 
Q 2906 2381 2643 2742 
Q 2381 3103 1925 3103 
Q 1469 3103 1208 2742 
Q 947 2381 947 1747 
z
" transform="scale(0.015625)"/>
      </defs>
      <use xlink:href="#DejaVuSans-49"/>
      <use xlink:href="#DejaVuSans-6e" x="29.492188"/>
      <use xlink:href="#DejaVuSans-74" x="92.871094"/>
      <use xlink:href="#DejaVuSans-65" x="132.080078"/>
      <use xlink:href="#DejaVuSans-6e" x="193.603516"/>
      <use xlink:href="#DejaVuSans-73" x="256.982422"/>
      <use xlink:href="#DejaVuSans-69" x="309.082031"/>
      <use xlink:href="#DejaVuSans-74" x="336.865234"/>
      <use xlink:href="#DejaVuSans-79" x="376.074219"/>
      <use xlink:href="#DejaVuSans-20" x="435.253906"/>
      <use xlink:href="#DejaVuSans-28" x="467.041016"/>
      <use xlink:href="#DejaVuSans-6e" x="506.054688"/>
      <use xlink:href="#DejaVuSans-6f" x="569.433594"/>
      <use xlink:href="#DejaVuSans-72" x="630.615234"/>
      <use xlink:href="#DejaVuSans-6d" x="669.978516"/>
      <use xlink:href="#DejaVuSans-61" x="767.390625"/>
      <use xlink:href="#DejaVuSans-6c" x="828.669922"/>
      <use xlink:href="#DejaVuSans-69" x="856.453125"/>
      <use xlink:href="#DejaVuSans-7a" x="884.236328"/>
      <use xlink:href="#DejaVuSans-65" x="936.726562"/>
      <use xlink:href="#DejaVuSans-64" x="998.25"/>
      <use xlink:href="#DejaVuSans-29" x="1061.726562"/>
     </g>
    </g>
   </g>
   <g id="line2d_31">
    <path d="M 62.3 286.0971 
L 62.620533 288.994817 
L 62.941215 288.192417 
L 63.262046 286.944657 
L 63.583026 284.762535 
L 63.904154 285.159964 
L 64.225432 285.154155 
L 64.54686 285.925569 
L 64.868438 285.18827 
L 65.190165 285.502416 
L 65.512043 286.334516 
L 65.834072 286.374628 
L 66.47858 285.624148 
L 66.801061 284.70821 
L 67.123694 285.777078 
L 67.446478 285.352275 
L 67.769413 285.582709 
L 68.092501 285.614103 
L 68.41574 285.518406 
L 68.739132 285.549159 
L 69.710225 288.522716 
L 70.034229 288.958061 
L 70.358386 288.942449 
L 70.682697 289.447177 
L 71.007162 288.610764 
L 71.33178 288.155351 
L 71.656554 288.080423 
L 71.981481 287.775066 
L 72.306564 287.747111 
L 72.957194 285.885756 
L 73.282741 285.294955 
L 73.608445 285.038059 
L 73.934304 284.317142 
L 74.26032 284.930429 
L 74.586491 286.040359 
L 75.239304 288.865951 
L 75.565946 289.868882 
L 76.2197 292.883726 
L 76.546814 294.800414 
L 76.874085 295.940931 
L 77.201514 296.609791 
L 77.529102 297.008951 
L 78.184752 298.485021 
L 78.512815 298.704292 
L 78.841037 298.211463 
L 79.169418 298.003387 
L 79.497959 297.584327 
L 79.82666 296.867532 
L 80.15552 296.628319 
L 80.48454 296.805265 
L 80.813721 296.827975 
L 81.472565 297.785145 
L 81.802228 298.842146 
L 82.132052 298.992462 
L 82.462037 299.278887 
L 82.792184 299.244223 
L 83.122493 299.465313 
L 83.783597 298.859306 
L 84.114393 297.917754 
L 85.107757 292.499801 
L 86.10259 285.83694 
L 86.766632 280.530489 
L 87.763927 273.911436 
L 88.096689 273.222776 
L 88.762708 270.38077 
L 89.42939 270.893481 
L 90.430659 273.151988 
L 91.76802 280.812279 
L 92.772799 285.977149 
L 93.108062 286.703518 
L 93.443493 286.957171 
L 93.779092 286.36222 
L 94.114861 284.119525 
L 94.450799 282.974516 
L 96.13303 273.904513 
L 96.469987 273.347875 
L 96.807114 272.421244 
L 97.144412 272.131964 
L 97.481881 273.029219 
L 97.819522 273.110167 
L 98.157333 272.926671 
L 98.495317 272.889266 
L 98.833472 271.603781 
L 99.171799 273.648185 
L 99.510299 273.685745 
L 100.526833 278.580181 
L 100.866024 280.070495 
L 101.544926 284.877527 
L 101.884638 287.539074 
L 102.224524 288.253336 
L 102.564584 288.590734 
L 102.904818 288.541509 
L 103.245227 287.000222 
L 103.585811 286.946647 
L 103.92657 286.084743 
L 104.608613 282.053003 
L 105.29136 277.506935 
L 105.632998 276.183473 
L 105.974812 275.330723 
L 106.658969 273.280847 
L 107.001313 272.468684 
L 107.343835 270.739038 
L 107.686534 270.050049 
L 108.02941 269.916236 
L 108.372465 270.687891 
L 108.715697 272.624615 
L 109.059108 273.017531 
L 109.402697 273.583599 
L 109.746465 273.154236 
L 110.090412 273.608801 
L 110.434538 273.076057 
L 110.778844 273.887336 
L 111.123329 274.096016 
L 111.812838 271.97797 
L 112.157863 270.012753 
L 112.848455 267.409335 
L 113.194022 267.319451 
L 113.53977 268.171494 
L 114.578102 265.734508 
L 114.924577 264.118226 
L 115.271233 263.980174 
L 115.618072 262.925349 
L 115.965094 263.113922 
L 116.312298 262.387124 
L 117.35501 259.080387 
L 117.702947 258.32168 
L 118.051069 258.34815 
L 118.399374 259.290291 
L 118.747864 259.171576 
L 119.096538 258.917417 
L 119.445397 259.106968 
L 119.794441 259.615834 
L 120.493085 260.026721 
L 120.842685 260.57983 
L 121.19247 260.371187 
L 121.542442 260.989939 
L 121.8926 260.053757 
L 122.242944 261.005814 
L 122.593475 261.299878 
L 122.944193 261.96382 
L 123.295098 262.931142 
L 123.646191 262.885707 
L 123.99747 262.993428 
L 124.348938 263.515505 
L 124.700593 263.161177 
L 125.052437 262.193632 
L 125.404468 261.994611 
L 126.109098 260.632204 
L 126.461696 261.182046 
L 126.814484 259.355352 
L 127.16746 259.275288 
L 127.520627 258.82818 
L 127.873983 260.404607 
L 128.22753 261.288289 
L 129.289311 269.487732 
L 129.64362 271.12162 
L 129.99812 271.416381 
L 130.352811 272.076868 
L 130.707694 272.418724 
L 131.062769 272.041502 
L 131.418035 271.438356 
L 131.773494 270.195445 
L 132.129145 267.708725 
L 132.484989 266.789496 
L 133.197255 263.321208 
L 133.553679 264.26252 
L 133.910295 263.546035 
L 134.267105 263.944399 
L 134.624109 263.443422 
L 134.981308 262.439781 
L 135.3387 263.510053 
L 135.696287 263.569233 
L 136.054069 262.482458 
L 136.412046 263.112435 
L 136.770219 261.632035 
L 137.128586 261.588046 
L 137.487149 259.837442 
L 137.845908 260.260166 
L 138.204863 259.595626 
L 138.564015 260.434737 
L 138.923363 259.519711 
L 139.282907 259.563438 
L 140.002587 260.203229 
L 140.362723 260.179269 
L 140.723057 260.727501 
L 141.083588 260.321346 
L 141.805245 263.194517 
L 142.166371 264.835035 
L 142.527695 265.659729 
L 142.889219 264.728003 
L 143.612863 263.699195 
L 144.337305 265.109292 
L 144.699825 264.470492 
L 145.062546 263.138273 
L 145.788589 259.557447 
L 146.151912 258.136864 
L 146.515435 258.113595 
L 146.87916 255.409824 
L 147.243086 255.202552 
L 147.607214 254.740142 
L 147.971544 253.51709 
L 148.336075 253.741669 
L 148.700809 255.024501 
L 149.065746 255.753395 
L 149.430885 255.876359 
L 149.796227 256.292475 
L 150.161772 256.200041 
L 150.893473 256.83392 
L 151.259628 256.610647 
L 151.625988 254.452411 
L 151.992552 253.420224 
L 152.359321 251.225752 
L 152.726294 251.060346 
L 153.460854 250.352882 
L 153.828443 250.716476 
L 154.196236 250.493798 
L 154.564236 250.981424 
L 154.932441 250.91253 
L 155.66947 252.529309 
L 156.407325 251.759705 
L 156.776563 250.849081 
L 157.146008 249.605734 
L 157.515661 250.291721 
L 157.885521 249.947829 
L 158.255589 249.159377 
L 158.625865 250.100439 
L 158.99635 249.27707 
L 159.367043 249.386541 
L 159.737944 248.516821 
L 160.109055 248.525937 
L 160.851903 249.269711 
L 161.223641 250.600492 
L 161.59559 250.096639 
L 162.340116 250.022966 
L 162.712695 249.049991 
L 163.085484 249.06283 
L 163.458484 247.520741 
L 163.831696 247.347371 
L 164.205118 245.474183 
L 164.578752 244.547225 
L 164.952598 244.145604 
L 165.326655 243.453649 
L 165.700925 243.081987 
L 166.450102 243.717436 
L 166.825009 244.360971 
L 167.575463 243.86888 
L 168.32677 244.086946 
L 168.702745 242.52262 
L 169.078933 242.009887 
L 169.455336 241.251456 
L 169.831953 239.715968 
L 170.208784 239.44554 
L 170.585831 238.916179 
L 170.963093 238.847391 
L 171.34057 238.256053 
L 171.718263 238.709809 
L 172.096171 238.77159 
L 172.474296 237.641433 
L 172.852636 239.464211 
L 173.231193 239.165896 
L 174.368165 242.89645 
L 174.747589 242.86878 
L 175.127231 243.971925 
L 175.507091 243.759761 
L 175.887169 245.105335 
L 176.267465 245.598395 
L 176.647979 245.401372 
L 177.028712 245.39251 
L 177.409663 244.711976 
L 177.790834 243.584471 
L 178.172223 244.084843 
L 178.553832 243.695501 
L 178.935661 242.568092 
L 179.317709 241.890795 
L 180.082467 239.487744 
L 180.465176 239.493456 
L 181.614628 236.441531 
L 181.998222 235.974882 
L 182.382036 235.154934 
L 182.766073 235.764412 
L 183.150331 237.146974 
L 183.534812 236.224074 
L 183.919515 236.377583 
L 184.304441 236.18201 
L 184.689589 236.453189 
L 185.460555 234.035707 
L 185.846374 234.241134 
L 186.232415 233.294636 
L 186.618681 231.974198 
L 187.005171 232.199243 
L 187.391885 231.526936 
L 187.778824 230.223246 
L 188.165988 230.356299 
L 188.553376 229.732941 
L 188.94099 230.227407 
L 189.328829 231.438214 
L 189.716893 232.041483 
L 190.105184 233.684083 
L 190.4937 234.06159 
L 190.882443 235.62853 
L 191.271412 236.338849 
L 191.660608 236.33635 
L 192.050031 237.749193 
L 192.43968 236.600712 
L 192.829558 236.613728 
L 193.219662 235.063852 
L 193.609995 234.43003 
L 194.000555 232.374985 
L 194.782361 230.076848 
L 195.173606 230.729585 
L 195.56508 230.744672 
L 196.348716 231.684208 
L 196.740879 233.222023 
L 197.13327 232.173791 
L 197.525892 231.639552 
L 198.311826 231.929101 
L 198.705138 232.750811 
L 199.098682 232.061533 
L 199.492456 231.707949 
L 199.886461 231.619031 
L 200.280698 230.73158 
L 200.675167 230.245644 
L 201.069867 230.377455 
L 201.464799 229.924354 
L 201.859964 229.086376 
L 202.255361 228.744866 
L 202.65099 227.977431 
L 203.046853 227.502947 
L 203.442949 226.425242 
L 203.839278 225.729645 
L 204.23584 225.440884 
L 204.632636 223.597792 
L 205.029666 223.841213 
L 205.426931 222.834679 
L 205.824429 223.321713 
L 206.222163 221.62689 
L 206.620131 220.620416 
L 207.416772 219.498064 
L 207.815446 219.03186 
L 208.214356 218.803952 
L 209.4125 217.799883 
L 209.812354 218.157475 
L 210.212446 217.785854 
L 210.612774 217.752821 
L 211.013339 218.176974 
L 211.414141 219.020528 
L 211.815181 218.346329 
L 212.216459 218.8406 
L 212.617975 218.576818 
L 213.019729 219.311428 
L 213.421722 218.598085 
L 213.823953 217.646624 
L 214.226423 219.277397 
L 215.435269 216.399112 
L 215.838697 216.922516 
L 216.242365 217.067728 
L 216.646273 215.968623 
L 217.050421 216.066985 
L 217.85944 216.701105 
L 218.264311 216.240692 
L 218.669423 216.708233 
L 219.074776 218.537136 
L 219.480371 218.916578 
L 220.698608 222.201198 
L 221.105172 221.892434 
L 221.511979 222.850481 
L 221.919028 223.172385 
L 222.326321 223.153189 
L 222.733857 222.674699 
L 223.141637 222.507345 
L 223.54966 221.97466 
L 223.957928 221.827871 
L 224.366439 220.859634 
L 224.775195 221.401288 
L 225.593442 219.011892 
L 226.002933 217.10954 
L 226.82265 215.184092 
L 227.232878 214.498981 
L 227.643351 213.469262 
L 228.05407 212.000398 
L 228.465036 212.123023 
L 229.287707 209.75805 
L 229.699414 209.858838 
L 230.111367 209.811958 
L 230.936016 210.645194 
L 231.348713 211.746031 
L 231.761657 212.270817 
L 232.17485 211.404602 
L 232.588291 213.101768 
L 233.001981 213.320729 
L 234.244546 216.259767 
L 234.659233 215.72755 
L 235.074169 216.789297 
L 235.489356 215.601493 
L 236.320481 215.960684 
L 236.736419 216.296083 
L 237.152608 215.911937 
L 237.569048 216.762476 
L 237.985739 215.854275 
L 238.402682 215.504641 
L 238.819877 214.700787 
L 239.237323 213.380701 
L 239.655022 213.255401 
L 240.491177 212.504735 
L 240.909633 211.062349 
L 241.747306 209.056356 
L 242.166522 209.715258 
L 242.585991 209.229474 
L 243.005715 208.98509 
L 243.845925 210.816222 
L 244.266411 210.983419 
L 244.687152 212.330752 
L 245.108149 211.159838 
L 245.5294 211.541457 
L 245.950907 210.568128 
L 246.372669 210.7173 
L 246.794687 211.299041 
L 247.216961 210.919479 
L 247.639491 210.077628 
L 248.062278 210.358382 
L 248.485321 209.670591 
L 248.908621 209.374346 
L 249.332179 209.391167 
L 249.755993 210.268036 
L 250.180065 209.51321 
L 250.604395 209.76179 
L 251.028983 208.74052 
L 251.453829 208.939765 
L 251.878933 207.715608 
L 252.304296 208.987252 
L 252.729917 209.092887 
L 253.155798 208.949271 
L 253.581938 210.657764 
L 254.008337 210.984803 
L 254.434996 212.217479 
L 254.861915 212.879705 
L 255.289093 212.292806 
L 255.716533 213.741641 
L 256.144232 214.090952 
L 256.572192 213.727675 
L 257.000414 212.879299 
L 257.85764 212.841681 
L 258.286645 210.964115 
L 258.715912 209.647374 
L 259.145441 210.084468 
L 259.575233 208.765357 
L 260.005286 208.031912 
L 260.435603 207.906943 
L 260.866182 206.992372 
L 261.297024 206.507509 
L 261.72813 206.408338 
L 262.159499 205.716161 
L 262.591132 207.160342 
L 263.023029 207.254103 
L 263.45519 207.568916 
L 263.887615 207.328534 
L 264.320305 207.221904 
L 264.753259 206.998825 
L 265.186479 207.455165 
L 265.619964 205.903275 
L 266.053714 205.920041 
L 266.48773 205.658051 
L 266.922011 205.147265 
L 267.356559 205.374564 
L 267.791373 203.991029 
L 268.226454 204.949163 
L 268.661801 203.995576 
L 269.533296 202.882084 
L 269.969445 201.820267 
L 270.405861 201.490468 
L 270.842545 200.957401 
L 271.279497 199.330175 
L 271.716718 197.148964 
L 272.154206 197.061357 
L 272.591964 196.67403 
L 273.02999 196.788608 
L 273.468285 196.366023 
L 273.906849 196.78714 
L 274.345683 196.139712 
L 274.784787 194.374216 
L 275.663804 195.412864 
L 276.103718 195.293751 
L 276.543903 196.110728 
L 276.984359 195.447976 
L 277.425085 194.529896 
L 277.866083 194.548147 
L 278.307352 193.88861 
L 278.748892 193.995637 
L 279.190705 192.812823 
L 279.632789 193.134978 
L 280.075146 191.746611 
L 280.517776 191.723283 
L 280.960678 190.725862 
L 281.403853 191.740666 
L 281.847301 191.080781 
L 282.291022 189.986461 
L 283.179286 191.561305 
L 283.623829 191.714701 
L 284.068646 190.987236 
L 284.513737 191.439059 
L 284.959103 191.314459 
L 285.85066 191.471134 
L 286.296851 191.228831 
L 286.743318 191.63259 
L 287.19006 192.501362 
L 287.637079 192.197208 
L 288.084373 192.590287 
L 288.531944 193.266416 
L 288.979791 192.645257 
L 289.427915 193.173422 
L 289.876316 195.114595 
L 290.324995 194.43855 
L 290.77395 195.560241 
L 291.223184 195.028363 
L 291.672695 195.081468 
L 292.122484 194.990384 
L 292.572552 195.760345 
L 293.022898 194.515791 
L 293.924426 195.906431 
L 294.375609 194.902562 
L 294.827071 195.001999 
L 295.278812 195.436079 
L 295.730834 196.384444 
L 296.183135 196.949616 
L 296.635717 198.281061 
L 297.088579 197.111812 
L 297.995145 197.978065 
L 298.448849 197.825039 
L 298.902835 196.661092 
L 299.357102 196.682658 
L 299.811651 196.099042 
L 300.266482 196.056476 
L 300.721595 194.726422 
L 301.176991 195.58207 
L 301.632668 194.845596 
L 302.544873 194.965415 
L 303.0014 194.253723 
L 303.45821 194.212732 
L 303.915304 193.080906 
L 304.830343 192.335317 
L 305.288289 191.213572 
L 305.74652 191.575023 
L 306.205035 190.923292 
L 306.663835 191.922146 
L 307.12292 192.268594 
L 308.041947 194.560157 
L 308.962117 199.52852 
L 309.422631 200.900871 
L 310.344518 200.833667 
L 310.805892 200.635793 
L 311.267553 200.235414 
L 311.729501 200.265377 
L 312.191737 199.572526 
L 313.117071 197.831593 
L 313.580171 195.742156 
L 314.9712 192.625125 
L 315.435454 192.643159 
L 316.36483 192.226327 
L 316.829952 193.142645 
L 317.295364 193.770153 
L 317.761066 194.183308 
L 318.227058 193.172658 
L 318.693341 192.842318 
L 319.159915 193.405548 
L 319.626779 193.427278 
L 320.093935 192.3932 
L 321.49715 190.540722 
L 321.965472 189.52376 
L 322.434087 188.994 
L 323.372193 189.190791 
L 323.841685 188.132025 
L 324.31147 188.718587 
L 324.781549 188.58241 
L 325.251921 189.077765 
L 325.722586 187.673927 
L 326.193546 187.962287 
L 326.6648 187.433442 
L 327.136348 186.564047 
L 327.60819 186.076615 
L 328.080327 186.51745 
L 328.55276 186.261565 
L 329.025487 186.741264 
L 329.49851 187.495743 
L 329.971828 186.351765 
L 330.445443 187.19612 
L 330.919353 188.589277 
L 331.393559 188.960096 
L 331.868062 190.133209 
L 332.817959 190.827065 
L 333.293352 189.987972 
L 333.769044 189.38457 
L 334.245032 190.327169 
L 334.721318 189.656971 
L 335.197903 189.245503 
L 336.151966 187.667557 
L 336.629446 186.238919 
L 337.107224 185.827059 
L 337.585301 186.353145 
L 338.063678 184.098752 
L 338.542354 185.326314 
L 339.02133 183.444088 
L 339.500605 183.712203 
L 339.980181 183.27862 
L 340.460057 181.916493 
L 340.940234 181.563601 
L 341.420711 180.974585 
L 342.382569 179.165468 
L 342.86395 177.567155 
L 343.345632 178.156247 
L 343.827617 176.800629 
L 344.309903 176.587681 
L 344.792492 175.813494 
L 345.275383 176.297017 
L 345.758577 175.529187 
L 346.242073 175.97272 
L 346.725873 176.263773 
L 347.209976 177.861953 
L 347.694383 178.413962 
L 348.179093 178.356338 
L 348.664107 181.184268 
L 349.149426 180.824963 
L 349.635049 182.70351 
L 350.120976 182.727418 
L 351.093746 185.041705 
L 351.580588 183.991997 
L 352.067736 184.236211 
L 352.55519 183.901029 
L 353.04295 183.392866 
L 353.531015 183.871857 
L 354.019387 183.154107 
L 354.508066 181.847462 
L 355.486343 183.228963 
L 355.975943 182.459503 
L 356.46585 183.118563 
L 356.956064 181.914813 
L 357.446586 181.13348 
L 357.937417 181.24732 
L 358.428555 179.674388 
L 358.920002 179.752001 
L 359.411758 180.444263 
L 359.903822 180.041636 
L 360.396196 179.97951 
L 360.888879 179.484368 
L 361.381871 179.307762 
L 361.875173 179.982126 
L 362.368786 180.054305 
L 362.862708 179.821542 
L 363.356941 180.859352 
L 363.851484 180.753764 
L 364.346338 182.217466 
L 364.841503 182.124521 
L 365.33698 182.824559 
L 365.832768 183.091377 
L 366.328867 184.139888 
L 366.825278 182.958916 
L 367.322002 183.141527 
L 367.819038 182.14549 
L 368.316386 182.868704 
L 368.814047 182.702761 
L 369.810308 182.622534 
L 370.308909 183.179414 
L 370.807823 183.949086 
L 371.307051 183.182483 
L 371.806593 184.451911 
L 372.306449 185.336326 
L 372.80662 185.295176 
L 373.307106 184.982833 
L 374.810452 183.142085 
L 375.312198 182.763366 
L 375.81426 181.772373 
L 376.316638 181.316701 
L 376.819332 178.510863 
L 377.322342 178.252884 
L 377.825669 177.651817 
L 378.329313 177.819557 
L 378.833274 177.020955 
L 379.337552 175.839804 
L 379.842147 175.043154 
L 380.347061 174.790326 
L 380.852292 173.085716 
L 381.357841 174.392997 
L 381.863708 173.052713 
L 382.369894 172.53886 
L 382.876399 173.928422 
L 383.383223 172.522177 
L 383.890365 173.053596 
L 384.397828 173.79024 
L 384.905609 173.080565 
L 385.413711 174.895884 
L 385.922133 174.797524 
L 386.430874 175.658053 
L 386.939937 175.517759 
L 387.44932 175.157498 
L 387.959023 173.689762 
L 388.469048 173.763095 
L 388.979395 174.057735 
L 389.490062 172.818358 
L 390.001052 170.93058 
L 390.512363 170.765123 
L 392.048231 167.874792 
L 392.560833 167.491484 
L 393.073757 166.827502 
L 393.587005 167.205902 
L 394.100576 166.139598 
L 394.61447 166.339811 
L 395.128689 166.90133 
L 395.643231 166.941281 
L 396.158098 167.393831 
L 396.67329 166.958203 
L 397.188806 165.835337 
L 397.704647 165.934726 
L 398.220814 166.296893 
L 398.737305 165.634474 
L 399.254122 165.865851 
L 399.771265 165.731687 
L 400.288735 166.059298 
L 400.80653 165.359456 
L 401.324652 164.273806 
L 401.8431 164.58088 
L 402.361875 163.716503 
L 402.880978 163.900912 
L 403.400407 162.508858 
L 403.920164 160.621663 
L 404.440249 161.426235 
L 404.960662 160.727056 
L 405.481403 160.719764 
L 406.002472 159.355566 
L 406.52387 159.702054 
L 407.045597 159.382406 
L 407.567653 159.943323 
L 408.090038 159.344311 
L 409.135796 160.747685 
L 409.65917 161.685324 
L 410.182874 161.060337 
L 410.706908 162.373266 
L 411.755969 162.015794 
L 412.280995 162.670131 
L 412.806353 162.66507 
L 413.858062 162.269751 
L 414.384414 161.871393 
L 414.911099 162.778836 
L 415.965464 162.542624 
L 416.493146 163.049409 
L 417.021161 162.096036 
L 417.549508 162.633759 
L 418.078189 161.769323 
L 418.607204 162.907894 
L 419.136552 163.735977 
L 419.666234 163.346822 
L 420.19625 163.787181 
L 421.257286 165.615115 
L 421.788306 165.866325 
L 422.319661 165.81934 
L 422.851351 166.028405 
L 423.383376 165.141442 
L 423.915738 165.631071 
L 424.448435 165.627322 
L 424.981468 164.192967 
L 425.514837 164.517162 
L 426.048543 164.639945 
L 426.582586 163.455874 
L 427.116966 164.279915 
L 428.186737 166.892293 
L 428.722128 166.964693 
L 429.257858 169.563454 
L 429.793925 170.743703 
L 430.330331 171.360289 
L 431.404158 176.691259 
L 432.47934 184.37169 
L 434.094659 190.891869 
L 434.633778 190.957478 
L 435.173237 189.890726 
L 435.713037 189.917237 
L 436.253177 188.731959 
L 438.417148 177.362637 
L 438.958995 175.814659 
L 439.501183 174.777982 
L 440.586585 173.233259 
L 441.1298 173.265611 
L 441.673358 172.53198 
L 442.217259 171.601341 
L 442.761503 171.594748 
L 443.30609 170.473618 
L 443.851021 168.322557 
L 444.396295 167.584907 
L 445.487876 163.125162 
L 446.034183 163.650935 
L 446.580835 161.712452 
L 447.127832 162.360138 
L 447.675173 162.168138 
L 448.22286 162.283986 
L 448.770893 162.846034 
L 449.319271 162.879309 
L 449.867995 163.372221 
L 450.417065 165.082225 
L 450.966482 164.61595 
L 451.516245 167.428423 
L 452.066355 167.720927 
L 452.616812 167.780787 
L 453.167616 165.802931 
L 453.718768 164.732568 
L 454.822114 161.434857 
L 455.374309 160.093086 
L 455.926853 156.792383 
L 457.032985 153.363776 
L 457.586575 151.242481 
L 458.140513 151.626153 
L 458.694801 150.025735 
L 459.804426 151.332604 
L 460.359763 151.046093 
L 460.915451 151.695207 
L 462.027878 150.623745 
L 462.584617 150.707831 
L 463.141707 151.988007 
L 463.699149 151.73918 
L 464.256943 153.777365 
L 464.815088 152.063353 
L 465.373584 153.052096 
L 465.932433 152.717495 
L 466.491635 152.197956 
L 467.611095 152.638478 
L 468.171355 152.799401 
L 468.731968 151.863161 
L 469.292934 154.250751 
L 469.854254 155.274079 
L 470.415928 156.981004 
L 470.977956 158.266184 
L 471.540338 158.825419 
L 472.103075 160.543786 
L 472.666166 161.802547 
L 473.229612 162.091604 
L 474.35757 160.741392 
L 474.922083 157.905019 
L 475.486951 156.406673 
L 476.617755 152.343604 
L 477.183692 151.188351 
L 477.749985 150.288864 
L 478.316635 150.829467 
L 478.883642 150.463236 
L 479.451007 150.255833 
L 480.018729 151.318327 
L 480.586808 151.621007 
L 481.155246 152.554862 
L 481.724041 153.95888 
L 482.293195 155.851756 
L 482.862708 156.006773 
L 483.432579 156.805452 
L 484.00281 155.683093 
L 484.573399 155.631287 
L 485.144348 154.208585 
L 485.715657 153.96616 
L 486.287325 152.851751 
L 487.431742 151.663222 
L 488.004491 150.194453 
L 489.151072 148.595585 
L 489.724904 148.633276 
L 490.873652 149.355156 
L 491.448569 149.280309 
L 492.023847 148.813329 
L 492.599488 148.768718 
L 493.175491 150.107052 
L 493.751857 152.229491 
L 494.905677 155.479705 
L 495.483132 154.84747 
L 496.060951 155.05436 
L 496.639133 154.848419 
L 497.217679 154.150258 
L 497.796589 154.082153 
L 498.375864 153.171682 
L 498.955503 152.677743 
L 499.535506 151.044405 
L 500.115875 149.954187 
L 500.696609 149.612776 
L 501.277709 149.562535 
L 501.859174 150.249905 
L 502.441004 150.520345 
L 503.023201 151.278104 
L 503.605764 150.266243 
L 504.188694 150.698463 
L 504.77199 150.383097 
L 505.355654 148.730389 
L 505.939684 149.226581 
L 506.524082 148.822678 
L 507.108847 148.611367 
L 507.69398 148.597939 
L 508.279481 147.878248 
L 508.86535 149.0957 
L 509.451587 151.153252 
L 510.038194 152.437286 
L 510.625169 152.522875 
L 511.212513 155.566918 
L 511.800226 154.914587 
L 512.388309 156.455506 
L 512.976761 156.220326 
L 513.565584 155.595856 
L 514.154776 154.45842 
L 514.744339 153.652361 
L 515.924576 151.501269 
L 517.697715 146.331888 
L 518.289505 145.479372 
L 518.881666 146.066966 
L 519.474199 146.937079 
L 520.067104 146.721004 
L 520.660382 145.822923 
L 521.848056 147.058642 
L 522.442453 147.999338 
L 523.037223 148.221026 
L 523.632366 148.644311 
L 524.823775 151.115418 
L 525.42004 151.952601 
L 526.01668 152.579156 
L 526.613694 152.37908 
L 527.211084 152.533702 
L 527.808848 151.991835 
L 528.406987 152.358943 
L 529.604393 152.030589 
L 530.20366 152.246537 
L 530.803302 153.221415 
L 531.403321 152.050638 
L 532.003717 153.177466 
L 532.604489 153.51224 
L 533.205638 154.468556 
L 533.807165 154.258879 
L 534.409069 154.53072 
L 535.01135 154.238449 
L 535.614009 153.681966 
L 537.424256 150.966047 
L 538.028429 151.4064 
L 538.632981 150.800143 
L 539.237911 150.61207 
L 539.843221 149.40169 
L 540.448911 149.414615 
L 541.05498 149.196575 
L 541.66143 148.427407 
L 542.268259 147.40817 
L 543.483059 149.08782 
L 544.091031 148.839968 
L 544.699383 149.276632 
L 545.308116 149.052822 
L 545.917231 149.860039 
L 546.526728 151.657313 
L 547.746868 156.279112 
L 548.357511 157.239975 
L 549.579944 157.063492 
L 550.191736 156.362793 
L 550.80391 154.926193 
L 551.416468 154.72536 
L 552.029409 154.043386 
L 552.642735 152.005683 
L 553.256444 152.072367 
L 553.870537 150.390985 
L 554.485015 150.920838 
L 555.099878 150.702437 
L 555.715126 151.474674 
L 556.330758 150.382641 
L 556.946776 151.676157 
L 558.179969 149.362958 
L 558.797144 148.516824 
L 559.414706 148.781117 
L 560.032654 146.360898 
L 560.650988 146.349095 
L 561.269709 145.899616 
L 561.888817 145.966448 
L 562.508313 147.725477 
L 563.128196 147.571414 
L 563.748466 147.723078 
L 564.369125 149.082563 
L 564.990171 148.963864 
L 565.611606 149.66374 
L 566.855642 151.578871 
L 567.478243 151.123545 
L 568.101233 151.098423 
L 568.724613 151.721179 
L 569.348382 150.762363 
L 570.597091 150.726292 
L 571.22203 152.166982 
L 571.84736 152.644011 
L 572.47308 152.960556 
L 573.725694 153.834026 
L 574.352588 153.983365 
L 574.979873 153.712683 
L 575.60755 152.774283 
L 576.235619 152.876825 
L 576.86408 152.207018 
L 577.492934 150.296811 
L 578.12218 148.784167 
L 578.751819 148.361925 
L 579.381851 147.481802 
L 580.012276 145.654996 
L 580.643095 144.538447 
L 581.274307 144.369896 
L 581.905914 144.072438 
L 582.537914 144.711058 
L 584.436281 147.662 
L 585.06986 146.872858 
L 585.703834 148.259142 
L 586.338204 147.729242 
L 586.972969 147.990818 
L 587.608129 147.593701 
L 588.243686 147.06338 
L 588.879639 147.209713 
L 589.515989 146.310464 
L 590.152735 146.456064 
L 591.427418 144.904793 
L 592.065356 144.804591 
L 593.342423 144.336535 
L 593.981554 142.954655 
L 594.621083 143.246425 
L 596.54206 140.028514 
L 597.183184 139.136374 
L 597.824707 138.836396 
L 598.466629 139.148547 
L 599.108951 139.317453 
L 599.751673 140.676561 
L 600.394794 141.272295 
L 601.038317 142.252844 
L 601.682239 142.94679 
L 602.971287 145.082385 
L 603.616413 144.566402 
L 604.26194 145.124218 
L 604.907868 146.010104 
L 605.554199 144.890238 
L 606.848065 143.325369 
L 607.495602 143.954627 
L 608.143542 143.597195 
L 608.791885 144.642893 
L 609.44063 144.243464 
L 610.739332 144.793156 
L 611.389288 145.682106 
L 612.039648 145.539819 
L 612.690412 145.866154 
L 613.341581 146.630215 
L 613.993154 146.594675 
L 614.645132 146.175462 
L 615.297515 145.975188 
L 615.950304 144.374563 
L 617.257097 144.623045 
L 617.911102 143.702399 
L 618.565513 144.235678 
L 619.220331 144.019911 
L 619.875555 143.342119 
L 620.531186 143.104695 
L 621.187224 142.265679 
L 621.843669 143.149561 
L 622.500521 142.373456 
L 623.157781 142.355204 
L 623.815448 142.805718 
L 624.473524 142.817368 
L 625.132008 143.336037 
L 625.790901 145.524442 
L 627.77003 155.322828 
L 628.430559 157.219431 
L 629.752844 162.405731 
L 630.414601 165.431518 
L 631.076769 165.393749 
L 631.739347 165.131743 
L 632.402336 163.611462 
L 633.729545 157.617712 
L 634.393767 155.788154 
L 635.0584 154.72369 
L 635.723445 152.82832 
L 636.388901 152.254151 
L 637.05477 152.832153 
L 637.721051 154.467225 
L 638.387744 154.700044 
L 639.05485 155.777721 
L 639.722369 156.486111 
L 640.390301 156.721929 
L 641.727406 156.404228 
L 642.396579 155.289868 
L 643.066166 152.57819 
L 643.736167 150.584156 
L 645.077413 148.422063 
L 645.748658 147.781689 
L 646.420318 147.322898 
L 647.092394 146.622294 
L 647.764885 145.172167 
L 649.111114 143.335034 
L 649.784853 143.737128 
L 650.459008 143.253719 
L 651.13358 143.431665 
L 651.808568 144.046695 
L 652.483974 143.933486 
L 653.159796 144.508909 
L 653.836036 144.688192 
L 654.512694 144.210142 
L 655.18977 143.255017 
L 655.867264 143.352798 
L 656.545176 143.304406 
L 657.223506 142.04923 
L 658.581424 140.61677 
L 659.261011 140.366066 
L 659.941018 139.6824 
L 660.621444 138.524173 
L 661.983556 138.945728 
L 662.665242 139.22075 
L 664.029876 140.285312 
L 664.712824 141.90028 
L 665.396193 141.607122 
L 666.079984 141.829776 
L 667.44883 143.161164 
L 668.133885 143.474209 
L 668.819363 143.950946 
L 669.505263 143.548204 
L 670.878332 139.366846 
L 671.5655 138.645235 
L 672.253092 138.2295 
L 672.941107 137.036932 
L 674.318408 135.386815 
L 675.007695 133.514238 
L 675.697406 133.007609 
L 676.387541 133.168971 
L 677.078102 132.463049 
L 677.769087 133.281902 
L 678.460497 134.669161 
L 679.152333 134.375029 
L 679.844594 133.93853 
L 680.537281 135.768794 
L 681.230394 135.939977 
L 681.923933 136.49717 
L 682.617898 136.266252 
L 684.00711 135.021428 
L 684.702356 135.461051 
L 685.398029 135.372578 
L 686.09413 137.344603 
L 687.487615 140.094425 
L 688.882813 143.417107 
L 689.581055 145.395804 
L 690.978824 150.54924 
L 692.378311 151.534521 
L 693.078698 150.970392 
L 693.779516 150.566057 
L 695.88455 146.571261 
L 696.587089 143.962943 
L 697.993459 141.519395 
L 698.697292 140.859736 
L 699.401556 141.294651 
L 700.106252 139.971732 
L 700.811379 139.501555 
L 701.516939 139.245308 
L 702.222932 138.241911 
L 702.929357 137.721653 
L 703.636214 136.80974 
L 704.343505 136.109218 
L 705.051229 135.885019 
L 705.759387 134.756753 
L 706.467978 134.001286 
L 707.886463 134.530092 
L 708.596357 136.503865 
L 709.306685 137.266163 
L 710.728646 139.515039 
L 712.152348 139.33729 
L 712.864852 139.507815 
L 713.577793 139.104208 
L 714.291169 137.69226 
L 715.004981 137.093266 
L 716.433916 135.031949 
L 717.149038 133.994796 
L 718.580595 134.352756 
L 719.29703 135.116396 
L 720.013902 135.542818 
L 720.731212 135.837724 
L 721.448961 136.004436 
L 722.167148 136.339402 
L 722.885773 137.773032 
L 723.604838 138.323354 
L 724.324341 140.169991 
L 725.044284 140.806149 
L 726.485488 143.584359 
L 728.650594 146.103684 
L 729.373177 145.753222 
L 730.096201 145.540443 
L 730.819665 144.458729 
L 731.543571 144.33613 
L 732.267918 142.585171 
L 733.717938 140.312285 
L 734.443611 140.243589 
L 735.169726 139.813063 
L 735.896283 140.023048 
L 736.623283 139.293818 
L 737.350726 139.613083 
L 738.078612 139.550968 
L 738.806942 140.082209 
L 739.535715 140.137642 
L 740.994593 139.187802 
L 741.724698 137.892926 
L 743.186241 136.639438 
L 743.91768 135.876802 
L 744.649564 135.957097 
L 745.381893 134.441531 
L 746.114668 133.955893 
L 746.847888 133.071403 
L 747.581554 133.451095 
L 748.315667 133.459512 
L 749.050226 133.707382 
L 749.785231 134.157149 
L 750.520683 135.311749 
L 751.256582 136.967606 
L 751.992928 137.094905 
L 752.729722 139.172383 
L 753.466963 139.792229 
L 754.204652 140.841792 
L 754.942789 140.78493 
L 755.681374 139.880216 
L 756.420408 139.465105 
L 757.159891 138.493712 
L 757.899822 138.119972 
L 758.640203 138.102017 
L 759.381032 136.536945 
L 760.864041 135.844484 
L 761.60622 134.817299 
L 762.348849 135.510205 
L 763.091929 135.772866 
L 763.835459 136.34352 
L 764.579441 136.492403 
L 766.068756 138.502132 
L 766.814091 138.248493 
L 767.559878 138.481221 
L 768.306116 139.990104 
L 769.052807 140.26798 
L 769.79995 141.502568 
L 771.295594 142.605749 
L 772.044095 142.489604 
L 773.542457 144.216425 
L 774.292319 144.30804 
L 775.042634 144.712326 
L 775.793403 144.824232 
L 776.544627 145.346181 
L 778.048438 145.508252 
L 778.801025 146.148928 
L 779.554068 145.604854 
L 780.307566 144.848718 
L 781.06152 144.325717 
L 781.815929 143.368245 
L 782.570794 143.133266 
L 783.326116 142.450505 
L 784.081894 142.271305 
L 785.594819 143.017232 
L 786.351968 142.026896 
L 787.109573 142.524707 
L 787.867636 142.333463 
L 788.626157 142.713753 
L 789.385136 143.887842 
L 790.144573 144.034324 
L 790.904468 144.543164 
L 792.425634 144.935892 
L 793.186905 144.602193 
L 793.948636 144.708364 
L 794.710825 144.444207 
L 795.473475 143.162366 
L 796.236584 142.56342 
L 797.000154 142.853452 
L 797.764183 142.738957 
L 798.528673 142.350179 
L 800.059036 142.666587 
L 800.824909 142.99466 
L 801.591243 142.686557 
L 803.893015 144.829883 
L 804.661196 144.412894 
L 805.42984 144.588087 
L 806.198947 144.05881 
L 806.968516 143.308773 
L 807.738548 143.503129 
L 808.509044 145.026574 
L 809.280003 145.681257 
L 810.051426 146.028163 
L 811.595663 145.918612 
L 812.368478 145.111592 
L 813.141758 145.576478 
L 813.915502 146.498673 
L 814.689711 146.891131 
L 815.464386 146.486632 
L 817.015131 148.299869 
L 817.791202 149.289558 
L 818.56774 149.485505 
L 820.90015 151.928137 
L 821.678553 151.724862 
L 822.457424 151.936965 
L 823.236762 151.49038 
L 824.016567 151.283871 
L 824.796841 149.99135 
L 825.577582 150.126466 
L 827.140469 149.559306 
L 827.922615 149.738856 
L 828.705231 149.208725 
L 829.488315 149.205506 
L 830.271868 149.014164 
L 831.055891 149.36541 
L 831.840384 148.840309 
L 832.625346 148.933151 
L 833.410779 148.503124 
L 834.196681 148.519865 
L 834.983055 148.15901 
L 836.557214 146.519215 
L 837.345 145.507888 
L 838.133258 144.954673 
L 838.921987 143.871053 
L 839.711188 143.021767 
L 840.500861 141.859094 
L 841.291006 142.115609 
L 842.081624 139.171266 
L 842.872715 137.426998 
L 843.664278 136.021881 
L 845.248824 132.024803 
L 846.041807 132.328322 
L 847.629195 130.95254 
L 848.4236 129.149569 
L 849.21848 127.938889 
L 850.013834 127.173598 
L 850.809662 126.129029 
L 851.605966 125.307291 
L 853.2 121.128438 
L 853.2 121.128438 
" clip-path="url(#pe23ecd2abf)" style="fill: none; stroke: #0000ff; stroke-width: 1.5; stroke-linecap: square"/>
   </g>
   <g id="line2d_32">
    <path d="M 60.823739 168.956657 
L 67.209519 167.459426 
L 73.595299 176.775531 
L 79.981079 205.056566 
L 86.366859 159.224654 
L 92.752638 162.551835 
L 99.138418 155.481576 
L 105.524198 160.555526 
L 111.909978 156.147012 
L 118.295758 139.012033 
L 124.681538 149.243113 
L 131.067318 169.123016 
L 137.453098 147.662702 
L 143.838878 156.978807 
L 150.224658 138.845674 
L 156.610438 134.769878 
L 162.996218 140.675623 
L 169.381998 135.352134 
L 175.767778 147.99542 
L 182.153558 142.172854 
L 188.539338 126.701465 
L 194.925118 135.352134 
L 201.310898 130.86044 
L 207.696678 121.128438 
L 214.082458 124.03972 
L 220.468237 138.013879 
L 226.854017 135.601673 
L 233.239797 134.853057 
L 239.625577 130.278184 
L 246.011357 126.701465 
L 252.397137 124.788336 
L 258.782917 135.518493 
L 265.168697 132.357672 
L 271.554477 129.779107 
L 277.940257 128.531414 
L 284.326037 124.455618 
L 290.711817 129.779107 
L 297.097597 135.102596 
L 303.483377 129.612748 
L 309.869157 139.677469 
L 316.254937 131.858595 
L 322.640717 133.605364 
L 329.026497 133.938082 
L 335.412277 143.337367 
L 341.798057 131.609056 
L 348.183836 129.695927 
L 354.569616 133.854903 
L 360.955396 128.864132 
L 367.341176 131.775415 
L 373.726956 136.766186 
L 380.112736 126.867824 
L 386.498516 132.357672 
L 392.884296 126.784644 
L 399.270076 130.195004 
L 405.655856 125.620131 
L 412.041636 131.193159 
L 418.427416 131.525877 
L 424.813196 135.684852 
L 431.198976 147.246804 
L 437.584756 164.298605 
L 443.970536 147.246804 
L 450.356316 140.259725 
L 456.742096 136.433468 
L 463.127876 132.524031 
L 469.513656 141.756957 
L 475.899436 141.756957 
L 482.285215 142.422393 
L 488.670995 128.281876 
L 495.056775 139.261571 
L 501.442555 131.692236 
L 507.828335 131.609056 
L 514.214115 144.252342 
L 520.599895 135.601673 
L 526.985675 145.000958 
L 533.371455 148.744036 
L 539.757235 141.923316 
L 546.143015 138.596135 
L 552.528795 144.002803 
L 558.914575 133.688544 
L 565.300355 136.350288 
L 571.686135 140.925161 
L 578.071915 139.843828 
L 584.457695 140.093366 
L 590.843475 137.514801 
L 597.229255 133.355826 
L 603.615035 144.169162 
L 610.000814 144.66824 
L 616.386594 143.586906 
L 622.772374 141.424239 
L 629.158154 160.638706 
L 635.543934 155.897474 
L 641.929714 161.886399 
L 648.315494 147.413163 
L 654.701274 147.163625 
L 661.087054 140.925161 
L 667.472834 147.829061 
L 673.858614 141.923316 
L 680.244394 136.599827 
L 686.630174 138.928853 
L 693.015954 160.222808 
L 699.401734 147.413163 
L 705.787514 141.673777 
L 712.173294 139.927007 
L 718.559074 137.098904 
L 724.944854 136.183929 
L 731.330634 152.237575 
L 737.716413 139.51111 
L 744.102193 144.917778 
L 750.487973 133.938082 
L 756.873753 143.836444 
L 763.259533 142.92147 
L 769.645313 141.091521 
L 776.031093 147.080445 
L 782.416873 152.320755 
L 788.802653 143.004649 
L 795.188433 147.662702 
L 801.574213 143.171008 
L 807.959993 143.171008 
L 814.345773 141.341059 
L 820.731553 143.171008 
L 827.117333 146.997266 
L 833.503113 144.501881 
L 839.888893 141.840136 
L 846.274673 144.58506 
L 852.660453 143.836444 
L 859.046233 145.915932 
" clip-path="url(#pe23ecd2abf)" style="fill: none; stroke: #000000; stroke-width: 1.5; stroke-linecap: square"/>
   </g>
   <g id="LineCollection_1">
    <path d="M 79.981079 388.63375 
L 79.981079 31.96 
" clip-path="url(#pe23ecd2abf)" style="fill: none; stroke-dasharray: 5.55,2.4; stroke-dashoffset: 0; stroke: #008000; stroke-width: 1.5"/>
   </g>
   <g id="LineCollection_2">
    <path d="M 94.029794 388.63375 
L 94.029794 31.96 
" clip-path="url(#pe23ecd2abf)" style="fill: none; stroke-dasharray: 5.55,2.4; stroke-dashoffset: 0; stroke: #808080; stroke-width: 1.5"/>
   </g>
   <g id="LineCollection_3">
    <path d="M 102.331308 388.63375 
L 102.331308 31.96 
" clip-path="url(#pe23ecd2abf)" style="fill: none; stroke-dasharray: 5.55,2.4; stroke-dashoffset: 0; stroke: #ff0000; stroke-width: 1.5"/>
   </g>
   <g id="LineCollection_4">
    <path d="M 130.42874 388.63375 
L 130.42874 31.96 
" clip-path="url(#pe23ecd2abf)" style="fill: none; stroke-dasharray: 5.55,2.4; stroke-dashoffset: 0; stroke: #808080; stroke-width: 1.5"/>
   </g>
   <g id="LineCollection_5">
    <path d="M 177.044934 388.63375 
L 177.044934 31.96 
" clip-path="url(#pe23ecd2abf)" style="fill: none; stroke-dasharray: 5.55,2.4; stroke-dashoffset: 0; stroke: #808080; stroke-width: 1.5"/>
   </g>
   <g id="LineCollection_6">
    <path d="M 311.146313 388.63375 
L 311.146313 31.96 
" clip-path="url(#pe23ecd2abf)" style="fill: none; stroke-dasharray: 5.55,2.4; stroke-dashoffset: 0; stroke: #808080; stroke-width: 1.5"/>
   </g>
   <g id="LineCollection_7">
    <path d="M 435.030444 388.63375 
L 435.030444 31.96 
" clip-path="url(#pe23ecd2abf)" style="fill: none; stroke-dasharray: 5.55,2.4; stroke-dashoffset: 0; stroke: #ff0000; stroke-width: 1.5"/>
   </g>
   <g id="LineCollection_8">
    <path d="M 630.43531 388.63375 
L 630.43531 31.96 
" clip-path="url(#pe23ecd2abf)" style="fill: none; stroke-dasharray: 5.55,2.4; stroke-dashoffset: 0; stroke: #ffa500; stroke-width: 1.5"/>
   </g>
   <g id="LineCollection_9">
    <path d="M 694.931688 388.63375 
L 694.931688 31.96 
" clip-path="url(#pe23ecd2abf)" style="fill: none; stroke-dasharray: 5.55,2.4; stroke-dashoffset: 0; stroke: #808080; stroke-width: 1.5"/>
   </g>
   <g id="patch_3">
    <path d="M 62.3 388.63375 
L 62.3 31.96 
" style="fill: none; stroke: #000000; stroke-width: 0.8; stroke-linejoin: miter; stroke-linecap: square"/>
   </g>
   <g id="patch_4">
    <path d="M 853.2 388.63375 
L 853.2 31.96 
" style="fill: none; stroke: #000000; stroke-width: 0.8; stroke-linejoin: miter; stroke-linecap: square"/>
   </g>
   <g id="patch_5">
    <path d="M 62.3 388.63375 
L 853.2 388.63375 
" style="fill: none; stroke: #000000; stroke-width: 0.8; stroke-linejoin: miter; stroke-linecap: square"/>
   </g>
   <g id="patch_6">
    <path d="M 62.3 31.96 
L 853.2 31.96 
" style="fill: none; stroke: #000000; stroke-width: 0.8; stroke-linejoin: miter; stroke-linecap: square"/>
   </g>
   <g id="text_18">
    <!-- Sun´s Spectrum vs. Sun´s Standard Spectrum -->
    <g transform="translate(295.998594 21.96) scale(0.14 -0.14)">
     <defs>
      <path id="DejaVuSans-53" d="M 3425 4513 
L 3425 3897 
Q 3066 4069 2747 4153 
Q 2428 4238 2131 4238 
Q 1616 4238 1336 4038 
Q 1056 3838 1056 3469 
Q 1056 3159 1242 3001 
Q 1428 2844 1947 2747 
L 2328 2669 
Q 3034 2534 3370 2195 
Q 3706 1856 3706 1288 
Q 3706 609 3251 259 
Q 2797 -91 1919 -91 
Q 1588 -91 1214 -16 
Q 841 59 441 206 
L 441 856 
Q 825 641 1194 531 
Q 1563 422 1919 422 
Q 2459 422 2753 634 
Q 3047 847 3047 1241 
Q 3047 1584 2836 1778 
Q 2625 1972 2144 2069 
L 1759 2144 
Q 1053 2284 737 2584 
Q 422 2884 422 3419 
Q 422 4038 858 4394 
Q 1294 4750 2059 4750 
Q 2388 4750 2728 4690 
Q 3069 4631 3425 4513 
z
" transform="scale(0.015625)"/>
      <path id="DejaVuSans-75" d="M 544 1381 
L 544 3500 
L 1119 3500 
L 1119 1403 
Q 1119 906 1312 657 
Q 1506 409 1894 409 
Q 2359 409 2629 706 
Q 2900 1003 2900 1516 
L 2900 3500 
L 3475 3500 
L 3475 0 
L 2900 0 
L 2900 538 
Q 2691 219 2414 64 
Q 2138 -91 1772 -91 
Q 1169 -91 856 284 
Q 544 659 544 1381 
z
M 1991 3584 
L 1991 3584 
z
" transform="scale(0.015625)"/>
      <path id="DejaVuSans-b4" d="M 2034 5119 
L 2656 5119 
L 1638 3944 
L 1159 3944 
L 2034 5119 
z
" transform="scale(0.015625)"/>
      <path id="DejaVuSans-70" d="M 1159 525 
L 1159 -1331 
L 581 -1331 
L 581 3500 
L 1159 3500 
L 1159 2969 
Q 1341 3281 1617 3432 
Q 1894 3584 2278 3584 
Q 2916 3584 3314 3078 
Q 3713 2572 3713 1747 
Q 3713 922 3314 415 
Q 2916 -91 2278 -91 
Q 1894 -91 1617 61 
Q 1341 213 1159 525 
z
M 3116 1747 
Q 3116 2381 2855 2742 
Q 2594 3103 2138 3103 
Q 1681 3103 1420 2742 
Q 1159 2381 1159 1747 
Q 1159 1113 1420 752 
Q 1681 391 2138 391 
Q 2594 391 2855 752 
Q 3116 1113 3116 1747 
z
" transform="scale(0.015625)"/>
      <path id="DejaVuSans-63" d="M 3122 3366 
L 3122 2828 
Q 2878 2963 2633 3030 
Q 2388 3097 2138 3097 
Q 1578 3097 1268 2742 
Q 959 2388 959 1747 
Q 959 1106 1268 751 
Q 1578 397 2138 397 
Q 2388 397 2633 464 
Q 2878 531 3122 666 
L 3122 134 
Q 2881 22 2623 -34 
Q 2366 -91 2075 -91 
Q 1284 -91 818 406 
Q 353 903 353 1747 
Q 353 2603 823 3093 
Q 1294 3584 2113 3584 
Q 2378 3584 2631 3529 
Q 2884 3475 3122 3366 
z
" transform="scale(0.015625)"/>
     </defs>
     <use xlink:href="#DejaVuSans-53"/>
     <use xlink:href="#DejaVuSans-75" x="63.476562"/>
     <use xlink:href="#DejaVuSans-6e" x="126.855469"/>
     <use xlink:href="#DejaVuSans-b4" x="190.234375"/>
     <use xlink:href="#DejaVuSans-73" x="240.234375"/>
     <use xlink:href="#DejaVuSans-20" x="292.333984"/>
     <use xlink:href="#DejaVuSans-53" x="324.121094"/>
     <use xlink:href="#DejaVuSans-70" x="387.597656"/>
     <use xlink:href="#DejaVuSans-65" x="451.074219"/>
     <use xlink:href="#DejaVuSans-63" x="512.597656"/>
     <use xlink:href="#DejaVuSans-74" x="567.578125"/>
     <use xlink:href="#DejaVuSans-72" x="606.787109"/>
     <use xlink:href="#DejaVuSans-75" x="647.900391"/>
     <use xlink:href="#DejaVuSans-6d" x="711.279297"/>
     <use xlink:href="#DejaVuSans-20" x="808.691406"/>
     <use xlink:href="#DejaVuSans-76" x="840.478516"/>
     <use xlink:href="#DejaVuSans-73" x="899.658203"/>
     <use xlink:href="#DejaVuSans-2e" x="951.757812"/>
     <use xlink:href="#DejaVuSans-20" x="983.544922"/>
     <use xlink:href="#DejaVuSans-53" x="1015.332031"/>
     <use xlink:href="#DejaVuSans-75" x="1078.808594"/>
     <use xlink:href="#DejaVuSans-6e" x="1142.1875"/>
     <use xlink:href="#DejaVuSans-b4" x="1205.566406"/>
     <use xlink:href="#DejaVuSans-73" x="1255.566406"/>
     <use xlink:href="#DejaVuSans-20" x="1307.666016"/>
     <use xlink:href="#DejaVuSans-53" x="1339.453125"/>
     <use xlink:href="#DejaVuSans-74" x="1402.929688"/>
     <use xlink:href="#DejaVuSans-61" x="1442.138672"/>
     <use xlink:href="#DejaVuSans-6e" x="1503.417969"/>
     <use xlink:href="#DejaVuSans-64" x="1566.796875"/>
     <use xlink:href="#DejaVuSans-61" x="1630.273438"/>
     <use xlink:href="#DejaVuSans-72" x="1691.552734"/>
     <use xlink:href="#DejaVuSans-64" x="1730.916016"/>
     <use xlink:href="#DejaVuSans-20" x="1794.392578"/>
     <use xlink:href="#DejaVuSans-53" x="1826.179688"/>
     <use xlink:href="#DejaVuSans-70" x="1889.65625"/>
     <use xlink:href="#DejaVuSans-65" x="1953.132812"/>
     <use xlink:href="#DejaVuSans-63" x="2014.65625"/>
     <use xlink:href="#DejaVuSans-74" x="2069.636719"/>
     <use xlink:href="#DejaVuSans-72" x="2108.845703"/>
     <use xlink:href="#DejaVuSans-75" x="2149.958984"/>
     <use xlink:href="#DejaVuSans-6d" x="2213.337891"/>
    </g>
   </g>
   <g id="legend_1">
    <g id="patch_7">
     <path d="M 651.379687 383.63375 
L 846.2 383.63375 
Q 848.2 383.63375 848.2 381.63375 
L 848.2 220.632188 
Q 848.2 218.632188 846.2 218.632188 
L 651.379687 218.632188 
Q 649.379687 218.632188 649.379687 220.632188 
L 649.379687 381.63375 
Q 649.379687 383.63375 651.379687 383.63375 
z
" style="fill: #ffffff; opacity: 0.8; stroke: #cccccc; stroke-linejoin: miter"/>
    </g>
    <g id="line2d_33">
     <path d="M 653.379687 227.130625 
L 663.379687 227.130625 
L 673.379687 227.130625 
" style="fill: none; stroke: #0000ff; stroke-width: 1.5; stroke-linecap: square"/>
    </g>
    <g id="text_19">
     <!-- Spectrum (Coudé + Silver-Nova) -->
     <g transform="translate(681.379687 230.630625) scale(0.1 -0.1)">
      <defs>
       <path id="DejaVuSans-43" d="M 4122 4306 
L 4122 3641 
Q 3803 3938 3442 4084 
Q 3081 4231 2675 4231 
Q 1875 4231 1450 3742 
Q 1025 3253 1025 2328 
Q 1025 1406 1450 917 
Q 1875 428 2675 428 
Q 3081 428 3442 575 
Q 3803 722 4122 1019 
L 4122 359 
Q 3791 134 3420 21 
Q 3050 -91 2638 -91 
Q 1578 -91 968 557 
Q 359 1206 359 2328 
Q 359 3453 968 4101 
Q 1578 4750 2638 4750 
Q 3056 4750 3426 4639 
Q 3797 4528 4122 4306 
z
" transform="scale(0.015625)"/>
       <path id="DejaVuSans-e9" d="M 3597 1894 
L 3597 1613 
L 953 1613 
Q 991 1019 1311 708 
Q 1631 397 2203 397 
Q 2534 397 2845 478 
Q 3156 559 3463 722 
L 3463 178 
Q 3153 47 2828 -22 
Q 2503 -91 2169 -91 
Q 1331 -91 842 396 
Q 353 884 353 1716 
Q 353 2575 817 3079 
Q 1281 3584 2069 3584 
Q 2775 3584 3186 3129 
Q 3597 2675 3597 1894 
z
M 3022 2063 
Q 3016 2534 2758 2815 
Q 2500 3097 2075 3097 
Q 1594 3097 1305 2825 
Q 1016 2553 972 2059 
L 3022 2063 
z
M 2466 5119 
L 3088 5119 
L 2070 3944 
L 1591 3944 
L 2466 5119 
z
" transform="scale(0.015625)"/>
       <path id="DejaVuSans-2b" d="M 2944 4013 
L 2944 2272 
L 4684 2272 
L 4684 1741 
L 2944 1741 
L 2944 0 
L 2419 0 
L 2419 1741 
L 678 1741 
L 678 2272 
L 2419 2272 
L 2419 4013 
L 2944 4013 
z
" transform="scale(0.015625)"/>
       <path id="DejaVuSans-2d" d="M 313 2009 
L 1997 2009 
L 1997 1497 
L 313 1497 
L 313 2009 
z
" transform="scale(0.015625)"/>
       <path id="DejaVuSans-4e" d="M 628 4666 
L 1478 4666 
L 3547 763 
L 3547 4666 
L 4159 4666 
L 4159 0 
L 3309 0 
L 1241 3903 
L 1241 0 
L 628 0 
L 628 4666 
z
" transform="scale(0.015625)"/>
      </defs>
      <use xlink:href="#DejaVuSans-53"/>
      <use xlink:href="#DejaVuSans-70" x="63.476562"/>
      <use xlink:href="#DejaVuSans-65" x="126.953125"/>
      <use xlink:href="#DejaVuSans-63" x="188.476562"/>
      <use xlink:href="#DejaVuSans-74" x="243.457031"/>
      <use xlink:href="#DejaVuSans-72" x="282.666016"/>
      <use xlink:href="#DejaVuSans-75" x="323.779297"/>
      <use xlink:href="#DejaVuSans-6d" x="387.158203"/>
      <use xlink:href="#DejaVuSans-20" x="484.570312"/>
      <use xlink:href="#DejaVuSans-28" x="516.357422"/>
      <use xlink:href="#DejaVuSans-43" x="555.371094"/>
      <use xlink:href="#DejaVuSans-6f" x="625.195312"/>
      <use xlink:href="#DejaVuSans-75" x="686.376953"/>
      <use xlink:href="#DejaVuSans-64" x="749.755859"/>
      <use xlink:href="#DejaVuSans-e9" x="813.232422"/>
      <use xlink:href="#DejaVuSans-20" x="874.755859"/>
      <use xlink:href="#DejaVuSans-2b" x="906.542969"/>
      <use xlink:href="#DejaVuSans-20" x="990.332031"/>
      <use xlink:href="#DejaVuSans-53" x="1022.119141"/>
      <use xlink:href="#DejaVuSans-69" x="1085.595703"/>
      <use xlink:href="#DejaVuSans-6c" x="1113.378906"/>
      <use xlink:href="#DejaVuSans-76" x="1141.162109"/>
      <use xlink:href="#DejaVuSans-65" x="1200.341797"/>
      <use xlink:href="#DejaVuSans-72" x="1261.865234"/>
      <use xlink:href="#DejaVuSans-2d" x="1296.603516"/>
      <use xlink:href="#DejaVuSans-4e" x="1332.6875"/>
      <use xlink:href="#DejaVuSans-6f" x="1407.492188"/>
      <use xlink:href="#DejaVuSans-76" x="1468.673828"/>
      <use xlink:href="#DejaVuSans-61" x="1527.853516"/>
      <use xlink:href="#DejaVuSans-29" x="1589.132812"/>
     </g>
    </g>
    <g id="line2d_34">
     <path d="M 653.379687 241.80875 
L 663.379687 241.80875 
L 673.379687 241.80875 
" style="fill: none; stroke: #000000; stroke-width: 1.5; stroke-linecap: square"/>
    </g>
    <g id="text_20">
     <!-- Standard spectrum -->
     <g transform="translate(681.379687 245.30875) scale(0.1 -0.1)">
      <use xlink:href="#DejaVuSans-53"/>
      <use xlink:href="#DejaVuSans-74" x="63.476562"/>
      <use xlink:href="#DejaVuSans-61" x="102.685547"/>
      <use xlink:href="#DejaVuSans-6e" x="163.964844"/>
      <use xlink:href="#DejaVuSans-64" x="227.34375"/>
      <use xlink:href="#DejaVuSans-61" x="290.820312"/>
      <use xlink:href="#DejaVuSans-72" x="352.099609"/>
      <use xlink:href="#DejaVuSans-64" x="391.462891"/>
      <use xlink:href="#DejaVuSans-20" x="454.939453"/>
      <use xlink:href="#DejaVuSans-73" x="486.726562"/>
      <use xlink:href="#DejaVuSans-70" x="538.826172"/>
      <use xlink:href="#DejaVuSans-65" x="602.302734"/>
      <use xlink:href="#DejaVuSans-63" x="663.826172"/>
      <use xlink:href="#DejaVuSans-74" x="718.806641"/>
      <use xlink:href="#DejaVuSans-72" x="758.015625"/>
      <use xlink:href="#DejaVuSans-75" x="799.128906"/>
      <use xlink:href="#DejaVuSans-6d" x="862.507812"/>
     </g>
    </g>
    <g id="line2d_35">
     <path d="M 653.379687 256.486875 
L 673.379687 256.486875 
" style="fill: none; stroke-dasharray: 5.55,2.4; stroke-dashoffset: 0; stroke: #008000; stroke-width: 1.5"/>
    </g>
    <g id="text_21">
     <!-- Ca -->
     <g transform="translate(681.379687 259.986875) scale(0.1 -0.1)">
      <use xlink:href="#DejaVuSans-43"/>
      <use xlink:href="#DejaVuSans-61" x="69.824219"/>
     </g>
    </g>
    <g id="line2d_36">
     <path d="M 653.379687 271.165 
L 673.379687 271.165 
" style="fill: none; stroke-dasharray: 5.55,2.4; stroke-dashoffset: 0; stroke: #808080; stroke-width: 1.5"/>
    </g>
    <g id="text_22">
     <!-- Fe I -->
     <g transform="translate(681.379687 274.665) scale(0.1 -0.1)">
      <defs>
       <path id="DejaVuSans-46" d="M 628 4666 
L 3309 4666 
L 3309 4134 
L 1259 4134 
L 1259 2759 
L 3109 2759 
L 3109 2228 
L 1259 2228 
L 1259 0 
L 628 0 
L 628 4666 
z
" transform="scale(0.015625)"/>
      </defs>
      <use xlink:href="#DejaVuSans-46"/>
      <use xlink:href="#DejaVuSans-65" x="52.019531"/>
      <use xlink:href="#DejaVuSans-20" x="113.542969"/>
      <use xlink:href="#DejaVuSans-49" x="145.330078"/>
     </g>
    </g>
    <g id="line2d_37">
     <path d="M 653.379687 285.843125 
L 673.379687 285.843125 
" style="fill: none; stroke-dasharray: 5.55,2.4; stroke-dashoffset: 0; stroke: #ff0000; stroke-width: 1.5"/>
    </g>
    <g id="text_23">
     <!-- H$\gamma$ -->
     <g transform="translate(681.379687 289.343125) scale(0.1 -0.1)">
      <defs>
       <path id="DejaVuSans-48" d="M 628 4666 
L 1259 4666 
L 1259 2753 
L 3553 2753 
L 3553 4666 
L 4184 4666 
L 4184 0 
L 3553 0 
L 3553 2222 
L 1259 2222 
L 1259 0 
L 628 0 
L 628 4666 
z
" transform="scale(0.015625)"/>
       <path id="DejaVuSans-Oblique-3b3" d="M 1491 2950 
L 1838 788 
L 3456 3500 
L 4066 3500 
L 1972 0 
L 1713 -1331 
L 1138 -1331 
L 1397 0 
L 988 2613 
Q 925 3006 628 3006 
L 475 3006 
L 569 3500 
L 788 3500 
Q 1403 3500 1491 2950 
z
" transform="scale(0.015625)"/>
      </defs>
      <use xlink:href="#DejaVuSans-48" transform="translate(0 0.09375)"/>
      <use xlink:href="#DejaVuSans-Oblique-3b3" transform="translate(75.195312 0.09375)"/>
     </g>
    </g>
    <g id="line2d_38">
     <path d="M 653.379687 300.541563 
L 673.379687 300.541563 
" style="fill: none; stroke-dasharray: 5.55,2.4; stroke-dashoffset: 0; stroke: #808080; stroke-width: 1.5"/>
    </g>
    <g id="text_24">
     <!-- Fe I -->
     <g transform="translate(681.379687 304.041563) scale(0.1 -0.1)">
      <use xlink:href="#DejaVuSans-46"/>
      <use xlink:href="#DejaVuSans-65" x="52.019531"/>
      <use xlink:href="#DejaVuSans-20" x="113.542969"/>
      <use xlink:href="#DejaVuSans-49" x="145.330078"/>
     </g>
    </g>
    <g id="line2d_39">
     <path d="M 653.379687 315.219688 
L 673.379687 315.219688 
" style="fill: none; stroke-dasharray: 5.55,2.4; stroke-dashoffset: 0; stroke: #808080; stroke-width: 1.5"/>
    </g>
    <g id="text_25">
     <!-- Fe I -->
     <g transform="translate(681.379687 318.719688) scale(0.1 -0.1)">
      <use xlink:href="#DejaVuSans-46"/>
      <use xlink:href="#DejaVuSans-65" x="52.019531"/>
      <use xlink:href="#DejaVuSans-20" x="113.542969"/>
      <use xlink:href="#DejaVuSans-49" x="145.330078"/>
     </g>
    </g>
    <g id="line2d_40">
     <path d="M 653.379687 329.897813 
L 673.379687 329.897813 
" style="fill: none; stroke-dasharray: 5.55,2.4; stroke-dashoffset: 0; stroke: #808080; stroke-width: 1.5"/>
    </g>
    <g id="text_26">
     <!-- Fe I -->
     <g transform="translate(681.379687 333.397813) scale(0.1 -0.1)">
      <use xlink:href="#DejaVuSans-46"/>
      <use xlink:href="#DejaVuSans-65" x="52.019531"/>
      <use xlink:href="#DejaVuSans-20" x="113.542969"/>
      <use xlink:href="#DejaVuSans-49" x="145.330078"/>
     </g>
    </g>
    <g id="line2d_41">
     <path d="M 653.379687 344.6775 
L 673.379687 344.6775 
" style="fill: none; stroke-dasharray: 5.55,2.4; stroke-dashoffset: 0; stroke: #ff0000; stroke-width: 1.5"/>
    </g>
    <g id="text_27">
     <!-- H$\beta$ -->
     <g transform="translate(681.379687 348.1775) scale(0.1 -0.1)">
      <defs>
       <path id="DejaVuSans-Oblique-3b2" d="M 872 216 
L 572 -1331 
L -6 -1331 
L 928 3478 
Q 1206 4903 2538 4903 
Q 3888 4903 3659 3700 
Q 3503 2844 2894 2531 
Q 3713 2250 3553 1416 
Q 3272 -69 1759 -66 
Q 1097 -63 872 216 
z
M 1019 966 
Q 1259 422 1875 425 
Q 2775 425 2966 1406 
Q 3138 2288 1675 2219 
L 1778 2750 
Q 2909 2731 3106 3750 
Q 3241 4438 2509 4434 
Q 1691 4434 1503 3459 
L 1019 966 
z
" transform="scale(0.015625)"/>
      </defs>
      <use xlink:href="#DejaVuSans-48" transform="translate(0 0.390625)"/>
      <use xlink:href="#DejaVuSans-Oblique-3b2" transform="translate(75.195312 0.390625)"/>
     </g>
    </g>
    <g id="line2d_42">
     <path d="M 653.379687 359.375938 
L 673.379687 359.375938 
" style="fill: none; stroke-dasharray: 5.55,2.4; stroke-dashoffset: 0; stroke: #ffa500; stroke-width: 1.5"/>
    </g>
    <g id="text_28">
     <!-- Mg I -->
     <g transform="translate(681.379687 362.875938) scale(0.1 -0.1)">
      <defs>
       <path id="DejaVuSans-4d" d="M 628 4666 
L 1569 4666 
L 2759 1491 
L 3956 4666 
L 4897 4666 
L 4897 0 
L 4281 0 
L 4281 4097 
L 3078 897 
L 2444 897 
L 1241 4097 
L 1241 0 
L 628 0 
L 628 4666 
z
" transform="scale(0.015625)"/>
      </defs>
      <use xlink:href="#DejaVuSans-4d"/>
      <use xlink:href="#DejaVuSans-67" x="86.279297"/>
      <use xlink:href="#DejaVuSans-20" x="149.755859"/>
      <use xlink:href="#DejaVuSans-49" x="181.542969"/>
     </g>
    </g>
    <g id="line2d_43">
     <path d="M 653.379687 374.054062 
L 673.379687 374.054062 
" style="fill: none; stroke-dasharray: 5.55,2.4; stroke-dashoffset: 0; stroke: #808080; stroke-width: 1.5"/>
    </g>
    <g id="text_29">
     <!-- Fe I -->
     <g transform="translate(681.379687 377.554062) scale(0.1 -0.1)">
      <use xlink:href="#DejaVuSans-46"/>
      <use xlink:href="#DejaVuSans-65" x="52.019531"/>
      <use xlink:href="#DejaVuSans-20" x="113.542969"/>
      <use xlink:href="#DejaVuSans-49" x="145.330078"/>
     </g>
    </g>
   </g>
  </g>
 </g>
 <defs>
  <clipPath id="pe23ecd2abf">
   <rect x="62.3" y="31.96" width="790.9" height="356.67375"/>
  </clipPath>
 </defs>
</svg>
