<?xml version="1.0" encoding="utf-8" standalone="no"?>
<!DOCTYPE svg PUBLIC "-//W3C//DTD SVG 1.1//EN"
  "http://www.w3.org/Graphics/SVG/1.1/DTD/svg11.dtd">
<svg xmlns:xlink="http://www.w3.org/1999/xlink" width="720pt" height="288pt" viewBox="0 0 720 288" xmlns="http://www.w3.org/2000/svg" version="1.1">
 <metadata>
  <rdf:RDF xmlns:dc="http://purl.org/dc/elements/1.1/" xmlns:cc="http://creativecommons.org/ns#" xmlns:rdf="http://www.w3.org/1999/02/22-rdf-syntax-ns#">
   <cc:Work>
    <dc:type rdf:resource="http://purl.org/dc/dcmitype/StillImage"/>
    <dc:date>2024-12-17T23:43:33.515652</dc:date>
    <dc:format>image/svg+xml</dc:format>
    <dc:creator>
     <cc:Agent>
      <dc:title>Matplotlib v3.8.3, https://matplotlib.org/</dc:title>
     </cc:Agent>
    </dc:creator>
   </cc:Work>
  </rdf:RDF>
 </metadata>
 <defs>
  <style type="text/css">*{stroke-linejoin: round; stroke-linecap: butt}</style>
 </defs>
 <g id="figure_1">
  <g id="patch_1">
   <path d="M 0 288 
L 720 288 
L 720 0 
L 0 0 
z
" style="fill: #ffffff"/>
  </g>
  <g id="axes_1">
   <g id="patch_2">
    <path d="M 47.72 246.04 
L 709.2 246.04 
L 709.2 31.6 
L 47.72 31.6 
z
" style="fill: #ffffff"/>
   </g>
   <g id="matplotlib.axis_1">
    <g id="xtick_1">
     <g id="line2d_1">
      <path d="M 47.72 246.04 
L 47.72 31.6 
" clip-path="url(#p860dd465be)" style="fill: none; stroke: #b0b0b0; stroke-width: 0.8; stroke-linecap: square"/>
     </g>
     <g id="line2d_2">
      <defs>
       <path id="mdc27d172c1" d="M 0 0 
L 0 3.5 
" style="stroke: #000000; stroke-width: 0.8"/>
      </defs>
      <g>
       <use xlink:href="#mdc27d172c1" x="47.72" y="246.04" style="stroke: #000000; stroke-width: 0.8"/>
      </g>
     </g>
     <g id="text_1">
      <!-- 0 -->
      <g transform="translate(44.53875 260.638438) scale(0.1 -0.1)">
       <defs>
        <path id="DejaVuSans-30" d="M 2034 4250 
Q 1547 4250 1301 3770 
Q 1056 3291 1056 2328 
Q 1056 1369 1301 889 
Q 1547 409 2034 409 
Q 2525 409 2770 889 
Q 3016 1369 3016 2328 
Q 3016 3291 2770 3770 
Q 2525 4250 2034 4250 
z
M 2034 4750 
Q 2819 4750 3233 4129 
Q 3647 3509 3647 2328 
Q 3647 1150 3233 529 
Q 2819 -91 2034 -91 
Q 1250 -91 836 529 
Q 422 1150 422 2328 
Q 422 3509 836 4129 
Q 1250 4750 2034 4750 
z
" transform="scale(0.015625)"/>
       </defs>
       <use xlink:href="#DejaVuSans-30"/>
      </g>
     </g>
    </g>
    <g id="xtick_2">
     <g id="line2d_3">
      <path d="M 134.187974 246.04 
L 134.187974 31.6 
" clip-path="url(#p860dd465be)" style="fill: none; stroke: #b0b0b0; stroke-width: 0.8; stroke-linecap: square"/>
     </g>
     <g id="line2d_4">
      <g>
       <use xlink:href="#mdc27d172c1" x="134.187974" y="246.04" style="stroke: #000000; stroke-width: 0.8"/>
      </g>
     </g>
     <g id="text_2">
      <!-- 200 -->
      <g transform="translate(124.644224 260.638438) scale(0.1 -0.1)">
       <defs>
        <path id="DejaVuSans-32" d="M 1228 531 
L 3431 531 
L 3431 0 
L 469 0 
L 469 531 
Q 828 903 1448 1529 
Q 2069 2156 2228 2338 
Q 2531 2678 2651 2914 
Q 2772 3150 2772 3378 
Q 2772 3750 2511 3984 
Q 2250 4219 1831 4219 
Q 1534 4219 1204 4116 
Q 875 4013 500 3803 
L 500 4441 
Q 881 4594 1212 4672 
Q 1544 4750 1819 4750 
Q 2544 4750 2975 4387 
Q 3406 4025 3406 3419 
Q 3406 3131 3298 2873 
Q 3191 2616 2906 2266 
Q 2828 2175 2409 1742 
Q 1991 1309 1228 531 
z
" transform="scale(0.015625)"/>
       </defs>
       <use xlink:href="#DejaVuSans-32"/>
       <use xlink:href="#DejaVuSans-30" x="63.623047"/>
       <use xlink:href="#DejaVuSans-30" x="127.246094"/>
      </g>
     </g>
    </g>
    <g id="xtick_3">
     <g id="line2d_5">
      <path d="M 220.655948 246.04 
L 220.655948 31.6 
" clip-path="url(#p860dd465be)" style="fill: none; stroke: #b0b0b0; stroke-width: 0.8; stroke-linecap: square"/>
     </g>
     <g id="line2d_6">
      <g>
       <use xlink:href="#mdc27d172c1" x="220.655948" y="246.04" style="stroke: #000000; stroke-width: 0.8"/>
      </g>
     </g>
     <g id="text_3">
      <!-- 400 -->
      <g transform="translate(211.112198 260.638438) scale(0.1 -0.1)">
       <defs>
        <path id="DejaVuSans-34" d="M 2419 4116 
L 825 1625 
L 2419 1625 
L 2419 4116 
z
M 2253 4666 
L 3047 4666 
L 3047 1625 
L 3713 1625 
L 3713 1100 
L 3047 1100 
L 3047 0 
L 2419 0 
L 2419 1100 
L 313 1100 
L 313 1709 
L 2253 4666 
z
" transform="scale(0.015625)"/>
       </defs>
       <use xlink:href="#DejaVuSans-34"/>
       <use xlink:href="#DejaVuSans-30" x="63.623047"/>
       <use xlink:href="#DejaVuSans-30" x="127.246094"/>
      </g>
     </g>
    </g>
    <g id="xtick_4">
     <g id="line2d_7">
      <path d="M 307.123922 246.04 
L 307.123922 31.6 
" clip-path="url(#p860dd465be)" style="fill: none; stroke: #b0b0b0; stroke-width: 0.8; stroke-linecap: square"/>
     </g>
     <g id="line2d_8">
      <g>
       <use xlink:href="#mdc27d172c1" x="307.123922" y="246.04" style="stroke: #000000; stroke-width: 0.8"/>
      </g>
     </g>
     <g id="text_4">
      <!-- 600 -->
      <g transform="translate(297.580172 260.638438) scale(0.1 -0.1)">
       <defs>
        <path id="DejaVuSans-36" d="M 2113 2584 
Q 1688 2584 1439 2293 
Q 1191 2003 1191 1497 
Q 1191 994 1439 701 
Q 1688 409 2113 409 
Q 2538 409 2786 701 
Q 3034 994 3034 1497 
Q 3034 2003 2786 2293 
Q 2538 2584 2113 2584 
z
M 3366 4563 
L 3366 3988 
Q 3128 4100 2886 4159 
Q 2644 4219 2406 4219 
Q 1781 4219 1451 3797 
Q 1122 3375 1075 2522 
Q 1259 2794 1537 2939 
Q 1816 3084 2150 3084 
Q 2853 3084 3261 2657 
Q 3669 2231 3669 1497 
Q 3669 778 3244 343 
Q 2819 -91 2113 -91 
Q 1303 -91 875 529 
Q 447 1150 447 2328 
Q 447 3434 972 4092 
Q 1497 4750 2381 4750 
Q 2619 4750 2861 4703 
Q 3103 4656 3366 4563 
z
" transform="scale(0.015625)"/>
       </defs>
       <use xlink:href="#DejaVuSans-36"/>
       <use xlink:href="#DejaVuSans-30" x="63.623047"/>
       <use xlink:href="#DejaVuSans-30" x="127.246094"/>
      </g>
     </g>
    </g>
    <g id="xtick_5">
     <g id="line2d_9">
      <path d="M 393.591895 246.04 
L 393.591895 31.6 
" clip-path="url(#p860dd465be)" style="fill: none; stroke: #b0b0b0; stroke-width: 0.8; stroke-linecap: square"/>
     </g>
     <g id="line2d_10">
      <g>
       <use xlink:href="#mdc27d172c1" x="393.591895" y="246.04" style="stroke: #000000; stroke-width: 0.8"/>
      </g>
     </g>
     <g id="text_5">
      <!-- 800 -->
      <g transform="translate(384.048145 260.638438) scale(0.1 -0.1)">
       <defs>
        <path id="DejaVuSans-38" d="M 2034 2216 
Q 1584 2216 1326 1975 
Q 1069 1734 1069 1313 
Q 1069 891 1326 650 
Q 1584 409 2034 409 
Q 2484 409 2743 651 
Q 3003 894 3003 1313 
Q 3003 1734 2745 1975 
Q 2488 2216 2034 2216 
z
M 1403 2484 
Q 997 2584 770 2862 
Q 544 3141 544 3541 
Q 544 4100 942 4425 
Q 1341 4750 2034 4750 
Q 2731 4750 3128 4425 
Q 3525 4100 3525 3541 
Q 3525 3141 3298 2862 
Q 3072 2584 2669 2484 
Q 3125 2378 3379 2068 
Q 3634 1759 3634 1313 
Q 3634 634 3220 271 
Q 2806 -91 2034 -91 
Q 1263 -91 848 271 
Q 434 634 434 1313 
Q 434 1759 690 2068 
Q 947 2378 1403 2484 
z
M 1172 3481 
Q 1172 3119 1398 2916 
Q 1625 2713 2034 2713 
Q 2441 2713 2670 2916 
Q 2900 3119 2900 3481 
Q 2900 3844 2670 4047 
Q 2441 4250 2034 4250 
Q 1625 4250 1398 4047 
Q 1172 3844 1172 3481 
z
" transform="scale(0.015625)"/>
       </defs>
       <use xlink:href="#DejaVuSans-38"/>
       <use xlink:href="#DejaVuSans-30" x="63.623047"/>
       <use xlink:href="#DejaVuSans-30" x="127.246094"/>
      </g>
     </g>
    </g>
    <g id="xtick_6">
     <g id="line2d_11">
      <path d="M 480.059869 246.04 
L 480.059869 31.6 
" clip-path="url(#p860dd465be)" style="fill: none; stroke: #b0b0b0; stroke-width: 0.8; stroke-linecap: square"/>
     </g>
     <g id="line2d_12">
      <g>
       <use xlink:href="#mdc27d172c1" x="480.059869" y="246.04" style="stroke: #000000; stroke-width: 0.8"/>
      </g>
     </g>
     <g id="text_6">
      <!-- 1000 -->
      <g transform="translate(467.334869 260.638438) scale(0.1 -0.1)">
       <defs>
        <path id="DejaVuSans-31" d="M 794 531 
L 1825 531 
L 1825 4091 
L 703 3866 
L 703 4441 
L 1819 4666 
L 2450 4666 
L 2450 531 
L 3481 531 
L 3481 0 
L 794 0 
L 794 531 
z
" transform="scale(0.015625)"/>
       </defs>
       <use xlink:href="#DejaVuSans-31"/>
       <use xlink:href="#DejaVuSans-30" x="63.623047"/>
       <use xlink:href="#DejaVuSans-30" x="127.246094"/>
       <use xlink:href="#DejaVuSans-30" x="190.869141"/>
      </g>
     </g>
    </g>
    <g id="xtick_7">
     <g id="line2d_13">
      <path d="M 566.527843 246.04 
L 566.527843 31.6 
" clip-path="url(#p860dd465be)" style="fill: none; stroke: #b0b0b0; stroke-width: 0.8; stroke-linecap: square"/>
     </g>
     <g id="line2d_14">
      <g>
       <use xlink:href="#mdc27d172c1" x="566.527843" y="246.04" style="stroke: #000000; stroke-width: 0.8"/>
      </g>
     </g>
     <g id="text_7">
      <!-- 1200 -->
      <g transform="translate(553.802843 260.638438) scale(0.1 -0.1)">
       <use xlink:href="#DejaVuSans-31"/>
       <use xlink:href="#DejaVuSans-32" x="63.623047"/>
       <use xlink:href="#DejaVuSans-30" x="127.246094"/>
       <use xlink:href="#DejaVuSans-30" x="190.869141"/>
      </g>
     </g>
    </g>
    <g id="xtick_8">
     <g id="line2d_15">
      <path d="M 652.995817 246.04 
L 652.995817 31.6 
" clip-path="url(#p860dd465be)" style="fill: none; stroke: #b0b0b0; stroke-width: 0.8; stroke-linecap: square"/>
     </g>
     <g id="line2d_16">
      <g>
       <use xlink:href="#mdc27d172c1" x="652.995817" y="246.04" style="stroke: #000000; stroke-width: 0.8"/>
      </g>
     </g>
     <g id="text_8">
      <!-- 1400 -->
      <g transform="translate(640.270817 260.638438) scale(0.1 -0.1)">
       <use xlink:href="#DejaVuSans-31"/>
       <use xlink:href="#DejaVuSans-34" x="63.623047"/>
       <use xlink:href="#DejaVuSans-30" x="127.246094"/>
       <use xlink:href="#DejaVuSans-30" x="190.869141"/>
      </g>
     </g>
    </g>
    <g id="text_9">
     <!-- Pixel -->
     <g transform="translate(366.899844 274.316562) scale(0.1 -0.1)">
      <defs>
       <path id="DejaVuSans-50" d="M 1259 4147 
L 1259 2394 
L 2053 2394 
Q 2494 2394 2734 2622 
Q 2975 2850 2975 3272 
Q 2975 3691 2734 3919 
Q 2494 4147 2053 4147 
L 1259 4147 
z
M 628 4666 
L 2053 4666 
Q 2838 4666 3239 4311 
Q 3641 3956 3641 3272 
Q 3641 2581 3239 2228 
Q 2838 1875 2053 1875 
L 1259 1875 
L 1259 0 
L 628 0 
L 628 4666 
z
" transform="scale(0.015625)"/>
       <path id="DejaVuSans-69" d="M 603 3500 
L 1178 3500 
L 1178 0 
L 603 0 
L 603 3500 
z
M 603 4863 
L 1178 4863 
L 1178 4134 
L 603 4134 
L 603 4863 
z
" transform="scale(0.015625)"/>
       <path id="DejaVuSans-78" d="M 3513 3500 
L 2247 1797 
L 3578 0 
L 2900 0 
L 1881 1375 
L 863 0 
L 184 0 
L 1544 1831 
L 300 3500 
L 978 3500 
L 1906 2253 
L 2834 3500 
L 3513 3500 
z
" transform="scale(0.015625)"/>
       <path id="DejaVuSans-65" d="M 3597 1894 
L 3597 1613 
L 953 1613 
Q 991 1019 1311 708 
Q 1631 397 2203 397 
Q 2534 397 2845 478 
Q 3156 559 3463 722 
L 3463 178 
Q 3153 47 2828 -22 
Q 2503 -91 2169 -91 
Q 1331 -91 842 396 
Q 353 884 353 1716 
Q 353 2575 817 3079 
Q 1281 3584 2069 3584 
Q 2775 3584 3186 3129 
Q 3597 2675 3597 1894 
z
M 3022 2063 
Q 3016 2534 2758 2815 
Q 2500 3097 2075 3097 
Q 1594 3097 1305 2825 
Q 1016 2553 972 2059 
L 3022 2063 
z
" transform="scale(0.015625)"/>
       <path id="DejaVuSans-6c" d="M 603 4863 
L 1178 4863 
L 1178 0 
L 603 0 
L 603 4863 
z
" transform="scale(0.015625)"/>
      </defs>
      <use xlink:href="#DejaVuSans-50"/>
      <use xlink:href="#DejaVuSans-69" x="58.052734"/>
      <use xlink:href="#DejaVuSans-78" x="85.835938"/>
      <use xlink:href="#DejaVuSans-65" x="141.890625"/>
      <use xlink:href="#DejaVuSans-6c" x="203.414062"/>
     </g>
    </g>
   </g>
   <g id="matplotlib.axis_2">
    <g id="ytick_1">
     <g id="line2d_17">
      <path d="M 47.72 246.04 
L 709.2 246.04 
" clip-path="url(#p860dd465be)" style="fill: none; stroke: #b0b0b0; stroke-width: 0.8; stroke-linecap: square"/>
     </g>
     <g id="line2d_18">
      <defs>
       <path id="m8bf5b19497" d="M 0 0 
L -3.5 0 
" style="stroke: #000000; stroke-width: 0.8"/>
      </defs>
      <g>
       <use xlink:href="#m8bf5b19497" x="47.72" y="246.04" style="stroke: #000000; stroke-width: 0.8"/>
      </g>
     </g>
     <g id="text_10">
      <!-- 0.0 -->
      <g transform="translate(24.816875 249.839219) scale(0.1 -0.1)">
       <defs>
        <path id="DejaVuSans-2e" d="M 684 794 
L 1344 794 
L 1344 0 
L 684 0 
L 684 794 
z
" transform="scale(0.015625)"/>
       </defs>
       <use xlink:href="#DejaVuSans-30"/>
       <use xlink:href="#DejaVuSans-2e" x="63.623047"/>
       <use xlink:href="#DejaVuSans-30" x="95.410156"/>
      </g>
     </g>
    </g>
    <g id="ytick_2">
     <g id="line2d_19">
      <path d="M 47.72 207.050909 
L 709.2 207.050909 
" clip-path="url(#p860dd465be)" style="fill: none; stroke: #b0b0b0; stroke-width: 0.8; stroke-linecap: square"/>
     </g>
     <g id="line2d_20">
      <g>
       <use xlink:href="#m8bf5b19497" x="47.72" y="207.050909" style="stroke: #000000; stroke-width: 0.8"/>
      </g>
     </g>
     <g id="text_11">
      <!-- 0.2 -->
      <g transform="translate(24.816875 210.850128) scale(0.1 -0.1)">
       <use xlink:href="#DejaVuSans-30"/>
       <use xlink:href="#DejaVuSans-2e" x="63.623047"/>
       <use xlink:href="#DejaVuSans-32" x="95.410156"/>
      </g>
     </g>
    </g>
    <g id="ytick_3">
     <g id="line2d_21">
      <path d="M 47.72 168.061818 
L 709.2 168.061818 
" clip-path="url(#p860dd465be)" style="fill: none; stroke: #b0b0b0; stroke-width: 0.8; stroke-linecap: square"/>
     </g>
     <g id="line2d_22">
      <g>
       <use xlink:href="#m8bf5b19497" x="47.72" y="168.061818" style="stroke: #000000; stroke-width: 0.8"/>
      </g>
     </g>
     <g id="text_12">
      <!-- 0.4 -->
      <g transform="translate(24.816875 171.861037) scale(0.1 -0.1)">
       <use xlink:href="#DejaVuSans-30"/>
       <use xlink:href="#DejaVuSans-2e" x="63.623047"/>
       <use xlink:href="#DejaVuSans-34" x="95.410156"/>
      </g>
     </g>
    </g>
    <g id="ytick_4">
     <g id="line2d_23">
      <path d="M 47.72 129.072727 
L 709.2 129.072727 
" clip-path="url(#p860dd465be)" style="fill: none; stroke: #b0b0b0; stroke-width: 0.8; stroke-linecap: square"/>
     </g>
     <g id="line2d_24">
      <g>
       <use xlink:href="#m8bf5b19497" x="47.72" y="129.072727" style="stroke: #000000; stroke-width: 0.8"/>
      </g>
     </g>
     <g id="text_13">
      <!-- 0.6 -->
      <g transform="translate(24.816875 132.871946) scale(0.1 -0.1)">
       <use xlink:href="#DejaVuSans-30"/>
       <use xlink:href="#DejaVuSans-2e" x="63.623047"/>
       <use xlink:href="#DejaVuSans-36" x="95.410156"/>
      </g>
     </g>
    </g>
    <g id="ytick_5">
     <g id="line2d_25">
      <path d="M 47.72 90.083636 
L 709.2 90.083636 
" clip-path="url(#p860dd465be)" style="fill: none; stroke: #b0b0b0; stroke-width: 0.8; stroke-linecap: square"/>
     </g>
     <g id="line2d_26">
      <g>
       <use xlink:href="#m8bf5b19497" x="47.72" y="90.083636" style="stroke: #000000; stroke-width: 0.8"/>
      </g>
     </g>
     <g id="text_14">
      <!-- 0.8 -->
      <g transform="translate(24.816875 93.882855) scale(0.1 -0.1)">
       <use xlink:href="#DejaVuSans-30"/>
       <use xlink:href="#DejaVuSans-2e" x="63.623047"/>
       <use xlink:href="#DejaVuSans-38" x="95.410156"/>
      </g>
     </g>
    </g>
    <g id="ytick_6">
     <g id="line2d_27">
      <path d="M 47.72 51.094545 
L 709.2 51.094545 
" clip-path="url(#p860dd465be)" style="fill: none; stroke: #b0b0b0; stroke-width: 0.8; stroke-linecap: square"/>
     </g>
     <g id="line2d_28">
      <g>
       <use xlink:href="#m8bf5b19497" x="47.72" y="51.094545" style="stroke: #000000; stroke-width: 0.8"/>
      </g>
     </g>
     <g id="text_15">
      <!-- 1.0 -->
      <g transform="translate(24.816875 54.893764) scale(0.1 -0.1)">
       <use xlink:href="#DejaVuSans-31"/>
       <use xlink:href="#DejaVuSans-2e" x="63.623047"/>
       <use xlink:href="#DejaVuSans-30" x="95.410156"/>
      </g>
     </g>
    </g>
    <g id="text_16">
     <!-- Intensity (normalized) -->
     <g transform="translate(18.737187 193.856719) rotate(-90) scale(0.1 -0.1)">
      <defs>
       <path id="DejaVuSans-49" d="M 628 4666 
L 1259 4666 
L 1259 0 
L 628 0 
L 628 4666 
z
" transform="scale(0.015625)"/>
       <path id="DejaVuSans-6e" d="M 3513 2113 
L 3513 0 
L 2938 0 
L 2938 2094 
Q 2938 2591 2744 2837 
Q 2550 3084 2163 3084 
Q 1697 3084 1428 2787 
Q 1159 2491 1159 1978 
L 1159 0 
L 581 0 
L 581 3500 
L 1159 3500 
L 1159 2956 
Q 1366 3272 1645 3428 
Q 1925 3584 2291 3584 
Q 2894 3584 3203 3211 
Q 3513 2838 3513 2113 
z
" transform="scale(0.015625)"/>
       <path id="DejaVuSans-74" d="M 1172 4494 
L 1172 3500 
L 2356 3500 
L 2356 3053 
L 1172 3053 
L 1172 1153 
Q 1172 725 1289 603 
Q 1406 481 1766 481 
L 2356 481 
L 2356 0 
L 1766 0 
Q 1100 0 847 248 
Q 594 497 594 1153 
L 594 3053 
L 172 3053 
L 172 3500 
L 594 3500 
L 594 4494 
L 1172 4494 
z
" transform="scale(0.015625)"/>
       <path id="DejaVuSans-73" d="M 2834 3397 
L 2834 2853 
Q 2591 2978 2328 3040 
Q 2066 3103 1784 3103 
Q 1356 3103 1142 2972 
Q 928 2841 928 2578 
Q 928 2378 1081 2264 
Q 1234 2150 1697 2047 
L 1894 2003 
Q 2506 1872 2764 1633 
Q 3022 1394 3022 966 
Q 3022 478 2636 193 
Q 2250 -91 1575 -91 
Q 1294 -91 989 -36 
Q 684 19 347 128 
L 347 722 
Q 666 556 975 473 
Q 1284 391 1588 391 
Q 1994 391 2212 530 
Q 2431 669 2431 922 
Q 2431 1156 2273 1281 
Q 2116 1406 1581 1522 
L 1381 1569 
Q 847 1681 609 1914 
Q 372 2147 372 2553 
Q 372 3047 722 3315 
Q 1072 3584 1716 3584 
Q 2034 3584 2315 3537 
Q 2597 3491 2834 3397 
z
" transform="scale(0.015625)"/>
       <path id="DejaVuSans-79" d="M 2059 -325 
Q 1816 -950 1584 -1140 
Q 1353 -1331 966 -1331 
L 506 -1331 
L 506 -850 
L 844 -850 
Q 1081 -850 1212 -737 
Q 1344 -625 1503 -206 
L 1606 56 
L 191 3500 
L 800 3500 
L 1894 763 
L 2988 3500 
L 3597 3500 
L 2059 -325 
z
" transform="scale(0.015625)"/>
       <path id="DejaVuSans-20" transform="scale(0.015625)"/>
       <path id="DejaVuSans-28" d="M 1984 4856 
Q 1566 4138 1362 3434 
Q 1159 2731 1159 2009 
Q 1159 1288 1364 580 
Q 1569 -128 1984 -844 
L 1484 -844 
Q 1016 -109 783 600 
Q 550 1309 550 2009 
Q 550 2706 781 3412 
Q 1013 4119 1484 4856 
L 1984 4856 
z
" transform="scale(0.015625)"/>
       <path id="DejaVuSans-6f" d="M 1959 3097 
Q 1497 3097 1228 2736 
Q 959 2375 959 1747 
Q 959 1119 1226 758 
Q 1494 397 1959 397 
Q 2419 397 2687 759 
Q 2956 1122 2956 1747 
Q 2956 2369 2687 2733 
Q 2419 3097 1959 3097 
z
M 1959 3584 
Q 2709 3584 3137 3096 
Q 3566 2609 3566 1747 
Q 3566 888 3137 398 
Q 2709 -91 1959 -91 
Q 1206 -91 779 398 
Q 353 888 353 1747 
Q 353 2609 779 3096 
Q 1206 3584 1959 3584 
z
" transform="scale(0.015625)"/>
       <path id="DejaVuSans-72" d="M 2631 2963 
Q 2534 3019 2420 3045 
Q 2306 3072 2169 3072 
Q 1681 3072 1420 2755 
Q 1159 2438 1159 1844 
L 1159 0 
L 581 0 
L 581 3500 
L 1159 3500 
L 1159 2956 
Q 1341 3275 1631 3429 
Q 1922 3584 2338 3584 
Q 2397 3584 2469 3576 
Q 2541 3569 2628 3553 
L 2631 2963 
z
" transform="scale(0.015625)"/>
       <path id="DejaVuSans-6d" d="M 3328 2828 
Q 3544 3216 3844 3400 
Q 4144 3584 4550 3584 
Q 5097 3584 5394 3201 
Q 5691 2819 5691 2113 
L 5691 0 
L 5113 0 
L 5113 2094 
Q 5113 2597 4934 2840 
Q 4756 3084 4391 3084 
Q 3944 3084 3684 2787 
Q 3425 2491 3425 1978 
L 3425 0 
L 2847 0 
L 2847 2094 
Q 2847 2600 2669 2842 
Q 2491 3084 2119 3084 
Q 1678 3084 1418 2786 
Q 1159 2488 1159 1978 
L 1159 0 
L 581 0 
L 581 3500 
L 1159 3500 
L 1159 2956 
Q 1356 3278 1631 3431 
Q 1906 3584 2284 3584 
Q 2666 3584 2933 3390 
Q 3200 3197 3328 2828 
z
" transform="scale(0.015625)"/>
       <path id="DejaVuSans-61" d="M 2194 1759 
Q 1497 1759 1228 1600 
Q 959 1441 959 1056 
Q 959 750 1161 570 
Q 1363 391 1709 391 
Q 2188 391 2477 730 
Q 2766 1069 2766 1631 
L 2766 1759 
L 2194 1759 
z
M 3341 1997 
L 3341 0 
L 2766 0 
L 2766 531 
Q 2569 213 2275 61 
Q 1981 -91 1556 -91 
Q 1019 -91 701 211 
Q 384 513 384 1019 
Q 384 1609 779 1909 
Q 1175 2209 1959 2209 
L 2766 2209 
L 2766 2266 
Q 2766 2663 2505 2880 
Q 2244 3097 1772 3097 
Q 1472 3097 1187 3025 
Q 903 2953 641 2809 
L 641 3341 
Q 956 3463 1253 3523 
Q 1550 3584 1831 3584 
Q 2591 3584 2966 3190 
Q 3341 2797 3341 1997 
z
" transform="scale(0.015625)"/>
       <path id="DejaVuSans-7a" d="M 353 3500 
L 3084 3500 
L 3084 2975 
L 922 459 
L 3084 459 
L 3084 0 
L 275 0 
L 275 525 
L 2438 3041 
L 353 3041 
L 353 3500 
z
" transform="scale(0.015625)"/>
       <path id="DejaVuSans-64" d="M 2906 2969 
L 2906 4863 
L 3481 4863 
L 3481 0 
L 2906 0 
L 2906 525 
Q 2725 213 2448 61 
Q 2172 -91 1784 -91 
Q 1150 -91 751 415 
Q 353 922 353 1747 
Q 353 2572 751 3078 
Q 1150 3584 1784 3584 
Q 2172 3584 2448 3432 
Q 2725 3281 2906 2969 
z
M 947 1747 
Q 947 1113 1208 752 
Q 1469 391 1925 391 
Q 2381 391 2643 752 
Q 2906 1113 2906 1747 
Q 2906 2381 2643 2742 
Q 2381 3103 1925 3103 
Q 1469 3103 1208 2742 
Q 947 2381 947 1747 
z
" transform="scale(0.015625)"/>
       <path id="DejaVuSans-29" d="M 513 4856 
L 1013 4856 
Q 1481 4119 1714 3412 
Q 1947 2706 1947 2009 
Q 1947 1309 1714 600 
Q 1481 -109 1013 -844 
L 513 -844 
Q 928 -128 1133 580 
Q 1338 1288 1338 2009 
Q 1338 2731 1133 3434 
Q 928 4138 513 4856 
z
" transform="scale(0.015625)"/>
      </defs>
      <use xlink:href="#DejaVuSans-49"/>
      <use xlink:href="#DejaVuSans-6e" x="29.492188"/>
      <use xlink:href="#DejaVuSans-74" x="92.871094"/>
      <use xlink:href="#DejaVuSans-65" x="132.080078"/>
      <use xlink:href="#DejaVuSans-6e" x="193.603516"/>
      <use xlink:href="#DejaVuSans-73" x="256.982422"/>
      <use xlink:href="#DejaVuSans-69" x="309.082031"/>
      <use xlink:href="#DejaVuSans-74" x="336.865234"/>
      <use xlink:href="#DejaVuSans-79" x="376.074219"/>
      <use xlink:href="#DejaVuSans-20" x="435.253906"/>
      <use xlink:href="#DejaVuSans-28" x="467.041016"/>
      <use xlink:href="#DejaVuSans-6e" x="506.054688"/>
      <use xlink:href="#DejaVuSans-6f" x="569.433594"/>
      <use xlink:href="#DejaVuSans-72" x="630.615234"/>
      <use xlink:href="#DejaVuSans-6d" x="669.978516"/>
      <use xlink:href="#DejaVuSans-61" x="767.390625"/>
      <use xlink:href="#DejaVuSans-6c" x="828.669922"/>
      <use xlink:href="#DejaVuSans-69" x="856.453125"/>
      <use xlink:href="#DejaVuSans-7a" x="884.236328"/>
      <use xlink:href="#DejaVuSans-65" x="936.726562"/>
      <use xlink:href="#DejaVuSans-64" x="998.25"/>
      <use xlink:href="#DejaVuSans-29" x="1061.726562"/>
     </g>
    </g>
   </g>
   <g id="line2d_29">
    <path d="M 47.72 157.645331 
L 48.58468 133.084202 
L 49.01702 127.341105 
L 49.449359 126.502237 
L 49.881699 125.223833 
L 50.314039 125.483371 
L 50.746379 129.458765 
L 51.178719 140.202375 
L 52.043399 182.768857 
L 52.475739 205.36741 
L 52.908078 212.188004 
L 53.340418 214.568737 
L 53.772758 216.012029 
L 54.205098 220.450361 
L 54.637438 222.839843 
L 55.502118 229.260704 
L 55.934458 234.786679 
L 56.366797 237.99765 
L 56.799137 239.271745 
L 57.231477 239.686633 
L 57.663817 239.240036 
L 58.096157 240.013248 
L 58.528497 239.923298 
L 58.960837 239.583341 
L 59.393176 239.922511 
L 60.257856 238.762903 
L 60.690196 239.872358 
L 61.122536 239.132239 
L 61.554876 241.150283 
L 62.419556 240.842427 
L 62.851895 241.143947 
L 63.284235 240.904144 
L 63.716575 240.349789 
L 64.148915 240.638904 
L 64.581255 239.177503 
L 65.445935 235.318868 
L 65.878275 231.120617 
L 66.742954 213.960302 
L 67.175294 204.654237 
L 67.607634 199.140498 
L 68.039974 198.281898 
L 68.904654 199.467354 
L 69.336993 202.325134 
L 69.769333 204.266076 
L 70.201673 210.143888 
L 71.498693 236.958655 
L 71.931033 237.747047 
L 72.363373 235.933703 
L 73.228052 229.819588 
L 74.525072 217.092877 
L 75.389752 210.362107 
L 75.822092 209.299392 
L 76.254431 209.521391 
L 76.686771 203.365394 
L 77.119111 201.271775 
L 77.983791 190.069906 
L 78.416131 188.694395 
L 78.848471 188.920044 
L 79.28081 188.048358 
L 79.71315 188.177092 
L 80.14549 188.664554 
L 80.57783 194.080116 
L 81.44251 210.146509 
L 81.87485 218.808797 
L 82.30719 225.183588 
L 83.604209 234.070088 
L 84.036549 236.50008 
L 86.198248 243.472752 
L 87.495268 246.04 
L 87.927608 245.949953 
L 88.359948 244.441307 
L 88.792288 243.845354 
L 89.224627 242.982507 
L 89.656967 239.029004 
L 90.089307 236.766819 
L 90.521647 233.165098 
L 90.953987 228.306193 
L 91.818667 216.680797 
L 92.683346 197.982845 
L 93.548026 186.155723 
L 94.412706 177.129978 
L 95.277386 173.251235 
L 95.709725 175.387522 
L 96.574405 181.67649 
L 97.006745 186.357225 
L 97.439085 187.100072 
L 98.303765 195.457346 
L 98.736105 202.553641 
L 100.033124 212.900502 
L 100.465464 217.06984 
L 100.897804 218.036761 
L 101.330144 222.312205 
L 101.762484 222.800309 
L 102.194824 221.968313 
L 102.627163 219.529657 
L 103.924183 207.608342 
L 104.356523 204.420611 
L 104.788863 198.802828 
L 105.653542 171.616648 
L 106.085882 156.795089 
L 106.518222 146.851052 
L 106.950562 140.916423 
L 107.382902 141.774931 
L 108.247582 147.375937 
L 108.679922 149.8249 
L 109.112261 157.160593 
L 109.976941 189.064647 
L 110.409281 205.034104 
L 110.841621 215.263842 
L 111.273961 216.903425 
L 111.706301 217.833215 
L 114.30034 234.294607 
L 114.73268 235.625585 
L 115.16502 234.922508 
L 116.029699 235.954438 
L 116.894379 232.832267 
L 117.326719 232.665868 
L 117.759059 231.645261 
L 118.191399 233.255181 
L 118.623739 234.036939 
L 119.488418 231.661158 
L 120.353098 225.954701 
L 120.785438 222.497487 
L 121.217778 216.973872 
L 122.082458 210.48281 
L 122.514797 204.245882 
L 122.947137 195.627575 
L 123.811817 175.418857 
L 124.244157 166.431169 
L 125.108837 160.097492 
L 125.541176 158.585693 
L 125.973516 156.250114 
L 126.838196 149.075862 
L 127.702876 159.563163 
L 128.135216 166.703435 
L 128.567556 171.212006 
L 128.999895 169.978416 
L 129.432235 169.988543 
L 129.864575 167.774889 
L 130.296915 168.642764 
L 130.729255 169.099578 
L 131.161595 170.439659 
L 131.593935 170.350209 
L 132.026275 173.169555 
L 132.458614 174.091393 
L 132.890954 176.334178 
L 133.755634 186.650298 
L 135.052654 207.191476 
L 135.917333 215.384572 
L 136.782013 221.964297 
L 137.214353 224.156167 
L 137.646693 224.672179 
L 138.079033 229.390567 
L 138.511373 230.517666 
L 139.376052 230.086275 
L 139.808392 229.176607 
L 140.240732 226.474303 
L 140.673072 225.043463 
L 141.105412 224.37561 
L 141.537752 224.574913 
L 141.970092 223.999312 
L 142.402431 224.481129 
L 142.834771 226.488454 
L 143.699451 234.175188 
L 144.131791 236.475126 
L 144.564131 237.852212 
L 144.996471 238.200875 
L 145.42881 235.735438 
L 145.86115 230.682299 
L 147.15817 201.771418 
L 147.59051 193.422169 
L 148.02285 187.551056 
L 148.887529 181.148908 
L 149.319869 181.679656 
L 149.752209 184.909654 
L 150.184549 191.237475 
L 151.481569 219.227563 
L 151.913908 221.675625 
L 152.346248 220.802022 
L 153.643268 209.587925 
L 154.507948 207.92708 
L 155.372627 208.978507 
L 155.804967 209.442515 
L 156.237307 213.755608 
L 157.101987 226.806615 
L 157.534327 230.247721 
L 157.966667 230.918855 
L 158.399007 230.610639 
L 158.831346 230.49128 
L 159.263686 231.813939 
L 159.696026 232.563738 
L 160.128366 233.630686 
L 160.993046 236.783245 
L 161.425386 237.174786 
L 161.857725 236.900273 
L 162.290065 235.187202 
L 162.722405 234.314774 
L 163.154745 232.280345 
L 163.587085 231.033991 
L 164.019425 228.105299 
L 164.451765 221.372763 
L 165.316444 195.403957 
L 166.181124 174.111318 
L 166.613464 166.869334 
L 167.045804 165.407613 
L 167.478144 164.889043 
L 168.342824 157.955962 
L 168.775163 158.717577 
L 169.207503 163.323182 
L 170.072183 179.772571 
L 170.504523 185.207554 
L 170.936863 185.560744 
L 171.369203 183.399647 
L 171.801542 185.825404 
L 172.666222 200.196179 
L 173.530902 217.416601 
L 173.963242 221.043509 
L 174.395582 222.980128 
L 174.827922 225.531444 
L 175.260261 226.557074 
L 175.692601 225.59795 
L 176.124941 223.609999 
L 176.557281 222.909084 
L 176.989621 221.075702 
L 177.421961 220.611785 
L 177.854301 221.434718 
L 178.286641 221.465202 
L 178.71898 222.006977 
L 179.15132 221.842634 
L 179.58366 225.569743 
L 180.016 225.743924 
L 180.88068 225.619852 
L 181.31302 222.884341 
L 182.177699 219.839136 
L 182.610039 216.316218 
L 183.042379 215.52394 
L 183.474719 217.444159 
L 183.907059 217.495218 
L 184.339399 219.385077 
L 184.771739 219.957222 
L 185.636418 219.494102 
L 186.068758 221.347865 
L 186.933438 226.821475 
L 187.365778 228.187754 
L 188.230458 225.039025 
L 188.662797 224.08465 
L 189.527477 221.167982 
L 190.392157 215.626814 
L 190.824497 212.140584 
L 191.256837 207.422684 
L 191.689176 204.98947 
L 192.121516 203.297374 
L 192.986196 208.88497 
L 193.418536 211.098248 
L 193.850876 213.975774 
L 194.283216 215.486527 
L 194.715556 219.701941 
L 195.580235 230.371001 
L 196.444915 236.758322 
L 196.877255 237.199288 
L 197.309595 236.434364 
L 197.741935 236.657465 
L 198.174275 236.434122 
L 198.606614 235.484408 
L 199.038954 234.924721 
L 199.471294 233.65871 
L 200.335974 223.535119 
L 201.200654 209.933527 
L 202.065333 203.600405 
L 202.930013 202.337039 
L 203.362353 200.311413 
L 203.794693 200.841205 
L 204.227033 204.866362 
L 204.659373 206.888394 
L 205.091712 203.896544 
L 206.821072 171.740846 
L 207.253412 168.123152 
L 207.685752 168.073366 
L 208.118092 169.510239 
L 208.550431 169.021801 
L 208.982771 172.780096 
L 209.847451 190.399636 
L 210.712131 205.539776 
L 211.144471 207.120626 
L 211.57681 207.237531 
L 212.44149 201.927126 
L 212.87383 192.290387 
L 214.17085 147.64864 
L 214.60319 136.801768 
L 215.035529 132.08173 
L 215.467869 129.86361 
L 215.900209 131.413347 
L 216.332549 135.126141 
L 216.764889 137.62217 
L 217.197229 147.937872 
L 217.629569 162.035172 
L 218.494248 196.085524 
L 218.926588 205.229034 
L 219.358928 207.811583 
L 219.791268 208.353245 
L 220.655948 210.952876 
L 221.088288 213.202617 
L 222.817647 228.148287 
L 223.249987 227.90205 
L 223.682327 228.141077 
L 224.114667 227.200178 
L 224.547007 226.535807 
L 225.411686 214.306832 
L 226.276366 203.706184 
L 227.141046 195.726613 
L 228.005725 191.674727 
L 228.870405 184.456442 
L 229.302745 187.583167 
L 229.735085 191.759498 
L 230.167425 198.652447 
L 231.032105 207.437674 
L 231.464444 209.993795 
L 231.896784 211.294492 
L 232.329124 214.004349 
L 232.761464 214.023834 
L 233.193804 216.535334 
L 233.626144 215.95958 
L 234.058484 216.216035 
L 234.490824 214.880514 
L 234.923163 214.819155 
L 235.787843 218.431125 
L 236.652523 226.277588 
L 237.084863 230.519127 
L 237.517203 236.996001 
L 237.949542 239.931921 
L 238.381882 239.921734 
L 238.814222 239.631876 
L 239.678902 236.716333 
L 240.111242 233.787681 
L 240.543582 231.932472 
L 240.975922 229.249769 
L 241.408261 228.879645 
L 241.840601 224.99874 
L 242.272941 223.303085 
L 242.705281 220.573227 
L 243.137621 220.215496 
L 244.002301 220.771011 
L 244.434641 220.686644 
L 244.86698 221.26514 
L 245.29932 220.749896 
L 245.73166 220.608242 
L 246.164 219.738951 
L 247.02868 217.533585 
L 247.46102 215.401388 
L 247.893359 202.867139 
L 249.190379 131.538607 
L 249.622719 115.421372 
L 250.055059 103.830747 
L 250.487399 100.031406 
L 250.919739 98.598498 
L 251.352078 99.728409 
L 251.784418 101.338197 
L 252.216758 110.730685 
L 252.649098 131.135282 
L 253.946118 208.599012 
L 254.378458 221.777597 
L 254.810797 225.499473 
L 255.243137 225.836459 
L 255.675477 226.3686 
L 256.540157 222.24129 
L 256.972497 221.073204 
L 257.404837 221.010115 
L 257.837176 222.126556 
L 258.701856 222.945756 
L 259.134196 222.840204 
L 259.566536 223.014335 
L 259.998876 224.399831 
L 260.431216 225.143268 
L 260.863556 224.293692 
L 261.295895 223.082064 
L 262.160575 218.677053 
L 262.592915 217.135721 
L 263.025255 216.136034 
L 263.457595 214.790194 
L 264.322275 216.670601 
L 264.754614 217.240754 
L 265.186954 216.841797 
L 265.619294 217.913451 
L 266.051634 216.295126 
L 266.483974 215.84402 
L 266.916314 216.433163 
L 267.348654 216.521522 
L 268.645673 220.409188 
L 269.078013 222.587854 
L 269.510353 223.806702 
L 269.942693 225.918273 
L 270.375033 222.72154 
L 271.239712 199.510606 
L 271.672052 184.823897 
L 272.536732 166.718655 
L 272.969072 162.719909 
L 273.401412 161.342488 
L 273.833752 161.292143 
L 274.266092 163.300929 
L 274.698431 170.17542 
L 275.130771 181.702853 
L 275.995451 210.99844 
L 276.427791 218.838231 
L 276.860131 217.715509 
L 277.292471 204.142792 
L 278.58949 151.249802 
L 279.45417 130.923571 
L 279.88651 125.036755 
L 280.75119 123.607552 
L 281.183529 123.320211 
L 281.615869 128.547245 
L 282.048209 137.351791 
L 282.480549 149.776846 
L 283.345229 164.6136 
L 284.642248 172.504161 
L 285.074588 177.576048 
L 286.803948 210.083482 
L 287.668627 217.419551 
L 288.100967 220.88562 
L 288.533307 221.27128 
L 288.965647 220.945359 
L 289.397987 213.826268 
L 290.262667 164.390088 
L 290.695007 137.511007 
L 291.559686 102.176221 
L 291.992026 92.503212 
L 292.424366 87.601447 
L 292.856706 87.82703 
L 293.289046 88.945917 
L 293.721386 94.611972 
L 294.153725 108.565556 
L 294.586065 131.315316 
L 295.450745 187.647397 
L 295.883085 209.355545 
L 296.315425 217.698588 
L 297.180105 222.980718 
L 297.612444 225.139399 
L 298.909464 229.628826 
L 299.341804 229.14821 
L 299.774144 228.897452 
L 300.206484 229.658853 
L 300.638824 229.315558 
L 301.071163 231.318397 
L 301.503503 230.83526 
L 302.368183 229.332073 
L 302.800523 228.455282 
L 303.232863 228.088221 
L 303.665203 226.023511 
L 304.097542 226.211961 
L 304.529882 225.905554 
L 304.962222 224.141 
L 305.394562 224.49085 
L 305.826902 224.535816 
L 306.259242 226.431461 
L 306.691582 226.73195 
L 307.123922 226.430337 
L 307.556261 225.676705 
L 308.853281 217.936476 
L 309.285621 217.924956 
L 309.717961 216.143041 
L 310.150301 215.882439 
L 310.582641 215.966275 
L 311.01498 216.452547 
L 311.44732 217.644081 
L 312.74434 228.75887 
L 313.17668 229.21252 
L 313.60902 232.239767 
L 314.473699 229.276694 
L 314.906039 229.211231 
L 315.338379 227.826998 
L 316.635399 221.377415 
L 317.067739 220.323578 
L 317.932418 219.684928 
L 318.364758 220.270373 
L 318.797098 218.934445 
L 319.229438 216.107406 
L 319.661778 200.355357 
L 320.526458 161.595747 
L 321.391137 133.12436 
L 321.823477 126.4748 
L 322.255817 122.96445 
L 323.120497 122.324161 
L 323.552837 124.767623 
L 323.985176 137.224995 
L 325.282196 189.675736 
L 325.714536 197.68705 
L 326.146876 198.87102 
L 327.011556 192.370474 
L 327.876235 188.120642 
L 328.740915 184.51751 
L 329.605595 170.807658 
L 330.470275 157.385101 
L 331.334954 149.567322 
L 331.767294 149.954716 
L 332.199634 152.826497 
L 332.631974 153.461573 
L 333.064314 158.999028 
L 333.496654 168.266022 
L 334.793673 204.863526 
L 335.226013 214.099227 
L 335.658353 218.328463 
L 336.090693 220.08089 
L 336.523033 219.149395 
L 337.387712 212.765978 
L 338.252392 207.057697 
L 338.684732 205.770587 
L 339.117072 202.323162 
L 340.414092 195.25159 
L 340.846431 195.190432 
L 341.278771 195.575802 
L 341.711111 194.016355 
L 342.143451 191.094873 
L 342.575791 187.201871 
L 343.008131 186.213404 
L 343.440471 184.032963 
L 343.87281 185.138942 
L 344.30515 188.210755 
L 344.73749 192.13915 
L 345.16983 193.909023 
L 346.46685 201.715338 
L 346.89919 195.730238 
L 348.628549 144.379511 
L 349.060889 136.433131 
L 349.493229 132.677269 
L 349.925569 131.800961 
L 350.357908 134.35154 
L 350.790248 138.943007 
L 351.222588 150.803682 
L 352.951948 210.226687 
L 353.384288 214.715471 
L 353.816627 215.365027 
L 354.248967 217.379122 
L 354.681307 217.826512 
L 355.545987 219.849053 
L 355.978327 219.726114 
L 356.410667 220.695312 
L 356.843007 220.327458 
L 357.275346 217.90371 
L 357.707686 212.729635 
L 358.140026 199.407914 
L 360.301725 115.775431 
L 361.166405 90.078788 
L 361.598745 82.53883 
L 362.031085 77.521978 
L 362.463425 78.681716 
L 362.895765 83.464605 
L 364.192784 109.351504 
L 365.489804 149.90108 
L 365.922144 157.759367 
L 366.354484 160.507639 
L 366.786824 159.150978 
L 367.219163 158.882798 
L 367.651503 158.37066 
L 368.083843 159.895181 
L 368.516183 159.978985 
L 368.948523 159.487682 
L 369.380863 162.829923 
L 369.813203 168.362058 
L 370.677882 186.774104 
L 371.542562 198.56419 
L 371.974902 202.377707 
L 372.407242 207.209806 
L 373.271922 212.665926 
L 373.704261 211.680967 
L 374.136601 209.965072 
L 374.568941 208.768995 
L 375.865961 203.096209 
L 376.298301 203.440072 
L 376.730641 204.10367 
L 377.16298 206.932784 
L 377.59532 211.562564 
L 378.02766 213.276934 
L 378.46 215.838983 
L 378.89234 216.051939 
L 379.32468 215.985908 
L 379.75702 214.266677 
L 380.189359 213.024827 
L 380.621699 209.911366 
L 381.054039 201.995672 
L 381.486379 178.206928 
L 382.783399 89.387936 
L 383.215739 73.218068 
L 383.648078 61.239531 
L 384.080418 54.832013 
L 384.512758 52.844559 
L 384.945098 53.396424 
L 385.377438 57.335401 
L 385.809778 71.986946 
L 386.242118 95.282941 
L 387.106797 162.92169 
L 387.539137 192.425169 
L 387.971477 205.770432 
L 388.403817 209.250963 
L 388.836157 204.85345 
L 390.565516 166.71324 
L 390.997856 161.184875 
L 391.430196 157.983139 
L 391.862536 158.529331 
L 392.294876 160.073439 
L 392.727216 163.653019 
L 393.159556 170.051279 
L 394.456575 201.557034 
L 394.888915 205.844824 
L 395.321255 204.271586 
L 395.753595 199.232883 
L 396.618275 192.529099 
L 397.050614 191.988017 
L 397.482954 190.665343 
L 397.915294 192.054311 
L 398.347634 194.473285 
L 398.779974 197.641041 
L 399.212314 202.164446 
L 400.076993 216.089537 
L 400.941673 225.024154 
L 401.374013 227.795672 
L 401.806353 227.568996 
L 402.671033 228.027175 
L 403.103373 226.415051 
L 403.535712 222.690737 
L 403.968052 208.195381 
L 404.400392 189.508854 
L 405.265072 143.973692 
L 406.129752 108.85232 
L 406.994431 91.002843 
L 407.426771 87.60317 
L 407.859111 88.330617 
L 408.291451 94.090062 
L 408.723791 104.599384 
L 410.88549 182.465938 
L 411.31783 189.602424 
L 411.75017 192.115811 
L 412.18251 193.170872 
L 412.61485 191.590021 
L 413.04719 186.343085 
L 414.776549 150.04494 
L 415.208889 142.375397 
L 416.073569 137.734077 
L 416.505908 139.729311 
L 416.938248 142.756693 
L 417.370588 147.924747 
L 417.802928 151.564917 
L 418.667608 154.194187 
L 419.099948 154.201178 
L 419.532288 154.332826 
L 419.964627 157.452623 
L 420.396967 159.673958 
L 420.829307 162.717387 
L 421.261647 167.542015 
L 422.558667 191.118637 
L 422.991007 190.889077 
L 423.855686 182.257115 
L 424.288026 174.608174 
L 425.152706 165.155572 
L 425.585046 161.830908 
L 426.882065 145.167017 
L 427.314405 141.461265 
L 427.746745 140.121141 
L 428.179085 139.281215 
L 428.611425 139.372888 
L 429.043765 140.230221 
L 429.476105 141.713905 
L 429.908444 146.158819 
L 430.340784 154.901756 
L 431.205464 185.036438 
L 432.070144 212.655041 
L 432.502484 220.39852 
L 432.934824 222.443707 
L 433.367163 222.381106 
L 433.799503 219.140511 
L 434.231843 213.737871 
L 434.664183 206.867353 
L 435.528863 182.42724 
L 435.961203 166.872953 
L 437.258222 146.093418 
L 437.690562 144.252231 
L 438.122902 145.420571 
L 438.555242 147.74279 
L 439.419922 154.687135 
L 439.852261 158.445127 
L 440.284601 163.708017 
L 440.716941 165.095843 
L 441.149281 165.751946 
L 441.581621 161.595983 
L 442.013961 150.932127 
L 442.446301 133.017867 
L 443.31098 84.017261 
L 443.74332 69.578402 
L 444.17566 59.652139 
L 444.608 54.80681 
L 445.04034 51.50859 
L 445.47268 51.094545 
L 445.90502 54.145867 
L 446.337359 62.475753 
L 446.769699 79.593921 
L 448.066719 157.516301 
L 448.499059 173.674706 
L 448.931399 179.762083 
L 449.363739 180.281616 
L 449.796078 175.329566 
L 450.660758 150.982246 
L 451.093098 138.83937 
L 451.525438 133.911536 
L 451.957778 132.390547 
L 452.390118 132.39908 
L 452.822458 133.003412 
L 453.254797 135.843412 
L 453.687137 137.932674 
L 454.119477 143.887607 
L 454.551817 155.596983 
L 455.416497 186.082219 
L 455.848837 196.545601 
L 456.281176 202.496242 
L 456.713516 204.992342 
L 457.145856 206.422183 
L 458.010536 207.03803 
L 458.442876 208.729987 
L 458.875216 208.860164 
L 459.307556 208.568851 
L 459.739895 210.511525 
L 460.172235 211.469623 
L 460.604575 212.884889 
L 461.901595 215.167887 
L 462.333935 216.158347 
L 463.198614 209.373285 
L 463.630954 202.329415 
L 464.063294 198.704053 
L 464.495634 196.681456 
L 464.927974 192.773776 
L 465.360314 190.907982 
L 466.224993 189.05315 
L 466.657333 189.839155 
L 467.089673 193.699736 
L 467.522013 199.718592 
L 468.386693 207.668864 
L 468.819033 207.729387 
L 469.251373 206.568333 
L 470.116052 200.693959 
L 470.548392 200.994656 
L 470.980732 200.567652 
L 471.413072 199.271204 
L 472.277752 188.341937 
L 472.710092 179.75497 
L 473.142431 174.941799 
L 473.574771 172.376208 
L 474.871791 161.81207 
L 475.736471 153.247949 
L 476.16881 152.288396 
L 476.60115 154.401517 
L 478.33051 171.924007 
L 478.76285 178.22922 
L 479.19519 186.230747 
L 480.059869 208.533467 
L 480.924549 220.78811 
L 481.356889 223.031418 
L 481.789229 223.98613 
L 482.653908 223.023345 
L 483.518588 219.309985 
L 483.950928 214.016872 
L 484.383268 202.02281 
L 485.247948 169.1653 
L 485.680288 156.826354 
L 486.112627 149.606417 
L 486.544967 144.459132 
L 486.977307 141.412111 
L 487.409647 140.795138 
L 487.841987 141.767566 
L 488.274327 146.601142 
L 488.706667 157.965146 
L 489.571346 193.608582 
L 490.003686 206.125016 
L 490.436026 214.291891 
L 490.868366 218.663853 
L 492.165386 222.162567 
L 492.597725 221.797554 
L 493.030065 220.43068 
L 493.462405 217.737627 
L 493.894745 213.185442 
L 494.327085 207.142989 
L 494.759425 203.350664 
L 495.191765 197.277904 
L 495.624105 194.309779 
L 496.056444 192.447678 
L 496.488784 191.196673 
L 496.921124 191.875499 
L 497.353464 192.941771 
L 497.785804 195.434301 
L 498.650484 203.586962 
L 499.082824 208.563075 
L 499.947503 215.534009 
L 500.812183 219.06268 
L 501.244523 218.250888 
L 501.676863 213.37479 
L 502.109203 204.432024 
L 502.541542 192.730668 
L 503.406222 177.203609 
L 503.838562 173.385875 
L 504.703242 168.435214 
L 505.135582 165.131343 
L 505.567922 164.136332 
L 506.000261 168.406247 
L 507.297281 189.65023 
L 507.729621 194.849555 
L 508.161961 194.189506 
L 508.594301 188.678419 
L 509.45898 168.847946 
L 509.89132 162.092228 
L 511.62068 145.326025 
L 512.05302 144.735304 
L 512.485359 146.084466 
L 512.917699 154.490088 
L 513.782379 178.447119 
L 514.214719 183.28981 
L 514.647059 183.400357 
L 515.079399 181.545378 
L 515.511739 179.008082 
L 516.376418 177.885237 
L 516.808758 177.925481 
L 517.241098 178.60699 
L 517.673438 178.957349 
L 518.538118 191.403289 
L 518.970458 194.858194 
L 519.402797 194.493945 
L 519.835137 191.486059 
L 520.699817 181.409727 
L 521.132157 172.064968 
L 522.429176 135.196878 
L 522.861516 129.676444 
L 523.293856 129.470696 
L 524.590876 123.441023 
L 525.023216 122.861249 
L 525.455556 128.73362 
L 527.184915 165.34341 
L 528.049595 175.477798 
L 528.481935 178.315539 
L 528.914275 178.013907 
L 529.346614 172.611 
L 529.778954 165.546461 
L 531.075974 126.560371 
L 531.940654 97.43258 
L 532.372993 87.17187 
L 532.805333 81.448284 
L 533.237673 79.223354 
L 534.102353 87.621216 
L 534.967033 110.458959 
L 535.399373 127.166906 
L 537.128732 214.454004 
L 537.561072 222.609839 
L 537.993412 226.093275 
L 538.425752 225.329094 
L 539.290431 224.799864 
L 539.722771 223.662879 
L 540.587451 222.070114 
L 541.019791 220.134445 
L 541.452131 217.201721 
L 541.884471 212.454152 
L 542.31681 209.088873 
L 543.61383 202.450806 
L 545.34319 187.71613 
L 545.775529 186.950709 
L 547.072549 179.589287 
L 547.504889 178.303683 
L 548.369569 182.775431 
L 548.801908 188.251292 
L 549.234248 191.579672 
L 550.531268 209.720228 
L 550.963608 211.297368 
L 551.395948 211.364987 
L 551.828288 205.986462 
L 553.125307 171.856053 
L 553.989987 163.108815 
L 554.422327 161.780326 
L 554.854667 161.636372 
L 555.287007 162.553065 
L 555.719346 165.824802 
L 556.151686 173.097408 
L 556.584026 183.886259 
L 557.016366 191.282627 
L 557.448706 195.684955 
L 557.881046 197.873023 
L 558.313386 196.838087 
L 559.178065 193.781237 
L 559.610405 194.214046 
L 560.475085 192.352296 
L 561.339765 196.695193 
L 561.772105 197.718043 
L 562.204444 199.652759 
L 562.636784 199.149285 
L 563.069124 196.001087 
L 563.501464 190.672436 
L 565.230824 160.611884 
L 566.527843 149.850543 
L 566.960183 147.418686 
L 567.392523 146.399734 
L 567.824863 143.118557 
L 568.257203 141.227051 
L 568.689542 137.355791 
L 569.554222 131.926292 
L 569.986562 125.828779 
L 570.418902 113.686521 
L 570.851242 97.830828 
L 571.283582 87.664791 
L 571.715922 81.216209 
L 572.148261 80.668548 
L 572.580601 79.556817 
L 573.012941 80.252104 
L 573.445281 83.403739 
L 573.877621 84.236165 
L 574.309961 91.750524 
L 575.60698 142.041017 
L 576.47166 173.871325 
L 576.904 185.958917 
L 577.33634 191.661379 
L 577.76868 190.579205 
L 578.20102 183.918151 
L 578.633359 175.512577 
L 579.498039 168.695261 
L 579.930379 166.261163 
L 580.795059 163.575378 
L 581.227399 166.085465 
L 581.659739 169.68726 
L 582.524418 182.214561 
L 582.956758 185.620853 
L 583.389098 187.317433 
L 584.253778 184.250845 
L 584.686118 180.964549 
L 585.118458 176.360815 
L 586.847817 150.737808 
L 587.712497 124.859266 
L 588.144837 116.378289 
L 588.577176 113.50318 
L 589.009516 112.139714 
L 589.441856 112.156377 
L 590.306536 124.766651 
L 590.738876 133.59714 
L 591.603556 164.23486 
L 592.035895 164.748144 
L 592.468235 161.303255 
L 592.900575 154.352535 
L 594.197595 142.262467 
L 594.629935 139.893078 
L 595.062275 135.754989 
L 595.494614 134.93827 
L 595.926954 140.200697 
L 596.791634 155.950221 
L 597.223974 164.652864 
L 597.656314 168.734877 
L 598.088654 171.364878 
L 598.520993 172.371493 
L 598.953333 174.788736 
L 599.385673 172.937125 
L 600.682693 128.124359 
L 601.115033 119.276058 
L 602.412052 106.504495 
L 602.844392 104.421421 
L 603.276732 103.759616 
L 603.709072 114.935894 
L 604.573752 157.883312 
L 605.006092 172.967222 
L 605.438431 180.327228 
L 605.870771 182.404911 
L 606.303111 182.027651 
L 606.735451 183.020806 
L 607.600131 195.101776 
L 608.032471 197.745337 
L 608.46481 197.624899 
L 608.89715 196.998953 
L 609.76183 190.926282 
L 610.19417 183.547859 
L 611.05885 159.500706 
L 611.49119 150.418733 
L 611.923529 146.134339 
L 612.788209 140.443149 
L 613.220549 139.332428 
L 613.652889 135.265053 
L 614.085229 135.106332 
L 614.517569 144.720928 
L 615.382248 168.31008 
L 615.814588 175.666952 
L 616.246928 176.262397 
L 617.111608 174.032099 
L 617.543948 177.868932 
L 617.976288 185.494641 
L 618.408627 189.392262 
L 618.840967 191.962347 
L 619.273307 191.588762 
L 619.705647 190.996411 
L 620.137987 192.982376 
L 620.570327 197.365075 
L 621.002667 200.397024 
L 621.435007 202.585121 
L 621.867346 206.280722 
L 622.299686 208.655354 
L 623.164366 211.062916 
L 623.596706 212.528007 
L 624.029046 211.311628 
L 624.461386 207.390136 
L 624.893725 201.734634 
L 626.190745 176.077543 
L 626.623085 170.385761 
L 627.055425 167.213983 
L 627.920105 163.562284 
L 628.352444 165.108128 
L 628.784784 167.366105 
L 629.217124 172.347927 
L 629.649464 180.422556 
L 630.081804 185.568336 
L 630.514144 182.600689 
L 631.378824 153.713998 
L 631.811163 142.360606 
L 632.675843 133.981875 
L 633.108183 130.955469 
L 633.540523 128.950932 
L 633.972863 129.444796 
L 634.405203 133.739355 
L 634.837542 149.62878 
L 635.269882 171.635206 
L 635.702222 183.312826 
L 636.134562 187.358097 
L 636.566902 184.717394 
L 637.863922 174.337086 
L 638.296261 173.203958 
L 638.728601 171.468276 
L 639.160941 170.700766 
L 639.593281 171.767996 
L 640.025621 177.170543 
L 640.890301 196.49122 
L 641.322641 202.464725 
L 641.75498 204.248899 
L 642.18732 193.336414 
L 642.61966 174.130669 
L 643.48434 150.656774 
L 644.781359 135.562329 
L 645.646039 131.225665 
L 646.078379 135.236825 
L 646.943059 169.577023 
L 647.375399 180.987569 
L 647.807739 187.56779 
L 648.240078 188.569334 
L 649.104758 185.45578 
L 649.537098 185.597195 
L 649.969438 185.369464 
L 650.834118 185.955336 
L 651.266458 184.757399 
L 651.698797 184.075223 
L 652.131137 183.845757 
L 652.563477 186.091033 
L 652.995817 187.735479 
L 653.428157 187.37687 
L 653.860497 183.455303 
L 654.292837 178.015089 
L 655.589856 155.51549 
L 656.022196 152.588478 
L 656.454536 152.141257 
L 656.886876 151.031477 
L 657.319216 150.458838 
L 658.183895 146.064718 
L 658.616235 144.743312 
L 659.048575 146.264698 
L 659.480915 149.831773 
L 659.913255 149.408964 
L 660.345595 147.121874 
L 661.210275 133.751702 
L 661.642614 131.287013 
L 662.074954 133.310696 
L 662.507294 133.962533 
L 662.939634 133.117849 
L 664.236654 141.734385 
L 665.101333 153.97542 
L 665.533673 152.212315 
L 665.966013 152.083281 
L 666.398353 152.817292 
L 666.830693 153.243233 
L 667.263033 150.905772 
L 667.695373 150.014441 
L 668.127712 145.176842 
L 668.560052 134.812489 
L 668.992392 121.311492 
L 669.424732 118.764388 
L 669.857072 118.262753 
L 670.721752 122.949895 
L 671.154092 123.000197 
L 671.586431 120.730696 
L 672.018771 121.647341 
L 672.451111 128.88484 
L 673.315791 159.979149 
L 673.748131 165.065319 
L 674.61281 166.291358 
L 675.47749 169.781547 
L 675.90983 172.646591 
L 676.34217 172.530741 
L 676.77451 172.20846 
L 677.20685 172.653224 
L 678.503869 187.083646 
L 678.936209 190.762071 
L 679.368549 193.467073 
L 679.800889 193.007552 
L 680.233229 190.095775 
L 681.097908 179.18819 
L 681.530248 175.932619 
L 681.962588 174.201222 
L 682.827268 169.797381 
L 683.259608 168.689346 
L 683.691948 167.98778 
L 684.124288 169.85815 
L 684.556627 174.846616 
L 684.988967 182.03431 
L 685.853647 188.405559 
L 686.285987 190.167606 
L 686.718327 190.201222 
L 687.150667 189.224464 
L 687.583007 187.071812 
L 688.015346 186.354834 
L 688.447686 186.884302 
L 688.880026 190.610275 
L 689.312366 193.085115 
L 690.177046 193.937586 
L 690.609386 193.133325 
L 691.041725 195.324838 
L 691.906405 196.043143 
L 692.338745 195.861006 
L 692.771085 194.267194 
L 693.635765 189.278898 
L 694.068105 183.392216 
L 694.932784 162.787281 
L 696.229804 122.665226 
L 696.662144 104.19945 
L 697.094484 90.945086 
L 697.526824 82.534396 
L 697.959163 78.476891 
L 698.391503 77.380202 
L 698.823843 78.11671 
L 700.120863 92.001925 
L 700.985542 121.442153 
L 701.417882 129.917145 
L 702.282562 133.635645 
L 702.714902 137.375389 
L 703.147242 139.254609 
L 703.579582 142.609901 
L 704.444261 157.492515 
L 704.876601 158.313324 
L 705.308941 159.786253 
L 705.741281 162.319521 
L 706.173621 163.45164 
L 706.605961 162.382958 
L 707.038301 161.785038 
L 707.470641 160.840691 
L 707.90298 158.697527 
L 708.76766 149.060435 
L 708.76766 149.060435 
" clip-path="url(#p860dd465be)" style="fill: none; stroke: #1f77b4; stroke-width: 1.5; stroke-linecap: square"/>
   </g>
   <g id="LineCollection_1">
    <path d="M 47.72 142.718909 
L 709.2 142.718909 
" clip-path="url(#p860dd465be)" style="fill: none; stroke-dasharray: 5.55,2.4; stroke-dashoffset: 0; stroke: #ff0000; stroke-width: 1.5"/>
   </g>
   <g id="patch_3">
    <path d="M 47.72 246.04 
L 47.72 31.6 
" style="fill: none; stroke: #000000; stroke-width: 0.8; stroke-linejoin: miter; stroke-linecap: square"/>
   </g>
   <g id="patch_4">
    <path d="M 709.2 246.04 
L 709.2 31.6 
" style="fill: none; stroke: #000000; stroke-width: 0.8; stroke-linejoin: miter; stroke-linecap: square"/>
   </g>
   <g id="patch_5">
    <path d="M 47.72 246.04 
L 709.2 246.04 
" style="fill: none; stroke: #000000; stroke-width: 0.8; stroke-linejoin: miter; stroke-linecap: square"/>
   </g>
   <g id="patch_6">
    <path d="M 47.72 31.6 
L 709.2 31.6 
" style="fill: none; stroke: #000000; stroke-width: 0.8; stroke-linejoin: miter; stroke-linecap: square"/>
   </g>
   <g id="text_17">
    <!-- Spectrum of ThAr lamp with threshold for peak detection -->
    <g transform="translate(178.529063 21.6) scale(0.14 -0.14)">
     <defs>
      <path id="DejaVuSans-53" d="M 3425 4513 
L 3425 3897 
Q 3066 4069 2747 4153 
Q 2428 4238 2131 4238 
Q 1616 4238 1336 4038 
Q 1056 3838 1056 3469 
Q 1056 3159 1242 3001 
Q 1428 2844 1947 2747 
L 2328 2669 
Q 3034 2534 3370 2195 
Q 3706 1856 3706 1288 
Q 3706 609 3251 259 
Q 2797 -91 1919 -91 
Q 1588 -91 1214 -16 
Q 841 59 441 206 
L 441 856 
Q 825 641 1194 531 
Q 1563 422 1919 422 
Q 2459 422 2753 634 
Q 3047 847 3047 1241 
Q 3047 1584 2836 1778 
Q 2625 1972 2144 2069 
L 1759 2144 
Q 1053 2284 737 2584 
Q 422 2884 422 3419 
Q 422 4038 858 4394 
Q 1294 4750 2059 4750 
Q 2388 4750 2728 4690 
Q 3069 4631 3425 4513 
z
" transform="scale(0.015625)"/>
      <path id="DejaVuSans-70" d="M 1159 525 
L 1159 -1331 
L 581 -1331 
L 581 3500 
L 1159 3500 
L 1159 2969 
Q 1341 3281 1617 3432 
Q 1894 3584 2278 3584 
Q 2916 3584 3314 3078 
Q 3713 2572 3713 1747 
Q 3713 922 3314 415 
Q 2916 -91 2278 -91 
Q 1894 -91 1617 61 
Q 1341 213 1159 525 
z
M 3116 1747 
Q 3116 2381 2855 2742 
Q 2594 3103 2138 3103 
Q 1681 3103 1420 2742 
Q 1159 2381 1159 1747 
Q 1159 1113 1420 752 
Q 1681 391 2138 391 
Q 2594 391 2855 752 
Q 3116 1113 3116 1747 
z
" transform="scale(0.015625)"/>
      <path id="DejaVuSans-63" d="M 3122 3366 
L 3122 2828 
Q 2878 2963 2633 3030 
Q 2388 3097 2138 3097 
Q 1578 3097 1268 2742 
Q 959 2388 959 1747 
Q 959 1106 1268 751 
Q 1578 397 2138 397 
Q 2388 397 2633 464 
Q 2878 531 3122 666 
L 3122 134 
Q 2881 22 2623 -34 
Q 2366 -91 2075 -91 
Q 1284 -91 818 406 
Q 353 903 353 1747 
Q 353 2603 823 3093 
Q 1294 3584 2113 3584 
Q 2378 3584 2631 3529 
Q 2884 3475 3122 3366 
z
" transform="scale(0.015625)"/>
      <path id="DejaVuSans-75" d="M 544 1381 
L 544 3500 
L 1119 3500 
L 1119 1403 
Q 1119 906 1312 657 
Q 1506 409 1894 409 
Q 2359 409 2629 706 
Q 2900 1003 2900 1516 
L 2900 3500 
L 3475 3500 
L 3475 0 
L 2900 0 
L 2900 538 
Q 2691 219 2414 64 
Q 2138 -91 1772 -91 
Q 1169 -91 856 284 
Q 544 659 544 1381 
z
M 1991 3584 
L 1991 3584 
z
" transform="scale(0.015625)"/>
      <path id="DejaVuSans-66" d="M 2375 4863 
L 2375 4384 
L 1825 4384 
Q 1516 4384 1395 4259 
Q 1275 4134 1275 3809 
L 1275 3500 
L 2222 3500 
L 2222 3053 
L 1275 3053 
L 1275 0 
L 697 0 
L 697 3053 
L 147 3053 
L 147 3500 
L 697 3500 
L 697 3744 
Q 697 4328 969 4595 
Q 1241 4863 1831 4863 
L 2375 4863 
z
" transform="scale(0.015625)"/>
      <path id="DejaVuSans-54" d="M -19 4666 
L 3928 4666 
L 3928 4134 
L 2272 4134 
L 2272 0 
L 1638 0 
L 1638 4134 
L -19 4134 
L -19 4666 
z
" transform="scale(0.015625)"/>
      <path id="DejaVuSans-68" d="M 3513 2113 
L 3513 0 
L 2938 0 
L 2938 2094 
Q 2938 2591 2744 2837 
Q 2550 3084 2163 3084 
Q 1697 3084 1428 2787 
Q 1159 2491 1159 1978 
L 1159 0 
L 581 0 
L 581 4863 
L 1159 4863 
L 1159 2956 
Q 1366 3272 1645 3428 
Q 1925 3584 2291 3584 
Q 2894 3584 3203 3211 
Q 3513 2838 3513 2113 
z
" transform="scale(0.015625)"/>
      <path id="DejaVuSans-41" d="M 2188 4044 
L 1331 1722 
L 3047 1722 
L 2188 4044 
z
M 1831 4666 
L 2547 4666 
L 4325 0 
L 3669 0 
L 3244 1197 
L 1141 1197 
L 716 0 
L 50 0 
L 1831 4666 
z
" transform="scale(0.015625)"/>
      <path id="DejaVuSans-77" d="M 269 3500 
L 844 3500 
L 1563 769 
L 2278 3500 
L 2956 3500 
L 3675 769 
L 4391 3500 
L 4966 3500 
L 4050 0 
L 3372 0 
L 2619 2869 
L 1863 0 
L 1184 0 
L 269 3500 
z
" transform="scale(0.015625)"/>
      <path id="DejaVuSans-6b" d="M 581 4863 
L 1159 4863 
L 1159 1991 
L 2875 3500 
L 3609 3500 
L 1753 1863 
L 3688 0 
L 2938 0 
L 1159 1709 
L 1159 0 
L 581 0 
L 581 4863 
z
" transform="scale(0.015625)"/>
     </defs>
     <use xlink:href="#DejaVuSans-53"/>
     <use xlink:href="#DejaVuSans-70" x="63.476562"/>
     <use xlink:href="#DejaVuSans-65" x="126.953125"/>
     <use xlink:href="#DejaVuSans-63" x="188.476562"/>
     <use xlink:href="#DejaVuSans-74" x="243.457031"/>
     <use xlink:href="#DejaVuSans-72" x="282.666016"/>
     <use xlink:href="#DejaVuSans-75" x="323.779297"/>
     <use xlink:href="#DejaVuSans-6d" x="387.158203"/>
     <use xlink:href="#DejaVuSans-20" x="484.570312"/>
     <use xlink:href="#DejaVuSans-6f" x="516.357422"/>
     <use xlink:href="#DejaVuSans-66" x="577.539062"/>
     <use xlink:href="#DejaVuSans-20" x="612.744141"/>
     <use xlink:href="#DejaVuSans-54" x="644.53125"/>
     <use xlink:href="#DejaVuSans-68" x="705.615234"/>
     <use xlink:href="#DejaVuSans-41" x="768.994141"/>
     <use xlink:href="#DejaVuSans-72" x="837.402344"/>
     <use xlink:href="#DejaVuSans-20" x="878.515625"/>
     <use xlink:href="#DejaVuSans-6c" x="910.302734"/>
     <use xlink:href="#DejaVuSans-61" x="938.085938"/>
     <use xlink:href="#DejaVuSans-6d" x="999.365234"/>
     <use xlink:href="#DejaVuSans-70" x="1096.777344"/>
     <use xlink:href="#DejaVuSans-20" x="1160.253906"/>
     <use xlink:href="#DejaVuSans-77" x="1192.041016"/>
     <use xlink:href="#DejaVuSans-69" x="1273.828125"/>
     <use xlink:href="#DejaVuSans-74" x="1301.611328"/>
     <use xlink:href="#DejaVuSans-68" x="1340.820312"/>
     <use xlink:href="#DejaVuSans-20" x="1404.199219"/>
     <use xlink:href="#DejaVuSans-74" x="1435.986328"/>
     <use xlink:href="#DejaVuSans-68" x="1475.195312"/>
     <use xlink:href="#DejaVuSans-72" x="1538.574219"/>
     <use xlink:href="#DejaVuSans-65" x="1577.4375"/>
     <use xlink:href="#DejaVuSans-73" x="1638.960938"/>
     <use xlink:href="#DejaVuSans-68" x="1691.060547"/>
     <use xlink:href="#DejaVuSans-6f" x="1754.439453"/>
     <use xlink:href="#DejaVuSans-6c" x="1815.621094"/>
     <use xlink:href="#DejaVuSans-64" x="1843.404297"/>
     <use xlink:href="#DejaVuSans-20" x="1906.880859"/>
     <use xlink:href="#DejaVuSans-66" x="1938.667969"/>
     <use xlink:href="#DejaVuSans-6f" x="1973.873047"/>
     <use xlink:href="#DejaVuSans-72" x="2035.054688"/>
     <use xlink:href="#DejaVuSans-20" x="2076.167969"/>
     <use xlink:href="#DejaVuSans-70" x="2107.955078"/>
     <use xlink:href="#DejaVuSans-65" x="2171.431641"/>
     <use xlink:href="#DejaVuSans-61" x="2232.955078"/>
     <use xlink:href="#DejaVuSans-6b" x="2294.234375"/>
     <use xlink:href="#DejaVuSans-20" x="2352.144531"/>
     <use xlink:href="#DejaVuSans-64" x="2383.931641"/>
     <use xlink:href="#DejaVuSans-65" x="2447.408203"/>
     <use xlink:href="#DejaVuSans-74" x="2508.931641"/>
     <use xlink:href="#DejaVuSans-65" x="2548.140625"/>
     <use xlink:href="#DejaVuSans-63" x="2609.664062"/>
     <use xlink:href="#DejaVuSans-74" x="2664.644531"/>
     <use xlink:href="#DejaVuSans-69" x="2703.853516"/>
     <use xlink:href="#DejaVuSans-6f" x="2731.636719"/>
     <use xlink:href="#DejaVuSans-6e" x="2792.818359"/>
    </g>
   </g>
  </g>
 </g>
 <defs>
  <clipPath id="p860dd465be">
   <rect x="47.72" y="31.6" width="661.48" height="214.44"/>
  </clipPath>
 </defs>
</svg>
