<?xml version="1.0" encoding="utf-8" standalone="no"?>
<!DOCTYPE svg PUBLIC "-//W3C//DTD SVG 1.1//EN"
  "http://www.w3.org/Graphics/SVG/1.1/DTD/svg11.dtd">
<svg xmlns:xlink="http://www.w3.org/1999/xlink" width="720pt" height="288pt" viewBox="0 0 720 288" xmlns="http://www.w3.org/2000/svg" version="1.1">
 <metadata>
  <rdf:RDF xmlns:dc="http://purl.org/dc/elements/1.1/" xmlns:cc="http://creativecommons.org/ns#" xmlns:rdf="http://www.w3.org/1999/02/22-rdf-syntax-ns#">
   <cc:Work>
    <dc:type rdf:resource="http://purl.org/dc/dcmitype/StillImage"/>
    <dc:date>2024-12-17T23:43:34.323091</dc:date>
    <dc:format>image/svg+xml</dc:format>
    <dc:creator>
     <cc:Agent>
      <dc:title>Matplotlib v3.8.3, https://matplotlib.org/</dc:title>
     </cc:Agent>
    </dc:creator>
   </cc:Work>
  </rdf:RDF>
 </metadata>
 <defs>
  <style type="text/css">*{stroke-linejoin: round; stroke-linecap: butt}</style>
 </defs>
 <g id="figure_1">
  <g id="patch_1">
   <path d="M 0 288 
L 720 288 
L 720 0 
L 0 0 
z
" style="fill: #ffffff"/>
  </g>
  <g id="axes_1">
   <g id="patch_2">
    <path d="M 47.72 244.63375 
L 709.2 244.63375 
L 709.2 31.6 
L 47.72 31.6 
z
" style="fill: #ffffff"/>
   </g>
   <g id="matplotlib.axis_1">
    <g id="xtick_1">
     <g id="line2d_1">
      <path d="M 109.540329 244.63375 
L 109.540329 31.6 
" clip-path="url(#pd493085c64)" style="fill: none; stroke: #b0b0b0; stroke-width: 0.8; stroke-linecap: square"/>
     </g>
     <g id="line2d_2">
      <defs>
       <path id="md3b2dff615" d="M 0 0 
L 0 3.5 
" style="stroke: #000000; stroke-width: 0.8"/>
      </defs>
      <g>
       <use xlink:href="#md3b2dff615" x="109.540329" y="244.63375" style="stroke: #000000; stroke-width: 0.8"/>
      </g>
     </g>
     <g id="text_1">
      <!-- 4400 -->
      <g transform="translate(96.815329 259.232188) scale(0.1 -0.1)">
       <defs>
        <path id="DejaVuSans-34" d="M 2419 4116 
L 825 1625 
L 2419 1625 
L 2419 4116 
z
M 2253 4666 
L 3047 4666 
L 3047 1625 
L 3713 1625 
L 3713 1100 
L 3047 1100 
L 3047 0 
L 2419 0 
L 2419 1100 
L 313 1100 
L 313 1709 
L 2253 4666 
z
" transform="scale(0.015625)"/>
        <path id="DejaVuSans-30" d="M 2034 4250 
Q 1547 4250 1301 3770 
Q 1056 3291 1056 2328 
Q 1056 1369 1301 889 
Q 1547 409 2034 409 
Q 2525 409 2770 889 
Q 3016 1369 3016 2328 
Q 3016 3291 2770 3770 
Q 2525 4250 2034 4250 
z
M 2034 4750 
Q 2819 4750 3233 4129 
Q 3647 3509 3647 2328 
Q 3647 1150 3233 529 
Q 2819 -91 2034 -91 
Q 1250 -91 836 529 
Q 422 1150 422 2328 
Q 422 3509 836 4129 
Q 1250 4750 2034 4750 
z
" transform="scale(0.015625)"/>
       </defs>
       <use xlink:href="#DejaVuSans-34"/>
       <use xlink:href="#DejaVuSans-34" x="63.623047"/>
       <use xlink:href="#DejaVuSans-30" x="127.246094"/>
       <use xlink:href="#DejaVuSans-30" x="190.869141"/>
      </g>
     </g>
    </g>
    <g id="xtick_2">
     <g id="line2d_3">
      <path d="M 218.985933 244.63375 
L 218.985933 31.6 
" clip-path="url(#pd493085c64)" style="fill: none; stroke: #b0b0b0; stroke-width: 0.8; stroke-linecap: square"/>
     </g>
     <g id="line2d_4">
      <g>
       <use xlink:href="#md3b2dff615" x="218.985933" y="244.63375" style="stroke: #000000; stroke-width: 0.8"/>
      </g>
     </g>
     <g id="text_2">
      <!-- 4600 -->
      <g transform="translate(206.260933 259.232188) scale(0.1 -0.1)">
       <defs>
        <path id="DejaVuSans-36" d="M 2113 2584 
Q 1688 2584 1439 2293 
Q 1191 2003 1191 1497 
Q 1191 994 1439 701 
Q 1688 409 2113 409 
Q 2538 409 2786 701 
Q 3034 994 3034 1497 
Q 3034 2003 2786 2293 
Q 2538 2584 2113 2584 
z
M 3366 4563 
L 3366 3988 
Q 3128 4100 2886 4159 
Q 2644 4219 2406 4219 
Q 1781 4219 1451 3797 
Q 1122 3375 1075 2522 
Q 1259 2794 1537 2939 
Q 1816 3084 2150 3084 
Q 2853 3084 3261 2657 
Q 3669 2231 3669 1497 
Q 3669 778 3244 343 
Q 2819 -91 2113 -91 
Q 1303 -91 875 529 
Q 447 1150 447 2328 
Q 447 3434 972 4092 
Q 1497 4750 2381 4750 
Q 2619 4750 2861 4703 
Q 3103 4656 3366 4563 
z
" transform="scale(0.015625)"/>
       </defs>
       <use xlink:href="#DejaVuSans-34"/>
       <use xlink:href="#DejaVuSans-36" x="63.623047"/>
       <use xlink:href="#DejaVuSans-30" x="127.246094"/>
       <use xlink:href="#DejaVuSans-30" x="190.869141"/>
      </g>
     </g>
    </g>
    <g id="xtick_3">
     <g id="line2d_5">
      <path d="M 328.431537 244.63375 
L 328.431537 31.6 
" clip-path="url(#pd493085c64)" style="fill: none; stroke: #b0b0b0; stroke-width: 0.8; stroke-linecap: square"/>
     </g>
     <g id="line2d_6">
      <g>
       <use xlink:href="#md3b2dff615" x="328.431537" y="244.63375" style="stroke: #000000; stroke-width: 0.8"/>
      </g>
     </g>
     <g id="text_3">
      <!-- 4800 -->
      <g transform="translate(315.706537 259.232188) scale(0.1 -0.1)">
       <defs>
        <path id="DejaVuSans-38" d="M 2034 2216 
Q 1584 2216 1326 1975 
Q 1069 1734 1069 1313 
Q 1069 891 1326 650 
Q 1584 409 2034 409 
Q 2484 409 2743 651 
Q 3003 894 3003 1313 
Q 3003 1734 2745 1975 
Q 2488 2216 2034 2216 
z
M 1403 2484 
Q 997 2584 770 2862 
Q 544 3141 544 3541 
Q 544 4100 942 4425 
Q 1341 4750 2034 4750 
Q 2731 4750 3128 4425 
Q 3525 4100 3525 3541 
Q 3525 3141 3298 2862 
Q 3072 2584 2669 2484 
Q 3125 2378 3379 2068 
Q 3634 1759 3634 1313 
Q 3634 634 3220 271 
Q 2806 -91 2034 -91 
Q 1263 -91 848 271 
Q 434 634 434 1313 
Q 434 1759 690 2068 
Q 947 2378 1403 2484 
z
M 1172 3481 
Q 1172 3119 1398 2916 
Q 1625 2713 2034 2713 
Q 2441 2713 2670 2916 
Q 2900 3119 2900 3481 
Q 2900 3844 2670 4047 
Q 2441 4250 2034 4250 
Q 1625 4250 1398 4047 
Q 1172 3844 1172 3481 
z
" transform="scale(0.015625)"/>
       </defs>
       <use xlink:href="#DejaVuSans-34"/>
       <use xlink:href="#DejaVuSans-38" x="63.623047"/>
       <use xlink:href="#DejaVuSans-30" x="127.246094"/>
       <use xlink:href="#DejaVuSans-30" x="190.869141"/>
      </g>
     </g>
    </g>
    <g id="xtick_4">
     <g id="line2d_7">
      <path d="M 437.877141 244.63375 
L 437.877141 31.6 
" clip-path="url(#pd493085c64)" style="fill: none; stroke: #b0b0b0; stroke-width: 0.8; stroke-linecap: square"/>
     </g>
     <g id="line2d_8">
      <g>
       <use xlink:href="#md3b2dff615" x="437.877141" y="244.63375" style="stroke: #000000; stroke-width: 0.8"/>
      </g>
     </g>
     <g id="text_4">
      <!-- 5000 -->
      <g transform="translate(425.152141 259.232188) scale(0.1 -0.1)">
       <defs>
        <path id="DejaVuSans-35" d="M 691 4666 
L 3169 4666 
L 3169 4134 
L 1269 4134 
L 1269 2991 
Q 1406 3038 1543 3061 
Q 1681 3084 1819 3084 
Q 2600 3084 3056 2656 
Q 3513 2228 3513 1497 
Q 3513 744 3044 326 
Q 2575 -91 1722 -91 
Q 1428 -91 1123 -41 
Q 819 9 494 109 
L 494 744 
Q 775 591 1075 516 
Q 1375 441 1709 441 
Q 2250 441 2565 725 
Q 2881 1009 2881 1497 
Q 2881 1984 2565 2268 
Q 2250 2553 1709 2553 
Q 1456 2553 1204 2497 
Q 953 2441 691 2322 
L 691 4666 
z
" transform="scale(0.015625)"/>
       </defs>
       <use xlink:href="#DejaVuSans-35"/>
       <use xlink:href="#DejaVuSans-30" x="63.623047"/>
       <use xlink:href="#DejaVuSans-30" x="127.246094"/>
       <use xlink:href="#DejaVuSans-30" x="190.869141"/>
      </g>
     </g>
    </g>
    <g id="xtick_5">
     <g id="line2d_9">
      <path d="M 547.322745 244.63375 
L 547.322745 31.6 
" clip-path="url(#pd493085c64)" style="fill: none; stroke: #b0b0b0; stroke-width: 0.8; stroke-linecap: square"/>
     </g>
     <g id="line2d_10">
      <g>
       <use xlink:href="#md3b2dff615" x="547.322745" y="244.63375" style="stroke: #000000; stroke-width: 0.8"/>
      </g>
     </g>
     <g id="text_5">
      <!-- 5200 -->
      <g transform="translate(534.597745 259.232188) scale(0.1 -0.1)">
       <defs>
        <path id="DejaVuSans-32" d="M 1228 531 
L 3431 531 
L 3431 0 
L 469 0 
L 469 531 
Q 828 903 1448 1529 
Q 2069 2156 2228 2338 
Q 2531 2678 2651 2914 
Q 2772 3150 2772 3378 
Q 2772 3750 2511 3984 
Q 2250 4219 1831 4219 
Q 1534 4219 1204 4116 
Q 875 4013 500 3803 
L 500 4441 
Q 881 4594 1212 4672 
Q 1544 4750 1819 4750 
Q 2544 4750 2975 4387 
Q 3406 4025 3406 3419 
Q 3406 3131 3298 2873 
Q 3191 2616 2906 2266 
Q 2828 2175 2409 1742 
Q 1991 1309 1228 531 
z
" transform="scale(0.015625)"/>
       </defs>
       <use xlink:href="#DejaVuSans-35"/>
       <use xlink:href="#DejaVuSans-32" x="63.623047"/>
       <use xlink:href="#DejaVuSans-30" x="127.246094"/>
       <use xlink:href="#DejaVuSans-30" x="190.869141"/>
      </g>
     </g>
    </g>
    <g id="xtick_6">
     <g id="line2d_11">
      <path d="M 656.768349 244.63375 
L 656.768349 31.6 
" clip-path="url(#pd493085c64)" style="fill: none; stroke: #b0b0b0; stroke-width: 0.8; stroke-linecap: square"/>
     </g>
     <g id="line2d_12">
      <g>
       <use xlink:href="#md3b2dff615" x="656.768349" y="244.63375" style="stroke: #000000; stroke-width: 0.8"/>
      </g>
     </g>
     <g id="text_6">
      <!-- 5400 -->
      <g transform="translate(644.043349 259.232188) scale(0.1 -0.1)">
       <use xlink:href="#DejaVuSans-35"/>
       <use xlink:href="#DejaVuSans-34" x="63.623047"/>
       <use xlink:href="#DejaVuSans-30" x="127.246094"/>
       <use xlink:href="#DejaVuSans-30" x="190.869141"/>
      </g>
     </g>
    </g>
    <g id="text_7">
     <!-- Wavelength (Å) -->
     <g transform="translate(339.886562 274.594688) scale(0.1 -0.1)">
      <defs>
       <path id="DejaVuSans-57" d="M 213 4666 
L 850 4666 
L 1831 722 
L 2809 4666 
L 3519 4666 
L 4500 722 
L 5478 4666 
L 6119 4666 
L 4947 0 
L 4153 0 
L 3169 4050 
L 2175 0 
L 1381 0 
L 213 4666 
z
" transform="scale(0.015625)"/>
       <path id="DejaVuSans-61" d="M 2194 1759 
Q 1497 1759 1228 1600 
Q 959 1441 959 1056 
Q 959 750 1161 570 
Q 1363 391 1709 391 
Q 2188 391 2477 730 
Q 2766 1069 2766 1631 
L 2766 1759 
L 2194 1759 
z
M 3341 1997 
L 3341 0 
L 2766 0 
L 2766 531 
Q 2569 213 2275 61 
Q 1981 -91 1556 -91 
Q 1019 -91 701 211 
Q 384 513 384 1019 
Q 384 1609 779 1909 
Q 1175 2209 1959 2209 
L 2766 2209 
L 2766 2266 
Q 2766 2663 2505 2880 
Q 2244 3097 1772 3097 
Q 1472 3097 1187 3025 
Q 903 2953 641 2809 
L 641 3341 
Q 956 3463 1253 3523 
Q 1550 3584 1831 3584 
Q 2591 3584 2966 3190 
Q 3341 2797 3341 1997 
z
" transform="scale(0.015625)"/>
       <path id="DejaVuSans-76" d="M 191 3500 
L 800 3500 
L 1894 563 
L 2988 3500 
L 3597 3500 
L 2284 0 
L 1503 0 
L 191 3500 
z
" transform="scale(0.015625)"/>
       <path id="DejaVuSans-65" d="M 3597 1894 
L 3597 1613 
L 953 1613 
Q 991 1019 1311 708 
Q 1631 397 2203 397 
Q 2534 397 2845 478 
Q 3156 559 3463 722 
L 3463 178 
Q 3153 47 2828 -22 
Q 2503 -91 2169 -91 
Q 1331 -91 842 396 
Q 353 884 353 1716 
Q 353 2575 817 3079 
Q 1281 3584 2069 3584 
Q 2775 3584 3186 3129 
Q 3597 2675 3597 1894 
z
M 3022 2063 
Q 3016 2534 2758 2815 
Q 2500 3097 2075 3097 
Q 1594 3097 1305 2825 
Q 1016 2553 972 2059 
L 3022 2063 
z
" transform="scale(0.015625)"/>
       <path id="DejaVuSans-6c" d="M 603 4863 
L 1178 4863 
L 1178 0 
L 603 0 
L 603 4863 
z
" transform="scale(0.015625)"/>
       <path id="DejaVuSans-6e" d="M 3513 2113 
L 3513 0 
L 2938 0 
L 2938 2094 
Q 2938 2591 2744 2837 
Q 2550 3084 2163 3084 
Q 1697 3084 1428 2787 
Q 1159 2491 1159 1978 
L 1159 0 
L 581 0 
L 581 3500 
L 1159 3500 
L 1159 2956 
Q 1366 3272 1645 3428 
Q 1925 3584 2291 3584 
Q 2894 3584 3203 3211 
Q 3513 2838 3513 2113 
z
" transform="scale(0.015625)"/>
       <path id="DejaVuSans-67" d="M 2906 1791 
Q 2906 2416 2648 2759 
Q 2391 3103 1925 3103 
Q 1463 3103 1205 2759 
Q 947 2416 947 1791 
Q 947 1169 1205 825 
Q 1463 481 1925 481 
Q 2391 481 2648 825 
Q 2906 1169 2906 1791 
z
M 3481 434 
Q 3481 -459 3084 -895 
Q 2688 -1331 1869 -1331 
Q 1566 -1331 1297 -1286 
Q 1028 -1241 775 -1147 
L 775 -588 
Q 1028 -725 1275 -790 
Q 1522 -856 1778 -856 
Q 2344 -856 2625 -561 
Q 2906 -266 2906 331 
L 2906 616 
Q 2728 306 2450 153 
Q 2172 0 1784 0 
Q 1141 0 747 490 
Q 353 981 353 1791 
Q 353 2603 747 3093 
Q 1141 3584 1784 3584 
Q 2172 3584 2450 3431 
Q 2728 3278 2906 2969 
L 2906 3500 
L 3481 3500 
L 3481 434 
z
" transform="scale(0.015625)"/>
       <path id="DejaVuSans-74" d="M 1172 4494 
L 1172 3500 
L 2356 3500 
L 2356 3053 
L 1172 3053 
L 1172 1153 
Q 1172 725 1289 603 
Q 1406 481 1766 481 
L 2356 481 
L 2356 0 
L 1766 0 
Q 1100 0 847 248 
Q 594 497 594 1153 
L 594 3053 
L 172 3053 
L 172 3500 
L 594 3500 
L 594 4494 
L 1172 4494 
z
" transform="scale(0.015625)"/>
       <path id="DejaVuSans-68" d="M 3513 2113 
L 3513 0 
L 2938 0 
L 2938 2094 
Q 2938 2591 2744 2837 
Q 2550 3084 2163 3084 
Q 1697 3084 1428 2787 
Q 1159 2491 1159 1978 
L 1159 0 
L 581 0 
L 581 4863 
L 1159 4863 
L 1159 2956 
Q 1366 3272 1645 3428 
Q 1925 3584 2291 3584 
Q 2894 3584 3203 3211 
Q 3513 2838 3513 2113 
z
" transform="scale(0.015625)"/>
       <path id="DejaVuSans-20" transform="scale(0.015625)"/>
       <path id="DejaVuSans-28" d="M 1984 4856 
Q 1566 4138 1362 3434 
Q 1159 2731 1159 2009 
Q 1159 1288 1364 580 
Q 1569 -128 1984 -844 
L 1484 -844 
Q 1016 -109 783 600 
Q 550 1309 550 2009 
Q 550 2706 781 3412 
Q 1013 4119 1484 4856 
L 1984 4856 
z
" transform="scale(0.015625)"/>
       <path id="DejaVuSans-c5" d="M 2663 5081 
Q 2663 5278 2523 5417 
Q 2384 5556 2188 5556 
Q 1988 5556 1852 5420 
Q 1716 5284 1716 5081 
Q 1716 4884 1853 4746 
Q 1991 4609 2188 4609 
Q 2384 4609 2523 4746 
Q 2663 4884 2663 5081 
z
M 2188 4044 
L 1338 1722 
L 3041 1722 
L 2188 4044 
z
M 1716 4366 
Q 1525 4494 1428 4673 
Q 1331 4853 1331 5081 
Q 1331 5441 1579 5691 
Q 1828 5941 2188 5941 
Q 2544 5941 2795 5689 
Q 3047 5438 3047 5081 
Q 3047 4863 2948 4678 
Q 2850 4494 2663 4366 
L 4325 0 
L 3669 0 
L 3244 1197 
L 1141 1197 
L 716 0 
L 50 0 
L 1716 4366 
z
" transform="scale(0.015625)"/>
       <path id="DejaVuSans-29" d="M 513 4856 
L 1013 4856 
Q 1481 4119 1714 3412 
Q 1947 2706 1947 2009 
Q 1947 1309 1714 600 
Q 1481 -109 1013 -844 
L 513 -844 
Q 928 -128 1133 580 
Q 1338 1288 1338 2009 
Q 1338 2731 1133 3434 
Q 928 4138 513 4856 
z
" transform="scale(0.015625)"/>
      </defs>
      <use xlink:href="#DejaVuSans-57"/>
      <use xlink:href="#DejaVuSans-61" x="92.501953"/>
      <use xlink:href="#DejaVuSans-76" x="153.78125"/>
      <use xlink:href="#DejaVuSans-65" x="212.960938"/>
      <use xlink:href="#DejaVuSans-6c" x="274.484375"/>
      <use xlink:href="#DejaVuSans-65" x="302.267578"/>
      <use xlink:href="#DejaVuSans-6e" x="363.791016"/>
      <use xlink:href="#DejaVuSans-67" x="427.169922"/>
      <use xlink:href="#DejaVuSans-74" x="490.646484"/>
      <use xlink:href="#DejaVuSans-68" x="529.855469"/>
      <use xlink:href="#DejaVuSans-20" x="593.234375"/>
      <use xlink:href="#DejaVuSans-28" x="625.021484"/>
      <use xlink:href="#DejaVuSans-c5" x="664.035156"/>
      <use xlink:href="#DejaVuSans-29" x="732.443359"/>
     </g>
    </g>
   </g>
   <g id="matplotlib.axis_2">
    <g id="ytick_1">
     <g id="line2d_13">
      <path d="M 47.72 244.63375 
L 709.2 244.63375 
" clip-path="url(#pd493085c64)" style="fill: none; stroke: #b0b0b0; stroke-width: 0.8; stroke-linecap: square"/>
     </g>
     <g id="line2d_14">
      <defs>
       <path id="mec2a6fab57" d="M 0 0 
L -3.5 0 
" style="stroke: #000000; stroke-width: 0.8"/>
      </defs>
      <g>
       <use xlink:href="#mec2a6fab57" x="47.72" y="244.63375" style="stroke: #000000; stroke-width: 0.8"/>
      </g>
     </g>
     <g id="text_8">
      <!-- 0.0 -->
      <g transform="translate(24.816875 248.432969) scale(0.1 -0.1)">
       <defs>
        <path id="DejaVuSans-2e" d="M 684 794 
L 1344 794 
L 1344 0 
L 684 0 
L 684 794 
z
" transform="scale(0.015625)"/>
       </defs>
       <use xlink:href="#DejaVuSans-30"/>
       <use xlink:href="#DejaVuSans-2e" x="63.623047"/>
       <use xlink:href="#DejaVuSans-30" x="95.410156"/>
      </g>
     </g>
    </g>
    <g id="ytick_2">
     <g id="line2d_15">
      <path d="M 47.72 205.900341 
L 709.2 205.900341 
" clip-path="url(#pd493085c64)" style="fill: none; stroke: #b0b0b0; stroke-width: 0.8; stroke-linecap: square"/>
     </g>
     <g id="line2d_16">
      <g>
       <use xlink:href="#mec2a6fab57" x="47.72" y="205.900341" style="stroke: #000000; stroke-width: 0.8"/>
      </g>
     </g>
     <g id="text_9">
      <!-- 0.2 -->
      <g transform="translate(24.816875 209.69956) scale(0.1 -0.1)">
       <use xlink:href="#DejaVuSans-30"/>
       <use xlink:href="#DejaVuSans-2e" x="63.623047"/>
       <use xlink:href="#DejaVuSans-32" x="95.410156"/>
      </g>
     </g>
    </g>
    <g id="ytick_3">
     <g id="line2d_17">
      <path d="M 47.72 167.166932 
L 709.2 167.166932 
" clip-path="url(#pd493085c64)" style="fill: none; stroke: #b0b0b0; stroke-width: 0.8; stroke-linecap: square"/>
     </g>
     <g id="line2d_18">
      <g>
       <use xlink:href="#mec2a6fab57" x="47.72" y="167.166932" style="stroke: #000000; stroke-width: 0.8"/>
      </g>
     </g>
     <g id="text_10">
      <!-- 0.4 -->
      <g transform="translate(24.816875 170.966151) scale(0.1 -0.1)">
       <use xlink:href="#DejaVuSans-30"/>
       <use xlink:href="#DejaVuSans-2e" x="63.623047"/>
       <use xlink:href="#DejaVuSans-34" x="95.410156"/>
      </g>
     </g>
    </g>
    <g id="ytick_4">
     <g id="line2d_19">
      <path d="M 47.72 128.433523 
L 709.2 128.433523 
" clip-path="url(#pd493085c64)" style="fill: none; stroke: #b0b0b0; stroke-width: 0.8; stroke-linecap: square"/>
     </g>
     <g id="line2d_20">
      <g>
       <use xlink:href="#mec2a6fab57" x="47.72" y="128.433523" style="stroke: #000000; stroke-width: 0.8"/>
      </g>
     </g>
     <g id="text_11">
      <!-- 0.6 -->
      <g transform="translate(24.816875 132.232741) scale(0.1 -0.1)">
       <use xlink:href="#DejaVuSans-30"/>
       <use xlink:href="#DejaVuSans-2e" x="63.623047"/>
       <use xlink:href="#DejaVuSans-36" x="95.410156"/>
      </g>
     </g>
    </g>
    <g id="ytick_5">
     <g id="line2d_21">
      <path d="M 47.72 89.700114 
L 709.2 89.700114 
" clip-path="url(#pd493085c64)" style="fill: none; stroke: #b0b0b0; stroke-width: 0.8; stroke-linecap: square"/>
     </g>
     <g id="line2d_22">
      <g>
       <use xlink:href="#mec2a6fab57" x="47.72" y="89.700114" style="stroke: #000000; stroke-width: 0.8"/>
      </g>
     </g>
     <g id="text_12">
      <!-- 0.8 -->
      <g transform="translate(24.816875 93.499332) scale(0.1 -0.1)">
       <use xlink:href="#DejaVuSans-30"/>
       <use xlink:href="#DejaVuSans-2e" x="63.623047"/>
       <use xlink:href="#DejaVuSans-38" x="95.410156"/>
      </g>
     </g>
    </g>
    <g id="ytick_6">
     <g id="line2d_23">
      <path d="M 47.72 50.966705 
L 709.2 50.966705 
" clip-path="url(#pd493085c64)" style="fill: none; stroke: #b0b0b0; stroke-width: 0.8; stroke-linecap: square"/>
     </g>
     <g id="line2d_24">
      <g>
       <use xlink:href="#mec2a6fab57" x="47.72" y="50.966705" style="stroke: #000000; stroke-width: 0.8"/>
      </g>
     </g>
     <g id="text_13">
      <!-- 1.0 -->
      <g transform="translate(24.816875 54.765923) scale(0.1 -0.1)">
       <defs>
        <path id="DejaVuSans-31" d="M 794 531 
L 1825 531 
L 1825 4091 
L 703 3866 
L 703 4441 
L 1819 4666 
L 2450 4666 
L 2450 531 
L 3481 531 
L 3481 0 
L 794 0 
L 794 531 
z
" transform="scale(0.015625)"/>
       </defs>
       <use xlink:href="#DejaVuSans-31"/>
       <use xlink:href="#DejaVuSans-2e" x="63.623047"/>
       <use xlink:href="#DejaVuSans-30" x="95.410156"/>
      </g>
     </g>
    </g>
    <g id="text_14">
     <!-- Intensity (normalized) -->
     <g transform="translate(18.737187 193.153594) rotate(-90) scale(0.1 -0.1)">
      <defs>
       <path id="DejaVuSans-49" d="M 628 4666 
L 1259 4666 
L 1259 0 
L 628 0 
L 628 4666 
z
" transform="scale(0.015625)"/>
       <path id="DejaVuSans-73" d="M 2834 3397 
L 2834 2853 
Q 2591 2978 2328 3040 
Q 2066 3103 1784 3103 
Q 1356 3103 1142 2972 
Q 928 2841 928 2578 
Q 928 2378 1081 2264 
Q 1234 2150 1697 2047 
L 1894 2003 
Q 2506 1872 2764 1633 
Q 3022 1394 3022 966 
Q 3022 478 2636 193 
Q 2250 -91 1575 -91 
Q 1294 -91 989 -36 
Q 684 19 347 128 
L 347 722 
Q 666 556 975 473 
Q 1284 391 1588 391 
Q 1994 391 2212 530 
Q 2431 669 2431 922 
Q 2431 1156 2273 1281 
Q 2116 1406 1581 1522 
L 1381 1569 
Q 847 1681 609 1914 
Q 372 2147 372 2553 
Q 372 3047 722 3315 
Q 1072 3584 1716 3584 
Q 2034 3584 2315 3537 
Q 2597 3491 2834 3397 
z
" transform="scale(0.015625)"/>
       <path id="DejaVuSans-69" d="M 603 3500 
L 1178 3500 
L 1178 0 
L 603 0 
L 603 3500 
z
M 603 4863 
L 1178 4863 
L 1178 4134 
L 603 4134 
L 603 4863 
z
" transform="scale(0.015625)"/>
       <path id="DejaVuSans-79" d="M 2059 -325 
Q 1816 -950 1584 -1140 
Q 1353 -1331 966 -1331 
L 506 -1331 
L 506 -850 
L 844 -850 
Q 1081 -850 1212 -737 
Q 1344 -625 1503 -206 
L 1606 56 
L 191 3500 
L 800 3500 
L 1894 763 
L 2988 3500 
L 3597 3500 
L 2059 -325 
z
" transform="scale(0.015625)"/>
       <path id="DejaVuSans-6f" d="M 1959 3097 
Q 1497 3097 1228 2736 
Q 959 2375 959 1747 
Q 959 1119 1226 758 
Q 1494 397 1959 397 
Q 2419 397 2687 759 
Q 2956 1122 2956 1747 
Q 2956 2369 2687 2733 
Q 2419 3097 1959 3097 
z
M 1959 3584 
Q 2709 3584 3137 3096 
Q 3566 2609 3566 1747 
Q 3566 888 3137 398 
Q 2709 -91 1959 -91 
Q 1206 -91 779 398 
Q 353 888 353 1747 
Q 353 2609 779 3096 
Q 1206 3584 1959 3584 
z
" transform="scale(0.015625)"/>
       <path id="DejaVuSans-72" d="M 2631 2963 
Q 2534 3019 2420 3045 
Q 2306 3072 2169 3072 
Q 1681 3072 1420 2755 
Q 1159 2438 1159 1844 
L 1159 0 
L 581 0 
L 581 3500 
L 1159 3500 
L 1159 2956 
Q 1341 3275 1631 3429 
Q 1922 3584 2338 3584 
Q 2397 3584 2469 3576 
Q 2541 3569 2628 3553 
L 2631 2963 
z
" transform="scale(0.015625)"/>
       <path id="DejaVuSans-6d" d="M 3328 2828 
Q 3544 3216 3844 3400 
Q 4144 3584 4550 3584 
Q 5097 3584 5394 3201 
Q 5691 2819 5691 2113 
L 5691 0 
L 5113 0 
L 5113 2094 
Q 5113 2597 4934 2840 
Q 4756 3084 4391 3084 
Q 3944 3084 3684 2787 
Q 3425 2491 3425 1978 
L 3425 0 
L 2847 0 
L 2847 2094 
Q 2847 2600 2669 2842 
Q 2491 3084 2119 3084 
Q 1678 3084 1418 2786 
Q 1159 2488 1159 1978 
L 1159 0 
L 581 0 
L 581 3500 
L 1159 3500 
L 1159 2956 
Q 1356 3278 1631 3431 
Q 1906 3584 2284 3584 
Q 2666 3584 2933 3390 
Q 3200 3197 3328 2828 
z
" transform="scale(0.015625)"/>
       <path id="DejaVuSans-7a" d="M 353 3500 
L 3084 3500 
L 3084 2975 
L 922 459 
L 3084 459 
L 3084 0 
L 275 0 
L 275 525 
L 2438 3041 
L 353 3041 
L 353 3500 
z
" transform="scale(0.015625)"/>
       <path id="DejaVuSans-64" d="M 2906 2969 
L 2906 4863 
L 3481 4863 
L 3481 0 
L 2906 0 
L 2906 525 
Q 2725 213 2448 61 
Q 2172 -91 1784 -91 
Q 1150 -91 751 415 
Q 353 922 353 1747 
Q 353 2572 751 3078 
Q 1150 3584 1784 3584 
Q 2172 3584 2448 3432 
Q 2725 3281 2906 2969 
z
M 947 1747 
Q 947 1113 1208 752 
Q 1469 391 1925 391 
Q 2381 391 2643 752 
Q 2906 1113 2906 1747 
Q 2906 2381 2643 2742 
Q 2381 3103 1925 3103 
Q 1469 3103 1208 2742 
Q 947 2381 947 1747 
z
" transform="scale(0.015625)"/>
      </defs>
      <use xlink:href="#DejaVuSans-49"/>
      <use xlink:href="#DejaVuSans-6e" x="29.492188"/>
      <use xlink:href="#DejaVuSans-74" x="92.871094"/>
      <use xlink:href="#DejaVuSans-65" x="132.080078"/>
      <use xlink:href="#DejaVuSans-6e" x="193.603516"/>
      <use xlink:href="#DejaVuSans-73" x="256.982422"/>
      <use xlink:href="#DejaVuSans-69" x="309.082031"/>
      <use xlink:href="#DejaVuSans-74" x="336.865234"/>
      <use xlink:href="#DejaVuSans-79" x="376.074219"/>
      <use xlink:href="#DejaVuSans-20" x="435.253906"/>
      <use xlink:href="#DejaVuSans-28" x="467.041016"/>
      <use xlink:href="#DejaVuSans-6e" x="506.054688"/>
      <use xlink:href="#DejaVuSans-6f" x="569.433594"/>
      <use xlink:href="#DejaVuSans-72" x="630.615234"/>
      <use xlink:href="#DejaVuSans-6d" x="669.978516"/>
      <use xlink:href="#DejaVuSans-61" x="767.390625"/>
      <use xlink:href="#DejaVuSans-6c" x="828.669922"/>
      <use xlink:href="#DejaVuSans-69" x="856.453125"/>
      <use xlink:href="#DejaVuSans-7a" x="884.236328"/>
      <use xlink:href="#DejaVuSans-65" x="936.726562"/>
      <use xlink:href="#DejaVuSans-64" x="998.25"/>
      <use xlink:href="#DejaVuSans-29" x="1061.726562"/>
     </g>
    </g>
   </g>
   <g id="line2d_25">
    <path d="M 47.72 156.818754 
L 48.195464 132.418691 
L 48.433579 126.713256 
L 48.671949 125.879889 
L 48.910574 124.609868 
L 49.149455 124.867705 
L 49.388591 128.817029 
L 49.627982 139.490185 
L 50.588099 211.003748 
L 51.069689 214.802696 
L 51.310867 219.211922 
L 51.793989 224.785692 
L 52.035933 227.964488 
L 52.520586 236.64414 
L 52.763296 237.909879 
L 53.00626 238.322047 
L 53.249481 237.878379 
L 53.492956 238.64652 
L 53.736686 238.55716 
L 53.980672 238.219432 
L 54.224913 238.556378 
L 54.714161 237.404374 
L 54.959168 238.506554 
L 55.20443 237.771289 
L 55.449948 239.776099 
L 55.941748 239.470262 
L 56.188031 239.769804 
L 56.43457 239.531574 
L 56.681363 238.980854 
L 56.928412 239.268073 
L 57.423276 235.969662 
L 57.671091 233.982925 
L 57.919161 229.812205 
L 58.913993 198.041805 
L 59.16334 197.188835 
L 59.662798 198.366517 
L 60.163277 203.13377 
L 60.4139 208.973037 
L 61.167299 235.611958 
L 61.418943 236.39518 
L 61.670842 234.593727 
L 62.175405 228.519708 
L 62.934165 215.876456 
L 63.441281 209.189825 
L 63.695222 208.134078 
L 63.949418 208.354622 
L 64.20387 202.238994 
L 64.458576 200.159105 
L 64.968756 189.030696 
L 65.224228 187.664205 
L 65.479956 187.888374 
L 65.735939 187.022404 
L 65.992177 187.150294 
L 66.248671 187.634559 
L 66.762424 200.181828 
L 67.534967 223.914109 
L 68.309809 232.742334 
L 68.827646 236.555455 
L 69.606316 240.842385 
L 70.126705 243.008877 
L 70.648116 244.63375 
L 70.909204 244.544294 
L 71.170548 243.04554 
L 71.694 241.596308 
L 71.95611 237.66873 
L 72.218474 235.42138 
L 72.743969 227.016238 
L 73.534125 206.038998 
L 74.062173 190.997799 
L 74.591241 180.797273 
L 74.856158 176.175625 
L 75.386758 172.322318 
L 75.652441 174.444595 
L 76.451022 185.342362 
L 76.717726 186.080337 
L 77.251899 194.382805 
L 77.519369 201.432565 
L 79.129548 221.061557 
L 79.398804 221.546459 
L 79.668316 220.71992 
L 79.938083 218.297256 
L 80.748916 206.454118 
L 81.019704 203.287291 
L 81.290747 197.706349 
L 82.377473 146.095261 
L 82.649793 140.19955 
L 82.922368 141.052428 
L 83.741624 149.049607 
L 84.01522 156.337195 
L 85.112156 214.059415 
L 85.387028 215.688247 
L 85.662156 216.611939 
L 87.318281 232.965381 
L 87.595195 234.287631 
L 87.872365 233.589164 
L 88.42747 234.614327 
L 88.983596 231.512631 
L 89.262042 231.347323 
L 89.540743 230.333408 
L 89.819699 231.932771 
L 90.098911 232.709403 
L 90.6581 230.349201 
L 91.21831 224.680166 
L 91.498798 221.245623 
L 91.779541 215.758231 
L 92.341793 209.309737 
L 92.905067 194.551918 
L 93.751891 165.546976 
L 94.317717 159.254834 
L 94.601013 157.752949 
L 94.884564 155.432686 
L 95.452432 148.305482 
L 96.02132 158.724009 
L 96.59123 170.296462 
L 96.876568 169.070961 
L 97.162161 169.081021 
L 97.44801 166.881885 
L 97.734114 167.744068 
L 98.020472 168.197886 
L 98.307087 169.529179 
L 98.593956 169.440316 
L 98.881081 172.241173 
L 99.168461 173.156966 
L 99.456096 175.385043 
L 100.320533 192.784803 
L 100.898101 206.039986 
L 101.47669 214.179354 
L 102.056299 220.71593 
L 102.346487 222.893426 
L 102.63693 223.406054 
L 102.927629 228.0935 
L 103.218582 229.213208 
L 103.801255 228.784646 
L 104.092975 227.880943 
L 104.384949 225.196361 
L 104.677179 223.774904 
L 104.969664 223.111431 
L 105.262405 223.309426 
L 105.5554 222.7376 
L 105.848651 223.216257 
L 106.142157 225.210418 
L 106.729935 232.846745 
L 107.024207 235.1316 
L 107.318735 236.499656 
L 107.613517 236.846032 
L 107.908555 234.396763 
L 108.203848 229.376762 
L 109.387572 192.360975 
L 109.684142 186.528363 
L 110.278046 180.1682 
L 110.575381 180.695467 
L 110.872972 183.904283 
L 111.170817 190.190608 
L 112.065885 217.997143 
L 112.364752 220.429151 
L 112.663874 219.561277 
L 113.562771 208.420719 
L 114.163312 206.770766 
L 115.066038 208.276263 
L 115.367458 212.561072 
L 115.971062 225.526493 
L 116.273247 228.945033 
L 116.575687 229.611766 
L 116.878383 229.305571 
L 117.181333 229.186995 
L 117.48454 230.50098 
L 117.788001 231.245863 
L 118.091717 232.305813 
L 118.699916 235.437698 
L 119.004399 235.826672 
L 119.309136 235.55396 
L 119.614129 233.852122 
L 119.919377 232.985415 
L 120.224881 230.964328 
L 120.530639 229.726147 
L 120.836653 226.816661 
L 121.142922 220.128275 
L 122.678097 165.982267 
L 122.985898 164.530133 
L 123.293954 164.014963 
L 123.910831 157.127347 
L 124.219653 157.883968 
L 124.52873 162.45937 
L 125.457493 184.20023 
L 125.767591 184.551104 
L 126.077944 182.404179 
L 126.388553 184.814028 
L 127.010536 199.090562 
L 127.63354 216.198057 
L 127.945424 219.80118 
L 128.882611 225.278589 
L 129.195516 224.325755 
L 129.508678 222.35084 
L 129.822094 221.654521 
L 130.135766 219.833162 
L 130.449693 219.372288 
L 130.763875 220.189824 
L 131.078312 220.220108 
L 131.393005 220.758331 
L 131.707953 220.595065 
L 132.023156 224.297732 
L 132.338615 224.470772 
L 132.970298 224.347513 
L 133.286522 221.62994 
L 133.919736 218.604705 
L 134.236726 215.10489 
L 134.553972 214.317807 
L 134.871472 216.225434 
L 135.189228 216.276159 
L 135.507239 218.153624 
L 135.825505 218.722017 
L 136.462804 218.261935 
L 136.781836 220.103541 
L 137.420666 225.541256 
L 137.740464 226.898575 
L 138.380826 223.770495 
L 138.701389 222.822378 
L 139.343282 219.924838 
L 139.986197 214.420007 
L 140.308037 210.956639 
L 140.630132 206.269678 
L 141.275088 202.171421 
L 141.921065 207.722374 
L 142.891946 214.28064 
L 143.540476 223.804465 
L 143.865124 229.067505 
L 144.515185 235.412939 
L 144.840599 235.851014 
L 145.166268 235.091106 
L 145.492192 235.312744 
L 145.818371 235.090865 
L 146.144806 234.147379 
L 146.471496 233.591363 
L 146.798441 232.333654 
L 147.780808 214.70683 
L 148.108774 208.764055 
L 148.765472 202.472465 
L 149.423192 201.217383 
L 149.752434 199.205041 
L 150.081932 199.731359 
L 150.411685 203.730119 
L 150.741693 205.738892 
L 151.071957 202.766661 
L 152.395564 170.821833 
L 152.727104 167.227864 
L 153.058899 167.178404 
L 153.390949 168.605854 
L 153.723255 168.120619 
L 154.055816 171.854268 
L 155.388612 204.399118 
L 155.722449 205.969601 
L 156.056541 206.085739 
L 156.725492 200.810159 
L 157.06035 191.236615 
L 158.066456 146.887619 
L 158.402336 136.111878 
L 158.73847 131.422793 
L 159.07486 129.219219 
L 159.411505 130.758793 
L 160.085561 136.926901 
L 160.422972 147.174954 
L 161.098559 179.765749 
L 161.436736 195.006864 
L 161.775168 204.090413 
L 162.113855 206.656026 
L 162.452797 207.194137 
L 163.131448 209.77672 
L 163.471156 212.011707 
L 164.832541 226.859367 
L 165.173526 226.614745 
L 165.514765 226.852204 
L 166.19801 225.257462 
L 167.910591 198.529488 
L 168.253872 194.650307 
L 168.941202 190.624992 
L 169.629552 183.454043 
L 169.97411 186.560264 
L 170.318923 190.709208 
L 171.009316 202.323333 
L 171.354895 206.284569 
L 171.700729 208.823928 
L 172.046819 210.116095 
L 172.393164 212.808181 
L 172.739764 212.827539 
L 173.08662 215.322569 
L 173.43373 214.750591 
L 173.781096 215.005364 
L 174.128717 213.678601 
L 174.476594 213.617644 
L 175.173113 217.205928 
L 176.219805 229.21466 
L 176.569213 235.649059 
L 176.918876 238.565727 
L 177.268795 238.555606 
L 177.618969 238.267649 
L 178.320082 235.371225 
L 178.671022 232.461779 
L 179.022217 230.618736 
L 179.373667 227.953626 
L 179.725372 227.585928 
L 180.077333 223.730474 
L 180.429548 222.045939 
L 180.78202 219.333982 
L 181.134746 218.978598 
L 181.840965 219.530469 
L 182.194457 219.446656 
L 182.548204 220.021358 
L 182.902207 219.509493 
L 183.256465 219.368768 
L 183.610978 218.505178 
L 184.32077 216.314274 
L 184.676049 214.196059 
L 185.031583 201.744007 
L 186.456273 114.87169 
L 186.813084 103.357074 
L 187.170149 99.582648 
L 187.52747 98.159137 
L 187.885047 99.281638 
L 188.242878 100.88087 
L 188.600965 110.211764 
L 189.317905 156.420242 
L 190.035865 207.438292 
L 190.395228 220.530455 
L 190.754847 224.227923 
L 191.11472 224.562699 
L 191.474849 225.091351 
L 192.195873 220.991107 
L 192.556768 219.83068 
L 192.917918 219.768005 
L 193.279323 220.877125 
L 194.002899 221.690953 
L 194.36507 221.586093 
L 194.727496 221.759082 
L 195.090178 223.135493 
L 195.453115 223.874054 
L 195.816307 223.030049 
L 196.179754 221.826367 
L 196.907414 217.450243 
L 197.271627 215.919019 
L 197.636096 214.925888 
L 198.000819 213.588873 
L 198.731032 215.456949 
L 199.096522 216.023363 
L 199.462266 215.627023 
L 199.828266 216.691648 
L 200.194521 215.083936 
L 200.561032 214.635788 
L 200.927797 215.221068 
L 201.294818 215.308847 
L 202.397413 219.171019 
L 202.765455 221.335398 
L 203.133752 222.546253 
L 203.502304 224.643977 
L 203.871112 221.468207 
L 204.609493 198.409485 
L 205.348896 173.596567 
L 205.71898 165.832576 
L 206.089319 161.860053 
L 206.459913 160.491665 
L 206.830763 160.441651 
L 207.201868 162.437264 
L 207.573229 169.266673 
L 207.944844 180.718512 
L 208.688841 209.821984 
L 209.061223 217.610364 
L 209.433859 216.495005 
L 209.806751 203.011295 
L 210.926958 150.465165 
L 211.67504 130.272229 
L 212.049463 124.424017 
L 212.799076 123.004187 
L 213.174265 122.71873 
L 213.549709 127.911486 
L 213.925409 136.658294 
L 214.301364 149.001868 
L 215.05404 163.741327 
L 216.184968 171.580143 
L 216.562455 176.618769 
L 218.074954 208.913027 
L 218.832735 216.200988 
L 219.212008 219.644327 
L 219.591537 220.027458 
L 219.971321 219.703674 
L 220.35136 212.631268 
L 222.255384 101.713397 
L 222.636955 92.103822 
L 223.018781 87.234202 
L 223.400862 87.458306 
L 223.783199 88.569855 
L 224.165791 94.198754 
L 224.548638 108.060833 
L 224.93174 130.661405 
L 225.69871 186.624073 
L 226.082578 208.189864 
L 226.466702 216.478195 
L 227.235714 221.725686 
L 228.005747 225.416312 
L 228.776802 228.330197 
L 229.162712 227.852732 
L 229.548878 227.603619 
L 229.935298 228.360027 
L 230.321974 228.018983 
L 230.708905 230.008688 
L 231.096092 229.528719 
L 231.87123 228.03539 
L 232.259183 227.164349 
L 232.64739 226.799694 
L 233.035853 224.748525 
L 233.424571 224.935739 
L 233.813544 224.631341 
L 234.202772 222.878359 
L 234.592256 223.225914 
L 234.981995 223.270585 
L 235.37199 225.153799 
L 235.762239 225.452318 
L 236.152744 225.152683 
L 236.543504 224.403993 
L 237.717316 216.714522 
L 238.109097 216.703078 
L 238.501133 214.932849 
L 238.893425 214.673956 
L 239.285972 214.757242 
L 239.678774 215.240325 
L 240.071831 216.424045 
L 241.252535 227.465946 
L 241.646613 227.916621 
L 242.040947 230.924016 
L 242.83038 227.980374 
L 243.22548 227.91534 
L 243.620835 226.540184 
L 244.80843 220.132897 
L 245.204806 219.08597 
L 245.998323 218.451509 
L 246.395465 219.033114 
L 246.792862 217.705947 
L 247.190514 214.897447 
L 247.986584 179.344567 
L 248.783675 145.650431 
L 249.182603 132.458586 
L 249.581787 125.852632 
L 249.981226 122.365302 
L 250.780869 121.729212 
L 251.181074 124.15665 
L 251.581534 136.53233 
L 252.784445 188.63911 
L 253.185926 196.597888 
L 253.587662 197.774094 
L 254.391901 191.316177 
L 255.19716 187.094215 
L 256.00344 183.514711 
L 256.810741 169.894765 
L 257.619064 156.56023 
L 258.428407 148.793718 
L 258.833462 149.178572 
L 259.238772 152.031521 
L 259.644337 152.662432 
L 260.050157 158.163573 
L 260.456233 167.369797 
L 261.675991 203.727303 
L 262.083088 212.902438 
L 262.49044 217.103939 
L 262.898047 218.844874 
L 263.30591 217.919487 
L 264.531028 208.570155 
L 264.939912 205.907085 
L 265.349051 204.628415 
L 265.758445 201.203597 
L 266.988158 194.1784 
L 267.398573 194.117642 
L 267.809244 194.500485 
L 268.220169 192.951264 
L 268.63135 190.048941 
L 269.042786 186.181469 
L 269.454477 185.199484 
L 269.866424 183.033342 
L 270.278626 184.132067 
L 270.691083 187.183737 
L 271.103795 191.08637 
L 271.516763 192.844636 
L 272.757198 200.59976 
L 273.171186 194.653909 
L 274.829694 143.639928 
L 275.244959 135.745658 
L 275.660479 132.014427 
L 276.076254 131.143866 
L 276.492285 133.677718 
L 276.908571 138.239076 
L 277.325112 150.021971 
L 278.99383 209.055293 
L 279.411648 213.51464 
L 279.829721 214.159937 
L 280.248049 216.160824 
L 280.666632 216.60528 
L 281.504564 218.614557 
L 281.923914 218.492425 
L 282.343518 219.455267 
L 282.763378 219.089825 
L 283.183493 216.681972 
L 283.603863 211.541827 
L 284.024488 198.307467 
L 286.131444 115.223427 
L 286.976013 89.695297 
L 287.398681 82.204784 
L 287.821604 77.220832 
L 288.244782 78.372964 
L 288.668215 83.124489 
L 289.940046 108.841627 
L 291.214175 149.125288 
L 291.639395 156.932042 
L 292.064871 159.662291 
L 292.490601 158.314527 
L 292.916587 158.048106 
L 293.342828 157.539326 
L 293.769325 159.05385 
L 294.196076 159.137104 
L 294.623083 158.649023 
L 295.050345 161.969346 
L 295.477863 167.465203 
L 296.333664 185.756507 
L 297.190485 197.469276 
L 297.619279 201.257784 
L 298.048328 206.058196 
L 298.907192 211.478535 
L 299.337007 210.500036 
L 299.767077 208.795393 
L 300.197402 207.60716 
L 301.489909 201.971575 
L 301.921256 202.313183 
L 302.352857 202.972429 
L 302.784714 205.78299 
L 303.216826 210.382409 
L 303.649194 212.085537 
L 304.081816 214.630784 
L 304.514694 214.842344 
L 304.947827 214.776746 
L 305.381216 213.06879 
L 305.814859 211.835083 
L 306.248758 208.74204 
L 306.682912 200.878255 
L 307.117322 177.245512 
L 308.422082 89.008975 
L 308.857512 72.945146 
L 309.293198 61.045161 
L 309.729139 54.679662 
L 310.165335 52.705242 
L 310.601787 53.253488 
L 311.038494 57.166633 
L 311.475456 71.722098 
L 311.912673 94.865322 
L 312.787873 162.060512 
L 313.225856 191.370513 
L 313.664095 204.628261 
L 314.102588 208.085967 
L 314.541337 203.717293 
L 316.298885 165.827197 
L 316.73891 160.335086 
L 317.179191 157.154346 
L 317.619726 157.696957 
L 318.060517 159.230939 
L 318.501564 162.787045 
L 318.942865 169.143346 
L 320.268301 200.442493 
L 320.710623 204.702165 
L 321.153201 203.139244 
L 321.596034 198.133584 
L 322.482466 191.473762 
L 322.926065 190.936228 
L 323.369919 189.622228 
L 323.814028 191.002087 
L 324.258393 193.405198 
L 324.703012 196.552181 
L 325.147888 201.045922 
L 326.038404 214.879696 
L 326.929941 223.755722 
L 327.376092 226.509064 
L 327.822499 226.283874 
L 328.716078 226.739049 
L 329.16325 225.137497 
L 329.610678 221.437607 
L 330.058361 207.037307 
L 330.506299 188.473322 
L 331.402941 143.23677 
L 332.300604 108.345716 
L 333.199289 90.613292 
L 333.649014 87.235914 
L 334.098994 87.958591 
L 334.549229 93.680266 
L 334.99972 104.12067 
L 337.256003 181.476592 
L 337.708025 188.566279 
L 338.160303 191.063184 
L 338.612836 192.111326 
L 339.065624 190.540842 
L 339.518667 185.328314 
L 341.333394 149.268205 
L 341.787713 141.648957 
L 342.697118 137.038073 
L 343.152204 139.020223 
L 343.607545 142.027752 
L 344.063141 147.161915 
L 344.518992 150.778213 
L 345.43146 153.390241 
L 345.888077 153.397186 
L 346.344949 153.527971 
L 346.802077 156.62731 
L 347.25946 158.834077 
L 347.717098 161.857548 
L 348.174991 166.650537 
L 349.550203 190.072549 
L 350.009117 189.844494 
L 350.927712 181.269139 
L 351.387392 173.670358 
L 352.307518 164.279745 
L 352.767964 160.976883 
L 354.150833 144.42227 
L 354.6123 140.740819 
L 355.074022 139.409484 
L 355.536 138.575065 
L 355.998232 138.666137 
L 356.46072 139.517848 
L 356.923464 140.991803 
L 357.386462 145.407567 
L 357.849716 154.093171 
L 358.776989 184.030236 
L 359.241009 199.661571 
L 359.705284 211.467723 
L 360.169814 219.160421 
L 360.634599 221.192196 
L 361.09964 221.130006 
L 361.564935 217.910662 
L 362.030487 212.543451 
L 362.496293 205.717988 
L 363.428671 181.438149 
L 363.895244 165.985863 
L 365.296492 145.342596 
L 365.764085 143.513483 
L 366.231933 144.674161 
L 366.700037 146.981151 
L 367.63701 153.879957 
L 368.10588 157.613305 
L 368.575004 162.841682 
L 369.044384 164.220407 
L 369.51402 164.872207 
L 369.98391 160.743498 
L 370.454056 150.149573 
L 370.924457 132.352791 
L 371.866025 83.67352 
L 372.337192 69.329348 
L 372.808614 59.46818 
L 373.280291 54.654625 
L 373.752224 51.378034 
L 374.224411 50.966705 
L 374.696855 53.998016 
L 375.169553 62.273277 
L 375.642507 79.279187 
L 377.062899 156.69057 
L 377.536874 172.743012 
L 378.011104 178.790469 
L 378.485589 179.306595 
L 378.960329 174.387019 
L 379.910576 150.199364 
L 380.386082 138.136117 
L 380.861844 133.2406 
L 381.337861 131.729585 
L 381.814133 131.738062 
L 382.29066 132.33843 
L 382.767442 135.159806 
L 383.24448 137.235368 
L 383.721773 143.151249 
L 384.199321 154.783838 
L 385.155184 185.069159 
L 385.633498 195.463924 
L 386.112067 201.375542 
L 386.590892 203.855274 
L 387.069972 205.275738 
L 388.028897 205.887546 
L 388.508743 207.568408 
L 388.988844 207.697731 
L 389.4692 207.408328 
L 389.949811 209.338263 
L 390.430678 210.290078 
L 390.9118 211.696063 
L 391.87481 212.99987 
L 392.83884 214.948054 
L 393.803892 208.207487 
L 394.286801 201.20981 
L 394.769965 197.608222 
L 395.253384 195.598888 
L 395.737059 191.716835 
L 396.220989 189.863275 
L 397.189614 188.020607 
L 397.674309 188.801457 
L 398.15926 192.636721 
L 398.644466 198.616108 
L 399.615644 206.514244 
L 400.101616 206.57437 
L 400.587843 205.42093 
L 401.561063 199.585078 
L 402.048056 199.883803 
L 402.535304 199.4596 
L 403.022808 198.171653 
L 403.998581 187.314058 
L 404.48685 178.783403 
L 404.975374 174.001796 
L 405.464154 171.453029 
L 406.932025 160.958168 
L 407.911881 152.450209 
L 408.402193 151.496948 
L 408.892759 153.596212 
L 410.857578 171.003794 
L 411.349421 177.267658 
L 411.841519 185.216713 
L 412.826481 207.373176 
L 413.319345 214.247185 
L 413.812464 219.547456 
L 414.305838 221.776053 
L 414.799468 222.724504 
L 415.787493 221.768033 
L 416.776539 218.079025 
L 417.271445 212.820623 
L 417.766607 200.905215 
L 418.757695 168.263177 
L 419.253622 156.005148 
L 419.749804 148.832557 
L 420.246241 143.719027 
L 420.742934 140.691988 
L 421.239882 140.07906 
L 421.737086 141.045112 
L 422.234544 145.84699 
L 422.732258 157.136471 
L 423.728451 192.546165 
L 424.226931 204.980519 
L 424.725666 213.093838 
L 425.224656 217.43713 
L 426.723158 220.9129 
L 427.223169 220.550281 
L 427.723435 219.19237 
L 428.223957 216.516978 
L 428.724734 211.994645 
L 429.225766 205.991817 
L 429.727054 202.224361 
L 430.228596 196.191425 
L 430.730394 193.242764 
L 431.232447 191.392874 
L 431.734756 190.150073 
L 432.23732 190.824448 
L 432.740139 191.883727 
L 433.243213 194.359912 
L 434.250127 202.459109 
L 434.753967 207.40259 
L 435.762413 214.327811 
L 436.267019 216.330717 
L 436.77188 217.833341 
L 437.276996 217.026873 
L 437.782368 212.182751 
L 438.287995 203.29863 
L 438.793877 191.674009 
L 439.806407 176.248773 
L 440.313055 172.456074 
L 441.327116 167.537879 
L 441.83453 164.255674 
L 442.342199 163.267188 
L 442.850123 167.509102 
L 444.375427 188.613772 
L 444.884373 193.779001 
L 445.393573 193.12328 
L 445.903029 187.648334 
L 446.922706 167.947905 
L 447.432928 161.236489 
L 449.476366 144.580235 
L 449.987864 143.993388 
L 450.499617 145.333702 
L 451.011626 153.684202 
L 452.036408 177.484128 
L 452.549182 182.295061 
L 453.062212 182.404884 
L 453.575496 180.56207 
L 454.089036 178.041413 
L 455.116882 176.925931 
L 455.631187 176.965911 
L 456.145748 177.64295 
L 456.660565 177.991012 
L 457.690963 190.355334 
L 458.206545 193.787583 
L 458.722382 193.425722 
L 459.238474 190.437561 
L 460.271425 180.427308 
L 460.788284 171.14383 
L 462.34039 134.517513 
L 462.858269 129.03328 
L 463.376404 128.828882 
L 464.932339 122.838749 
L 465.451495 122.262778 
L 465.970906 128.096639 
L 467.53067 157.120025 
L 468.051102 164.46635 
L 469.092731 174.534279 
L 469.613929 177.353411 
L 470.135382 177.053757 
L 470.65709 171.686281 
L 471.179054 164.66807 
L 472.223746 138.326998 
L 472.746476 125.937642 
L 473.7927 97.000864 
L 474.316195 86.807442 
L 474.839945 81.12139 
L 475.363951 78.911051 
L 476.412728 87.253842 
L 477.462525 109.94182 
L 477.987807 126.5402 
L 478.513344 149.06111 
L 479.039137 176.632486 
L 479.565184 198.189268 
L 480.091487 213.254888 
L 480.618045 221.357239 
L 481.144859 224.817831 
L 481.671927 224.058661 
L 482.726831 223.532902 
L 483.254665 222.403373 
L 484.3111 220.821053 
L 484.8397 218.898078 
L 485.368555 215.984586 
L 485.897666 211.26815 
L 486.427032 207.924941 
L 488.016662 201.330404 
L 489.608588 189.349737 
L 490.139741 186.692355 
L 490.671149 185.931954 
L 492.266905 178.618807 
L 492.799334 177.341633 
L 493.864958 181.784056 
L 494.398153 187.224007 
L 494.931603 190.530561 
L 496.533485 208.552155 
L 497.067956 210.118953 
L 497.602683 210.186128 
L 498.137665 204.842874 
L 499.744141 170.936285 
L 500.280144 165.963633 
L 500.816402 162.246409 
L 501.352915 160.926632 
L 501.889684 160.783623 
L 502.426708 161.694303 
L 502.963987 164.944585 
L 503.501521 172.1695 
L 504.03931 182.8876 
L 504.577355 190.235464 
L 505.115655 194.608922 
L 505.654211 196.782641 
L 506.193021 195.754492 
L 507.271408 192.717689 
L 507.810985 193.147659 
L 508.890903 191.298119 
L 509.971843 195.612535 
L 510.512695 196.628678 
L 511.053803 198.550706 
L 511.595167 198.050534 
L 512.136785 194.922981 
L 512.678659 189.629275 
L 514.305811 166.889438 
L 514.848706 159.765853 
L 515.935261 152.147639 
L 516.478922 149.075082 
L 517.022838 146.659173 
L 517.567009 145.646903 
L 518.111435 142.387243 
L 518.656117 140.508141 
L 519.201053 136.662268 
L 520.291693 131.268374 
L 520.837396 125.210848 
L 521.383353 113.148216 
L 521.929567 97.396501 
L 522.476035 87.29713 
L 523.022759 80.890837 
L 523.569737 80.346767 
L 524.116972 79.242327 
L 524.664461 79.933054 
L 525.212206 83.064021 
L 525.760206 83.890989 
L 526.308461 91.35607 
L 526.856971 107.019351 
L 527.954758 141.31677 
L 529.053566 172.938342 
L 529.603352 184.946666 
L 530.153395 190.611732 
L 530.703692 189.536654 
L 531.254244 182.919283 
L 531.805052 174.568831 
L 532.356115 170.686033 
L 533.459007 165.378085 
L 534.56292 162.709912 
L 535.115259 165.203539 
L 535.667854 168.781715 
L 536.220704 175.920577 
L 536.773809 181.226864 
L 537.327169 184.610818 
L 537.880785 186.296273 
L 538.988782 183.249795 
L 539.543164 179.98505 
L 540.0978 175.411506 
L 541.207839 162.714052 
L 541.763242 158.086509 
L 542.3189 149.956528 
L 543.430981 124.247693 
L 543.987404 115.822332 
L 544.544083 112.966077 
L 545.101017 111.611553 
L 545.658206 111.628106 
L 546.773351 124.155685 
L 547.331306 132.928266 
L 548.447982 163.36507 
L 549.006703 163.874988 
L 549.565679 160.45269 
L 550.12491 153.547551 
L 551.244138 144.469201 
L 552.364388 139.182916 
L 552.924896 135.071964 
L 553.485659 134.260601 
L 554.046677 139.488518 
L 555.169479 155.13476 
L 555.731263 163.780333 
L 556.293302 167.835577 
L 556.855597 170.44833 
L 557.418146 171.448345 
L 557.980951 173.849736 
L 558.544012 172.010267 
L 560.234724 127.491373 
L 560.798805 118.701097 
L 562.492581 106.013287 
L 563.057683 103.943875 
L 563.623041 103.28641 
L 564.188653 114.389396 
L 565.320645 157.055174 
L 565.887023 172.040167 
L 566.453657 179.351908 
L 567.020546 181.415966 
L 567.587691 181.04118 
L 568.155091 182.027822 
L 569.290656 194.029568 
L 569.858821 196.655793 
L 570.427242 196.536145 
L 570.995918 195.914304 
L 571.564849 193.178834 
L 572.134035 189.881455 
L 572.703477 182.551419 
L 573.843127 158.661962 
L 574.413334 149.639546 
L 574.983797 145.383249 
L 575.554515 142.232691 
L 576.125488 139.72938 
L 576.696717 138.625943 
L 577.268201 134.58524 
L 577.83994 134.42756 
L 578.411934 143.979106 
L 578.984184 157.115663 
L 579.556688 167.413566 
L 580.129449 174.722193 
L 580.702464 175.313733 
L 581.84926 173.098061 
L 582.423042 176.909733 
L 582.997078 184.485434 
L 583.57137 188.357495 
L 584.145917 190.910726 
L 584.720719 190.539591 
L 585.295776 189.951125 
L 585.871089 191.924066 
L 586.446657 196.278024 
L 587.02248 199.29009 
L 587.598559 201.463839 
L 588.174892 205.135204 
L 588.751481 207.494264 
L 589.905425 209.886038 
L 590.48278 211.341521 
L 591.06039 210.133119 
L 591.638255 206.237343 
L 592.216376 200.618929 
L 593.952269 175.130092 
L 594.531411 169.475635 
L 595.110808 166.324657 
L 595.69046 164.249336 
L 596.270367 162.696905 
L 596.85053 164.232611 
L 597.430948 166.475781 
L 598.011621 171.424933 
L 598.592549 179.446611 
L 599.173733 184.558646 
L 599.755172 181.61046 
L 600.918816 152.913201 
L 601.50102 141.634262 
L 602.666195 133.310477 
L 603.249166 130.303918 
L 603.832392 128.312526 
L 604.415873 128.803151 
L 604.999609 133.069548 
L 605.583601 148.854773 
L 606.167847 170.716886 
L 606.752349 182.317927 
L 607.337107 186.33667 
L 607.922119 183.713284 
L 609.678689 173.401048 
L 610.264722 172.275351 
L 610.851011 170.551051 
L 611.437555 169.788574 
L 612.024355 170.848806 
L 612.611409 176.215924 
L 613.198719 187.118602 
L 613.786284 195.409899 
L 614.374105 201.344232 
L 614.96218 203.116706 
L 615.550511 192.275782 
L 616.139098 173.195985 
L 616.727939 159.934077 
L 617.317036 149.876026 
L 619.085858 134.880567 
L 619.675975 132.491483 
L 620.266348 130.572342 
L 620.856977 134.557197 
L 622.038999 168.6722 
L 622.630393 180.007918 
L 623.222042 186.544988 
L 623.813947 187.539964 
L 624.998522 184.446828 
L 625.591192 184.587315 
L 626.184118 184.361078 
L 627.370735 184.943108 
L 627.964426 183.753026 
L 628.558373 183.075325 
L 629.152575 182.847364 
L 629.747032 185.077915 
L 630.341744 186.711577 
L 630.936712 186.35532 
L 631.531935 182.459469 
L 632.127413 177.054931 
L 633.91538 154.702879 
L 634.511879 151.795062 
L 635.108633 151.350775 
L 635.705643 150.248272 
L 636.302908 149.679388 
L 637.498204 145.314083 
L 638.096235 144.001343 
L 638.694521 145.512753 
L 639.293062 149.056435 
L 639.891859 148.636399 
L 640.490911 146.364307 
L 641.68978 133.081813 
L 642.289598 130.633287 
L 642.889671 132.6437 
L 643.489999 133.291262 
L 644.090582 132.452117 
L 645.893864 141.012148 
L 647.097328 153.172909 
L 647.699443 151.421366 
L 648.301813 151.293179 
L 648.904439 152.022376 
L 649.507319 152.445524 
L 650.110455 150.123391 
L 650.713847 149.237905 
L 651.317493 144.432031 
L 651.921395 134.135644 
L 652.525552 120.723184 
L 653.129964 118.192784 
L 653.734632 117.694438 
L 654.944733 122.350842 
L 655.550166 122.400814 
L 656.155855 120.146197 
L 656.761799 121.056831 
L 657.367998 128.246868 
L 657.974452 145.76487 
L 658.581162 159.137267 
L 659.188127 164.190083 
L 660.402822 165.408082 
L 661.618539 168.875383 
L 662.22678 171.721638 
L 662.835276 171.606549 
L 663.444028 171.286381 
L 664.053035 171.728228 
L 665.881588 186.064018 
L 666.491616 189.718321 
L 667.101899 192.405585 
L 667.712437 191.949077 
L 668.323231 189.056395 
L 669.545585 178.220339 
L 670.157144 174.986118 
L 670.768959 173.266074 
L 671.993354 168.891113 
L 672.605935 167.790345 
L 673.218771 167.093379 
L 673.831862 168.951484 
L 674.445208 173.907236 
L 675.05881 181.047795 
L 675.672667 184.660599 
L 676.286779 187.377263 
L 676.901146 189.127755 
L 677.515769 189.16115 
L 678.130647 188.190798 
L 678.74578 186.052262 
L 679.361169 185.339986 
L 679.976812 185.865982 
L 680.592711 189.567521 
L 681.208866 192.026131 
L 682.44194 192.873013 
L 683.05886 192.074026 
L 683.676035 194.251166 
L 684.911152 194.964761 
L 685.529093 194.783818 
L 686.147289 193.200459 
L 686.76574 190.984061 
L 687.384447 188.244875 
L 688.003409 182.396796 
L 689.242099 161.926984 
L 691.102049 122.068041 
L 691.722542 103.723359 
L 692.343291 90.555914 
L 692.964296 82.20038 
L 693.585555 78.169482 
L 694.20707 77.079986 
L 694.82884 77.811664 
L 696.695681 91.605823 
L 697.941518 120.852988 
L 698.56482 129.272403 
L 699.812188 132.966518 
L 700.436256 136.681737 
L 701.060578 138.548634 
L 701.685156 141.881922 
L 702.935078 156.666939 
L 703.560421 157.482366 
L 704.18602 158.945636 
L 704.811874 161.462291 
L 705.437983 162.586986 
L 706.064348 161.525312 
L 706.690968 160.931313 
L 707.317843 159.993159 
L 707.944973 157.86405 
L 708.572359 153.476208 
L 709.2 148.290156 
L 709.2 148.290156 
" clip-path="url(#pd493085c64)" style="fill: none; stroke: #1f77b4; stroke-width: 1.5; stroke-linecap: square"/>
   </g>
   <g id="LineCollection_1">
    <path d="M 81.117306 244.63375 
L 81.117306 31.6 
" clip-path="url(#pd493085c64)" style="fill: none; stroke-dasharray: 5.55,2.4; stroke-dashoffset: 0; stroke: #ff0000; stroke-width: 1.5"/>
   </g>
   <g id="LineCollection_2">
    <path d="M 160.61312 244.63375 
L 160.61312 31.6 
" clip-path="url(#pd493085c64)" style="fill: none; stroke-dasharray: 5.55,2.4; stroke-dashoffset: 0; stroke: #ff0000; stroke-width: 1.5"/>
   </g>
   <g id="LineCollection_3">
    <path d="M 188.915754 244.63375 
L 188.915754 31.6 
" clip-path="url(#pd493085c64)" style="fill: none; stroke-dasharray: 5.55,2.4; stroke-dashoffset: 0; stroke: #ff0000; stroke-width: 1.5"/>
   </g>
   <g id="LineCollection_4">
    <path d="M 224.222905 244.63375 
L 224.222905 31.6 
" clip-path="url(#pd493085c64)" style="fill: none; stroke-dasharray: 5.55,2.4; stroke-dashoffset: 0; stroke: #ff0000; stroke-width: 1.5"/>
   </g>
   <g id="LineCollection_5">
    <path d="M 250.227181 244.63375 
L 250.227181 31.6 
" clip-path="url(#pd493085c64)" style="fill: none; stroke-dasharray: 5.55,2.4; stroke-dashoffset: 0; stroke: #ff0000; stroke-width: 1.5"/>
   </g>
   <g id="LineCollection_6">
    <path d="M 309.201945 244.63375 
L 309.201945 31.6 
" clip-path="url(#pd493085c64)" style="fill: none; stroke-dasharray: 5.55,2.4; stroke-dashoffset: 0; stroke: #ff0000; stroke-width: 1.5"/>
   </g>
   <g id="LineCollection_7">
    <path d="M 372.133167 244.63375 
L 372.133167 31.6 
" clip-path="url(#pd493085c64)" style="fill: none; stroke-dasharray: 5.55,2.4; stroke-dashoffset: 0; stroke: #ff0000; stroke-width: 1.5"/>
   </g>
   <g id="LineCollection_8">
    <path d="M 475.07223 244.63375 
L 475.07223 31.6 
" clip-path="url(#pd493085c64)" style="fill: none; stroke-dasharray: 5.55,2.4; stroke-dashoffset: 0; stroke: #ff0000; stroke-width: 1.5"/>
   </g>
   <g id="LineCollection_9">
    <path d="M 524.667505 244.63375 
L 524.667505 31.6 
" clip-path="url(#pd493085c64)" style="fill: none; stroke-dasharray: 5.55,2.4; stroke-dashoffset: 0; stroke: #ff0000; stroke-width: 1.5"/>
   </g>
   <g id="LineCollection_10">
    <path d="M 564.37437 244.63375 
L 564.37437 31.6 
" clip-path="url(#pd493085c64)" style="fill: none; stroke-dasharray: 5.55,2.4; stroke-dashoffset: 0; stroke: #ff0000; stroke-width: 1.5"/>
   </g>
   <g id="patch_3">
    <path d="M 47.72 244.63375 
L 47.72 31.6 
" style="fill: none; stroke: #000000; stroke-width: 0.8; stroke-linejoin: miter; stroke-linecap: square"/>
   </g>
   <g id="patch_4">
    <path d="M 709.2 244.63375 
L 709.2 31.6 
" style="fill: none; stroke: #000000; stroke-width: 0.8; stroke-linejoin: miter; stroke-linecap: square"/>
   </g>
   <g id="patch_5">
    <path d="M 47.72 244.63375 
L 709.2 244.63375 
" style="fill: none; stroke: #000000; stroke-width: 0.8; stroke-linejoin: miter; stroke-linecap: square"/>
   </g>
   <g id="patch_6">
    <path d="M 47.72 31.6 
L 709.2 31.6 
" style="fill: none; stroke: #000000; stroke-width: 0.8; stroke-linejoin: miter; stroke-linecap: square"/>
   </g>
   <g id="text_15">
    <!-- Spectrum of ThAr lamp (polynomial 2nd degree) -->
    <g transform="translate(208.712187 21.6) scale(0.14 -0.14)">
     <defs>
      <path id="DejaVuSans-53" d="M 3425 4513 
L 3425 3897 
Q 3066 4069 2747 4153 
Q 2428 4238 2131 4238 
Q 1616 4238 1336 4038 
Q 1056 3838 1056 3469 
Q 1056 3159 1242 3001 
Q 1428 2844 1947 2747 
L 2328 2669 
Q 3034 2534 3370 2195 
Q 3706 1856 3706 1288 
Q 3706 609 3251 259 
Q 2797 -91 1919 -91 
Q 1588 -91 1214 -16 
Q 841 59 441 206 
L 441 856 
Q 825 641 1194 531 
Q 1563 422 1919 422 
Q 2459 422 2753 634 
Q 3047 847 3047 1241 
Q 3047 1584 2836 1778 
Q 2625 1972 2144 2069 
L 1759 2144 
Q 1053 2284 737 2584 
Q 422 2884 422 3419 
Q 422 4038 858 4394 
Q 1294 4750 2059 4750 
Q 2388 4750 2728 4690 
Q 3069 4631 3425 4513 
z
" transform="scale(0.015625)"/>
      <path id="DejaVuSans-70" d="M 1159 525 
L 1159 -1331 
L 581 -1331 
L 581 3500 
L 1159 3500 
L 1159 2969 
Q 1341 3281 1617 3432 
Q 1894 3584 2278 3584 
Q 2916 3584 3314 3078 
Q 3713 2572 3713 1747 
Q 3713 922 3314 415 
Q 2916 -91 2278 -91 
Q 1894 -91 1617 61 
Q 1341 213 1159 525 
z
M 3116 1747 
Q 3116 2381 2855 2742 
Q 2594 3103 2138 3103 
Q 1681 3103 1420 2742 
Q 1159 2381 1159 1747 
Q 1159 1113 1420 752 
Q 1681 391 2138 391 
Q 2594 391 2855 752 
Q 3116 1113 3116 1747 
z
" transform="scale(0.015625)"/>
      <path id="DejaVuSans-63" d="M 3122 3366 
L 3122 2828 
Q 2878 2963 2633 3030 
Q 2388 3097 2138 3097 
Q 1578 3097 1268 2742 
Q 959 2388 959 1747 
Q 959 1106 1268 751 
Q 1578 397 2138 397 
Q 2388 397 2633 464 
Q 2878 531 3122 666 
L 3122 134 
Q 2881 22 2623 -34 
Q 2366 -91 2075 -91 
Q 1284 -91 818 406 
Q 353 903 353 1747 
Q 353 2603 823 3093 
Q 1294 3584 2113 3584 
Q 2378 3584 2631 3529 
Q 2884 3475 3122 3366 
z
" transform="scale(0.015625)"/>
      <path id="DejaVuSans-75" d="M 544 1381 
L 544 3500 
L 1119 3500 
L 1119 1403 
Q 1119 906 1312 657 
Q 1506 409 1894 409 
Q 2359 409 2629 706 
Q 2900 1003 2900 1516 
L 2900 3500 
L 3475 3500 
L 3475 0 
L 2900 0 
L 2900 538 
Q 2691 219 2414 64 
Q 2138 -91 1772 -91 
Q 1169 -91 856 284 
Q 544 659 544 1381 
z
M 1991 3584 
L 1991 3584 
z
" transform="scale(0.015625)"/>
      <path id="DejaVuSans-66" d="M 2375 4863 
L 2375 4384 
L 1825 4384 
Q 1516 4384 1395 4259 
Q 1275 4134 1275 3809 
L 1275 3500 
L 2222 3500 
L 2222 3053 
L 1275 3053 
L 1275 0 
L 697 0 
L 697 3053 
L 147 3053 
L 147 3500 
L 697 3500 
L 697 3744 
Q 697 4328 969 4595 
Q 1241 4863 1831 4863 
L 2375 4863 
z
" transform="scale(0.015625)"/>
      <path id="DejaVuSans-54" d="M -19 4666 
L 3928 4666 
L 3928 4134 
L 2272 4134 
L 2272 0 
L 1638 0 
L 1638 4134 
L -19 4134 
L -19 4666 
z
" transform="scale(0.015625)"/>
      <path id="DejaVuSans-41" d="M 2188 4044 
L 1331 1722 
L 3047 1722 
L 2188 4044 
z
M 1831 4666 
L 2547 4666 
L 4325 0 
L 3669 0 
L 3244 1197 
L 1141 1197 
L 716 0 
L 50 0 
L 1831 4666 
z
" transform="scale(0.015625)"/>
     </defs>
     <use xlink:href="#DejaVuSans-53"/>
     <use xlink:href="#DejaVuSans-70" x="63.476562"/>
     <use xlink:href="#DejaVuSans-65" x="126.953125"/>
     <use xlink:href="#DejaVuSans-63" x="188.476562"/>
     <use xlink:href="#DejaVuSans-74" x="243.457031"/>
     <use xlink:href="#DejaVuSans-72" x="282.666016"/>
     <use xlink:href="#DejaVuSans-75" x="323.779297"/>
     <use xlink:href="#DejaVuSans-6d" x="387.158203"/>
     <use xlink:href="#DejaVuSans-20" x="484.570312"/>
     <use xlink:href="#DejaVuSans-6f" x="516.357422"/>
     <use xlink:href="#DejaVuSans-66" x="577.539062"/>
     <use xlink:href="#DejaVuSans-20" x="612.744141"/>
     <use xlink:href="#DejaVuSans-54" x="644.53125"/>
     <use xlink:href="#DejaVuSans-68" x="705.615234"/>
     <use xlink:href="#DejaVuSans-41" x="768.994141"/>
     <use xlink:href="#DejaVuSans-72" x="837.402344"/>
     <use xlink:href="#DejaVuSans-20" x="878.515625"/>
     <use xlink:href="#DejaVuSans-6c" x="910.302734"/>
     <use xlink:href="#DejaVuSans-61" x="938.085938"/>
     <use xlink:href="#DejaVuSans-6d" x="999.365234"/>
     <use xlink:href="#DejaVuSans-70" x="1096.777344"/>
     <use xlink:href="#DejaVuSans-20" x="1160.253906"/>
     <use xlink:href="#DejaVuSans-28" x="1192.041016"/>
     <use xlink:href="#DejaVuSans-70" x="1231.054688"/>
     <use xlink:href="#DejaVuSans-6f" x="1294.53125"/>
     <use xlink:href="#DejaVuSans-6c" x="1355.712891"/>
     <use xlink:href="#DejaVuSans-79" x="1383.496094"/>
     <use xlink:href="#DejaVuSans-6e" x="1442.675781"/>
     <use xlink:href="#DejaVuSans-6f" x="1506.054688"/>
     <use xlink:href="#DejaVuSans-6d" x="1567.236328"/>
     <use xlink:href="#DejaVuSans-69" x="1664.648438"/>
     <use xlink:href="#DejaVuSans-61" x="1692.431641"/>
     <use xlink:href="#DejaVuSans-6c" x="1753.710938"/>
     <use xlink:href="#DejaVuSans-20" x="1781.494141"/>
     <use xlink:href="#DejaVuSans-32" x="1813.28125"/>
     <use xlink:href="#DejaVuSans-6e" x="1876.904297"/>
     <use xlink:href="#DejaVuSans-64" x="1940.283203"/>
     <use xlink:href="#DejaVuSans-20" x="2003.759766"/>
     <use xlink:href="#DejaVuSans-64" x="2035.546875"/>
     <use xlink:href="#DejaVuSans-65" x="2099.023438"/>
     <use xlink:href="#DejaVuSans-67" x="2160.546875"/>
     <use xlink:href="#DejaVuSans-72" x="2224.023438"/>
     <use xlink:href="#DejaVuSans-65" x="2262.886719"/>
     <use xlink:href="#DejaVuSans-65" x="2324.410156"/>
     <use xlink:href="#DejaVuSans-29" x="2385.933594"/>
    </g>
   </g>
  </g>
 </g>
 <defs>
  <clipPath id="pd493085c64">
   <rect x="47.72" y="31.6" width="661.48" height="213.03375"/>
  </clipPath>
 </defs>
</svg>
