<?xml version="1.0" encoding="utf-8" standalone="no"?>
<!DOCTYPE svg PUBLIC "-//W3C//DTD SVG 1.1//EN"
  "http://www.w3.org/Graphics/SVG/1.1/DTD/svg11.dtd">
<svg xmlns:xlink="http://www.w3.org/1999/xlink" width="720pt" height="288pt" viewBox="0 0 720 288" xmlns="http://www.w3.org/2000/svg" version="1.1">
 <metadata>
  <rdf:RDF xmlns:dc="http://purl.org/dc/elements/1.1/" xmlns:cc="http://creativecommons.org/ns#" xmlns:rdf="http://www.w3.org/1999/02/22-rdf-syntax-ns#">
   <cc:Work>
    <dc:type rdf:resource="http://purl.org/dc/dcmitype/StillImage"/>
    <dc:date>2024-12-17T23:43:34.540370</dc:date>
    <dc:format>image/svg+xml</dc:format>
    <dc:creator>
     <cc:Agent>
      <dc:title>Matplotlib v3.8.3, https://matplotlib.org/</dc:title>
     </cc:Agent>
    </dc:creator>
   </cc:Work>
  </rdf:RDF>
 </metadata>
 <defs>
  <style type="text/css">*{stroke-linejoin: round; stroke-linecap: butt}</style>
 </defs>
 <g id="figure_1">
  <g id="patch_1">
   <path d="M 0 288 
L 720 288 
L 720 0 
L 0 0 
z
" style="fill: #ffffff"/>
  </g>
  <g id="axes_1">
   <g id="patch_2">
    <path d="M 47.72 244.63375 
L 709.2 244.63375 
L 709.2 31.6 
L 47.72 31.6 
z
" style="fill: #ffffff"/>
   </g>
   <g id="matplotlib.axis_1">
    <g id="xtick_1">
     <g id="line2d_1">
      <path d="M 113.245736 244.63375 
L 113.245736 31.6 
" clip-path="url(#p40b99ac055)" style="fill: none; stroke: #b0b0b0; stroke-width: 0.8; stroke-linecap: square"/>
     </g>
     <g id="line2d_2">
      <defs>
       <path id="md4a4d5f7bc" d="M 0 0 
L 0 3.5 
" style="stroke: #000000; stroke-width: 0.8"/>
      </defs>
      <g>
       <use xlink:href="#md4a4d5f7bc" x="113.245736" y="244.63375" style="stroke: #000000; stroke-width: 0.8"/>
      </g>
     </g>
     <g id="text_1">
      <!-- 4400 -->
      <g transform="translate(100.520736 259.232188) scale(0.1 -0.1)">
       <defs>
        <path id="DejaVuSans-34" d="M 2419 4116 
L 825 1625 
L 2419 1625 
L 2419 4116 
z
M 2253 4666 
L 3047 4666 
L 3047 1625 
L 3713 1625 
L 3713 1100 
L 3047 1100 
L 3047 0 
L 2419 0 
L 2419 1100 
L 313 1100 
L 313 1709 
L 2253 4666 
z
" transform="scale(0.015625)"/>
        <path id="DejaVuSans-30" d="M 2034 4250 
Q 1547 4250 1301 3770 
Q 1056 3291 1056 2328 
Q 1056 1369 1301 889 
Q 1547 409 2034 409 
Q 2525 409 2770 889 
Q 3016 1369 3016 2328 
Q 3016 3291 2770 3770 
Q 2525 4250 2034 4250 
z
M 2034 4750 
Q 2819 4750 3233 4129 
Q 3647 3509 3647 2328 
Q 3647 1150 3233 529 
Q 2819 -91 2034 -91 
Q 1250 -91 836 529 
Q 422 1150 422 2328 
Q 422 3509 836 4129 
Q 1250 4750 2034 4750 
z
" transform="scale(0.015625)"/>
       </defs>
       <use xlink:href="#DejaVuSans-34"/>
       <use xlink:href="#DejaVuSans-34" x="63.623047"/>
       <use xlink:href="#DejaVuSans-30" x="127.246094"/>
       <use xlink:href="#DejaVuSans-30" x="190.869141"/>
      </g>
     </g>
    </g>
    <g id="xtick_2">
     <g id="line2d_3">
      <path d="M 220.062418 244.63375 
L 220.062418 31.6 
" clip-path="url(#p40b99ac055)" style="fill: none; stroke: #b0b0b0; stroke-width: 0.8; stroke-linecap: square"/>
     </g>
     <g id="line2d_4">
      <g>
       <use xlink:href="#md4a4d5f7bc" x="220.062418" y="244.63375" style="stroke: #000000; stroke-width: 0.8"/>
      </g>
     </g>
     <g id="text_2">
      <!-- 4600 -->
      <g transform="translate(207.337418 259.232188) scale(0.1 -0.1)">
       <defs>
        <path id="DejaVuSans-36" d="M 2113 2584 
Q 1688 2584 1439 2293 
Q 1191 2003 1191 1497 
Q 1191 994 1439 701 
Q 1688 409 2113 409 
Q 2538 409 2786 701 
Q 3034 994 3034 1497 
Q 3034 2003 2786 2293 
Q 2538 2584 2113 2584 
z
M 3366 4563 
L 3366 3988 
Q 3128 4100 2886 4159 
Q 2644 4219 2406 4219 
Q 1781 4219 1451 3797 
Q 1122 3375 1075 2522 
Q 1259 2794 1537 2939 
Q 1816 3084 2150 3084 
Q 2853 3084 3261 2657 
Q 3669 2231 3669 1497 
Q 3669 778 3244 343 
Q 2819 -91 2113 -91 
Q 1303 -91 875 529 
Q 447 1150 447 2328 
Q 447 3434 972 4092 
Q 1497 4750 2381 4750 
Q 2619 4750 2861 4703 
Q 3103 4656 3366 4563 
z
" transform="scale(0.015625)"/>
       </defs>
       <use xlink:href="#DejaVuSans-34"/>
       <use xlink:href="#DejaVuSans-36" x="63.623047"/>
       <use xlink:href="#DejaVuSans-30" x="127.246094"/>
       <use xlink:href="#DejaVuSans-30" x="190.869141"/>
      </g>
     </g>
    </g>
    <g id="xtick_3">
     <g id="line2d_5">
      <path d="M 326.879101 244.63375 
L 326.879101 31.6 
" clip-path="url(#p40b99ac055)" style="fill: none; stroke: #b0b0b0; stroke-width: 0.8; stroke-linecap: square"/>
     </g>
     <g id="line2d_6">
      <g>
       <use xlink:href="#md4a4d5f7bc" x="326.879101" y="244.63375" style="stroke: #000000; stroke-width: 0.8"/>
      </g>
     </g>
     <g id="text_3">
      <!-- 4800 -->
      <g transform="translate(314.154101 259.232188) scale(0.1 -0.1)">
       <defs>
        <path id="DejaVuSans-38" d="M 2034 2216 
Q 1584 2216 1326 1975 
Q 1069 1734 1069 1313 
Q 1069 891 1326 650 
Q 1584 409 2034 409 
Q 2484 409 2743 651 
Q 3003 894 3003 1313 
Q 3003 1734 2745 1975 
Q 2488 2216 2034 2216 
z
M 1403 2484 
Q 997 2584 770 2862 
Q 544 3141 544 3541 
Q 544 4100 942 4425 
Q 1341 4750 2034 4750 
Q 2731 4750 3128 4425 
Q 3525 4100 3525 3541 
Q 3525 3141 3298 2862 
Q 3072 2584 2669 2484 
Q 3125 2378 3379 2068 
Q 3634 1759 3634 1313 
Q 3634 634 3220 271 
Q 2806 -91 2034 -91 
Q 1263 -91 848 271 
Q 434 634 434 1313 
Q 434 1759 690 2068 
Q 947 2378 1403 2484 
z
M 1172 3481 
Q 1172 3119 1398 2916 
Q 1625 2713 2034 2713 
Q 2441 2713 2670 2916 
Q 2900 3119 2900 3481 
Q 2900 3844 2670 4047 
Q 2441 4250 2034 4250 
Q 1625 4250 1398 4047 
Q 1172 3844 1172 3481 
z
" transform="scale(0.015625)"/>
       </defs>
       <use xlink:href="#DejaVuSans-34"/>
       <use xlink:href="#DejaVuSans-38" x="63.623047"/>
       <use xlink:href="#DejaVuSans-30" x="127.246094"/>
       <use xlink:href="#DejaVuSans-30" x="190.869141"/>
      </g>
     </g>
    </g>
    <g id="xtick_4">
     <g id="line2d_7">
      <path d="M 433.695784 244.63375 
L 433.695784 31.6 
" clip-path="url(#p40b99ac055)" style="fill: none; stroke: #b0b0b0; stroke-width: 0.8; stroke-linecap: square"/>
     </g>
     <g id="line2d_8">
      <g>
       <use xlink:href="#md4a4d5f7bc" x="433.695784" y="244.63375" style="stroke: #000000; stroke-width: 0.8"/>
      </g>
     </g>
     <g id="text_4">
      <!-- 5000 -->
      <g transform="translate(420.970784 259.232188) scale(0.1 -0.1)">
       <defs>
        <path id="DejaVuSans-35" d="M 691 4666 
L 3169 4666 
L 3169 4134 
L 1269 4134 
L 1269 2991 
Q 1406 3038 1543 3061 
Q 1681 3084 1819 3084 
Q 2600 3084 3056 2656 
Q 3513 2228 3513 1497 
Q 3513 744 3044 326 
Q 2575 -91 1722 -91 
Q 1428 -91 1123 -41 
Q 819 9 494 109 
L 494 744 
Q 775 591 1075 516 
Q 1375 441 1709 441 
Q 2250 441 2565 725 
Q 2881 1009 2881 1497 
Q 2881 1984 2565 2268 
Q 2250 2553 1709 2553 
Q 1456 2553 1204 2497 
Q 953 2441 691 2322 
L 691 4666 
z
" transform="scale(0.015625)"/>
       </defs>
       <use xlink:href="#DejaVuSans-35"/>
       <use xlink:href="#DejaVuSans-30" x="63.623047"/>
       <use xlink:href="#DejaVuSans-30" x="127.246094"/>
       <use xlink:href="#DejaVuSans-30" x="190.869141"/>
      </g>
     </g>
    </g>
    <g id="xtick_5">
     <g id="line2d_9">
      <path d="M 540.512467 244.63375 
L 540.512467 31.6 
" clip-path="url(#p40b99ac055)" style="fill: none; stroke: #b0b0b0; stroke-width: 0.8; stroke-linecap: square"/>
     </g>
     <g id="line2d_10">
      <g>
       <use xlink:href="#md4a4d5f7bc" x="540.512467" y="244.63375" style="stroke: #000000; stroke-width: 0.8"/>
      </g>
     </g>
     <g id="text_5">
      <!-- 5200 -->
      <g transform="translate(527.787467 259.232188) scale(0.1 -0.1)">
       <defs>
        <path id="DejaVuSans-32" d="M 1228 531 
L 3431 531 
L 3431 0 
L 469 0 
L 469 531 
Q 828 903 1448 1529 
Q 2069 2156 2228 2338 
Q 2531 2678 2651 2914 
Q 2772 3150 2772 3378 
Q 2772 3750 2511 3984 
Q 2250 4219 1831 4219 
Q 1534 4219 1204 4116 
Q 875 4013 500 3803 
L 500 4441 
Q 881 4594 1212 4672 
Q 1544 4750 1819 4750 
Q 2544 4750 2975 4387 
Q 3406 4025 3406 3419 
Q 3406 3131 3298 2873 
Q 3191 2616 2906 2266 
Q 2828 2175 2409 1742 
Q 1991 1309 1228 531 
z
" transform="scale(0.015625)"/>
       </defs>
       <use xlink:href="#DejaVuSans-35"/>
       <use xlink:href="#DejaVuSans-32" x="63.623047"/>
       <use xlink:href="#DejaVuSans-30" x="127.246094"/>
       <use xlink:href="#DejaVuSans-30" x="190.869141"/>
      </g>
     </g>
    </g>
    <g id="xtick_6">
     <g id="line2d_11">
      <path d="M 647.32915 244.63375 
L 647.32915 31.6 
" clip-path="url(#p40b99ac055)" style="fill: none; stroke: #b0b0b0; stroke-width: 0.8; stroke-linecap: square"/>
     </g>
     <g id="line2d_12">
      <g>
       <use xlink:href="#md4a4d5f7bc" x="647.32915" y="244.63375" style="stroke: #000000; stroke-width: 0.8"/>
      </g>
     </g>
     <g id="text_6">
      <!-- 5400 -->
      <g transform="translate(634.60415 259.232188) scale(0.1 -0.1)">
       <use xlink:href="#DejaVuSans-35"/>
       <use xlink:href="#DejaVuSans-34" x="63.623047"/>
       <use xlink:href="#DejaVuSans-30" x="127.246094"/>
       <use xlink:href="#DejaVuSans-30" x="190.869141"/>
      </g>
     </g>
    </g>
    <g id="text_7">
     <!-- Wavelength (Å) -->
     <g transform="translate(339.886563 274.594688) scale(0.1 -0.1)">
      <defs>
       <path id="DejaVuSans-57" d="M 213 4666 
L 850 4666 
L 1831 722 
L 2809 4666 
L 3519 4666 
L 4500 722 
L 5478 4666 
L 6119 4666 
L 4947 0 
L 4153 0 
L 3169 4050 
L 2175 0 
L 1381 0 
L 213 4666 
z
" transform="scale(0.015625)"/>
       <path id="DejaVuSans-61" d="M 2194 1759 
Q 1497 1759 1228 1600 
Q 959 1441 959 1056 
Q 959 750 1161 570 
Q 1363 391 1709 391 
Q 2188 391 2477 730 
Q 2766 1069 2766 1631 
L 2766 1759 
L 2194 1759 
z
M 3341 1997 
L 3341 0 
L 2766 0 
L 2766 531 
Q 2569 213 2275 61 
Q 1981 -91 1556 -91 
Q 1019 -91 701 211 
Q 384 513 384 1019 
Q 384 1609 779 1909 
Q 1175 2209 1959 2209 
L 2766 2209 
L 2766 2266 
Q 2766 2663 2505 2880 
Q 2244 3097 1772 3097 
Q 1472 3097 1187 3025 
Q 903 2953 641 2809 
L 641 3341 
Q 956 3463 1253 3523 
Q 1550 3584 1831 3584 
Q 2591 3584 2966 3190 
Q 3341 2797 3341 1997 
z
" transform="scale(0.015625)"/>
       <path id="DejaVuSans-76" d="M 191 3500 
L 800 3500 
L 1894 563 
L 2988 3500 
L 3597 3500 
L 2284 0 
L 1503 0 
L 191 3500 
z
" transform="scale(0.015625)"/>
       <path id="DejaVuSans-65" d="M 3597 1894 
L 3597 1613 
L 953 1613 
Q 991 1019 1311 708 
Q 1631 397 2203 397 
Q 2534 397 2845 478 
Q 3156 559 3463 722 
L 3463 178 
Q 3153 47 2828 -22 
Q 2503 -91 2169 -91 
Q 1331 -91 842 396 
Q 353 884 353 1716 
Q 353 2575 817 3079 
Q 1281 3584 2069 3584 
Q 2775 3584 3186 3129 
Q 3597 2675 3597 1894 
z
M 3022 2063 
Q 3016 2534 2758 2815 
Q 2500 3097 2075 3097 
Q 1594 3097 1305 2825 
Q 1016 2553 972 2059 
L 3022 2063 
z
" transform="scale(0.015625)"/>
       <path id="DejaVuSans-6c" d="M 603 4863 
L 1178 4863 
L 1178 0 
L 603 0 
L 603 4863 
z
" transform="scale(0.015625)"/>
       <path id="DejaVuSans-6e" d="M 3513 2113 
L 3513 0 
L 2938 0 
L 2938 2094 
Q 2938 2591 2744 2837 
Q 2550 3084 2163 3084 
Q 1697 3084 1428 2787 
Q 1159 2491 1159 1978 
L 1159 0 
L 581 0 
L 581 3500 
L 1159 3500 
L 1159 2956 
Q 1366 3272 1645 3428 
Q 1925 3584 2291 3584 
Q 2894 3584 3203 3211 
Q 3513 2838 3513 2113 
z
" transform="scale(0.015625)"/>
       <path id="DejaVuSans-67" d="M 2906 1791 
Q 2906 2416 2648 2759 
Q 2391 3103 1925 3103 
Q 1463 3103 1205 2759 
Q 947 2416 947 1791 
Q 947 1169 1205 825 
Q 1463 481 1925 481 
Q 2391 481 2648 825 
Q 2906 1169 2906 1791 
z
M 3481 434 
Q 3481 -459 3084 -895 
Q 2688 -1331 1869 -1331 
Q 1566 -1331 1297 -1286 
Q 1028 -1241 775 -1147 
L 775 -588 
Q 1028 -725 1275 -790 
Q 1522 -856 1778 -856 
Q 2344 -856 2625 -561 
Q 2906 -266 2906 331 
L 2906 616 
Q 2728 306 2450 153 
Q 2172 0 1784 0 
Q 1141 0 747 490 
Q 353 981 353 1791 
Q 353 2603 747 3093 
Q 1141 3584 1784 3584 
Q 2172 3584 2450 3431 
Q 2728 3278 2906 2969 
L 2906 3500 
L 3481 3500 
L 3481 434 
z
" transform="scale(0.015625)"/>
       <path id="DejaVuSans-74" d="M 1172 4494 
L 1172 3500 
L 2356 3500 
L 2356 3053 
L 1172 3053 
L 1172 1153 
Q 1172 725 1289 603 
Q 1406 481 1766 481 
L 2356 481 
L 2356 0 
L 1766 0 
Q 1100 0 847 248 
Q 594 497 594 1153 
L 594 3053 
L 172 3053 
L 172 3500 
L 594 3500 
L 594 4494 
L 1172 4494 
z
" transform="scale(0.015625)"/>
       <path id="DejaVuSans-68" d="M 3513 2113 
L 3513 0 
L 2938 0 
L 2938 2094 
Q 2938 2591 2744 2837 
Q 2550 3084 2163 3084 
Q 1697 3084 1428 2787 
Q 1159 2491 1159 1978 
L 1159 0 
L 581 0 
L 581 4863 
L 1159 4863 
L 1159 2956 
Q 1366 3272 1645 3428 
Q 1925 3584 2291 3584 
Q 2894 3584 3203 3211 
Q 3513 2838 3513 2113 
z
" transform="scale(0.015625)"/>
       <path id="DejaVuSans-20" transform="scale(0.015625)"/>
       <path id="DejaVuSans-28" d="M 1984 4856 
Q 1566 4138 1362 3434 
Q 1159 2731 1159 2009 
Q 1159 1288 1364 580 
Q 1569 -128 1984 -844 
L 1484 -844 
Q 1016 -109 783 600 
Q 550 1309 550 2009 
Q 550 2706 781 3412 
Q 1013 4119 1484 4856 
L 1984 4856 
z
" transform="scale(0.015625)"/>
       <path id="DejaVuSans-c5" d="M 2663 5081 
Q 2663 5278 2523 5417 
Q 2384 5556 2188 5556 
Q 1988 5556 1852 5420 
Q 1716 5284 1716 5081 
Q 1716 4884 1853 4746 
Q 1991 4609 2188 4609 
Q 2384 4609 2523 4746 
Q 2663 4884 2663 5081 
z
M 2188 4044 
L 1338 1722 
L 3041 1722 
L 2188 4044 
z
M 1716 4366 
Q 1525 4494 1428 4673 
Q 1331 4853 1331 5081 
Q 1331 5441 1579 5691 
Q 1828 5941 2188 5941 
Q 2544 5941 2795 5689 
Q 3047 5438 3047 5081 
Q 3047 4863 2948 4678 
Q 2850 4494 2663 4366 
L 4325 0 
L 3669 0 
L 3244 1197 
L 1141 1197 
L 716 0 
L 50 0 
L 1716 4366 
z
" transform="scale(0.015625)"/>
       <path id="DejaVuSans-29" d="M 513 4856 
L 1013 4856 
Q 1481 4119 1714 3412 
Q 1947 2706 1947 2009 
Q 1947 1309 1714 600 
Q 1481 -109 1013 -844 
L 513 -844 
Q 928 -128 1133 580 
Q 1338 1288 1338 2009 
Q 1338 2731 1133 3434 
Q 928 4138 513 4856 
z
" transform="scale(0.015625)"/>
      </defs>
      <use xlink:href="#DejaVuSans-57"/>
      <use xlink:href="#DejaVuSans-61" x="92.501953"/>
      <use xlink:href="#DejaVuSans-76" x="153.78125"/>
      <use xlink:href="#DejaVuSans-65" x="212.960938"/>
      <use xlink:href="#DejaVuSans-6c" x="274.484375"/>
      <use xlink:href="#DejaVuSans-65" x="302.267578"/>
      <use xlink:href="#DejaVuSans-6e" x="363.791016"/>
      <use xlink:href="#DejaVuSans-67" x="427.169922"/>
      <use xlink:href="#DejaVuSans-74" x="490.646484"/>
      <use xlink:href="#DejaVuSans-68" x="529.855469"/>
      <use xlink:href="#DejaVuSans-20" x="593.234375"/>
      <use xlink:href="#DejaVuSans-28" x="625.021484"/>
      <use xlink:href="#DejaVuSans-c5" x="664.035156"/>
      <use xlink:href="#DejaVuSans-29" x="732.443359"/>
     </g>
    </g>
   </g>
   <g id="matplotlib.axis_2">
    <g id="ytick_1">
     <g id="line2d_13">
      <path d="M 47.72 244.63375 
L 709.2 244.63375 
" clip-path="url(#p40b99ac055)" style="fill: none; stroke: #b0b0b0; stroke-width: 0.8; stroke-linecap: square"/>
     </g>
     <g id="line2d_14">
      <defs>
       <path id="m0a65a53cb5" d="M 0 0 
L -3.5 0 
" style="stroke: #000000; stroke-width: 0.8"/>
      </defs>
      <g>
       <use xlink:href="#m0a65a53cb5" x="47.72" y="244.63375" style="stroke: #000000; stroke-width: 0.8"/>
      </g>
     </g>
     <g id="text_8">
      <!-- 0.0 -->
      <g transform="translate(24.816875 248.432969) scale(0.1 -0.1)">
       <defs>
        <path id="DejaVuSans-2e" d="M 684 794 
L 1344 794 
L 1344 0 
L 684 0 
L 684 794 
z
" transform="scale(0.015625)"/>
       </defs>
       <use xlink:href="#DejaVuSans-30"/>
       <use xlink:href="#DejaVuSans-2e" x="63.623047"/>
       <use xlink:href="#DejaVuSans-30" x="95.410156"/>
      </g>
     </g>
    </g>
    <g id="ytick_2">
     <g id="line2d_15">
      <path d="M 47.72 205.900341 
L 709.2 205.900341 
" clip-path="url(#p40b99ac055)" style="fill: none; stroke: #b0b0b0; stroke-width: 0.8; stroke-linecap: square"/>
     </g>
     <g id="line2d_16">
      <g>
       <use xlink:href="#m0a65a53cb5" x="47.72" y="205.900341" style="stroke: #000000; stroke-width: 0.8"/>
      </g>
     </g>
     <g id="text_9">
      <!-- 0.2 -->
      <g transform="translate(24.816875 209.69956) scale(0.1 -0.1)">
       <use xlink:href="#DejaVuSans-30"/>
       <use xlink:href="#DejaVuSans-2e" x="63.623047"/>
       <use xlink:href="#DejaVuSans-32" x="95.410156"/>
      </g>
     </g>
    </g>
    <g id="ytick_3">
     <g id="line2d_17">
      <path d="M 47.72 167.166932 
L 709.2 167.166932 
" clip-path="url(#p40b99ac055)" style="fill: none; stroke: #b0b0b0; stroke-width: 0.8; stroke-linecap: square"/>
     </g>
     <g id="line2d_18">
      <g>
       <use xlink:href="#m0a65a53cb5" x="47.72" y="167.166932" style="stroke: #000000; stroke-width: 0.8"/>
      </g>
     </g>
     <g id="text_10">
      <!-- 0.4 -->
      <g transform="translate(24.816875 170.966151) scale(0.1 -0.1)">
       <use xlink:href="#DejaVuSans-30"/>
       <use xlink:href="#DejaVuSans-2e" x="63.623047"/>
       <use xlink:href="#DejaVuSans-34" x="95.410156"/>
      </g>
     </g>
    </g>
    <g id="ytick_4">
     <g id="line2d_19">
      <path d="M 47.72 128.433523 
L 709.2 128.433523 
" clip-path="url(#p40b99ac055)" style="fill: none; stroke: #b0b0b0; stroke-width: 0.8; stroke-linecap: square"/>
     </g>
     <g id="line2d_20">
      <g>
       <use xlink:href="#m0a65a53cb5" x="47.72" y="128.433523" style="stroke: #000000; stroke-width: 0.8"/>
      </g>
     </g>
     <g id="text_11">
      <!-- 0.6 -->
      <g transform="translate(24.816875 132.232741) scale(0.1 -0.1)">
       <use xlink:href="#DejaVuSans-30"/>
       <use xlink:href="#DejaVuSans-2e" x="63.623047"/>
       <use xlink:href="#DejaVuSans-36" x="95.410156"/>
      </g>
     </g>
    </g>
    <g id="ytick_5">
     <g id="line2d_21">
      <path d="M 47.72 89.700114 
L 709.2 89.700114 
" clip-path="url(#p40b99ac055)" style="fill: none; stroke: #b0b0b0; stroke-width: 0.8; stroke-linecap: square"/>
     </g>
     <g id="line2d_22">
      <g>
       <use xlink:href="#m0a65a53cb5" x="47.72" y="89.700114" style="stroke: #000000; stroke-width: 0.8"/>
      </g>
     </g>
     <g id="text_12">
      <!-- 0.8 -->
      <g transform="translate(24.816875 93.499332) scale(0.1 -0.1)">
       <use xlink:href="#DejaVuSans-30"/>
       <use xlink:href="#DejaVuSans-2e" x="63.623047"/>
       <use xlink:href="#DejaVuSans-38" x="95.410156"/>
      </g>
     </g>
    </g>
    <g id="ytick_6">
     <g id="line2d_23">
      <path d="M 47.72 50.966705 
L 709.2 50.966705 
" clip-path="url(#p40b99ac055)" style="fill: none; stroke: #b0b0b0; stroke-width: 0.8; stroke-linecap: square"/>
     </g>
     <g id="line2d_24">
      <g>
       <use xlink:href="#m0a65a53cb5" x="47.72" y="50.966705" style="stroke: #000000; stroke-width: 0.8"/>
      </g>
     </g>
     <g id="text_13">
      <!-- 1.0 -->
      <g transform="translate(24.816875 54.765923) scale(0.1 -0.1)">
       <defs>
        <path id="DejaVuSans-31" d="M 794 531 
L 1825 531 
L 1825 4091 
L 703 3866 
L 703 4441 
L 1819 4666 
L 2450 4666 
L 2450 531 
L 3481 531 
L 3481 0 
L 794 0 
L 794 531 
z
" transform="scale(0.015625)"/>
       </defs>
       <use xlink:href="#DejaVuSans-31"/>
       <use xlink:href="#DejaVuSans-2e" x="63.623047"/>
       <use xlink:href="#DejaVuSans-30" x="95.410156"/>
      </g>
     </g>
    </g>
    <g id="text_14">
     <!-- Intensity (normalized) -->
     <g transform="translate(18.737187 193.153594) rotate(-90) scale(0.1 -0.1)">
      <defs>
       <path id="DejaVuSans-49" d="M 628 4666 
L 1259 4666 
L 1259 0 
L 628 0 
L 628 4666 
z
" transform="scale(0.015625)"/>
       <path id="DejaVuSans-73" d="M 2834 3397 
L 2834 2853 
Q 2591 2978 2328 3040 
Q 2066 3103 1784 3103 
Q 1356 3103 1142 2972 
Q 928 2841 928 2578 
Q 928 2378 1081 2264 
Q 1234 2150 1697 2047 
L 1894 2003 
Q 2506 1872 2764 1633 
Q 3022 1394 3022 966 
Q 3022 478 2636 193 
Q 2250 -91 1575 -91 
Q 1294 -91 989 -36 
Q 684 19 347 128 
L 347 722 
Q 666 556 975 473 
Q 1284 391 1588 391 
Q 1994 391 2212 530 
Q 2431 669 2431 922 
Q 2431 1156 2273 1281 
Q 2116 1406 1581 1522 
L 1381 1569 
Q 847 1681 609 1914 
Q 372 2147 372 2553 
Q 372 3047 722 3315 
Q 1072 3584 1716 3584 
Q 2034 3584 2315 3537 
Q 2597 3491 2834 3397 
z
" transform="scale(0.015625)"/>
       <path id="DejaVuSans-69" d="M 603 3500 
L 1178 3500 
L 1178 0 
L 603 0 
L 603 3500 
z
M 603 4863 
L 1178 4863 
L 1178 4134 
L 603 4134 
L 603 4863 
z
" transform="scale(0.015625)"/>
       <path id="DejaVuSans-79" d="M 2059 -325 
Q 1816 -950 1584 -1140 
Q 1353 -1331 966 -1331 
L 506 -1331 
L 506 -850 
L 844 -850 
Q 1081 -850 1212 -737 
Q 1344 -625 1503 -206 
L 1606 56 
L 191 3500 
L 800 3500 
L 1894 763 
L 2988 3500 
L 3597 3500 
L 2059 -325 
z
" transform="scale(0.015625)"/>
       <path id="DejaVuSans-6f" d="M 1959 3097 
Q 1497 3097 1228 2736 
Q 959 2375 959 1747 
Q 959 1119 1226 758 
Q 1494 397 1959 397 
Q 2419 397 2687 759 
Q 2956 1122 2956 1747 
Q 2956 2369 2687 2733 
Q 2419 3097 1959 3097 
z
M 1959 3584 
Q 2709 3584 3137 3096 
Q 3566 2609 3566 1747 
Q 3566 888 3137 398 
Q 2709 -91 1959 -91 
Q 1206 -91 779 398 
Q 353 888 353 1747 
Q 353 2609 779 3096 
Q 1206 3584 1959 3584 
z
" transform="scale(0.015625)"/>
       <path id="DejaVuSans-72" d="M 2631 2963 
Q 2534 3019 2420 3045 
Q 2306 3072 2169 3072 
Q 1681 3072 1420 2755 
Q 1159 2438 1159 1844 
L 1159 0 
L 581 0 
L 581 3500 
L 1159 3500 
L 1159 2956 
Q 1341 3275 1631 3429 
Q 1922 3584 2338 3584 
Q 2397 3584 2469 3576 
Q 2541 3569 2628 3553 
L 2631 2963 
z
" transform="scale(0.015625)"/>
       <path id="DejaVuSans-6d" d="M 3328 2828 
Q 3544 3216 3844 3400 
Q 4144 3584 4550 3584 
Q 5097 3584 5394 3201 
Q 5691 2819 5691 2113 
L 5691 0 
L 5113 0 
L 5113 2094 
Q 5113 2597 4934 2840 
Q 4756 3084 4391 3084 
Q 3944 3084 3684 2787 
Q 3425 2491 3425 1978 
L 3425 0 
L 2847 0 
L 2847 2094 
Q 2847 2600 2669 2842 
Q 2491 3084 2119 3084 
Q 1678 3084 1418 2786 
Q 1159 2488 1159 1978 
L 1159 0 
L 581 0 
L 581 3500 
L 1159 3500 
L 1159 2956 
Q 1356 3278 1631 3431 
Q 1906 3584 2284 3584 
Q 2666 3584 2933 3390 
Q 3200 3197 3328 2828 
z
" transform="scale(0.015625)"/>
       <path id="DejaVuSans-7a" d="M 353 3500 
L 3084 3500 
L 3084 2975 
L 922 459 
L 3084 459 
L 3084 0 
L 275 0 
L 275 525 
L 2438 3041 
L 353 3041 
L 353 3500 
z
" transform="scale(0.015625)"/>
       <path id="DejaVuSans-64" d="M 2906 2969 
L 2906 4863 
L 3481 4863 
L 3481 0 
L 2906 0 
L 2906 525 
Q 2725 213 2448 61 
Q 2172 -91 1784 -91 
Q 1150 -91 751 415 
Q 353 922 353 1747 
Q 353 2572 751 3078 
Q 1150 3584 1784 3584 
Q 2172 3584 2448 3432 
Q 2725 3281 2906 2969 
z
M 947 1747 
Q 947 1113 1208 752 
Q 1469 391 1925 391 
Q 2381 391 2643 752 
Q 2906 1113 2906 1747 
Q 2906 2381 2643 2742 
Q 2381 3103 1925 3103 
Q 1469 3103 1208 2742 
Q 947 2381 947 1747 
z
" transform="scale(0.015625)"/>
      </defs>
      <use xlink:href="#DejaVuSans-49"/>
      <use xlink:href="#DejaVuSans-6e" x="29.492188"/>
      <use xlink:href="#DejaVuSans-74" x="92.871094"/>
      <use xlink:href="#DejaVuSans-65" x="132.080078"/>
      <use xlink:href="#DejaVuSans-6e" x="193.603516"/>
      <use xlink:href="#DejaVuSans-73" x="256.982422"/>
      <use xlink:href="#DejaVuSans-69" x="309.082031"/>
      <use xlink:href="#DejaVuSans-74" x="336.865234"/>
      <use xlink:href="#DejaVuSans-79" x="376.074219"/>
      <use xlink:href="#DejaVuSans-20" x="435.253906"/>
      <use xlink:href="#DejaVuSans-28" x="467.041016"/>
      <use xlink:href="#DejaVuSans-6e" x="506.054688"/>
      <use xlink:href="#DejaVuSans-6f" x="569.433594"/>
      <use xlink:href="#DejaVuSans-72" x="630.615234"/>
      <use xlink:href="#DejaVuSans-6d" x="669.978516"/>
      <use xlink:href="#DejaVuSans-61" x="767.390625"/>
      <use xlink:href="#DejaVuSans-6c" x="828.669922"/>
      <use xlink:href="#DejaVuSans-69" x="856.453125"/>
      <use xlink:href="#DejaVuSans-7a" x="884.236328"/>
      <use xlink:href="#DejaVuSans-65" x="936.726562"/>
      <use xlink:href="#DejaVuSans-64" x="998.25"/>
      <use xlink:href="#DejaVuSans-29" x="1061.726562"/>
     </g>
    </g>
   </g>
   <g id="line2d_25">
    <path d="M 47.72 156.818754 
L 48.256289 132.418691 
L 48.52462 126.713256 
L 48.793076 125.879889 
L 49.061656 124.609868 
L 49.330362 124.867705 
L 49.599192 128.817029 
L 49.868148 139.490185 
L 50.945228 211.003748 
L 51.484524 214.802696 
L 51.754362 219.211922 
L 52.294418 224.785692 
L 52.564637 227.964488 
L 52.834983 233.454225 
L 53.105456 236.64414 
L 53.376057 237.909879 
L 53.646786 238.322047 
L 53.917643 237.878379 
L 54.188628 238.64652 
L 54.459741 238.55716 
L 54.730983 238.219432 
L 55.002353 238.556378 
L 55.545481 237.404374 
L 55.817239 238.506554 
L 56.089126 237.771289 
L 56.361143 239.776099 
L 56.905566 239.470262 
L 57.177972 239.769804 
L 57.450509 239.531574 
L 57.723176 238.980854 
L 57.995974 239.268073 
L 58.541963 235.969662 
L 58.815154 233.982925 
L 59.088477 229.812205 
L 60.183085 198.041805 
L 60.457067 197.188835 
L 61.005429 198.366517 
L 61.554322 203.13377 
L 61.828968 208.973037 
L 62.653708 235.611958 
L 62.928888 236.39518 
L 63.204203 234.593727 
L 63.755236 228.519708 
L 64.582795 215.876456 
L 65.135176 209.189825 
L 65.41157 208.134078 
L 65.6881 208.354622 
L 65.964765 202.238994 
L 66.241567 200.159105 
L 66.795578 189.030696 
L 67.072789 187.664205 
L 67.350136 187.888374 
L 67.627621 187.022404 
L 67.905242 187.150294 
L 68.183001 187.634559 
L 68.738931 200.181828 
L 69.573861 223.914109 
L 70.410035 232.742334 
L 70.689038 235.156391 
L 72.36598 243.008877 
L 72.92608 244.63375 
L 73.206341 244.544294 
L 73.486742 243.04554 
L 73.767285 242.453496 
L 74.047968 241.596308 
L 74.328793 237.66873 
L 74.609759 235.42138 
L 75.172116 227.016238 
L 75.735041 215.467079 
L 76.298535 196.891743 
L 77.144846 180.797273 
L 77.427236 176.175625 
L 77.992447 172.322318 
L 78.275267 174.444595 
L 79.124594 185.342362 
L 79.407991 186.080337 
L 79.97522 194.382805 
L 80.259052 201.432565 
L 81.965099 221.061557 
L 82.249951 221.546459 
L 82.534949 220.71992 
L 82.820094 218.297256 
L 83.67641 206.454118 
L 83.962144 203.287291 
L 84.248024 197.706349 
L 85.393026 146.095261 
L 85.679646 140.19955 
L 85.966416 141.052428 
L 86.540401 146.616704 
L 86.827618 149.049607 
L 87.114983 156.337195 
L 88.265942 214.059415 
L 88.554057 215.688247 
L 88.842322 216.611939 
L 90.57508 232.965381 
L 90.864403 234.287631 
L 91.153877 233.589164 
L 91.733282 234.614327 
L 92.313297 231.512631 
L 92.603533 231.347323 
L 92.893922 230.333408 
L 93.184464 231.932771 
L 93.475159 232.709403 
L 94.05701 230.349201 
L 94.639477 224.680166 
L 94.930941 221.245623 
L 95.222559 215.758231 
L 95.80626 209.309737 
L 96.098342 203.113709 
L 96.975521 174.475725 
L 97.268224 165.546976 
L 97.854099 159.254834 
L 98.14727 157.752949 
L 98.440598 155.432686 
L 99.027723 148.305482 
L 99.615475 158.724009 
L 100.203856 170.296462 
L 100.498283 169.070961 
L 100.792867 169.081021 
L 101.087609 166.881885 
L 101.38251 167.744068 
L 101.677568 168.197886 
L 101.972785 169.529179 
L 102.268161 169.440316 
L 102.563695 172.241173 
L 102.859388 173.156966 
L 103.155241 175.385043 
L 104.043755 192.784803 
L 104.636897 206.039986 
L 105.230679 214.179354 
L 105.825104 220.71593 
L 106.122558 222.893426 
L 106.420173 223.406054 
L 106.717949 228.0935 
L 107.015886 229.213208 
L 107.612247 228.784646 
L 107.91067 227.880943 
L 108.209255 225.196361 
L 108.508003 223.774904 
L 108.806913 223.111431 
L 109.105986 223.309426 
L 109.405222 222.7376 
L 109.704621 223.216257 
L 110.004183 225.210418 
L 110.603798 232.846745 
L 110.903851 235.1316 
L 111.204068 236.499656 
L 111.504449 236.846032 
L 111.804994 234.396763 
L 112.105704 229.376762 
L 113.310193 192.360975 
L 113.611728 186.528363 
L 114.215296 180.1682 
L 114.517328 180.695467 
L 114.819527 183.904283 
L 115.121892 190.190608 
L 116.029986 217.997143 
L 116.333018 220.429151 
L 116.636218 219.561277 
L 117.54682 208.420719 
L 118.154728 206.770766 
L 119.067852 208.276263 
L 119.372564 212.561072 
L 119.982495 225.526493 
L 120.287715 228.945033 
L 120.593104 229.611766 
L 120.898663 229.305571 
L 121.204391 229.186995 
L 121.51029 230.50098 
L 121.816359 231.245863 
L 122.122598 232.305813 
L 122.735589 235.437698 
L 123.042341 235.826672 
L 123.349264 235.55396 
L 123.656358 233.852122 
L 123.963624 232.985415 
L 124.271061 230.964328 
L 124.57867 229.726147 
L 124.886452 226.816661 
L 125.194405 220.128275 
L 126.736762 165.982267 
L 127.045752 164.530133 
L 127.354916 164.014963 
L 127.973766 157.127347 
L 128.283451 157.883968 
L 128.593311 162.45937 
L 129.523937 184.20023 
L 129.834495 184.551104 
L 130.145228 182.404179 
L 130.456136 184.814028 
L 131.07848 199.090562 
L 131.701527 216.198057 
L 132.013314 219.80118 
L 132.949735 225.278589 
L 133.262229 224.325755 
L 133.5749 222.35084 
L 133.887748 221.654521 
L 134.200774 219.833162 
L 134.513977 219.372288 
L 134.827358 220.189824 
L 135.140917 220.220108 
L 135.454654 220.758331 
L 135.768569 220.595065 
L 136.082663 224.297732 
L 136.396935 224.470772 
L 137.026017 224.347513 
L 137.340826 221.62994 
L 137.970983 218.604705 
L 138.286331 215.10489 
L 138.60186 214.317807 
L 138.917568 216.225434 
L 139.233456 216.276159 
L 139.549525 218.153624 
L 139.865774 218.722017 
L 140.498816 218.261935 
L 140.815608 220.103541 
L 141.449738 225.541256 
L 141.767075 226.898575 
L 142.402294 223.770495 
L 142.720178 222.822378 
L 143.356492 219.924838 
L 144.312334 210.956639 
L 144.631314 206.269678 
L 145.269826 202.171421 
L 145.909072 207.722374 
L 146.869325 214.28064 
L 147.510417 223.804465 
L 147.83124 229.067505 
L 148.473443 235.412939 
L 148.794823 235.851014 
L 149.116388 235.091106 
L 149.43814 235.312744 
L 149.760078 235.090865 
L 150.082202 234.147379 
L 150.404513 233.591363 
L 150.72701 232.333654 
L 151.695624 214.70683 
L 152.01887 208.764055 
L 152.665926 202.472465 
L 153.313733 201.217383 
L 153.637919 199.205041 
L 153.962293 199.731359 
L 154.286856 203.730119 
L 154.611608 205.738892 
L 154.936549 202.766661 
L 156.238207 170.821833 
L 156.564096 167.227864 
L 156.890175 167.178404 
L 157.216445 168.605854 
L 157.542905 168.120619 
L 157.869555 171.854268 
L 159.178067 204.399118 
L 159.505674 205.969601 
L 159.833472 206.085739 
L 160.489644 200.810159 
L 160.818019 191.236615 
L 161.804298 146.887619 
L 162.133443 136.111878 
L 162.462781 131.422793 
L 162.792313 129.219219 
L 163.122039 130.758793 
L 163.782071 136.926901 
L 164.112378 147.174954 
L 164.773574 179.765749 
L 165.104465 195.006864 
L 165.43555 204.090413 
L 165.76683 206.656026 
L 166.098305 207.194137 
L 166.761841 209.77672 
L 167.093903 212.011707 
L 168.424109 226.859367 
L 168.757152 226.614745 
L 169.090391 226.852204 
L 169.757461 225.257462 
L 171.428591 198.529488 
L 171.763411 194.650307 
L 172.433645 190.624992 
L 173.104675 183.454043 
L 173.440488 186.560264 
L 173.776501 190.709208 
L 174.449125 202.323333 
L 174.785736 206.284569 
L 175.122547 208.823928 
L 175.459559 210.116095 
L 175.796771 212.808181 
L 176.134183 212.827539 
L 176.471796 215.322569 
L 176.80961 214.750591 
L 177.147625 215.005364 
L 177.485841 213.678601 
L 177.824259 213.617644 
L 178.501699 217.205928 
L 179.519374 229.21466 
L 179.859004 235.649059 
L 180.198836 238.565727 
L 180.538871 238.555606 
L 180.879109 238.267649 
L 181.560196 235.371225 
L 181.901044 232.461779 
L 182.242096 230.618736 
L 182.583352 227.953626 
L 182.924812 227.585928 
L 183.266476 223.730474 
L 183.608345 222.045939 
L 183.950419 219.333982 
L 184.292697 218.978598 
L 184.977868 219.530469 
L 185.320762 219.446656 
L 185.663861 220.021358 
L 186.007166 219.509493 
L 186.350677 219.368768 
L 186.694394 218.505178 
L 187.382446 216.314274 
L 187.726782 214.196059 
L 188.071325 201.744007 
L 189.451568 114.87169 
L 189.797147 103.357074 
L 190.142934 99.582648 
L 190.48893 98.159137 
L 190.835133 99.281638 
L 191.181545 100.88087 
L 191.528165 110.211764 
L 192.222033 156.420242 
L 192.916736 207.438292 
L 193.264402 220.530455 
L 193.612278 224.227923 
L 193.960363 224.562699 
L 194.308658 225.091351 
L 195.00588 220.991107 
L 195.354806 219.83068 
L 195.703943 219.768005 
L 196.053291 220.877125 
L 196.752621 221.690953 
L 197.102602 221.586093 
L 197.452796 221.759082 
L 197.803201 223.135493 
L 198.153818 223.874054 
L 198.504647 223.030049 
L 198.855689 221.826367 
L 199.55841 217.450243 
L 199.910089 215.919019 
L 200.261982 214.925888 
L 200.614088 213.588873 
L 201.31894 215.456949 
L 201.671687 216.023363 
L 202.024647 215.627023 
L 202.377822 216.691648 
L 202.731211 215.083936 
L 203.084814 214.635788 
L 203.438632 215.221068 
L 203.792665 215.308847 
L 204.856055 219.171019 
L 205.210949 221.335398 
L 205.566058 222.546253 
L 205.921384 224.643977 
L 206.276926 221.468207 
L 206.988658 198.409485 
L 207.701257 173.596567 
L 208.057882 165.832576 
L 208.414724 161.860053 
L 208.771783 160.491665 
L 209.12906 160.441651 
L 209.486554 162.437264 
L 209.844267 169.266673 
L 210.202197 180.718512 
L 210.918713 209.821984 
L 211.277299 217.610364 
L 211.636103 216.495005 
L 211.995127 203.011295 
L 213.073512 150.465165 
L 213.793534 130.272229 
L 214.153875 124.424017 
L 214.875217 123.004187 
L 215.236219 122.71873 
L 215.597442 127.911486 
L 215.958886 136.658294 
L 216.320551 149.001868 
L 217.044544 163.741327 
L 218.132197 171.580143 
L 218.495192 176.618769 
L 219.949398 208.913027 
L 220.677838 216.200988 
L 221.042393 219.644327 
L 221.407172 220.027458 
L 221.772175 219.703674 
L 222.137402 212.631268 
L 223.9669 101.713397 
L 224.333475 92.103822 
L 224.700274 87.234202 
L 225.067299 87.458306 
L 225.434549 88.569855 
L 225.802025 94.198754 
L 226.169727 108.060833 
L 226.537655 130.661405 
L 227.274191 186.624073 
L 227.642798 208.189864 
L 228.011633 216.478195 
L 228.749983 221.725686 
L 229.489242 225.416312 
L 230.229412 228.330197 
L 230.599839 227.852732 
L 230.970495 227.603619 
L 231.341379 228.360027 
L 231.712491 228.018983 
L 232.083833 230.008688 
L 232.455403 229.528719 
L 233.199231 228.03539 
L 233.571489 227.164349 
L 233.943977 226.799694 
L 234.316695 224.748525 
L 234.689643 224.935739 
L 235.062821 224.631341 
L 235.43623 222.878359 
L 235.809869 223.225914 
L 236.183738 223.270585 
L 236.557839 225.153799 
L 236.932171 225.452318 
L 237.306734 225.152683 
L 237.681529 224.403993 
L 238.807304 216.714522 
L 239.183026 216.703078 
L 239.558981 214.932849 
L 239.935169 214.673956 
L 240.311589 214.757242 
L 240.688242 215.240325 
L 241.065128 216.424045 
L 242.197186 227.465946 
L 242.575007 227.916621 
L 242.953061 230.924016 
L 243.709872 227.980374 
L 244.08863 227.91534 
L 244.467622 226.540184 
L 245.606008 220.132897 
L 245.98594 219.08597 
L 246.746512 218.451509 
L 247.127152 219.033114 
L 247.508029 217.705947 
L 247.889141 214.897447 
L 248.652075 179.344567 
L 249.415957 145.650431 
L 249.798254 132.458586 
L 250.180788 125.852632 
L 250.56356 122.365302 
L 251.329816 121.729212 
L 251.713302 124.15665 
L 252.097026 136.53233 
L 253.249628 188.63911 
L 253.634307 196.597888 
L 254.019225 197.774094 
L 254.789779 191.316177 
L 255.561291 187.094215 
L 256.333765 183.514711 
L 257.107199 169.894765 
L 257.881597 156.56023 
L 258.65696 148.793718 
L 259.045004 149.178572 
L 259.433289 152.031521 
L 259.821816 152.662432 
L 260.210585 158.163573 
L 260.599596 167.369797 
L 261.768085 203.727303 
L 262.158067 212.902438 
L 262.548292 217.103939 
L 262.938761 218.844874 
L 263.329473 217.919487 
L 264.503071 208.570155 
L 264.894759 205.907085 
L 265.286691 204.628415 
L 265.678867 201.203597 
L 266.856866 194.1784 
L 267.250023 194.117642 
L 267.643425 194.500485 
L 268.037072 192.951264 
L 268.430966 190.048941 
L 268.825105 186.181469 
L 269.219491 185.199484 
L 269.614123 183.033342 
L 270.009001 184.132067 
L 271.987097 198.737882 
L 272.383459 200.59976 
L 272.780068 194.653909 
L 274.368986 143.639928 
L 274.766836 135.745658 
L 275.164936 132.014427 
L 275.563285 131.143866 
L 275.961882 133.677718 
L 276.360729 138.239076 
L 276.759826 150.021971 
L 278.358712 209.055293 
L 278.75906 213.51464 
L 279.159658 214.159937 
L 279.560506 216.160824 
L 279.961606 216.60528 
L 280.764559 218.614557 
L 281.166413 218.492425 
L 281.568518 219.455267 
L 281.970876 219.089825 
L 282.373485 216.681972 
L 282.776347 211.541827 
L 283.179461 198.307467 
L 285.198825 115.223427 
L 286.008344 89.695297 
L 286.413484 82.204784 
L 286.818878 77.220832 
L 287.224526 78.372964 
L 287.630429 83.124489 
L 288.849665 108.841627 
L 290.071198 149.125288 
L 290.478886 156.932042 
L 290.886831 159.662291 
L 291.295031 158.314527 
L 291.703488 158.048106 
L 292.112201 157.539326 
L 292.52117 159.05385 
L 292.930396 159.137104 
L 293.33988 158.649023 
L 293.74962 161.969346 
L 294.159617 167.465203 
L 294.980385 185.756507 
L 295.802184 197.469276 
L 297.036818 208.93465 
L 297.44888 211.478535 
L 297.861201 210.500036 
L 298.273781 208.795393 
L 298.686621 207.60716 
L 299.926696 201.971575 
L 300.340574 202.313183 
L 300.754712 202.972429 
L 301.16911 205.78299 
L 301.583769 210.382409 
L 301.998689 212.085537 
L 302.413869 214.630784 
L 302.829311 214.842344 
L 303.245013 214.776746 
L 303.660977 213.06879 
L 304.077203 211.835083 
L 304.49369 208.74204 
L 304.91044 200.878255 
L 305.327451 177.245512 
L 306.58006 89.008975 
L 307.416446 61.045161 
L 307.835034 54.679662 
L 308.253885 52.705242 
L 308.672999 53.253488 
L 309.092378 57.166633 
L 309.51202 71.722098 
L 309.931926 94.865322 
L 310.772532 162.060512 
L 311.193232 191.370513 
L 311.614196 204.628261 
L 312.035425 208.085967 
L 312.45692 203.717293 
L 314.145553 165.827197 
L 314.568376 160.335086 
L 314.991465 157.154346 
L 315.414821 157.696957 
L 315.838443 159.230939 
L 316.262332 162.787045 
L 316.686487 169.143346 
L 317.960558 200.442493 
L 318.385784 204.702165 
L 318.811277 203.139244 
L 319.237038 198.133584 
L 320.089365 191.473762 
L 320.515931 190.936228 
L 320.942766 189.622228 
L 321.36987 191.002087 
L 321.797243 193.405198 
L 322.224886 196.552181 
L 322.652797 201.045922 
L 323.50943 214.879696 
L 324.367142 223.755722 
L 324.796404 226.509064 
L 325.225936 226.283874 
L 326.085812 226.739049 
L 326.516157 225.137497 
L 326.946773 221.437607 
L 327.377661 207.037307 
L 327.80882 188.473322 
L 328.671953 143.23677 
L 329.536175 108.345716 
L 330.401487 90.613292 
L 330.834552 87.235914 
L 331.26789 87.958591 
L 331.701502 93.680266 
L 332.135387 104.12067 
L 334.308917 181.476592 
L 334.744446 188.566279 
L 335.18025 191.063184 
L 335.616328 192.111326 
L 336.052681 190.540842 
L 336.489309 185.328314 
L 338.238578 149.268205 
L 338.676585 141.648957 
L 339.553428 137.038073 
L 339.992265 139.020223 
L 340.431378 142.027752 
L 340.870768 147.161915 
L 341.310435 150.778213 
L 342.190601 153.390241 
L 342.631101 153.397186 
L 343.071878 153.527971 
L 343.512934 156.62731 
L 343.954268 158.834077 
L 344.39588 161.857548 
L 344.83777 166.650537 
L 346.165116 190.072549 
L 346.608123 189.844494 
L 347.494975 181.269139 
L 347.938821 173.670358 
L 348.827352 164.279745 
L 349.272039 160.976883 
L 350.607782 144.42227 
L 351.053591 140.740819 
L 351.499682 139.409484 
L 351.946054 138.575065 
L 352.392708 138.666137 
L 352.839644 139.517848 
L 353.286862 140.991803 
L 353.734361 145.407567 
L 354.182144 154.093171 
L 355.078556 184.030236 
L 355.976099 211.467723 
L 356.425296 219.160421 
L 356.874776 221.192196 
L 357.324539 221.130006 
L 357.774586 217.910662 
L 358.224918 212.543451 
L 358.675533 205.717988 
L 359.577617 181.438149 
L 360.029086 165.985863 
L 361.385202 145.342596 
L 361.837811 143.513483 
L 362.290706 144.674161 
L 362.743886 146.981151 
L 363.651105 153.879957 
L 364.105144 157.613305 
L 364.55947 162.841682 
L 365.014081 164.220407 
L 365.46898 164.872207 
L 365.924166 160.743498 
L 366.379639 150.149573 
L 366.835399 132.352791 
L 367.747782 83.67352 
L 368.204406 69.329348 
L 368.661317 59.46818 
L 369.118517 54.654625 
L 369.576005 51.378034 
L 370.033781 50.966705 
L 370.491847 53.998016 
L 370.950201 62.273277 
L 371.408845 79.279187 
L 372.786512 156.69057 
L 373.246314 172.743012 
L 373.706406 178.790469 
L 374.166788 179.306595 
L 374.627461 174.387019 
L 375.549678 150.199364 
L 376.011223 138.136117 
L 376.473059 133.2406 
L 376.935186 131.729585 
L 377.397604 131.738062 
L 377.860315 132.33843 
L 378.323317 135.159806 
L 378.786611 137.235368 
L 379.250197 143.151249 
L 379.714076 154.783838 
L 380.642711 185.069159 
L 381.107468 195.463924 
L 381.572518 201.375542 
L 382.037861 203.855274 
L 382.503498 205.275738 
L 383.435652 205.887546 
L 383.90217 207.568408 
L 384.368982 207.697731 
L 384.836089 207.408328 
L 385.30349 209.338263 
L 385.771186 210.290078 
L 386.239176 211.696063 
L 387.176043 212.99987 
L 388.114091 214.948054 
L 389.053322 208.207487 
L 389.523381 201.20981 
L 389.993737 197.608222 
L 390.46439 195.598888 
L 390.935339 191.716835 
L 391.406585 189.863275 
L 392.349968 188.020607 
L 392.822106 188.801457 
L 393.294541 192.636721 
L 393.767273 198.616108 
L 394.713633 206.514244 
L 395.18726 206.57437 
L 395.661186 205.42093 
L 396.609933 199.585078 
L 397.084755 199.883803 
L 397.559876 199.4596 
L 398.035296 198.171653 
L 398.987036 187.314058 
L 399.463356 178.783403 
L 399.939975 174.001796 
L 400.416895 171.453029 
L 401.849458 160.958168 
L 402.806005 152.450209 
L 403.28473 151.496948 
L 403.763756 153.596212 
L 405.682881 171.003794 
L 406.163418 177.267658 
L 406.644257 185.216713 
L 407.606845 207.373176 
L 408.570644 219.547456 
L 409.052999 221.776053 
L 409.535657 222.724504 
L 410.501886 221.768033 
L 411.469331 218.079025 
L 411.953511 212.820623 
L 412.437995 200.905215 
L 413.407878 168.263177 
L 413.893277 156.005148 
L 414.378982 148.832557 
L 414.864993 143.719027 
L 415.351309 140.691988 
L 415.837931 140.07906 
L 416.324859 141.045112 
L 416.812094 145.84699 
L 417.299635 157.136471 
L 418.275638 192.546165 
L 418.764099 204.980519 
L 419.252868 213.093838 
L 419.741945 217.43713 
L 421.21102 220.9129 
L 421.701328 220.550281 
L 422.191944 219.19237 
L 422.682868 216.516978 
L 423.174101 211.994645 
L 423.665644 205.991817 
L 424.157495 202.224361 
L 424.649655 196.191425 
L 425.142124 193.242764 
L 425.634904 191.392874 
L 426.127993 190.150073 
L 426.621391 190.824448 
L 427.1151 191.883727 
L 427.609119 194.359912 
L 428.598089 202.459109 
L 429.09304 207.40259 
L 430.083876 214.327811 
L 430.57976 216.330717 
L 431.075956 217.833341 
L 431.572464 217.026873 
L 432.069284 212.182751 
L 432.566415 203.29863 
L 433.063859 191.674009 
L 434.059685 176.248773 
L 434.558066 172.456074 
L 435.555769 167.537879 
L 436.05509 164.255674 
L 436.554725 163.267188 
L 437.054673 167.509102 
L 438.556401 188.613772 
L 439.057606 193.779001 
L 439.559126 193.12328 
L 440.06096 187.648334 
L 441.065573 167.947905 
L 441.568352 161.236489 
L 443.582626 144.580235 
L 444.086985 143.993388 
L 444.591659 145.333702 
L 445.096651 153.684202 
L 446.107584 177.484128 
L 446.613526 182.295061 
L 447.119785 182.404884 
L 447.626362 180.56207 
L 448.133256 178.041413 
L 449.147998 176.925931 
L 449.655847 176.965911 
L 450.164013 177.64295 
L 450.672498 177.991012 
L 451.690425 190.355334 
L 452.199866 193.787583 
L 452.709627 193.425722 
L 453.219708 190.437561 
L 454.240827 180.427308 
L 454.751867 171.14383 
L 456.286907 134.517513 
L 456.799228 129.03328 
L 457.31187 128.828882 
L 458.851722 122.838749 
L 459.365649 122.262778 
L 459.879898 128.096639 
L 461.424577 157.120025 
L 461.940114 164.46635 
L 462.972157 174.534279 
L 463.488663 177.353411 
L 464.005492 177.053757 
L 464.522644 171.686281 
L 465.04012 164.66807 
L 466.076043 138.326998 
L 466.594491 125.937642 
L 467.632359 97.000864 
L 468.15178 86.807442 
L 468.671525 81.12139 
L 469.191596 78.911051 
L 470.232712 87.253842 
L 471.275131 109.94182 
L 471.796829 126.5402 
L 472.318853 149.06111 
L 472.841203 176.632486 
L 473.36388 198.189268 
L 473.886883 213.254888 
L 474.410213 221.357239 
L 474.933869 224.817831 
L 475.457853 224.058661 
L 476.506803 223.532902 
L 477.031769 222.403373 
L 478.082685 220.821053 
L 478.608636 218.898078 
L 479.134914 215.984586 
L 479.661521 211.26815 
L 480.188457 207.924941 
L 481.771239 201.330404 
L 483.356985 189.349737 
L 483.886227 186.692355 
L 484.415799 185.931954 
L 486.006498 178.618807 
L 486.537392 177.341633 
L 487.600174 181.784056 
L 488.132062 187.224007 
L 488.664282 190.530561 
L 490.262932 208.552155 
L 490.796479 210.118953 
L 491.330359 210.186128 
L 491.864572 204.842874 
L 493.469208 170.936285 
L 494.004753 165.963633 
L 494.540632 162.246409 
L 495.076845 160.926632 
L 495.613391 160.783623 
L 496.150271 161.694303 
L 496.687486 164.944585 
L 497.225035 172.1695 
L 497.762919 182.8876 
L 498.301138 190.235464 
L 498.839691 194.608922 
L 499.37858 196.782641 
L 499.917804 195.754492 
L 500.997259 192.717689 
L 501.53749 193.147659 
L 502.61896 191.298119 
L 503.701777 195.612535 
L 504.24369 196.628678 
L 504.78594 198.550706 
L 505.328527 198.050534 
L 505.871452 194.922981 
L 506.414714 189.629275 
L 508.046527 166.889438 
L 508.59114 159.765853 
L 509.681383 152.147639 
L 510.227013 149.075082 
L 510.772981 146.659173 
L 511.319289 145.646903 
L 511.865935 142.387243 
L 512.412922 140.508141 
L 512.960247 136.662268 
L 514.055919 131.268374 
L 514.604264 125.210848 
L 515.152951 113.148216 
L 515.701977 97.396501 
L 516.251345 87.29713 
L 516.801053 80.890837 
L 517.351102 80.346767 
L 517.901493 79.242327 
L 518.452225 79.933054 
L 519.003299 83.064021 
L 519.554714 83.890989 
L 520.106471 91.35607 
L 520.658571 107.019351 
L 521.763797 141.31677 
L 522.870394 172.938342 
L 523.424207 184.946666 
L 523.978363 190.611732 
L 524.532862 189.536654 
L 525.087706 182.919283 
L 525.642892 174.568831 
L 526.198423 170.686033 
L 527.310517 165.378085 
L 528.423989 162.709912 
L 528.981242 165.203539 
L 529.53884 168.781715 
L 530.096784 175.920577 
L 530.655072 181.226864 
L 531.213707 184.610818 
L 531.772686 186.296273 
L 532.891684 183.249795 
L 533.451702 179.98505 
L 534.012067 175.411506 
L 535.133836 162.714052 
L 535.695241 158.086509 
L 536.256993 149.956528 
L 537.38154 124.247693 
L 537.944335 115.822332 
L 538.507477 112.966077 
L 539.070968 111.611553 
L 539.634807 111.628106 
L 540.76353 124.155685 
L 541.328414 132.928266 
L 542.459231 163.36507 
L 543.025162 163.874988 
L 543.591444 160.45269 
L 544.158075 153.547551 
L 545.292387 144.469201 
L 546.4281 139.182916 
L 546.996482 135.071964 
L 547.565215 134.260601 
L 548.134298 139.488518 
L 549.273519 155.13476 
L 549.843657 163.780333 
L 550.414146 167.835577 
L 550.984987 170.44833 
L 551.55618 171.448345 
L 552.127725 173.849736 
L 552.699623 172.010267 
L 554.417431 127.491373 
L 554.99074 118.701097 
L 556.712786 106.013287 
L 557.287509 103.943875 
L 557.862586 103.28641 
L 558.438017 114.389396 
L 559.589941 157.055174 
L 560.166436 172.040167 
L 560.743285 179.351908 
L 561.320489 181.415966 
L 561.898049 181.04118 
L 562.475963 182.027822 
L 563.63286 194.029568 
L 564.211842 196.655793 
L 564.79118 196.536145 
L 565.370875 195.914304 
L 565.950926 193.178834 
L 566.531333 189.881455 
L 567.112098 182.551419 
L 568.274698 158.661962 
L 568.856534 149.639546 
L 569.438727 145.383249 
L 570.021278 142.232691 
L 570.604187 139.72938 
L 571.187455 138.625943 
L 571.77108 134.58524 
L 572.355064 134.42756 
L 572.939406 143.979106 
L 573.524108 157.115663 
L 574.109168 167.413566 
L 574.694587 174.722193 
L 575.280366 175.313733 
L 576.453002 173.098061 
L 577.03986 176.909733 
L 577.627078 184.485434 
L 578.214656 188.357495 
L 578.802594 190.910726 
L 579.390893 190.539591 
L 579.979553 189.951125 
L 580.568574 191.924066 
L 581.157956 196.278024 
L 581.747699 199.29009 
L 582.337804 201.463839 
L 582.92827 205.135204 
L 583.519098 207.494264 
L 584.701841 209.886038 
L 585.293755 211.341521 
L 585.886033 210.133119 
L 586.478673 206.237343 
L 587.071676 200.618929 
L 588.852864 175.130092 
L 589.44732 169.475635 
L 590.04214 166.324657 
L 590.637325 164.249336 
L 591.232873 162.696905 
L 591.828786 164.232611 
L 592.425063 166.475781 
L 593.021705 171.424933 
L 593.618712 179.446611 
L 594.216083 184.558646 
L 594.81382 181.61046 
L 596.010391 152.913201 
L 596.609225 141.634262 
L 597.807991 133.310477 
L 598.407923 130.303918 
L 599.008222 128.312526 
L 599.608887 128.803151 
L 600.20992 133.069548 
L 600.811319 148.854773 
L 601.413085 170.716886 
L 602.015219 182.317927 
L 602.617721 186.33667 
L 603.22059 183.713284 
L 605.031406 173.401048 
L 605.635748 172.275351 
L 606.240459 170.551051 
L 606.845538 169.788574 
L 607.450987 170.848806 
L 608.056804 176.215924 
L 608.662991 187.118602 
L 609.269548 195.409899 
L 609.876474 201.344232 
L 610.48377 203.116706 
L 611.091437 192.275782 
L 611.699473 173.195985 
L 612.30788 159.934077 
L 612.916658 149.876026 
L 614.745216 134.880567 
L 615.355478 132.491483 
L 615.966111 130.572342 
L 616.577116 134.557197 
L 617.800241 168.6722 
L 618.412363 180.007918 
L 619.024856 186.544988 
L 619.637722 187.539964 
L 620.864573 184.446828 
L 621.478558 184.587315 
L 622.092916 184.361078 
L 623.322753 184.943108 
L 623.938232 183.753026 
L 624.554085 183.075325 
L 625.170313 182.847364 
L 625.786914 185.077915 
L 626.403891 186.711577 
L 627.021242 186.35532 
L 627.638968 182.459469 
L 628.257069 177.054931 
L 630.113624 154.702879 
L 630.733227 151.795062 
L 631.353206 151.350775 
L 631.973562 150.248272 
L 632.594293 149.679388 
L 633.836886 145.314083 
L 634.458748 144.001343 
L 635.080987 145.512753 
L 635.703603 149.056435 
L 636.326596 148.636399 
L 636.949967 146.364307 
L 638.197843 133.081813 
L 638.822348 130.633287 
L 639.447231 132.6437 
L 640.072493 133.291262 
L 640.698133 132.452117 
L 642.577328 141.012148 
L 643.832021 153.172909 
L 644.459937 151.421366 
L 645.088233 151.293179 
L 645.71691 152.022376 
L 646.345966 152.445524 
L 646.975403 150.123391 
L 647.60522 149.237905 
L 648.235419 144.432031 
L 648.865998 134.135644 
L 649.496959 120.723184 
L 650.128301 118.192784 
L 650.760024 117.694438 
L 652.024616 122.350842 
L 652.657485 122.400814 
L 653.290737 120.146197 
L 653.92437 121.056831 
L 654.558387 128.246868 
L 655.192786 145.76487 
L 655.827568 159.137267 
L 656.462733 164.190083 
L 657.734214 165.408082 
L 659.00723 168.875383 
L 659.644313 171.721638 
L 660.281781 171.606549 
L 660.919634 171.286381 
L 661.55787 171.728228 
L 663.47489 186.064018 
L 664.114667 189.718321 
L 664.75483 192.405585 
L 665.395378 191.949077 
L 666.036312 189.056395 
L 667.319338 178.220339 
L 667.961431 174.986118 
L 668.60391 173.266074 
L 669.890028 168.891113 
L 670.533668 167.790345 
L 671.177695 167.093379 
L 671.82211 168.951484 
L 672.466912 173.907236 
L 673.112102 181.047795 
L 673.75768 184.660599 
L 674.403646 187.377263 
L 675.05 189.127755 
L 675.696743 189.16115 
L 676.343874 188.190798 
L 676.991395 186.052262 
L 677.639305 185.339986 
L 678.287603 185.865982 
L 678.936291 189.567521 
L 679.585369 192.026131 
L 680.884694 192.873013 
L 681.534942 192.074026 
L 682.18558 194.251166 
L 683.488027 194.964761 
L 684.139837 194.783818 
L 684.792038 193.200459 
L 685.44463 190.984061 
L 686.097614 188.244875 
L 686.750989 182.396796 
L 688.058915 161.926984 
L 690.023744 122.068041 
L 690.679473 103.723359 
L 691.335594 90.555914 
L 691.992108 82.20038 
L 692.649015 78.169482 
L 693.306315 77.079986 
L 693.964009 77.811664 
L 695.939455 91.605823 
L 697.258389 120.852988 
L 697.918448 129.272403 
L 699.239751 132.966518 
L 699.900995 136.681737 
L 700.562634 138.548634 
L 701.224669 141.881922 
L 702.549925 156.666939 
L 703.213148 157.482366 
L 703.876766 158.945636 
L 704.540781 161.462291 
L 705.205193 162.586986 
L 705.870001 161.525312 
L 706.535206 160.931313 
L 707.200809 159.993159 
L 707.866808 157.86405 
L 708.533205 153.476208 
L 709.2 148.290156 
L 709.2 148.290156 
" clip-path="url(#p40b99ac055)" style="fill: none; stroke: #1f77b4; stroke-width: 1.5; stroke-linecap: square"/>
   </g>
   <g id="LineCollection_1">
    <path d="M 85.505443 244.63375 
L 85.505443 31.6 
" clip-path="url(#p40b99ac055)" style="fill: none; stroke-dasharray: 5.55,2.4; stroke-dashoffset: 0; stroke: #ff0000; stroke-width: 1.5"/>
   </g>
   <g id="LineCollection_2">
    <path d="M 163.091741 244.63375 
L 163.091741 31.6 
" clip-path="url(#p40b99ac055)" style="fill: none; stroke-dasharray: 5.55,2.4; stroke-dashoffset: 0; stroke: #ff0000; stroke-width: 1.5"/>
   </g>
   <g id="LineCollection_3">
    <path d="M 190.714535 244.63375 
L 190.714535 31.6 
" clip-path="url(#p40b99ac055)" style="fill: none; stroke-dasharray: 5.55,2.4; stroke-dashoffset: 0; stroke: #ff0000; stroke-width: 1.5"/>
   </g>
   <g id="LineCollection_4">
    <path d="M 225.173597 244.63375 
L 225.173597 31.6 
" clip-path="url(#p40b99ac055)" style="fill: none; stroke-dasharray: 5.55,2.4; stroke-dashoffset: 0; stroke: #ff0000; stroke-width: 1.5"/>
   </g>
   <g id="LineCollection_5">
    <path d="M 250.55324 244.63375 
L 250.55324 31.6 
" clip-path="url(#p40b99ac055)" style="fill: none; stroke-dasharray: 5.55,2.4; stroke-dashoffset: 0; stroke: #ff0000; stroke-width: 1.5"/>
   </g>
   <g id="LineCollection_6">
    <path d="M 308.11141 244.63375 
L 308.11141 31.6 
" clip-path="url(#p40b99ac055)" style="fill: none; stroke-dasharray: 5.55,2.4; stroke-dashoffset: 0; stroke: #ff0000; stroke-width: 1.5"/>
   </g>
   <g id="LineCollection_7">
    <path d="M 369.531003 244.63375 
L 369.531003 31.6 
" clip-path="url(#p40b99ac055)" style="fill: none; stroke-dasharray: 5.55,2.4; stroke-dashoffset: 0; stroke: #ff0000; stroke-width: 1.5"/>
   </g>
   <g id="LineCollection_8">
    <path d="M 469.997434 244.63375 
L 469.997434 31.6 
" clip-path="url(#p40b99ac055)" style="fill: none; stroke-dasharray: 5.55,2.4; stroke-dashoffset: 0; stroke: #ff0000; stroke-width: 1.5"/>
   </g>
   <g id="LineCollection_9">
    <path d="M 518.401413 244.63375 
L 518.401413 31.6 
" clip-path="url(#p40b99ac055)" style="fill: none; stroke-dasharray: 5.55,2.4; stroke-dashoffset: 0; stroke: #ff0000; stroke-width: 1.5"/>
   </g>
   <g id="LineCollection_10">
    <path d="M 557.154506 244.63375 
L 557.154506 31.6 
" clip-path="url(#p40b99ac055)" style="fill: none; stroke-dasharray: 5.55,2.4; stroke-dashoffset: 0; stroke: #ff0000; stroke-width: 1.5"/>
   </g>
   <g id="patch_3">
    <path d="M 47.72 244.63375 
L 47.72 31.6 
" style="fill: none; stroke: #000000; stroke-width: 0.8; stroke-linejoin: miter; stroke-linecap: square"/>
   </g>
   <g id="patch_4">
    <path d="M 709.2 244.63375 
L 709.2 31.6 
" style="fill: none; stroke: #000000; stroke-width: 0.8; stroke-linejoin: miter; stroke-linecap: square"/>
   </g>
   <g id="patch_5">
    <path d="M 47.72 244.63375 
L 709.2 244.63375 
" style="fill: none; stroke: #000000; stroke-width: 0.8; stroke-linejoin: miter; stroke-linecap: square"/>
   </g>
   <g id="patch_6">
    <path d="M 47.72 31.6 
L 709.2 31.6 
" style="fill: none; stroke: #000000; stroke-width: 0.8; stroke-linejoin: miter; stroke-linecap: square"/>
   </g>
   <g id="text_15">
    <!-- Spectrum of ThAr lamp (polynomial 3rd degree) -->
    <g transform="translate(210.393281 21.6) scale(0.14 -0.14)">
     <defs>
      <path id="DejaVuSans-53" d="M 3425 4513 
L 3425 3897 
Q 3066 4069 2747 4153 
Q 2428 4238 2131 4238 
Q 1616 4238 1336 4038 
Q 1056 3838 1056 3469 
Q 1056 3159 1242 3001 
Q 1428 2844 1947 2747 
L 2328 2669 
Q 3034 2534 3370 2195 
Q 3706 1856 3706 1288 
Q 3706 609 3251 259 
Q 2797 -91 1919 -91 
Q 1588 -91 1214 -16 
Q 841 59 441 206 
L 441 856 
Q 825 641 1194 531 
Q 1563 422 1919 422 
Q 2459 422 2753 634 
Q 3047 847 3047 1241 
Q 3047 1584 2836 1778 
Q 2625 1972 2144 2069 
L 1759 2144 
Q 1053 2284 737 2584 
Q 422 2884 422 3419 
Q 422 4038 858 4394 
Q 1294 4750 2059 4750 
Q 2388 4750 2728 4690 
Q 3069 4631 3425 4513 
z
" transform="scale(0.015625)"/>
      <path id="DejaVuSans-70" d="M 1159 525 
L 1159 -1331 
L 581 -1331 
L 581 3500 
L 1159 3500 
L 1159 2969 
Q 1341 3281 1617 3432 
Q 1894 3584 2278 3584 
Q 2916 3584 3314 3078 
Q 3713 2572 3713 1747 
Q 3713 922 3314 415 
Q 2916 -91 2278 -91 
Q 1894 -91 1617 61 
Q 1341 213 1159 525 
z
M 3116 1747 
Q 3116 2381 2855 2742 
Q 2594 3103 2138 3103 
Q 1681 3103 1420 2742 
Q 1159 2381 1159 1747 
Q 1159 1113 1420 752 
Q 1681 391 2138 391 
Q 2594 391 2855 752 
Q 3116 1113 3116 1747 
z
" transform="scale(0.015625)"/>
      <path id="DejaVuSans-63" d="M 3122 3366 
L 3122 2828 
Q 2878 2963 2633 3030 
Q 2388 3097 2138 3097 
Q 1578 3097 1268 2742 
Q 959 2388 959 1747 
Q 959 1106 1268 751 
Q 1578 397 2138 397 
Q 2388 397 2633 464 
Q 2878 531 3122 666 
L 3122 134 
Q 2881 22 2623 -34 
Q 2366 -91 2075 -91 
Q 1284 -91 818 406 
Q 353 903 353 1747 
Q 353 2603 823 3093 
Q 1294 3584 2113 3584 
Q 2378 3584 2631 3529 
Q 2884 3475 3122 3366 
z
" transform="scale(0.015625)"/>
      <path id="DejaVuSans-75" d="M 544 1381 
L 544 3500 
L 1119 3500 
L 1119 1403 
Q 1119 906 1312 657 
Q 1506 409 1894 409 
Q 2359 409 2629 706 
Q 2900 1003 2900 1516 
L 2900 3500 
L 3475 3500 
L 3475 0 
L 2900 0 
L 2900 538 
Q 2691 219 2414 64 
Q 2138 -91 1772 -91 
Q 1169 -91 856 284 
Q 544 659 544 1381 
z
M 1991 3584 
L 1991 3584 
z
" transform="scale(0.015625)"/>
      <path id="DejaVuSans-66" d="M 2375 4863 
L 2375 4384 
L 1825 4384 
Q 1516 4384 1395 4259 
Q 1275 4134 1275 3809 
L 1275 3500 
L 2222 3500 
L 2222 3053 
L 1275 3053 
L 1275 0 
L 697 0 
L 697 3053 
L 147 3053 
L 147 3500 
L 697 3500 
L 697 3744 
Q 697 4328 969 4595 
Q 1241 4863 1831 4863 
L 2375 4863 
z
" transform="scale(0.015625)"/>
      <path id="DejaVuSans-54" d="M -19 4666 
L 3928 4666 
L 3928 4134 
L 2272 4134 
L 2272 0 
L 1638 0 
L 1638 4134 
L -19 4134 
L -19 4666 
z
" transform="scale(0.015625)"/>
      <path id="DejaVuSans-41" d="M 2188 4044 
L 1331 1722 
L 3047 1722 
L 2188 4044 
z
M 1831 4666 
L 2547 4666 
L 4325 0 
L 3669 0 
L 3244 1197 
L 1141 1197 
L 716 0 
L 50 0 
L 1831 4666 
z
" transform="scale(0.015625)"/>
      <path id="DejaVuSans-33" d="M 2597 2516 
Q 3050 2419 3304 2112 
Q 3559 1806 3559 1356 
Q 3559 666 3084 287 
Q 2609 -91 1734 -91 
Q 1441 -91 1130 -33 
Q 819 25 488 141 
L 488 750 
Q 750 597 1062 519 
Q 1375 441 1716 441 
Q 2309 441 2620 675 
Q 2931 909 2931 1356 
Q 2931 1769 2642 2001 
Q 2353 2234 1838 2234 
L 1294 2234 
L 1294 2753 
L 1863 2753 
Q 2328 2753 2575 2939 
Q 2822 3125 2822 3475 
Q 2822 3834 2567 4026 
Q 2313 4219 1838 4219 
Q 1578 4219 1281 4162 
Q 984 4106 628 3988 
L 628 4550 
Q 988 4650 1302 4700 
Q 1616 4750 1894 4750 
Q 2613 4750 3031 4423 
Q 3450 4097 3450 3541 
Q 3450 3153 3228 2886 
Q 3006 2619 2597 2516 
z
" transform="scale(0.015625)"/>
     </defs>
     <use xlink:href="#DejaVuSans-53"/>
     <use xlink:href="#DejaVuSans-70" x="63.476562"/>
     <use xlink:href="#DejaVuSans-65" x="126.953125"/>
     <use xlink:href="#DejaVuSans-63" x="188.476562"/>
     <use xlink:href="#DejaVuSans-74" x="243.457031"/>
     <use xlink:href="#DejaVuSans-72" x="282.666016"/>
     <use xlink:href="#DejaVuSans-75" x="323.779297"/>
     <use xlink:href="#DejaVuSans-6d" x="387.158203"/>
     <use xlink:href="#DejaVuSans-20" x="484.570312"/>
     <use xlink:href="#DejaVuSans-6f" x="516.357422"/>
     <use xlink:href="#DejaVuSans-66" x="577.539062"/>
     <use xlink:href="#DejaVuSans-20" x="612.744141"/>
     <use xlink:href="#DejaVuSans-54" x="644.53125"/>
     <use xlink:href="#DejaVuSans-68" x="705.615234"/>
     <use xlink:href="#DejaVuSans-41" x="768.994141"/>
     <use xlink:href="#DejaVuSans-72" x="837.402344"/>
     <use xlink:href="#DejaVuSans-20" x="878.515625"/>
     <use xlink:href="#DejaVuSans-6c" x="910.302734"/>
     <use xlink:href="#DejaVuSans-61" x="938.085938"/>
     <use xlink:href="#DejaVuSans-6d" x="999.365234"/>
     <use xlink:href="#DejaVuSans-70" x="1096.777344"/>
     <use xlink:href="#DejaVuSans-20" x="1160.253906"/>
     <use xlink:href="#DejaVuSans-28" x="1192.041016"/>
     <use xlink:href="#DejaVuSans-70" x="1231.054688"/>
     <use xlink:href="#DejaVuSans-6f" x="1294.53125"/>
     <use xlink:href="#DejaVuSans-6c" x="1355.712891"/>
     <use xlink:href="#DejaVuSans-79" x="1383.496094"/>
     <use xlink:href="#DejaVuSans-6e" x="1442.675781"/>
     <use xlink:href="#DejaVuSans-6f" x="1506.054688"/>
     <use xlink:href="#DejaVuSans-6d" x="1567.236328"/>
     <use xlink:href="#DejaVuSans-69" x="1664.648438"/>
     <use xlink:href="#DejaVuSans-61" x="1692.431641"/>
     <use xlink:href="#DejaVuSans-6c" x="1753.710938"/>
     <use xlink:href="#DejaVuSans-20" x="1781.494141"/>
     <use xlink:href="#DejaVuSans-33" x="1813.28125"/>
     <use xlink:href="#DejaVuSans-72" x="1876.904297"/>
     <use xlink:href="#DejaVuSans-64" x="1916.267578"/>
     <use xlink:href="#DejaVuSans-20" x="1979.744141"/>
     <use xlink:href="#DejaVuSans-64" x="2011.53125"/>
     <use xlink:href="#DejaVuSans-65" x="2075.007812"/>
     <use xlink:href="#DejaVuSans-67" x="2136.53125"/>
     <use xlink:href="#DejaVuSans-72" x="2200.007812"/>
     <use xlink:href="#DejaVuSans-65" x="2238.871094"/>
     <use xlink:href="#DejaVuSans-65" x="2300.394531"/>
     <use xlink:href="#DejaVuSans-29" x="2361.917969"/>
    </g>
   </g>
  </g>
 </g>
 <defs>
  <clipPath id="p40b99ac055">
   <rect x="47.72" y="31.6" width="661.48" height="213.03375"/>
  </clipPath>
 </defs>
</svg>
