<?xml version="1.0" encoding="utf-8" standalone="no"?>
<!DOCTYPE svg PUBLIC "-//W3C//DTD SVG 1.1//EN"
  "http://www.w3.org/Graphics/SVG/1.1/DTD/svg11.dtd">
<svg xmlns:xlink="http://www.w3.org/1999/xlink" width="460.8pt" height="345.6pt" viewBox="0 0 460.8 345.6" xmlns="http://www.w3.org/2000/svg" version="1.1">
 <metadata>
  <rdf:RDF xmlns:dc="http://purl.org/dc/elements/1.1/" xmlns:cc="http://creativecommons.org/ns#" xmlns:rdf="http://www.w3.org/1999/02/22-rdf-syntax-ns#">
   <cc:Work>
    <dc:type rdf:resource="http://purl.org/dc/dcmitype/StillImage"/>
    <dc:date>2024-12-26T14:50:24.277979</dc:date>
    <dc:format>image/svg+xml</dc:format>
    <dc:creator>
     <cc:Agent>
      <dc:title>Matplotlib v3.9.2, https://matplotlib.org/</dc:title>
     </cc:Agent>
    </dc:creator>
   </cc:Work>
  </rdf:RDF>
 </metadata>
 <defs>
  <style type="text/css">*{stroke-linejoin: round; stroke-linecap: butt}</style>
 </defs>
 <g id="figure_1">
  <g id="patch_1">
   <path d="M 0 345.6 
L 460.8 345.6 
L 460.8 0 
L 0 0 
z
" style="fill: #ffffff"/>
  </g>
  <g id="axes_1">
   <g id="patch_2">
    <path d="M 57.6 307.584 
L 414.72 307.584 
L 414.72 41.472 
L 57.6 41.472 
z
" style="fill: #ffffff"/>
   </g>
   <g id="matplotlib.axis_1">
    <g id="xtick_1">
     <g id="line2d_1">
      <path d="M 97.077318 307.584 
L 97.077318 41.472 
" clip-path="url(#pc7aedca2d2)" style="fill: none; stroke: #b0b0b0; stroke-width: 0.8; stroke-linecap: square"/>
     </g>
     <g id="line2d_2">
      <defs>
       <path id="m87f946e47b" d="M 0 0 
L 0 3.5 
" style="stroke: #000000; stroke-width: 0.8"/>
      </defs>
      <g>
       <use xlink:href="#m87f946e47b" x="97.077318" y="307.584" style="stroke: #000000; stroke-width: 0.8"/>
      </g>
     </g>
     <g id="text_1">
      <!-- −6 -->
      <g transform="translate(89.706224 322.182437) scale(0.1 -0.1)">
       <defs>
        <path id="DejaVuSans-2212" d="M 678 2272 
L 4684 2272 
L 4684 1741 
L 678 1741 
L 678 2272 
z
" transform="scale(0.015625)"/>
        <path id="DejaVuSans-36" d="M 2113 2584 
Q 1688 2584 1439 2293 
Q 1191 2003 1191 1497 
Q 1191 994 1439 701 
Q 1688 409 2113 409 
Q 2538 409 2786 701 
Q 3034 994 3034 1497 
Q 3034 2003 2786 2293 
Q 2538 2584 2113 2584 
z
M 3366 4563 
L 3366 3988 
Q 3128 4100 2886 4159 
Q 2644 4219 2406 4219 
Q 1781 4219 1451 3797 
Q 1122 3375 1075 2522 
Q 1259 2794 1537 2939 
Q 1816 3084 2150 3084 
Q 2853 3084 3261 2657 
Q 3669 2231 3669 1497 
Q 3669 778 3244 343 
Q 2819 -91 2113 -91 
Q 1303 -91 875 529 
Q 447 1150 447 2328 
Q 447 3434 972 4092 
Q 1497 4750 2381 4750 
Q 2619 4750 2861 4703 
Q 3103 4656 3366 4563 
z
" transform="scale(0.015625)"/>
       </defs>
       <use xlink:href="#DejaVuSans-2212"/>
       <use xlink:href="#DejaVuSans-36" x="83.789062"/>
      </g>
     </g>
    </g>
    <g id="xtick_2">
     <g id="line2d_3">
      <path d="M 143.438212 307.584 
L 143.438212 41.472 
" clip-path="url(#pc7aedca2d2)" style="fill: none; stroke: #b0b0b0; stroke-width: 0.8; stroke-linecap: square"/>
     </g>
     <g id="line2d_4">
      <g>
       <use xlink:href="#m87f946e47b" x="143.438212" y="307.584" style="stroke: #000000; stroke-width: 0.8"/>
      </g>
     </g>
     <g id="text_2">
      <!-- −4 -->
      <g transform="translate(136.067118 322.182437) scale(0.1 -0.1)">
       <defs>
        <path id="DejaVuSans-34" d="M 2419 4116 
L 825 1625 
L 2419 1625 
L 2419 4116 
z
M 2253 4666 
L 3047 4666 
L 3047 1625 
L 3713 1625 
L 3713 1100 
L 3047 1100 
L 3047 0 
L 2419 0 
L 2419 1100 
L 313 1100 
L 313 1709 
L 2253 4666 
z
" transform="scale(0.015625)"/>
       </defs>
       <use xlink:href="#DejaVuSans-2212"/>
       <use xlink:href="#DejaVuSans-34" x="83.789062"/>
      </g>
     </g>
    </g>
    <g id="xtick_3">
     <g id="line2d_5">
      <path d="M 189.799106 307.584 
L 189.799106 41.472 
" clip-path="url(#pc7aedca2d2)" style="fill: none; stroke: #b0b0b0; stroke-width: 0.8; stroke-linecap: square"/>
     </g>
     <g id="line2d_6">
      <g>
       <use xlink:href="#m87f946e47b" x="189.799106" y="307.584" style="stroke: #000000; stroke-width: 0.8"/>
      </g>
     </g>
     <g id="text_3">
      <!-- −2 -->
      <g transform="translate(182.428012 322.182437) scale(0.1 -0.1)">
       <defs>
        <path id="DejaVuSans-32" d="M 1228 531 
L 3431 531 
L 3431 0 
L 469 0 
L 469 531 
Q 828 903 1448 1529 
Q 2069 2156 2228 2338 
Q 2531 2678 2651 2914 
Q 2772 3150 2772 3378 
Q 2772 3750 2511 3984 
Q 2250 4219 1831 4219 
Q 1534 4219 1204 4116 
Q 875 4013 500 3803 
L 500 4441 
Q 881 4594 1212 4672 
Q 1544 4750 1819 4750 
Q 2544 4750 2975 4387 
Q 3406 4025 3406 3419 
Q 3406 3131 3298 2873 
Q 3191 2616 2906 2266 
Q 2828 2175 2409 1742 
Q 1991 1309 1228 531 
z
" transform="scale(0.015625)"/>
       </defs>
       <use xlink:href="#DejaVuSans-2212"/>
       <use xlink:href="#DejaVuSans-32" x="83.789062"/>
      </g>
     </g>
    </g>
    <g id="xtick_4">
     <g id="line2d_7">
      <path d="M 236.16 307.584 
L 236.16 41.472 
" clip-path="url(#pc7aedca2d2)" style="fill: none; stroke: #b0b0b0; stroke-width: 0.8; stroke-linecap: square"/>
     </g>
     <g id="line2d_8">
      <g>
       <use xlink:href="#m87f946e47b" x="236.16" y="307.584" style="stroke: #000000; stroke-width: 0.8"/>
      </g>
     </g>
     <g id="text_4">
      <!-- 0 -->
      <g transform="translate(232.97875 322.182437) scale(0.1 -0.1)">
       <defs>
        <path id="DejaVuSans-30" d="M 2034 4250 
Q 1547 4250 1301 3770 
Q 1056 3291 1056 2328 
Q 1056 1369 1301 889 
Q 1547 409 2034 409 
Q 2525 409 2770 889 
Q 3016 1369 3016 2328 
Q 3016 3291 2770 3770 
Q 2525 4250 2034 4250 
z
M 2034 4750 
Q 2819 4750 3233 4129 
Q 3647 3509 3647 2328 
Q 3647 1150 3233 529 
Q 2819 -91 2034 -91 
Q 1250 -91 836 529 
Q 422 1150 422 2328 
Q 422 3509 836 4129 
Q 1250 4750 2034 4750 
z
" transform="scale(0.015625)"/>
       </defs>
       <use xlink:href="#DejaVuSans-30"/>
      </g>
     </g>
    </g>
    <g id="xtick_5">
     <g id="line2d_9">
      <path d="M 282.520894 307.584 
L 282.520894 41.472 
" clip-path="url(#pc7aedca2d2)" style="fill: none; stroke: #b0b0b0; stroke-width: 0.8; stroke-linecap: square"/>
     </g>
     <g id="line2d_10">
      <g>
       <use xlink:href="#m87f946e47b" x="282.520894" y="307.584" style="stroke: #000000; stroke-width: 0.8"/>
      </g>
     </g>
     <g id="text_5">
      <!-- 2 -->
      <g transform="translate(279.339644 322.182437) scale(0.1 -0.1)">
       <use xlink:href="#DejaVuSans-32"/>
      </g>
     </g>
    </g>
    <g id="xtick_6">
     <g id="line2d_11">
      <path d="M 328.881788 307.584 
L 328.881788 41.472 
" clip-path="url(#pc7aedca2d2)" style="fill: none; stroke: #b0b0b0; stroke-width: 0.8; stroke-linecap: square"/>
     </g>
     <g id="line2d_12">
      <g>
       <use xlink:href="#m87f946e47b" x="328.881788" y="307.584" style="stroke: #000000; stroke-width: 0.8"/>
      </g>
     </g>
     <g id="text_6">
      <!-- 4 -->
      <g transform="translate(325.700538 322.182437) scale(0.1 -0.1)">
       <use xlink:href="#DejaVuSans-34"/>
      </g>
     </g>
    </g>
    <g id="xtick_7">
     <g id="line2d_13">
      <path d="M 375.242682 307.584 
L 375.242682 41.472 
" clip-path="url(#pc7aedca2d2)" style="fill: none; stroke: #b0b0b0; stroke-width: 0.8; stroke-linecap: square"/>
     </g>
     <g id="line2d_14">
      <g>
       <use xlink:href="#m87f946e47b" x="375.242682" y="307.584" style="stroke: #000000; stroke-width: 0.8"/>
      </g>
     </g>
     <g id="text_7">
      <!-- 6 -->
      <g transform="translate(372.061432 322.182437) scale(0.1 -0.1)">
       <use xlink:href="#DejaVuSans-36"/>
      </g>
     </g>
    </g>
   </g>
   <g id="matplotlib.axis_2">
    <g id="ytick_1">
     <g id="line2d_15">
      <path d="M 57.6 307.584 
L 414.72 307.584 
" clip-path="url(#pc7aedca2d2)" style="fill: none; stroke: #b0b0b0; stroke-width: 0.8; stroke-linecap: square"/>
     </g>
     <g id="line2d_16">
      <defs>
       <path id="m3f5373e543" d="M 0 0 
L -3.5 0 
" style="stroke: #000000; stroke-width: 0.8"/>
      </defs>
      <g>
       <use xlink:href="#m3f5373e543" x="57.6" y="307.584" style="stroke: #000000; stroke-width: 0.8"/>
      </g>
     </g>
     <g id="text_8">
      <!-- 0.0 -->
      <g transform="translate(34.696875 311.383219) scale(0.1 -0.1)">
       <defs>
        <path id="DejaVuSans-2e" d="M 684 794 
L 1344 794 
L 1344 0 
L 684 0 
L 684 794 
z
" transform="scale(0.015625)"/>
       </defs>
       <use xlink:href="#DejaVuSans-30"/>
       <use xlink:href="#DejaVuSans-2e" x="63.623047"/>
       <use xlink:href="#DejaVuSans-30" x="95.410156"/>
      </g>
     </g>
    </g>
    <g id="ytick_2">
     <g id="line2d_17">
      <path d="M 57.6 259.2 
L 414.72 259.2 
" clip-path="url(#pc7aedca2d2)" style="fill: none; stroke: #b0b0b0; stroke-width: 0.8; stroke-linecap: square"/>
     </g>
     <g id="line2d_18">
      <g>
       <use xlink:href="#m3f5373e543" x="57.6" y="259.2" style="stroke: #000000; stroke-width: 0.8"/>
      </g>
     </g>
     <g id="text_9">
      <!-- 0.2 -->
      <g transform="translate(34.696875 262.999219) scale(0.1 -0.1)">
       <use xlink:href="#DejaVuSans-30"/>
       <use xlink:href="#DejaVuSans-2e" x="63.623047"/>
       <use xlink:href="#DejaVuSans-32" x="95.410156"/>
      </g>
     </g>
    </g>
    <g id="ytick_3">
     <g id="line2d_19">
      <path d="M 57.6 210.816 
L 414.72 210.816 
" clip-path="url(#pc7aedca2d2)" style="fill: none; stroke: #b0b0b0; stroke-width: 0.8; stroke-linecap: square"/>
     </g>
     <g id="line2d_20">
      <g>
       <use xlink:href="#m3f5373e543" x="57.6" y="210.816" style="stroke: #000000; stroke-width: 0.8"/>
      </g>
     </g>
     <g id="text_10">
      <!-- 0.4 -->
      <g transform="translate(34.696875 214.615219) scale(0.1 -0.1)">
       <use xlink:href="#DejaVuSans-30"/>
       <use xlink:href="#DejaVuSans-2e" x="63.623047"/>
       <use xlink:href="#DejaVuSans-34" x="95.410156"/>
      </g>
     </g>
    </g>
    <g id="ytick_4">
     <g id="line2d_21">
      <path d="M 57.6 162.432 
L 414.72 162.432 
" clip-path="url(#pc7aedca2d2)" style="fill: none; stroke: #b0b0b0; stroke-width: 0.8; stroke-linecap: square"/>
     </g>
     <g id="line2d_22">
      <g>
       <use xlink:href="#m3f5373e543" x="57.6" y="162.432" style="stroke: #000000; stroke-width: 0.8"/>
      </g>
     </g>
     <g id="text_11">
      <!-- 0.6 -->
      <g transform="translate(34.696875 166.231219) scale(0.1 -0.1)">
       <use xlink:href="#DejaVuSans-30"/>
       <use xlink:href="#DejaVuSans-2e" x="63.623047"/>
       <use xlink:href="#DejaVuSans-36" x="95.410156"/>
      </g>
     </g>
    </g>
    <g id="ytick_5">
     <g id="line2d_23">
      <path d="M 57.6 114.048 
L 414.72 114.048 
" clip-path="url(#pc7aedca2d2)" style="fill: none; stroke: #b0b0b0; stroke-width: 0.8; stroke-linecap: square"/>
     </g>
     <g id="line2d_24">
      <g>
       <use xlink:href="#m3f5373e543" x="57.6" y="114.048" style="stroke: #000000; stroke-width: 0.8"/>
      </g>
     </g>
     <g id="text_12">
      <!-- 0.8 -->
      <g transform="translate(34.696875 117.847219) scale(0.1 -0.1)">
       <defs>
        <path id="DejaVuSans-38" d="M 2034 2216 
Q 1584 2216 1326 1975 
Q 1069 1734 1069 1313 
Q 1069 891 1326 650 
Q 1584 409 2034 409 
Q 2484 409 2743 651 
Q 3003 894 3003 1313 
Q 3003 1734 2745 1975 
Q 2488 2216 2034 2216 
z
M 1403 2484 
Q 997 2584 770 2862 
Q 544 3141 544 3541 
Q 544 4100 942 4425 
Q 1341 4750 2034 4750 
Q 2731 4750 3128 4425 
Q 3525 4100 3525 3541 
Q 3525 3141 3298 2862 
Q 3072 2584 2669 2484 
Q 3125 2378 3379 2068 
Q 3634 1759 3634 1313 
Q 3634 634 3220 271 
Q 2806 -91 2034 -91 
Q 1263 -91 848 271 
Q 434 634 434 1313 
Q 434 1759 690 2068 
Q 947 2378 1403 2484 
z
M 1172 3481 
Q 1172 3119 1398 2916 
Q 1625 2713 2034 2713 
Q 2441 2713 2670 2916 
Q 2900 3119 2900 3481 
Q 2900 3844 2670 4047 
Q 2441 4250 2034 4250 
Q 1625 4250 1398 4047 
Q 1172 3844 1172 3481 
z
" transform="scale(0.015625)"/>
       </defs>
       <use xlink:href="#DejaVuSans-30"/>
       <use xlink:href="#DejaVuSans-2e" x="63.623047"/>
       <use xlink:href="#DejaVuSans-38" x="95.410156"/>
      </g>
     </g>
    </g>
    <g id="ytick_6">
     <g id="line2d_25">
      <path d="M 57.6 65.664 
L 414.72 65.664 
" clip-path="url(#pc7aedca2d2)" style="fill: none; stroke: #b0b0b0; stroke-width: 0.8; stroke-linecap: square"/>
     </g>
     <g id="line2d_26">
      <g>
       <use xlink:href="#m3f5373e543" x="57.6" y="65.664" style="stroke: #000000; stroke-width: 0.8"/>
      </g>
     </g>
     <g id="text_13">
      <!-- 1.0 -->
      <g transform="translate(34.696875 69.463219) scale(0.1 -0.1)">
       <defs>
        <path id="DejaVuSans-31" d="M 794 531 
L 1825 531 
L 1825 4091 
L 703 3866 
L 703 4441 
L 1819 4666 
L 2450 4666 
L 2450 531 
L 3481 531 
L 3481 0 
L 794 0 
L 794 531 
z
" transform="scale(0.015625)"/>
       </defs>
       <use xlink:href="#DejaVuSans-31"/>
       <use xlink:href="#DejaVuSans-2e" x="63.623047"/>
       <use xlink:href="#DejaVuSans-30" x="95.410156"/>
      </g>
     </g>
    </g>
   </g>
   <g id="line2d_27">
    <path d="M 57.6 300.867034 
L 57.94892 298.048708 
L 58.297841 297.008007 
L 59.344602 296.190386 
L 61.612584 295.645488 
L 62.310425 295.595011 
L 67.36977 294.422712 
L 74.697098 292.57255 
L 81.675506 290.59012 
L 88.304993 288.484777 
L 94.411099 286.330438 
L 100.342745 284.007507 
L 106.099932 281.512459 
L 111.508197 278.926694 
L 116.742003 276.181673 
L 121.801348 273.285129 
L 126.686234 270.237391 
L 131.571119 266.924585 
L 136.281544 263.449219 
L 140.817509 259.823777 
L 145.353473 255.913449 
L 149.714978 251.841349 
L 152.680801 248.821926 
L 154.599863 246.774708 
L 159.484748 241.499629 
L 163.497333 236.734426 
L 168.207758 230.762107 
L 171.871422 225.731179 
L 175.884006 219.840956 
L 179.37321 214.331418 
L 183.734714 207.08381 
L 186.874998 201.440978 
L 193.330024 188.918651 
L 197.517069 180.109441 
L 201.355193 171.434693 
L 204.669936 163.420276 
L 208.682521 153.199901 
L 212.869565 141.865328 
L 216.707689 130.75307 
L 220.720274 118.444917 
L 224.732858 105.382894 
L 229.443283 89.243795 
L 234.677088 71.243084 
L 235.72385 68.44284 
L 236.24723 67.515152 
L 236.59615 67.221128 
L 236.945071 67.317372 
L 237.293991 67.758104 
L 237.817372 68.818825 
L 238.689673 71.207238 
L 241.132115 78.951586 
L 247.063762 99.712878 
L 248.808363 105.946365 
L 252.995408 119.543213 
L 257.007992 131.841098 
L 261.020576 143.390396 
L 264.16086 151.929595 
L 266.428842 157.752944 
L 270.790347 168.587076 
L 274.454011 177.049556 
L 277.768754 184.195733 
L 286.666224 201.701569 
L 289.632047 207.002453 
L 293.470171 213.445691 
L 297.308295 219.484596 
L 301.320879 225.398108 
L 305.333464 230.920846 
L 309.520508 236.304284 
L 313.707553 241.301007 
L 318.766898 246.949513 
L 321.732721 249.92404 
L 326.443146 254.454001 
L 330.979111 258.487504 
L 335.515076 262.214378 
L 340.051041 265.659564 
L 344.761466 268.962651 
L 349.471891 272.010644 
L 354.531236 275.013935 
L 359.590581 277.762088 
L 364.824387 280.360031 
L 370.407113 282.889428 
L 376.164299 285.253734 
L 382.270405 287.517851 
L 388.899893 289.729558 
L 395.70384 291.757983 
L 403.205628 293.753999 
L 410.881876 295.581861 
L 411.754177 295.660488 
L 412.452018 295.755054 
L 413.498779 296.111669 
L 414.022159 296.6779 
L 414.37108 297.306986 
L 414.72 299.53631 
L 414.72 299.53631 
" clip-path="url(#pc7aedca2d2)" style="fill: none; stroke: #1f77b4; stroke-width: 1.5; stroke-linecap: square"/>
   </g>
   <g id="line2d_28">
    <path d="M 57.6 296.538207 
L 65.450708 294.876869 
L 72.778036 293.104089 
L 79.756444 291.188955 
L 86.385931 289.138294 
L 92.666497 286.962436 
L 98.598144 284.675359 
L 104.35533 282.216527 
L 109.763596 279.670206 
L 114.997401 276.966494 
L 120.056746 274.10804 
L 124.941632 271.099228 
L 129.826517 267.824486 
L 134.536942 264.393454 
L 139.072907 260.815032 
L 143.608872 256.94577 
L 147.970376 252.92977 
L 152.331881 248.601939 
L 156.518925 244.132224 
L 160.70597 239.331639 
L 164.718554 234.398934 
L 168.731138 229.118944 
L 172.743723 223.468469 
L 176.756307 217.42297 
L 180.768891 210.956541 
L 184.607015 204.352236 
L 188.445139 197.312797 
L 192.283263 189.812055 
L 196.121387 181.822793 
L 199.959511 173.316878 
L 203.797636 164.265464 
L 207.63576 154.639336 
L 211.473884 144.409465 
L 215.312008 133.547935 
L 219.150132 122.029567 
L 223.162716 109.264435 
L 227.1753 95.753016 
L 231.536805 80.258632 
L 236.07277 63.617213 
L 236.24723 63.617213 
L 239.038593 73.863174 
L 244.097938 92.107764 
L 248.284983 106.390439 
L 252.297567 119.317967 
L 256.310151 131.503212 
L 260.322736 142.966142 
L 264.16086 153.280544 
L 267.998984 162.987305 
L 271.837108 172.115365 
L 275.675232 180.693956 
L 279.513356 188.751995 
L 283.35148 196.317729 
L 287.364064 203.730653 
L 291.376649 210.665426 
L 295.389233 217.150766 
L 299.401817 223.214018 
L 303.414402 228.881148 
L 307.426986 234.176753 
L 311.61403 239.331639 
L 315.801075 244.132224 
L 319.988119 248.601939 
L 324.349624 252.92977 
L 328.711128 256.94577 
L 333.247093 260.815032 
L 337.783058 264.393454 
L 342.493483 267.824486 
L 347.378368 271.099228 
L 352.263254 274.10804 
L 357.322599 276.966494 
L 362.556404 279.670206 
L 367.96467 282.216527 
L 373.547396 284.60443 
L 379.479043 286.898507 
L 385.585149 289.023603 
L 392.040176 291.03561 
L 398.844123 292.922996 
L 405.996991 294.677646 
L 413.673239 296.32979 
L 414.72 296.538207 
L 414.72 296.538207 
" clip-path="url(#pc7aedca2d2)" style="fill: none; stroke: #ff7f0e; stroke-width: 1.5; stroke-linecap: square"/>
   </g>
   <g id="line2d_29">
    <path d="M 57.6 305.600522 
L 78.709682 304.925573 
L 95.806781 304.163857 
L 110.112516 303.309944 
L 122.150269 302.37638 
L 132.61788 301.346517 
L 141.689809 300.23547 
L 149.714978 299.031665 
L 156.867846 297.733987 
L 163.148412 296.373336 
L 168.905598 294.898494 
L 173.964944 293.38008 
L 178.675369 291.736826 
L 182.862413 290.050184 
L 186.874998 288.192051 
L 190.538661 286.246368 
L 193.853405 284.239837 
L 196.993688 282.080879 
L 199.959511 279.766662 
L 202.750874 277.296869 
L 205.367777 274.674499 
L 207.81022 271.906813 
L 210.078202 269.006429 
L 212.346185 265.72489 
L 214.439707 262.289071 
L 216.358769 258.72588 
L 218.277831 254.68346 
L 220.022433 250.50296 
L 221.767035 245.730696 
L 223.337176 240.810615 
L 224.907318 235.148842 
L 226.303 229.330607 
L 227.698681 222.562397 
L 228.919902 215.628247 
L 230.141124 207.435714 
L 231.187885 199.056455 
L 232.234646 188.91192 
L 233.106947 178.499429 
L 233.979248 165.313172 
L 234.677088 151.430941 
L 235.200469 137.470695 
L 235.72385 116.790298 
L 236.24723 90.033246 
L 236.59615 116.790298 
L 237.119531 137.470695 
L 237.817372 155.291755 
L 238.689673 171.013954 
L 239.561974 182.929624 
L 240.608735 194.246909 
L 241.829956 204.803309 
L 243.051177 213.432636 
L 244.446859 221.636043 
L 245.84254 228.541564 
L 247.412682 235.148842 
L 248.982824 240.810615 
L 250.727425 246.238323 
L 252.472027 250.945619 
L 254.391089 255.458512 
L 256.310151 259.406699 
L 258.403674 263.18888 
L 260.497196 266.519818 
L 262.765178 269.707086 
L 265.207621 272.732486 
L 267.650064 275.405981 
L 270.266966 277.94373 
L 273.058329 280.337875 
L 276.024152 282.584733 
L 279.164436 284.683901 
L 282.479179 286.637492 
L 286.142843 288.534258 
L 289.980967 290.274132 
L 294.168012 291.931803 
L 298.703977 293.492433 
L 303.763322 294.995013 
L 309.346048 296.414378 
L 315.452154 297.733987 
L 322.256102 298.973721 
L 329.93235 300.139843 
L 338.480899 301.210091 
L 348.250669 302.20466 
L 359.416121 303.113487 
L 372.500635 303.947567 
L 387.853131 304.69482 
L 406.171451 305.355671 
L 414.72 305.600522 
L 414.72 305.600522 
" clip-path="url(#pc7aedca2d2)" style="fill: none; stroke: #2ca02c; stroke-width: 1.5; stroke-linecap: square"/>
   </g>
   <g id="patch_3">
    <path d="M 57.6 307.584 
L 57.6 41.472 
" style="fill: none; stroke: #000000; stroke-width: 0.8; stroke-linejoin: miter; stroke-linecap: square"/>
   </g>
   <g id="patch_4">
    <path d="M 414.72 307.584 
L 414.72 41.472 
" style="fill: none; stroke: #000000; stroke-width: 0.8; stroke-linejoin: miter; stroke-linecap: square"/>
   </g>
   <g id="patch_5">
    <path d="M 57.6 307.584 
L 414.72 307.584 
" style="fill: none; stroke: #000000; stroke-width: 0.8; stroke-linejoin: miter; stroke-linecap: square"/>
   </g>
   <g id="patch_6">
    <path d="M 57.6 41.472 
L 414.72 41.472 
" style="fill: none; stroke: #000000; stroke-width: 0.8; stroke-linejoin: miter; stroke-linecap: square"/>
   </g>
   <g id="legend_1">
    <g id="patch_7">
     <path d="M 354.640313 93.506375 
L 407.72 93.506375 
Q 409.72 93.506375 409.72 91.506375 
L 409.72 48.472 
Q 409.72 46.472 407.72 46.472 
L 354.640313 46.472 
Q 352.640313 46.472 352.640313 48.472 
L 352.640313 91.506375 
Q 352.640313 93.506375 354.640313 93.506375 
z
" style="fill: #ffffff; opacity: 0.8; stroke: #cccccc; stroke-linejoin: miter"/>
    </g>
    <g id="line2d_30">
     <path d="M 356.640313 54.570438 
L 366.640313 54.570438 
L 376.640313 54.570438 
" style="fill: none; stroke: #1f77b4; stroke-width: 1.5; stroke-linecap: square"/>
    </g>
    <g id="text_14">
     <!-- IMG -->
     <g transform="translate(384.640313 58.070438) scale(0.1 -0.1)">
      <defs>
       <path id="DejaVuSans-49" d="M 628 4666 
L 1259 4666 
L 1259 0 
L 628 0 
L 628 4666 
z
" transform="scale(0.015625)"/>
       <path id="DejaVuSans-4d" d="M 628 4666 
L 1569 4666 
L 2759 1491 
L 3956 4666 
L 4897 4666 
L 4897 0 
L 4281 0 
L 4281 4097 
L 3078 897 
L 2444 897 
L 1241 4097 
L 1241 0 
L 628 0 
L 628 4666 
z
" transform="scale(0.015625)"/>
       <path id="DejaVuSans-47" d="M 3809 666 
L 3809 1919 
L 2778 1919 
L 2778 2438 
L 4434 2438 
L 4434 434 
Q 4069 175 3628 42 
Q 3188 -91 2688 -91 
Q 1594 -91 976 548 
Q 359 1188 359 2328 
Q 359 3472 976 4111 
Q 1594 4750 2688 4750 
Q 3144 4750 3555 4637 
Q 3966 4525 4313 4306 
L 4313 3634 
Q 3963 3931 3569 4081 
Q 3175 4231 2741 4231 
Q 1884 4231 1454 3753 
Q 1025 3275 1025 2328 
Q 1025 1384 1454 906 
Q 1884 428 2741 428 
Q 3075 428 3337 486 
Q 3600 544 3809 666 
z
" transform="scale(0.015625)"/>
      </defs>
      <use xlink:href="#DejaVuSans-49"/>
      <use xlink:href="#DejaVuSans-4d" x="29.492188"/>
      <use xlink:href="#DejaVuSans-47" x="115.771484"/>
     </g>
    </g>
    <g id="line2d_31">
     <path d="M 356.640313 69.248563 
L 366.640313 69.248563 
L 376.640313 69.248563 
" style="fill: none; stroke: #ff7f0e; stroke-width: 1.5; stroke-linecap: square"/>
    </g>
    <g id="text_15">
     <!-- n=1 -->
     <g transform="translate(384.640313 72.748563) scale(0.1 -0.1)">
      <defs>
       <path id="DejaVuSans-6e" d="M 3513 2113 
L 3513 0 
L 2938 0 
L 2938 2094 
Q 2938 2591 2744 2837 
Q 2550 3084 2163 3084 
Q 1697 3084 1428 2787 
Q 1159 2491 1159 1978 
L 1159 0 
L 581 0 
L 581 3500 
L 1159 3500 
L 1159 2956 
Q 1366 3272 1645 3428 
Q 1925 3584 2291 3584 
Q 2894 3584 3203 3211 
Q 3513 2838 3513 2113 
z
" transform="scale(0.015625)"/>
       <path id="DejaVuSans-3d" d="M 678 2906 
L 4684 2906 
L 4684 2381 
L 678 2381 
L 678 2906 
z
M 678 1631 
L 4684 1631 
L 4684 1100 
L 678 1100 
L 678 1631 
z
" transform="scale(0.015625)"/>
      </defs>
      <use xlink:href="#DejaVuSans-6e"/>
      <use xlink:href="#DejaVuSans-3d" x="63.378906"/>
      <use xlink:href="#DejaVuSans-31" x="147.167969"/>
     </g>
    </g>
    <g id="line2d_32">
     <path d="M 356.640313 83.926688 
L 366.640313 83.926688 
L 376.640313 83.926688 
" style="fill: none; stroke: #2ca02c; stroke-width: 1.5; stroke-linecap: square"/>
    </g>
    <g id="text_16">
     <!-- n=2 -->
     <g transform="translate(384.640313 87.426688) scale(0.1 -0.1)">
      <use xlink:href="#DejaVuSans-6e"/>
      <use xlink:href="#DejaVuSans-3d" x="63.378906"/>
      <use xlink:href="#DejaVuSans-32" x="147.167969"/>
     </g>
    </g>
   </g>
  </g>
 </g>
 <defs>
  <clipPath id="pc7aedca2d2">
   <rect x="57.6" y="41.472" width="357.12" height="266.112"/>
  </clipPath>
 </defs>
</svg>
