<?xml version="1.0" encoding="utf-8" standalone="no"?>
<!DOCTYPE svg PUBLIC "-//W3C//DTD SVG 1.1//EN"
  "http://www.w3.org/Graphics/SVG/1.1/DTD/svg11.dtd">
<svg xmlns:xlink="http://www.w3.org/1999/xlink" width="720pt" height="504pt" viewBox="0 0 720 504" xmlns="http://www.w3.org/2000/svg" version="1.1">
 <metadata>
  <rdf:RDF xmlns:dc="http://purl.org/dc/elements/1.1/" xmlns:cc="http://creativecommons.org/ns#" xmlns:rdf="http://www.w3.org/1999/02/22-rdf-syntax-ns#">
   <cc:Work>
    <dc:type rdf:resource="http://purl.org/dc/dcmitype/StillImage"/>
    <dc:date>2024-12-26T14:50:26.163325</dc:date>
    <dc:format>image/svg+xml</dc:format>
    <dc:creator>
     <cc:Agent>
      <dc:title>Matplotlib v3.9.2, https://matplotlib.org/</dc:title>
     </cc:Agent>
    </dc:creator>
   </cc:Work>
  </rdf:RDF>
 </metadata>
 <defs>
  <style type="text/css">*{stroke-linejoin: round; stroke-linecap: butt}</style>
 </defs>
 <g id="figure_1">
  <g id="patch_1">
   <path d="M 0 504 
L 720 504 
L 720 0 
L 0 0 
z
" style="fill: #ffffff"/>
  </g>
  <g id="axes_1">
   <g id="patch_2">
    <path d="M 90 448.56 
L 648 448.56 
L 648 60.48 
L 90 60.48 
z
" style="fill: #ffffff"/>
   </g>
   <g id="matplotlib.axis_1">
    <g id="xtick_1">
     <g id="line2d_1">
      <path d="M 100.175359 448.56 
L 100.175359 60.48 
" clip-path="url(#p2831a8dcd3)" style="fill: none; stroke: #b0b0b0; stroke-width: 0.8; stroke-linecap: square"/>
     </g>
     <g id="line2d_2">
      <defs>
       <path id="m81379ac448" d="M 0 0 
L 0 3.5 
" style="stroke: #000000; stroke-width: 0.8"/>
      </defs>
      <g>
       <use xlink:href="#m81379ac448" x="100.175359" y="448.56" style="stroke: #000000; stroke-width: 0.8"/>
      </g>
     </g>
     <g id="text_1">
      <!-- 475 -->
      <g transform="translate(90.631609 463.158437) scale(0.1 -0.1)">
       <defs>
        <path id="DejaVuSans-34" d="M 2419 4116 
L 825 1625 
L 2419 1625 
L 2419 4116 
z
M 2253 4666 
L 3047 4666 
L 3047 1625 
L 3713 1625 
L 3713 1100 
L 3047 1100 
L 3047 0 
L 2419 0 
L 2419 1100 
L 313 1100 
L 313 1709 
L 2253 4666 
z
" transform="scale(0.015625)"/>
        <path id="DejaVuSans-37" d="M 525 4666 
L 3525 4666 
L 3525 4397 
L 1831 0 
L 1172 0 
L 2766 4134 
L 525 4134 
L 525 4666 
z
" transform="scale(0.015625)"/>
        <path id="DejaVuSans-35" d="M 691 4666 
L 3169 4666 
L 3169 4134 
L 1269 4134 
L 1269 2991 
Q 1406 3038 1543 3061 
Q 1681 3084 1819 3084 
Q 2600 3084 3056 2656 
Q 3513 2228 3513 1497 
Q 3513 744 3044 326 
Q 2575 -91 1722 -91 
Q 1428 -91 1123 -41 
Q 819 9 494 109 
L 494 744 
Q 775 591 1075 516 
Q 1375 441 1709 441 
Q 2250 441 2565 725 
Q 2881 1009 2881 1497 
Q 2881 1984 2565 2268 
Q 2250 2553 1709 2553 
Q 1456 2553 1204 2497 
Q 953 2441 691 2322 
L 691 4666 
z
" transform="scale(0.015625)"/>
       </defs>
       <use xlink:href="#DejaVuSans-34"/>
       <use xlink:href="#DejaVuSans-37" x="63.623047"/>
       <use xlink:href="#DejaVuSans-35" x="127.246094"/>
      </g>
     </g>
    </g>
    <g id="xtick_2">
     <g id="line2d_3">
      <path d="M 166.195165 448.56 
L 166.195165 60.48 
" clip-path="url(#p2831a8dcd3)" style="fill: none; stroke: #b0b0b0; stroke-width: 0.8; stroke-linecap: square"/>
     </g>
     <g id="line2d_4">
      <g>
       <use xlink:href="#m81379ac448" x="166.195165" y="448.56" style="stroke: #000000; stroke-width: 0.8"/>
      </g>
     </g>
     <g id="text_2">
      <!-- 500 -->
      <g transform="translate(156.651415 463.158437) scale(0.1 -0.1)">
       <defs>
        <path id="DejaVuSans-30" d="M 2034 4250 
Q 1547 4250 1301 3770 
Q 1056 3291 1056 2328 
Q 1056 1369 1301 889 
Q 1547 409 2034 409 
Q 2525 409 2770 889 
Q 3016 1369 3016 2328 
Q 3016 3291 2770 3770 
Q 2525 4250 2034 4250 
z
M 2034 4750 
Q 2819 4750 3233 4129 
Q 3647 3509 3647 2328 
Q 3647 1150 3233 529 
Q 2819 -91 2034 -91 
Q 1250 -91 836 529 
Q 422 1150 422 2328 
Q 422 3509 836 4129 
Q 1250 4750 2034 4750 
z
" transform="scale(0.015625)"/>
       </defs>
       <use xlink:href="#DejaVuSans-35"/>
       <use xlink:href="#DejaVuSans-30" x="63.623047"/>
       <use xlink:href="#DejaVuSans-30" x="127.246094"/>
      </g>
     </g>
    </g>
    <g id="xtick_3">
     <g id="line2d_5">
      <path d="M 232.214971 448.56 
L 232.214971 60.48 
" clip-path="url(#p2831a8dcd3)" style="fill: none; stroke: #b0b0b0; stroke-width: 0.8; stroke-linecap: square"/>
     </g>
     <g id="line2d_6">
      <g>
       <use xlink:href="#m81379ac448" x="232.214971" y="448.56" style="stroke: #000000; stroke-width: 0.8"/>
      </g>
     </g>
     <g id="text_3">
      <!-- 525 -->
      <g transform="translate(222.671221 463.158437) scale(0.1 -0.1)">
       <defs>
        <path id="DejaVuSans-32" d="M 1228 531 
L 3431 531 
L 3431 0 
L 469 0 
L 469 531 
Q 828 903 1448 1529 
Q 2069 2156 2228 2338 
Q 2531 2678 2651 2914 
Q 2772 3150 2772 3378 
Q 2772 3750 2511 3984 
Q 2250 4219 1831 4219 
Q 1534 4219 1204 4116 
Q 875 4013 500 3803 
L 500 4441 
Q 881 4594 1212 4672 
Q 1544 4750 1819 4750 
Q 2544 4750 2975 4387 
Q 3406 4025 3406 3419 
Q 3406 3131 3298 2873 
Q 3191 2616 2906 2266 
Q 2828 2175 2409 1742 
Q 1991 1309 1228 531 
z
" transform="scale(0.015625)"/>
       </defs>
       <use xlink:href="#DejaVuSans-35"/>
       <use xlink:href="#DejaVuSans-32" x="63.623047"/>
       <use xlink:href="#DejaVuSans-35" x="127.246094"/>
      </g>
     </g>
    </g>
    <g id="xtick_4">
     <g id="line2d_7">
      <path d="M 298.234777 448.56 
L 298.234777 60.48 
" clip-path="url(#p2831a8dcd3)" style="fill: none; stroke: #b0b0b0; stroke-width: 0.8; stroke-linecap: square"/>
     </g>
     <g id="line2d_8">
      <g>
       <use xlink:href="#m81379ac448" x="298.234777" y="448.56" style="stroke: #000000; stroke-width: 0.8"/>
      </g>
     </g>
     <g id="text_4">
      <!-- 550 -->
      <g transform="translate(288.691027 463.158437) scale(0.1 -0.1)">
       <use xlink:href="#DejaVuSans-35"/>
       <use xlink:href="#DejaVuSans-35" x="63.623047"/>
       <use xlink:href="#DejaVuSans-30" x="127.246094"/>
      </g>
     </g>
    </g>
    <g id="xtick_5">
     <g id="line2d_9">
      <path d="M 364.254583 448.56 
L 364.254583 60.48 
" clip-path="url(#p2831a8dcd3)" style="fill: none; stroke: #b0b0b0; stroke-width: 0.8; stroke-linecap: square"/>
     </g>
     <g id="line2d_10">
      <g>
       <use xlink:href="#m81379ac448" x="364.254583" y="448.56" style="stroke: #000000; stroke-width: 0.8"/>
      </g>
     </g>
     <g id="text_5">
      <!-- 575 -->
      <g transform="translate(354.710833 463.158437) scale(0.1 -0.1)">
       <use xlink:href="#DejaVuSans-35"/>
       <use xlink:href="#DejaVuSans-37" x="63.623047"/>
       <use xlink:href="#DejaVuSans-35" x="127.246094"/>
      </g>
     </g>
    </g>
    <g id="xtick_6">
     <g id="line2d_11">
      <path d="M 430.27439 448.56 
L 430.27439 60.48 
" clip-path="url(#p2831a8dcd3)" style="fill: none; stroke: #b0b0b0; stroke-width: 0.8; stroke-linecap: square"/>
     </g>
     <g id="line2d_12">
      <g>
       <use xlink:href="#m81379ac448" x="430.27439" y="448.56" style="stroke: #000000; stroke-width: 0.8"/>
      </g>
     </g>
     <g id="text_6">
      <!-- 600 -->
      <g transform="translate(420.73064 463.158437) scale(0.1 -0.1)">
       <defs>
        <path id="DejaVuSans-36" d="M 2113 2584 
Q 1688 2584 1439 2293 
Q 1191 2003 1191 1497 
Q 1191 994 1439 701 
Q 1688 409 2113 409 
Q 2538 409 2786 701 
Q 3034 994 3034 1497 
Q 3034 2003 2786 2293 
Q 2538 2584 2113 2584 
z
M 3366 4563 
L 3366 3988 
Q 3128 4100 2886 4159 
Q 2644 4219 2406 4219 
Q 1781 4219 1451 3797 
Q 1122 3375 1075 2522 
Q 1259 2794 1537 2939 
Q 1816 3084 2150 3084 
Q 2853 3084 3261 2657 
Q 3669 2231 3669 1497 
Q 3669 778 3244 343 
Q 2819 -91 2113 -91 
Q 1303 -91 875 529 
Q 447 1150 447 2328 
Q 447 3434 972 4092 
Q 1497 4750 2381 4750 
Q 2619 4750 2861 4703 
Q 3103 4656 3366 4563 
z
" transform="scale(0.015625)"/>
       </defs>
       <use xlink:href="#DejaVuSans-36"/>
       <use xlink:href="#DejaVuSans-30" x="63.623047"/>
       <use xlink:href="#DejaVuSans-30" x="127.246094"/>
      </g>
     </g>
    </g>
    <g id="xtick_7">
     <g id="line2d_13">
      <path d="M 496.294196 448.56 
L 496.294196 60.48 
" clip-path="url(#p2831a8dcd3)" style="fill: none; stroke: #b0b0b0; stroke-width: 0.8; stroke-linecap: square"/>
     </g>
     <g id="line2d_14">
      <g>
       <use xlink:href="#m81379ac448" x="496.294196" y="448.56" style="stroke: #000000; stroke-width: 0.8"/>
      </g>
     </g>
     <g id="text_7">
      <!-- 625 -->
      <g transform="translate(486.750446 463.158437) scale(0.1 -0.1)">
       <use xlink:href="#DejaVuSans-36"/>
       <use xlink:href="#DejaVuSans-32" x="63.623047"/>
       <use xlink:href="#DejaVuSans-35" x="127.246094"/>
      </g>
     </g>
    </g>
    <g id="xtick_8">
     <g id="line2d_15">
      <path d="M 562.314002 448.56 
L 562.314002 60.48 
" clip-path="url(#p2831a8dcd3)" style="fill: none; stroke: #b0b0b0; stroke-width: 0.8; stroke-linecap: square"/>
     </g>
     <g id="line2d_16">
      <g>
       <use xlink:href="#m81379ac448" x="562.314002" y="448.56" style="stroke: #000000; stroke-width: 0.8"/>
      </g>
     </g>
     <g id="text_8">
      <!-- 650 -->
      <g transform="translate(552.770252 463.158437) scale(0.1 -0.1)">
       <use xlink:href="#DejaVuSans-36"/>
       <use xlink:href="#DejaVuSans-35" x="63.623047"/>
       <use xlink:href="#DejaVuSans-30" x="127.246094"/>
      </g>
     </g>
    </g>
    <g id="xtick_9">
     <g id="line2d_17">
      <path d="M 628.333808 448.56 
L 628.333808 60.48 
" clip-path="url(#p2831a8dcd3)" style="fill: none; stroke: #b0b0b0; stroke-width: 0.8; stroke-linecap: square"/>
     </g>
     <g id="line2d_18">
      <g>
       <use xlink:href="#m81379ac448" x="628.333808" y="448.56" style="stroke: #000000; stroke-width: 0.8"/>
      </g>
     </g>
     <g id="text_9">
      <!-- 675 -->
      <g transform="translate(618.790058 463.158437) scale(0.1 -0.1)">
       <use xlink:href="#DejaVuSans-36"/>
       <use xlink:href="#DejaVuSans-37" x="63.623047"/>
       <use xlink:href="#DejaVuSans-35" x="127.246094"/>
      </g>
     </g>
    </g>
    <g id="text_10">
     <!-- Wavelength (nm) -->
     <g transform="translate(325.807813 476.836563) scale(0.1 -0.1)">
      <defs>
       <path id="DejaVuSans-57" d="M 213 4666 
L 850 4666 
L 1831 722 
L 2809 4666 
L 3519 4666 
L 4500 722 
L 5478 4666 
L 6119 4666 
L 4947 0 
L 4153 0 
L 3169 4050 
L 2175 0 
L 1381 0 
L 213 4666 
z
" transform="scale(0.015625)"/>
       <path id="DejaVuSans-61" d="M 2194 1759 
Q 1497 1759 1228 1600 
Q 959 1441 959 1056 
Q 959 750 1161 570 
Q 1363 391 1709 391 
Q 2188 391 2477 730 
Q 2766 1069 2766 1631 
L 2766 1759 
L 2194 1759 
z
M 3341 1997 
L 3341 0 
L 2766 0 
L 2766 531 
Q 2569 213 2275 61 
Q 1981 -91 1556 -91 
Q 1019 -91 701 211 
Q 384 513 384 1019 
Q 384 1609 779 1909 
Q 1175 2209 1959 2209 
L 2766 2209 
L 2766 2266 
Q 2766 2663 2505 2880 
Q 2244 3097 1772 3097 
Q 1472 3097 1187 3025 
Q 903 2953 641 2809 
L 641 3341 
Q 956 3463 1253 3523 
Q 1550 3584 1831 3584 
Q 2591 3584 2966 3190 
Q 3341 2797 3341 1997 
z
" transform="scale(0.015625)"/>
       <path id="DejaVuSans-76" d="M 191 3500 
L 800 3500 
L 1894 563 
L 2988 3500 
L 3597 3500 
L 2284 0 
L 1503 0 
L 191 3500 
z
" transform="scale(0.015625)"/>
       <path id="DejaVuSans-65" d="M 3597 1894 
L 3597 1613 
L 953 1613 
Q 991 1019 1311 708 
Q 1631 397 2203 397 
Q 2534 397 2845 478 
Q 3156 559 3463 722 
L 3463 178 
Q 3153 47 2828 -22 
Q 2503 -91 2169 -91 
Q 1331 -91 842 396 
Q 353 884 353 1716 
Q 353 2575 817 3079 
Q 1281 3584 2069 3584 
Q 2775 3584 3186 3129 
Q 3597 2675 3597 1894 
z
M 3022 2063 
Q 3016 2534 2758 2815 
Q 2500 3097 2075 3097 
Q 1594 3097 1305 2825 
Q 1016 2553 972 2059 
L 3022 2063 
z
" transform="scale(0.015625)"/>
       <path id="DejaVuSans-6c" d="M 603 4863 
L 1178 4863 
L 1178 0 
L 603 0 
L 603 4863 
z
" transform="scale(0.015625)"/>
       <path id="DejaVuSans-6e" d="M 3513 2113 
L 3513 0 
L 2938 0 
L 2938 2094 
Q 2938 2591 2744 2837 
Q 2550 3084 2163 3084 
Q 1697 3084 1428 2787 
Q 1159 2491 1159 1978 
L 1159 0 
L 581 0 
L 581 3500 
L 1159 3500 
L 1159 2956 
Q 1366 3272 1645 3428 
Q 1925 3584 2291 3584 
Q 2894 3584 3203 3211 
Q 3513 2838 3513 2113 
z
" transform="scale(0.015625)"/>
       <path id="DejaVuSans-67" d="M 2906 1791 
Q 2906 2416 2648 2759 
Q 2391 3103 1925 3103 
Q 1463 3103 1205 2759 
Q 947 2416 947 1791 
Q 947 1169 1205 825 
Q 1463 481 1925 481 
Q 2391 481 2648 825 
Q 2906 1169 2906 1791 
z
M 3481 434 
Q 3481 -459 3084 -895 
Q 2688 -1331 1869 -1331 
Q 1566 -1331 1297 -1286 
Q 1028 -1241 775 -1147 
L 775 -588 
Q 1028 -725 1275 -790 
Q 1522 -856 1778 -856 
Q 2344 -856 2625 -561 
Q 2906 -266 2906 331 
L 2906 616 
Q 2728 306 2450 153 
Q 2172 0 1784 0 
Q 1141 0 747 490 
Q 353 981 353 1791 
Q 353 2603 747 3093 
Q 1141 3584 1784 3584 
Q 2172 3584 2450 3431 
Q 2728 3278 2906 2969 
L 2906 3500 
L 3481 3500 
L 3481 434 
z
" transform="scale(0.015625)"/>
       <path id="DejaVuSans-74" d="M 1172 4494 
L 1172 3500 
L 2356 3500 
L 2356 3053 
L 1172 3053 
L 1172 1153 
Q 1172 725 1289 603 
Q 1406 481 1766 481 
L 2356 481 
L 2356 0 
L 1766 0 
Q 1100 0 847 248 
Q 594 497 594 1153 
L 594 3053 
L 172 3053 
L 172 3500 
L 594 3500 
L 594 4494 
L 1172 4494 
z
" transform="scale(0.015625)"/>
       <path id="DejaVuSans-68" d="M 3513 2113 
L 3513 0 
L 2938 0 
L 2938 2094 
Q 2938 2591 2744 2837 
Q 2550 3084 2163 3084 
Q 1697 3084 1428 2787 
Q 1159 2491 1159 1978 
L 1159 0 
L 581 0 
L 581 4863 
L 1159 4863 
L 1159 2956 
Q 1366 3272 1645 3428 
Q 1925 3584 2291 3584 
Q 2894 3584 3203 3211 
Q 3513 2838 3513 2113 
z
" transform="scale(0.015625)"/>
       <path id="DejaVuSans-20" transform="scale(0.015625)"/>
       <path id="DejaVuSans-28" d="M 1984 4856 
Q 1566 4138 1362 3434 
Q 1159 2731 1159 2009 
Q 1159 1288 1364 580 
Q 1569 -128 1984 -844 
L 1484 -844 
Q 1016 -109 783 600 
Q 550 1309 550 2009 
Q 550 2706 781 3412 
Q 1013 4119 1484 4856 
L 1984 4856 
z
" transform="scale(0.015625)"/>
       <path id="DejaVuSans-6d" d="M 3328 2828 
Q 3544 3216 3844 3400 
Q 4144 3584 4550 3584 
Q 5097 3584 5394 3201 
Q 5691 2819 5691 2113 
L 5691 0 
L 5113 0 
L 5113 2094 
Q 5113 2597 4934 2840 
Q 4756 3084 4391 3084 
Q 3944 3084 3684 2787 
Q 3425 2491 3425 1978 
L 3425 0 
L 2847 0 
L 2847 2094 
Q 2847 2600 2669 2842 
Q 2491 3084 2119 3084 
Q 1678 3084 1418 2786 
Q 1159 2488 1159 1978 
L 1159 0 
L 581 0 
L 581 3500 
L 1159 3500 
L 1159 2956 
Q 1356 3278 1631 3431 
Q 1906 3584 2284 3584 
Q 2666 3584 2933 3390 
Q 3200 3197 3328 2828 
z
" transform="scale(0.015625)"/>
       <path id="DejaVuSans-29" d="M 513 4856 
L 1013 4856 
Q 1481 4119 1714 3412 
Q 1947 2706 1947 2009 
Q 1947 1309 1714 600 
Q 1481 -109 1013 -844 
L 513 -844 
Q 928 -128 1133 580 
Q 1338 1288 1338 2009 
Q 1338 2731 1133 3434 
Q 928 4138 513 4856 
z
" transform="scale(0.015625)"/>
      </defs>
      <use xlink:href="#DejaVuSans-57"/>
      <use xlink:href="#DejaVuSans-61" x="92.501953"/>
      <use xlink:href="#DejaVuSans-76" x="153.78125"/>
      <use xlink:href="#DejaVuSans-65" x="212.960938"/>
      <use xlink:href="#DejaVuSans-6c" x="274.484375"/>
      <use xlink:href="#DejaVuSans-65" x="302.267578"/>
      <use xlink:href="#DejaVuSans-6e" x="363.791016"/>
      <use xlink:href="#DejaVuSans-67" x="427.169922"/>
      <use xlink:href="#DejaVuSans-74" x="490.646484"/>
      <use xlink:href="#DejaVuSans-68" x="529.855469"/>
      <use xlink:href="#DejaVuSans-20" x="593.234375"/>
      <use xlink:href="#DejaVuSans-28" x="625.021484"/>
      <use xlink:href="#DejaVuSans-6e" x="664.035156"/>
      <use xlink:href="#DejaVuSans-6d" x="727.414062"/>
      <use xlink:href="#DejaVuSans-29" x="824.826172"/>
     </g>
    </g>
   </g>
   <g id="matplotlib.axis_2">
    <g id="ytick_1">
     <g id="line2d_19">
      <path d="M 90 448.56 
L 648 448.56 
" clip-path="url(#p2831a8dcd3)" style="fill: none; stroke: #b0b0b0; stroke-width: 0.8; stroke-linecap: square"/>
     </g>
     <g id="line2d_20">
      <defs>
       <path id="m9185a032cc" d="M 0 0 
L -3.5 0 
" style="stroke: #000000; stroke-width: 0.8"/>
      </defs>
      <g>
       <use xlink:href="#m9185a032cc" x="90" y="448.56" style="stroke: #000000; stroke-width: 0.8"/>
      </g>
     </g>
     <g id="text_11">
      <!-- 0.0 -->
      <g transform="translate(67.096875 452.359219) scale(0.1 -0.1)">
       <defs>
        <path id="DejaVuSans-2e" d="M 684 794 
L 1344 794 
L 1344 0 
L 684 0 
L 684 794 
z
" transform="scale(0.015625)"/>
       </defs>
       <use xlink:href="#DejaVuSans-30"/>
       <use xlink:href="#DejaVuSans-2e" x="63.623047"/>
       <use xlink:href="#DejaVuSans-30" x="95.410156"/>
      </g>
     </g>
    </g>
    <g id="ytick_2">
     <g id="line2d_21">
      <path d="M 90 378 
L 648 378 
" clip-path="url(#p2831a8dcd3)" style="fill: none; stroke: #b0b0b0; stroke-width: 0.8; stroke-linecap: square"/>
     </g>
     <g id="line2d_22">
      <g>
       <use xlink:href="#m9185a032cc" x="90" y="378" style="stroke: #000000; stroke-width: 0.8"/>
      </g>
     </g>
     <g id="text_12">
      <!-- 0.2 -->
      <g transform="translate(67.096875 381.799219) scale(0.1 -0.1)">
       <use xlink:href="#DejaVuSans-30"/>
       <use xlink:href="#DejaVuSans-2e" x="63.623047"/>
       <use xlink:href="#DejaVuSans-32" x="95.410156"/>
      </g>
     </g>
    </g>
    <g id="ytick_3">
     <g id="line2d_23">
      <path d="M 90 307.44 
L 648 307.44 
" clip-path="url(#p2831a8dcd3)" style="fill: none; stroke: #b0b0b0; stroke-width: 0.8; stroke-linecap: square"/>
     </g>
     <g id="line2d_24">
      <g>
       <use xlink:href="#m9185a032cc" x="90" y="307.44" style="stroke: #000000; stroke-width: 0.8"/>
      </g>
     </g>
     <g id="text_13">
      <!-- 0.4 -->
      <g transform="translate(67.096875 311.239219) scale(0.1 -0.1)">
       <use xlink:href="#DejaVuSans-30"/>
       <use xlink:href="#DejaVuSans-2e" x="63.623047"/>
       <use xlink:href="#DejaVuSans-34" x="95.410156"/>
      </g>
     </g>
    </g>
    <g id="ytick_4">
     <g id="line2d_25">
      <path d="M 90 236.88 
L 648 236.88 
" clip-path="url(#p2831a8dcd3)" style="fill: none; stroke: #b0b0b0; stroke-width: 0.8; stroke-linecap: square"/>
     </g>
     <g id="line2d_26">
      <g>
       <use xlink:href="#m9185a032cc" x="90" y="236.88" style="stroke: #000000; stroke-width: 0.8"/>
      </g>
     </g>
     <g id="text_14">
      <!-- 0.6 -->
      <g transform="translate(67.096875 240.679219) scale(0.1 -0.1)">
       <use xlink:href="#DejaVuSans-30"/>
       <use xlink:href="#DejaVuSans-2e" x="63.623047"/>
       <use xlink:href="#DejaVuSans-36" x="95.410156"/>
      </g>
     </g>
    </g>
    <g id="ytick_5">
     <g id="line2d_27">
      <path d="M 90 166.32 
L 648 166.32 
" clip-path="url(#p2831a8dcd3)" style="fill: none; stroke: #b0b0b0; stroke-width: 0.8; stroke-linecap: square"/>
     </g>
     <g id="line2d_28">
      <g>
       <use xlink:href="#m9185a032cc" x="90" y="166.32" style="stroke: #000000; stroke-width: 0.8"/>
      </g>
     </g>
     <g id="text_15">
      <!-- 0.8 -->
      <g transform="translate(67.096875 170.119219) scale(0.1 -0.1)">
       <defs>
        <path id="DejaVuSans-38" d="M 2034 2216 
Q 1584 2216 1326 1975 
Q 1069 1734 1069 1313 
Q 1069 891 1326 650 
Q 1584 409 2034 409 
Q 2484 409 2743 651 
Q 3003 894 3003 1313 
Q 3003 1734 2745 1975 
Q 2488 2216 2034 2216 
z
M 1403 2484 
Q 997 2584 770 2862 
Q 544 3141 544 3541 
Q 544 4100 942 4425 
Q 1341 4750 2034 4750 
Q 2731 4750 3128 4425 
Q 3525 4100 3525 3541 
Q 3525 3141 3298 2862 
Q 3072 2584 2669 2484 
Q 3125 2378 3379 2068 
Q 3634 1759 3634 1313 
Q 3634 634 3220 271 
Q 2806 -91 2034 -91 
Q 1263 -91 848 271 
Q 434 634 434 1313 
Q 434 1759 690 2068 
Q 947 2378 1403 2484 
z
M 1172 3481 
Q 1172 3119 1398 2916 
Q 1625 2713 2034 2713 
Q 2441 2713 2670 2916 
Q 2900 3119 2900 3481 
Q 2900 3844 2670 4047 
Q 2441 4250 2034 4250 
Q 1625 4250 1398 4047 
Q 1172 3844 1172 3481 
z
" transform="scale(0.015625)"/>
       </defs>
       <use xlink:href="#DejaVuSans-30"/>
       <use xlink:href="#DejaVuSans-2e" x="63.623047"/>
       <use xlink:href="#DejaVuSans-38" x="95.410156"/>
      </g>
     </g>
    </g>
    <g id="ytick_6">
     <g id="line2d_29">
      <path d="M 90 95.76 
L 648 95.76 
" clip-path="url(#p2831a8dcd3)" style="fill: none; stroke: #b0b0b0; stroke-width: 0.8; stroke-linecap: square"/>
     </g>
     <g id="line2d_30">
      <g>
       <use xlink:href="#m9185a032cc" x="90" y="95.76" style="stroke: #000000; stroke-width: 0.8"/>
      </g>
     </g>
     <g id="text_16">
      <!-- 1.0 -->
      <g transform="translate(67.096875 99.559219) scale(0.1 -0.1)">
       <defs>
        <path id="DejaVuSans-31" d="M 794 531 
L 1825 531 
L 1825 4091 
L 703 3866 
L 703 4441 
L 1819 4666 
L 2450 4666 
L 2450 531 
L 3481 531 
L 3481 0 
L 794 0 
L 794 531 
z
" transform="scale(0.015625)"/>
       </defs>
       <use xlink:href="#DejaVuSans-31"/>
       <use xlink:href="#DejaVuSans-2e" x="63.623047"/>
       <use xlink:href="#DejaVuSans-30" x="95.410156"/>
      </g>
     </g>
    </g>
    <g id="text_17">
     <!-- Intensity (Normalized) -->
     <g transform="translate(61.017187 310.128594) rotate(-90) scale(0.1 -0.1)">
      <defs>
       <path id="DejaVuSans-49" d="M 628 4666 
L 1259 4666 
L 1259 0 
L 628 0 
L 628 4666 
z
" transform="scale(0.015625)"/>
       <path id="DejaVuSans-73" d="M 2834 3397 
L 2834 2853 
Q 2591 2978 2328 3040 
Q 2066 3103 1784 3103 
Q 1356 3103 1142 2972 
Q 928 2841 928 2578 
Q 928 2378 1081 2264 
Q 1234 2150 1697 2047 
L 1894 2003 
Q 2506 1872 2764 1633 
Q 3022 1394 3022 966 
Q 3022 478 2636 193 
Q 2250 -91 1575 -91 
Q 1294 -91 989 -36 
Q 684 19 347 128 
L 347 722 
Q 666 556 975 473 
Q 1284 391 1588 391 
Q 1994 391 2212 530 
Q 2431 669 2431 922 
Q 2431 1156 2273 1281 
Q 2116 1406 1581 1522 
L 1381 1569 
Q 847 1681 609 1914 
Q 372 2147 372 2553 
Q 372 3047 722 3315 
Q 1072 3584 1716 3584 
Q 2034 3584 2315 3537 
Q 2597 3491 2834 3397 
z
" transform="scale(0.015625)"/>
       <path id="DejaVuSans-69" d="M 603 3500 
L 1178 3500 
L 1178 0 
L 603 0 
L 603 3500 
z
M 603 4863 
L 1178 4863 
L 1178 4134 
L 603 4134 
L 603 4863 
z
" transform="scale(0.015625)"/>
       <path id="DejaVuSans-79" d="M 2059 -325 
Q 1816 -950 1584 -1140 
Q 1353 -1331 966 -1331 
L 506 -1331 
L 506 -850 
L 844 -850 
Q 1081 -850 1212 -737 
Q 1344 -625 1503 -206 
L 1606 56 
L 191 3500 
L 800 3500 
L 1894 763 
L 2988 3500 
L 3597 3500 
L 2059 -325 
z
" transform="scale(0.015625)"/>
       <path id="DejaVuSans-4e" d="M 628 4666 
L 1478 4666 
L 3547 763 
L 3547 4666 
L 4159 4666 
L 4159 0 
L 3309 0 
L 1241 3903 
L 1241 0 
L 628 0 
L 628 4666 
z
" transform="scale(0.015625)"/>
       <path id="DejaVuSans-6f" d="M 1959 3097 
Q 1497 3097 1228 2736 
Q 959 2375 959 1747 
Q 959 1119 1226 758 
Q 1494 397 1959 397 
Q 2419 397 2687 759 
Q 2956 1122 2956 1747 
Q 2956 2369 2687 2733 
Q 2419 3097 1959 3097 
z
M 1959 3584 
Q 2709 3584 3137 3096 
Q 3566 2609 3566 1747 
Q 3566 888 3137 398 
Q 2709 -91 1959 -91 
Q 1206 -91 779 398 
Q 353 888 353 1747 
Q 353 2609 779 3096 
Q 1206 3584 1959 3584 
z
" transform="scale(0.015625)"/>
       <path id="DejaVuSans-72" d="M 2631 2963 
Q 2534 3019 2420 3045 
Q 2306 3072 2169 3072 
Q 1681 3072 1420 2755 
Q 1159 2438 1159 1844 
L 1159 0 
L 581 0 
L 581 3500 
L 1159 3500 
L 1159 2956 
Q 1341 3275 1631 3429 
Q 1922 3584 2338 3584 
Q 2397 3584 2469 3576 
Q 2541 3569 2628 3553 
L 2631 2963 
z
" transform="scale(0.015625)"/>
       <path id="DejaVuSans-7a" d="M 353 3500 
L 3084 3500 
L 3084 2975 
L 922 459 
L 3084 459 
L 3084 0 
L 275 0 
L 275 525 
L 2438 3041 
L 353 3041 
L 353 3500 
z
" transform="scale(0.015625)"/>
       <path id="DejaVuSans-64" d="M 2906 2969 
L 2906 4863 
L 3481 4863 
L 3481 0 
L 2906 0 
L 2906 525 
Q 2725 213 2448 61 
Q 2172 -91 1784 -91 
Q 1150 -91 751 415 
Q 353 922 353 1747 
Q 353 2572 751 3078 
Q 1150 3584 1784 3584 
Q 2172 3584 2448 3432 
Q 2725 3281 2906 2969 
z
M 947 1747 
Q 947 1113 1208 752 
Q 1469 391 1925 391 
Q 2381 391 2643 752 
Q 2906 1113 2906 1747 
Q 2906 2381 2643 2742 
Q 2381 3103 1925 3103 
Q 1469 3103 1208 2742 
Q 947 2381 947 1747 
z
" transform="scale(0.015625)"/>
      </defs>
      <use xlink:href="#DejaVuSans-49"/>
      <use xlink:href="#DejaVuSans-6e" x="29.492188"/>
      <use xlink:href="#DejaVuSans-74" x="92.871094"/>
      <use xlink:href="#DejaVuSans-65" x="132.080078"/>
      <use xlink:href="#DejaVuSans-6e" x="193.603516"/>
      <use xlink:href="#DejaVuSans-73" x="256.982422"/>
      <use xlink:href="#DejaVuSans-69" x="309.082031"/>
      <use xlink:href="#DejaVuSans-74" x="336.865234"/>
      <use xlink:href="#DejaVuSans-79" x="376.074219"/>
      <use xlink:href="#DejaVuSans-20" x="435.253906"/>
      <use xlink:href="#DejaVuSans-28" x="467.041016"/>
      <use xlink:href="#DejaVuSans-4e" x="506.054688"/>
      <use xlink:href="#DejaVuSans-6f" x="580.859375"/>
      <use xlink:href="#DejaVuSans-72" x="642.041016"/>
      <use xlink:href="#DejaVuSans-6d" x="681.404297"/>
      <use xlink:href="#DejaVuSans-61" x="778.816406"/>
      <use xlink:href="#DejaVuSans-6c" x="840.095703"/>
      <use xlink:href="#DejaVuSans-69" x="867.878906"/>
      <use xlink:href="#DejaVuSans-7a" x="895.662109"/>
      <use xlink:href="#DejaVuSans-65" x="948.152344"/>
      <use xlink:href="#DejaVuSans-64" x="1009.675781"/>
      <use xlink:href="#DejaVuSans-29" x="1073.152344"/>
     </g>
    </g>
   </g>
   <g id="line2d_31">
    <path d="M 90 456.001458 
L 90.620345 366.484586 
L 90.930517 375.082369 
L 91.240689 371.96807 
L 91.861034 373.125362 
L 92.481379 376.329538 
L 92.791551 376.816132 
L 93.411895 376.139636 
L 94.342412 374.517978 
L 94.652585 374.421818 
L 96.203446 375.591674 
L 96.513619 375.287734 
L 97.133963 374.01882 
L 97.444136 373.987895 
L 97.754308 374.331941 
L 98.06448 374.869272 
L 98.374653 375.862272 
L 98.994997 378.900223 
L 99.30517 379.762756 
L 99.615342 379.980684 
L 99.925514 379.858915 
L 100.235686 379.416293 
L 100.856031 377.359261 
L 101.476376 375.316726 
L 102.406893 373.424953 
L 102.717065 372.915648 
L 103.027237 373.020505 
L 103.957754 375.566547 
L 104.267927 375.468938 
L 104.888271 374.857675 
L 105.818788 373.308499 
L 106.128961 373.414806 
L 106.749305 373.923627 
L 108.610339 373.880138 
L 109.230684 373.807173 
L 109.540856 373.527877 
L 110.471373 370.763907 
L 110.781545 370.982319 
L 111.712062 373.062544 
L 112.332407 374.682753 
L 112.642579 374.939821 
L 113.262924 374.887634 
L 113.573096 374.431 
L 114.193441 373.265493 
L 114.503613 373.27709 
L 115.123958 373.966633 
L 115.744302 374.450811 
L 116.364647 375.72649 
L 116.984992 377.270351 
L 117.915509 380.690522 
L 118.225681 380.616107 
L 118.846026 378.658134 
L 119.776543 374.750886 
L 120.396887 370.726217 
L 121.017232 365.521545 
L 121.327404 361.833674 
L 121.637576 356.534777 
L 122.257921 339.486107 
L 122.568093 326.583392 
L 123.188438 286.222664 
L 124.118955 199.554807 
L 124.7393 140.103841 
L 125.359644 100.746743 
L 125.669817 95.76 
L 125.979989 103.535357 
L 126.290161 117.030489 
L 126.910506 166.679026 
L 127.841023 257.825288 
L 128.461367 306.441685 
L 129.081712 337.038157 
L 129.391884 348.065528 
L 130.012229 359.739436 
L 130.632574 366.933489 
L 131.252918 371.647701 
L 131.563091 372.818523 
L 131.873263 373.340391 
L 132.183435 374.104832 
L 132.80378 376.808884 
L 133.113952 377.123454 
L 133.424125 375.965196 
L 133.734297 374.256077 
L 134.044469 373.396927 
L 134.354641 373.496952 
L 134.664814 374.002874 
L 135.285158 374.335807 
L 135.905503 374.247862 
L 136.525848 373.620654 
L 137.146192 372.467228 
L 137.766537 371.216193 
L 138.076709 371.043687 
L 138.697054 371.215227 
L 139.317399 371.535113 
L 139.627571 371.508053 
L 140.247916 371.12245 
L 140.558088 370.525201 
L 140.86826 369.280931 
L 141.488605 365.943872 
L 142.108949 363.696455 
L 143.349639 359.869419 
L 143.659811 359.632163 
L 144.280156 359.953981 
L 144.590328 360.303343 
L 145.520845 362.130366 
L 146.14119 362.751776 
L 146.451362 363.419092 
L 147.071707 365.310382 
L 147.381879 365.42152 
L 147.692051 364.882739 
L 148.002223 364.652731 
L 149.242913 365.109849 
L 149.553085 365.872357 
L 149.863257 366.229933 
L 150.17343 365.565034 
L 150.793774 362.083495 
L 151.103947 361.126253 
L 151.724291 360.68653 
L 152.034464 360.842608 
L 152.654808 361.987819 
L 153.585325 363.918249 
L 153.895497 364.166137 
L 154.515842 364.131829 
L 154.826014 363.852532 
L 155.446359 362.692341 
L 155.756531 362.555109 
L 156.376876 363.133513 
L 156.687048 363.521049 
L 157.617565 365.96465 
L 158.23791 366.52131 
L 158.548082 367.298797 
L 159.478599 371.237454 
L 160.409116 373.336042 
L 161.339633 374.144938 
L 161.959978 375.112328 
L 162.580322 375.32784 
L 162.890495 375.272271 
L 163.200667 374.857675 
L 163.821012 371.801362 
L 164.441356 368.989071 
L 164.751529 368.16133 
L 165.061701 367.009353 
L 165.992218 361.289578 
L 166.30239 361.072133 
L 166.612563 361.359644 
L 166.922735 361.147031 
L 168.783769 357.557252 
L 169.093941 357.470274 
L 169.404113 357.532125 
L 169.714286 357.372665 
L 170.33463 356.670076 
L 170.644803 356.169952 
L 171.265147 353.964091 
L 171.885492 352.086814 
L 172.505837 351.03438 
L 173.436354 349.140673 
L 173.746526 348.972033 
L 174.056698 349.162901 
L 174.36687 349.609872 
L 174.987215 351.407902 
L 175.297387 352.546832 
L 175.917732 356.141442 
L 176.538077 359.01945 
L 177.158421 360.195104 
L 177.778766 361.581921 
L 178.088938 361.781971 
L 178.399111 361.735582 
L 178.709283 361.806131 
L 179.019455 361.592552 
L 179.329628 360.399019 
L 179.949972 355.957339 
L 180.260145 354.97352 
L 181.500834 356.034653 
L 181.811006 356.823254 
L 182.431351 358.829065 
L 183.051695 360.51354 
L 183.67204 363.786332 
L 183.982212 363.894572 
L 184.912729 358.559433 
L 185.533074 357.899366 
L 185.843246 357.335458 
L 186.463591 355.216575 
L 186.773763 354.897173 
L 187.394108 356.280124 
L 187.70428 356.393196 
L 188.324625 355.294856 
L 189.255142 354.346311 
L 189.565314 354.420726 
L 191.116176 357.637465 
L 191.73652 359.003504 
L 192.046693 359.553882 
L 192.356865 360.430911 
L 193.597554 367.215685 
L 194.217899 369.712922 
L 195.148416 374.737839 
L 195.458588 375.296431 
L 195.76876 375.501313 
L 196.078933 375.441395 
L 196.389105 374.83883 
L 197.629794 370.678379 
L 199.180656 365.167351 
L 199.801001 363.15864 
L 200.111173 362.695724 
L 200.731518 362.602947 
L 201.662034 362.572505 
L 201.972207 363.096789 
L 202.592551 364.566236 
L 202.902724 364.686072 
L 203.212896 364.495204 
L 203.523068 364.54739 
L 203.833241 364.871625 
L 204.453585 365.97963 
L 205.07393 368.198054 
L 205.694275 370.478329 
L 206.004447 371.14951 
L 206.314619 371.459248 
L 206.934964 371.3196 
L 207.245136 370.797249 
L 207.555309 369.272233 
L 208.175653 364.47056 
L 208.485825 363.222908 
L 209.10617 362.733414 
L 209.416342 362.960524 
L 210.346859 364.69622 
L 210.657032 364.89192 
L 210.967204 364.881773 
L 211.277376 364.429487 
L 212.207893 361.060536 
L 213.758755 355.270695 
L 214.068927 354.394149 
L 214.999444 353.488128 
L 215.619789 351.405003 
L 215.929961 350.856558 
L 216.860478 351.493914 
L 217.480823 351.209302 
L 217.790995 351.222349 
L 218.41134 351.836511 
L 218.721512 351.650474 
L 219.962201 349.025186 
L 220.272374 348.457896 
L 220.582546 348.215807 
L 222.44358 349.865974 
L 222.753752 349.400641 
L 223.063924 348.72946 
L 223.374097 348.368501 
L 223.684269 348.456929 
L 224.304614 348.776332 
L 224.924958 349.236349 
L 225.235131 349.468291 
L 225.545303 349.434466 
L 225.855475 349.268241 
L 226.165648 349.239732 
L 226.47582 349.468291 
L 228.026681 351.806552 
L 228.957198 353.853919 
L 229.267371 353.694459 
L 230.197888 351.482317 
L 231.748749 347.154191 
L 232.058922 347.132446 
L 232.989439 348.476741 
L 233.919956 349.629684 
L 234.850472 349.591027 
L 235.160645 349.532075 
L 235.470817 349.256644 
L 236.711506 347.079776 
L 237.331851 345.352778 
L 237.642023 345.276431 
L 238.882713 348.672441 
L 240.123402 352.323588 
L 240.433574 352.572442 
L 241.053919 351.843759 
L 241.674263 350.664723 
L 241.984436 350.010937 
L 242.294608 349.622435 
L 242.914953 349.473123 
L 243.225125 349.61712 
L 244.155642 351.371661 
L 245.086159 351.55963 
L 245.706504 352.377708 
L 246.016676 352.576791 
L 246.637021 352.442941 
L 247.257365 352.401868 
L 247.87771 352.492712 
L 248.498054 352.024963 
L 248.808227 352.211 
L 249.738744 354.054452 
L 250.359088 354.770571 
L 250.669261 354.681177 
L 250.979433 353.94283 
L 251.599778 351.28275 
L 253.150639 342.664189 
L 253.460812 341.723376 
L 253.770984 341.600157 
L 254.081156 342.127824 
L 254.391329 342.982625 
L 255.011673 346.822708 
L 255.632018 350.631864 
L 256.252362 353.348963 
L 256.562535 354.193133 
L 256.872707 354.652184 
L 257.182879 354.784101 
L 257.493052 354.493208 
L 259.354086 350.821283 
L 259.97443 350.732856 
L 260.284603 350.867672 
L 260.904947 351.355232 
L 261.21512 351.295314 
L 261.525292 351.068688 
L 262.765981 350.659891 
L 263.076153 351.044044 
L 263.696498 352.465652 
L 264.00667 352.635259 
L 264.627015 352.291696 
L 264.937187 351.868886 
L 265.557532 350.403305 
L 265.867704 349.97373 
L 266.177877 349.830216 
L 266.488049 349.82925 
L 266.798221 349.993542 
L 267.728738 351.047909 
L 268.349083 351.378909 
L 268.659255 351.30981 
L 269.589772 350.444861 
L 270.210117 350.621234 
L 270.830461 351.013601 
L 271.450806 351.678017 
L 272.691495 353.379888 
L 273.31184 353.843288 
L 273.932185 354.582119 
L 274.242357 354.564723 
L 275.483046 353.006366 
L 275.793218 352.861402 
L 276.103391 353.005883 
L 276.723735 354.202314 
L 277.34408 355.905152 
L 277.964425 357.576097 
L 278.274597 357.770832 
L 279.205114 357.629251 
L 280.755976 356.429436 
L 281.37632 355.5152 
L 281.686492 354.918434 
L 282.617009 352.392204 
L 282.927182 352.15688 
L 283.237354 352.17041 
L 283.547526 352.338084 
L 285.098388 354.288326 
L 285.40856 354.343412 
L 285.718733 353.897891 
L 286.339077 352.440042 
L 286.64925 352.119189 
L 287.269594 351.691547 
L 287.579767 351.451391 
L 288.200111 351.285166 
L 288.510283 351.033413 
L 289.130628 350.270422 
L 289.4408 350.092117 
L 290.061145 350.113378 
L 290.68149 350.52894 
L 291.301834 351.247959 
L 291.922179 352.448257 
L 292.232351 352.827094 
L 292.852696 352.907791 
L 293.162868 353.161477 
L 293.783213 354.303306 
L 294.093385 354.510603 
L 294.403558 354.161241 
L 294.71373 353.98052 
L 295.023902 354.227925 
L 295.644247 356.001794 
L 295.954419 356.297036 
L 296.574764 355.589132 
L 296.884936 355.701237 
L 297.505281 356.630452 
L 297.815453 356.649298 
L 298.74597 355.836053 
L 299.366315 355.311768 
L 299.986659 354.710653 
L 301.537521 353.796417 
L 301.847693 354.129349 
L 302.157865 354.648319 
L 302.468038 354.941628 
L 303.088382 354.578253 
L 303.398555 354.780719 
L 304.329072 356.80006 
L 304.639244 356.713082 
L 304.949416 356.410591 
L 305.569761 356.172851 
L 306.500278 355.722015 
L 306.81045 355.739894 
L 307.430795 355.440786 
L 308.05114 354.997681 
L 308.981656 353.736982 
L 309.291829 353.79835 
L 309.912173 354.320701 
L 310.222346 354.301856 
L 310.532518 354.170422 
L 310.84269 354.216328 
L 311.152863 354.553126 
L 311.773207 355.410827 
L 312.08338 355.402129 
L 312.393552 355.156657 
L 312.703724 355.10592 
L 313.013897 355.359606 
L 313.324069 355.771786 
L 313.634241 355.935111 
L 313.944414 355.841851 
L 314.874931 355.101571 
L 315.495275 354.311037 
L 315.805447 354.110504 
L 316.425792 354.163174 
L 317.356309 354.349694 
L 317.666481 354.742062 
L 318.286826 355.926413 
L 318.596998 356.204743 
L 319.217343 356.515931 
L 320.458032 357.785328 
L 321.388549 359.808535 
L 322.008894 360.015349 
L 322.319066 360.519339 
L 322.939411 362.259384 
L 323.249583 362.470064 
L 323.869928 361.657785 
L 324.1801 361.585304 
L 324.490272 361.749596 
L 324.800445 361.723985 
L 325.110617 361.37414 
L 326.971651 358.190259 
L 328.21234 357.171166 
L 329.142857 357.044565 
L 329.453029 356.955171 
L 329.763202 357.404557 
L 330.383546 360.202352 
L 330.693719 360.949397 
L 331.003891 360.970175 
L 331.624236 360.502427 
L 331.934408 359.600754 
L 332.554753 356.050115 
L 333.175097 351.247959 
L 333.795442 343.720006 
L 335.346304 319.623696 
L 335.656476 317.555551 
L 335.966648 317.202806 
L 336.27682 318.368312 
L 336.586993 322.100155 
L 337.51751 337.766357 
L 338.448027 349.613254 
L 339.068371 355.072095 
L 339.378544 355.713317 
L 339.688716 355.115101 
L 339.998888 354.805846 
L 340.619233 354.69664 
L 341.859922 352.687929 
L 343.410784 350.14672 
L 343.720956 349.831183 
L 344.031128 349.691535 
L 344.341301 349.743721 
L 344.961645 350.108063 
L 345.271818 350.157834 
L 345.58199 350.344353 
L 345.892162 350.996689 
L 346.512507 352.891845 
L 346.822679 353.150363 
L 347.443024 352.740599 
L 347.753196 352.777807 
L 348.373541 353.100592 
L 348.683713 352.947414 
L 348.993885 352.587421 
L 349.304058 352.480148 
L 349.61423 352.944998 
L 350.544747 355.377485 
L 351.475264 356.829536 
L 351.785436 356.989479 
L 352.095609 356.983197 
L 352.405781 356.788946 
L 353.026126 355.960721 
L 354.88716 352.646373 
L 355.197332 352.596119 
L 356.127849 354.222126 
L 356.748193 355.39633 
L 357.368538 356.854179 
L 357.988883 357.820119 
L 358.609227 359.164897 
L 358.9194 358.987558 
L 360.780434 352.163162 
L 361.090606 352.357413 
L 361.400778 353.009748 
L 361.710951 353.170175 
L 362.641467 352.196503 
L 364.192329 352.718372 
L 365.122846 353.236858 
L 365.433018 353.267783 
L 366.053363 353.003467 
L 366.673708 352.444874 
L 367.604225 351.3504 
L 368.844914 350.363682 
L 369.155086 350.233698 
L 370.085603 350.416835 
L 370.705948 350.02785 
L 371.326292 349.361018 
L 372.256809 347.880941 
L 373.807671 346.840103 
L 374.117843 347.108769 
L 374.738188 348.351589 
L 375.04836 348.357388 
L 375.358533 347.911866 
L 375.668705 347.762071 
L 375.978877 348.195028 
L 376.289049 348.892786 
L 376.599222 349.312697 
L 377.219566 349.575081 
L 377.529739 349.528209 
L 377.839911 349.006341 
L 378.460256 346.724616 
L 379.390773 344.345765 
L 379.700945 343.843225 
L 380.32129 344.07565 
L 380.631462 343.875117 
L 381.251807 342.801904 
L 381.561979 342.60572 
L 382.182324 342.635196 
L 382.492496 342.732805 
L 383.11284 343.418482 
L 384.663702 345.759159 
L 385.284047 346.768588 
L 386.214564 346.821741 
L 386.834908 348.172801 
L 387.145081 348.321147 
L 388.075598 347.136795 
L 389.006115 346.902438 
L 389.626459 346.161191 
L 389.936631 346.095957 
L 390.556976 347.076394 
L 390.867148 347.153224 
L 391.177321 346.644886 
L 391.797665 345.346496 
L 392.728182 344.236559 
L 393.348527 343.42573 
L 393.968872 343.434911 
L 394.279044 343.595338 
L 394.589216 343.924405 
L 395.519733 345.919102 
L 396.140078 346.310503 
L 396.45025 346.445803 
L 396.760422 346.20613 
L 397.070595 345.706972 
L 397.380767 345.445072 
L 397.690939 345.747079 
L 398.311284 346.844935 
L 399.862146 347.92443 
L 400.48249 347.986764 
L 401.102835 348.349656 
L 401.413007 348.019139 
L 402.033352 346.596081 
L 402.343524 346.608645 
L 402.653696 347.232471 
L 402.963869 347.481808 
L 403.274041 346.852667 
L 403.894386 344.385389 
L 404.204558 344.268935 
L 404.51473 344.972974 
L 404.824903 345.234875 
L 405.135075 344.820279 
L 405.445247 343.827279 
L 405.75542 343.249358 
L 406.065592 343.203453 
L 406.685937 343.782341 
L 407.306281 344.017181 
L 408.236798 344.690295 
L 408.857143 344.64294 
L 409.167315 344.594619 
L 409.477487 344.422596 
L 409.78766 343.865936 
L 410.408004 341.732557 
L 410.718177 341.169133 
L 411.648694 340.793194 
L 412.269038 340.365069 
L 412.579211 340.319163 
L 413.199555 340.441416 
L 413.509728 340.254896 
L 414.130072 339.341626 
L 414.440245 339.294755 
L 414.750417 339.520898 
L 415.370762 340.265044 
L 416.301278 342.191608 
L 417.85214 343.616116 
L 419.092829 344.454488 
L 420.023346 345.830674 
L 420.643691 346.195016 
L 421.574208 346.330798 
L 421.88438 346.168922 
L 422.814897 344.858453 
L 423.125069 344.820279 
L 424.365759 345.122286 
L 424.986103 345.188486 
L 425.296276 345.13485 
L 425.606448 344.892278 
L 425.91662 344.279565 
L 426.536965 342.729423 
L 426.847137 342.418234 
L 427.467482 342.266023 
L 428.087827 342.048094 
L 428.708171 341.9587 
L 429.018344 341.942271 
L 429.328516 341.807938 
L 429.638688 341.418953 
L 430.259033 340.288721 
L 430.569205 340.071276 
L 431.499722 340.126845 
L 432.740411 340.928976 
L 433.050584 340.950721 
L 433.360756 341.116462 
L 433.670928 341.432483 
L 433.981101 341.587111 
L 434.291273 341.222769 
L 434.911618 339.522348 
L 435.22179 339.144476 
L 435.842135 338.994681 
L 436.462479 337.93983 
L 436.772651 337.388485 
L 437.082824 337.095659 
L 438.013341 336.82941 
L 438.323513 336.504208 
L 438.633685 336.381956 
L 438.943858 336.740015 
L 439.564202 338.494557 
L 439.874375 339.000962 
L 440.494719 339.433437 
L 440.804892 339.603527 
L 441.115064 339.635419 
L 441.425236 339.5122 
L 441.735409 339.131429 
L 442.355753 337.632024 
L 442.665926 337.269615 
L 443.906615 337.574522 
L 444.837132 338.1249 
L 445.147304 338.198348 
L 445.457476 338.496006 
L 447.008338 341.214071 
L 447.31851 341.612238 
L 447.628683 341.825817 
L 448.5592 341.828716 
L 449.179544 341.639781 
L 450.110061 340.516797 
L 450.420233 340.549172 
L 451.040578 340.898051 
L 451.971095 340.775315 
L 452.901612 341.755751 
L 453.832129 341.938889 
L 455.382991 342.948317 
L 456.003335 343.30686 
L 457.554197 343.854339 
L 458.794886 344.755529 
L 459.105058 345.115038 
L 459.415231 345.301558 
L 459.725403 345.139682 
L 460.345748 344.191621 
L 461.586437 343.264338 
L 463.137298 342.401322 
L 463.447471 342.437563 
L 464.067815 343.263371 
L 464.377988 343.103912 
L 464.998332 341.560534 
L 465.308505 341.625284 
L 465.928849 343.330055 
L 466.239022 343.354698 
L 466.859366 342.186293 
L 467.169539 342.245245 
L 467.789883 342.958465 
L 468.100056 342.92609 
L 468.7204 342.702363 
L 469.340745 342.704296 
L 470.581434 342.420167 
L 470.891606 342.282935 
L 471.511951 342.291633 
L 471.822123 341.976096 
L 472.442468 340.122496 
L 472.75264 339.637835 
L 473.372985 339.971251 
L 473.683157 339.76492 
L 474.613674 338.438021 
L 475.544191 337.129484 
L 475.854364 337.296192 
L 476.474708 337.993949 
L 477.095053 337.61946 
L 477.405225 337.907455 
L 478.335742 341.160435 
L 478.645914 341.232433 
L 478.956087 341.06186 
L 479.266259 341.332941 
L 479.886604 342.798522 
L 480.196776 343.166246 
L 481.127293 343.69053 
L 481.437465 343.615633 
L 482.05781 342.962331 
L 482.367982 343.287049 
L 482.678155 344.054389 
L 482.988327 344.464152 
L 483.298499 344.126387 
L 483.608671 343.29478 
L 483.918844 342.839112 
L 484.229016 343.03143 
L 484.539188 343.577942 
L 484.849361 343.751898 
L 485.159533 343.444093 
L 485.469705 342.934788 
L 485.779878 342.695598 
L 486.710395 342.777744 
L 487.020567 343.061389 
L 487.640912 344.137984 
L 487.951084 344.29986 
L 488.571429 344.084348 
L 489.501946 344.162628 
L 490.12229 343.905076 
L 490.432462 343.894446 
L 491.052807 344.178574 
L 491.362979 344.439992 
L 491.673152 344.864251 
L 492.293496 346.128333 
L 492.603669 346.436622 
L 493.844358 346.334181 
L 494.15453 346.151527 
L 494.774875 345.231492 
L 495.705392 344.013316 
L 496.325737 343.40302 
L 496.946081 343.477917 
L 497.256253 343.329571 
L 497.876598 342.611036 
L 498.496943 342.373296 
L 499.42746 342.374262 
L 500.047804 342.601372 
L 500.668149 343.297679 
L 500.978321 343.421865 
L 501.908838 342.538554 
L 502.839355 343.637377 
L 503.769872 343.876084 
L 504.080044 343.650907 
L 504.390217 343.246942 
L 504.700389 343.055107 
L 505.010561 343.289465 
L 505.320734 343.680866 
L 505.630906 343.775576 
L 506.251251 343.042544 
L 506.561423 342.974411 
L 508.732629 345.013564 
L 509.042802 345.088945 
L 509.352974 344.911123 
L 509.663146 344.339 
L 509.973319 343.252741 
L 510.283491 341.223735 
L 510.903835 334.555416 
L 511.52418 323.036136 
L 512.144525 306.996895 
L 512.764869 284.345387 
L 514.005559 236.092365 
L 514.315731 229.365577 
L 514.625903 225.75792 
L 514.936076 227.003156 
L 515.246248 232.937477 
L 516.176765 272.27428 
L 517.107282 310.61325 
L 517.727626 328.445689 
L 518.347971 340.49167 
L 518.968316 347.082675 
L 519.278488 348.465144 
L 519.898833 349.641764 
L 520.209005 349.911879 
L 521.759867 350.403788 
L 523.000556 349.518545 
L 523.620901 349.046447 
L 524.241245 348.775849 
L 524.551417 348.402809 
L 525.792107 345.905572 
L 526.412451 344.74973 
L 527.032796 344.053422 
L 527.342968 344.081449 
L 528.273485 345.819077 
L 529.824347 346.927565 
L 530.134519 346.95849 
L 531.065036 346.741528 
L 531.685381 346.854116 
L 532.305725 347.14501 
L 532.92607 347.487607 
L 533.236242 347.468761 
L 534.166759 346.973953 
L 534.476932 346.657933 
L 534.787104 346.109004 
L 535.717621 343.086033 
L 536.648138 340.287755 
L 536.95831 339.796329 
L 537.268482 339.633969 
L 537.888827 339.621889 
L 538.198999 339.806959 
L 538.509172 340.219622 
L 539.749861 343.234862 
L 540.370206 344.046657 
L 540.680378 344.093046 
L 541.300723 343.539768 
L 542.23124 343.01935 
L 542.851584 342.262157 
L 543.161757 341.694383 
L 543.471929 340.687371 
L 544.092273 337.255119 
L 544.712618 332.04175 
L 545.332963 325.374397 
L 545.953307 316.873256 
L 547.814341 285.291999 
L 548.124514 283.654395 
L 548.434686 284.311079 
L 548.744858 286.757096 
L 549.055031 290.798677 
L 551.226237 329.042939 
L 551.846581 335.013501 
L 552.466926 338.449618 
L 552.777098 339.295238 
L 553.397443 339.937426 
L 553.707615 340.224937 
L 554.32796 341.100516 
L 554.948305 341.487086 
L 555.568649 341.700665 
L 556.499166 341.570681 
L 557.119511 341.438281 
L 557.429683 341.502549 
L 558.3602 342.252493 
L 558.980545 342.023451 
L 559.290717 341.625284 
L 559.600889 340.880172 
L 559.911062 339.378834 
L 560.221234 336.528369 
L 560.531406 332.587779 
L 561.151751 320.196785 
L 561.772096 303.254422 
L 562.39244 277.770328 
L 564.253474 181.774072 
L 564.563646 176.583413 
L 564.873819 177.616036 
L 565.183991 185.342589 
L 565.804336 214.776937 
L 567.045025 285.123358 
L 567.66537 307.150556 
L 568.285714 321.698606 
L 568.906059 330.285276 
L 571.077265 339.832086 
L 571.69761 342.227849 
L 572.628127 344.105609 
L 573.248471 344.670967 
L 573.558644 344.69851 
L 574.178988 344.478165 
L 574.489161 344.589787 
L 575.109505 345.081213 
L 575.72985 345.146447 
L 576.040022 345.115038 
L 576.350195 344.955578 
L 577.280712 343.95678 
L 577.901056 343.542184 
L 579.141745 342.380544 
L 579.76209 341.24548 
L 580.072262 341.081188 
L 580.692607 341.567299 
L 581.002779 341.366766 
L 581.623124 340.13506 
L 581.933296 340.130228 
L 582.553641 341.272057 
L 582.863813 341.448429 
L 583.484158 341.353236 
L 585.655364 342.935271 
L 586.585881 344.107542 
L 587.206226 344.32837 
L 587.516398 344.640041 
L 588.446915 346.40183 
L 590.618121 347.667361 
L 591.238466 347.767869 
L 592.168983 347.700703 
L 594.960534 349.022287 
L 596.201223 350.108063 
L 598.062257 350.438096 
L 598.992774 351.101063 
L 599.613118 351.673185 
L 600.233463 351.838444 
L 600.853808 351.75823 
L 601.474152 351.49633 
L 601.784325 351.716674 
L 602.714842 353.37264 
L 604.265703 356.478241 
L 604.575875 356.722746 
L 606.126737 356.405276 
L 607.367426 355.598796 
L 608.297943 355.731196 
L 608.918288 355.781933 
L 609.22846 355.626822 
L 609.848805 354.634306 
L 610.158977 354.431357 
L 610.779322 354.662815 
L 612.020011 354.359841 
L 612.640356 354.397532 
L 613.2607 354.263682 
L 614.191217 353.872281 
L 614.811562 353.42531 
L 616.362424 351.629213 
L 616.672596 351.544168 
L 616.982768 351.724406 
L 617.603113 352.617381 
L 618.223457 354.038506 
L 620.084491 359.638444 
L 620.704836 360.334752 
L 621.015008 360.406751 
L 621.325181 360.332819 
L 621.635353 360.030812 
L 622.255698 359.211769 
L 622.876042 358.745953 
L 623.186215 358.666706 
L 623.496387 358.845494 
L 624.116732 359.612351 
L 624.426904 359.720107 
L 624.737076 359.701262 
L 625.047248 359.808052 
L 625.977765 360.601968 
L 626.908282 360.914606 
L 627.218455 360.759495 
L 627.838799 360.027913 
L 628.459144 358.920392 
L 629.079489 357.888252 
L 629.699833 357.223353 
L 630.940523 355.588648 
L 631.560867 355.108819 
L 631.871039 355.163905 
L 632.491384 355.864079 
L 632.801556 356.016291 
L 633.732073 356.017257 
L 634.66259 355.457215 
L 635.593107 355.327714 
L 636.213452 355.435954 
L 636.523624 355.308386 
L 637.143969 354.559891 
L 637.454141 354.538146 
L 638.074486 355.175986 
L 638.384658 355.157624 
L 639.005003 354.627541 
L 639.315175 354.644936 
L 640.866037 356.161254 
L 641.796554 356.61499 
L 642.106726 356.525112 
L 643.037243 355.577534 
L 643.347415 355.500704 
L 643.96776 355.926413 
L 644.277932 356.299453 
L 644.588105 356.859012 
L 644.898277 357.763584 
L 647.069483 367.263039 
L 647.379655 370.194201 
L 647.689828 366.938321 
L 648 382.873672 
L 648 382.873672 
" clip-path="url(#p2831a8dcd3)" style="fill: none; stroke: #c4c4c4; stroke-width: 1.5; stroke-linecap: square"/>
   </g>
   <g id="line2d_32">
    <path d="M 90 456.001458 
L 90.620345 366.484586 
L 90.930517 375.082369 
L 91.240689 371.96807 
L 91.861034 373.125362 
L 92.481379 376.329538 
L 92.791551 376.816132 
L 93.411895 376.139636 
L 94.342412 374.517978 
L 94.652585 374.421818 
L 96.203446 375.591674 
L 96.513619 375.287734 
L 97.133963 374.01882 
L 97.444136 373.987895 
L 97.754308 374.331941 
L 98.06448 374.869272 
L 98.374653 375.862272 
L 98.994997 378.900223 
L 99.30517 379.762756 
L 99.615342 379.980684 
L 99.925514 379.858915 
L 100.235686 379.416293 
L 100.856031 377.359261 
L 101.476376 375.316726 
L 102.406893 373.424953 
L 102.717065 372.915648 
L 103.027237 373.020505 
L 103.957754 375.566547 
L 104.267927 375.468938 
L 104.888271 374.857675 
L 105.818788 373.308499 
L 106.128961 373.414806 
L 106.749305 373.923627 
L 108.610339 373.880138 
L 109.230684 373.807173 
L 109.540856 373.527877 
L 110.471373 370.763907 
L 110.781545 370.982319 
L 111.712062 373.062544 
L 112.332407 374.682753 
L 112.642579 374.939821 
L 113.262924 374.887634 
L 113.573096 374.431 
L 114.193441 373.265493 
L 114.503613 373.27709 
L 115.123958 373.966633 
L 115.744302 374.450811 
L 116.364647 375.72649 
L 116.984992 377.270351 
L 117.915509 380.690522 
L 118.225681 380.616107 
L 118.846026 378.658134 
L 119.776543 374.750886 
L 120.396887 370.726217 
L 121.017232 365.521545 
L 121.327404 361.833674 
L 121.637576 356.534777 
L 122.257921 339.486107 
L 122.568093 326.583392 
L 123.188438 286.222664 
L 124.118955 199.554807 
L 124.7393 140.103841 
L 125.359644 100.746743 
L 125.669817 95.76 
L 125.979989 103.535357 
L 126.290161 117.030489 
L 126.910506 166.679026 
L 127.841023 257.825288 
L 128.461367 306.441685 
L 129.081712 337.038157 
L 129.391884 348.065528 
L 130.012229 359.739436 
L 130.632574 366.933489 
L 131.252918 371.647701 
L 131.563091 372.818523 
L 131.873263 373.340391 
L 132.183435 374.104832 
L 132.80378 376.808884 
L 133.113952 377.123454 
L 133.424125 375.965196 
L 133.734297 374.256077 
L 134.044469 373.396927 
L 134.354641 373.496952 
L 134.664814 374.002874 
L 135.285158 374.335807 
L 135.905503 374.247862 
L 136.525848 373.620654 
L 137.146192 372.467228 
L 137.766537 371.216193 
L 138.076709 371.043687 
L 138.697054 371.215227 
L 139.317399 371.535113 
L 139.627571 371.508053 
L 140.247916 371.12245 
L 140.558088 370.525201 
L 140.86826 369.280931 
L 141.488605 365.943872 
L 142.108949 363.696455 
L 143.349639 359.869419 
L 143.659811 359.632163 
L 144.280156 359.953981 
L 144.590328 360.303343 
L 145.520845 362.130366 
L 146.14119 362.751776 
L 146.451362 363.419092 
L 147.071707 365.310382 
L 147.381879 365.42152 
L 147.692051 364.882739 
L 148.002223 364.652731 
L 149.242913 365.109849 
L 149.553085 365.872357 
L 149.863257 366.229933 
L 150.17343 365.565034 
L 150.793774 362.083495 
L 151.103947 361.126253 
L 151.724291 360.68653 
L 152.034464 360.842608 
L 152.654808 361.987819 
L 153.585325 363.918249 
L 153.895497 364.166137 
L 154.515842 364.131829 
L 154.826014 363.852532 
L 155.446359 362.692341 
L 155.756531 362.555109 
L 156.376876 363.133513 
L 156.687048 363.521049 
L 157.617565 365.96465 
L 158.23791 366.52131 
L 158.548082 367.298797 
L 159.478599 371.237454 
L 160.409116 373.336042 
L 161.339633 374.144938 
L 161.959978 375.112328 
L 162.580322 375.32784 
L 162.890495 375.272271 
L 163.200667 374.857675 
L 163.821012 371.801362 
L 164.441356 368.989071 
L 164.751529 368.16133 
L 165.061701 367.009353 
L 165.992218 361.289578 
L 166.30239 361.072133 
L 166.612563 361.359644 
L 166.922735 361.147031 
L 168.783769 357.557252 
L 169.093941 357.470274 
L 169.404113 357.532125 
L 169.714286 357.372665 
L 170.33463 356.670076 
L 170.644803 356.169952 
L 171.265147 353.964091 
L 171.885492 352.086814 
L 172.505837 351.03438 
L 173.436354 349.140673 
L 173.746526 348.972033 
L 174.056698 349.162901 
L 174.36687 349.609872 
L 174.987215 351.407902 
L 175.297387 352.546832 
L 175.917732 356.141442 
L 176.538077 359.01945 
L 177.158421 360.195104 
L 177.778766 361.581921 
L 178.088938 361.781971 
L 178.399111 361.735582 
L 178.709283 361.806131 
L 179.019455 361.592552 
L 179.329628 360.399019 
L 179.949972 355.957339 
L 180.260145 354.97352 
L 181.500834 356.034653 
L 181.811006 356.823254 
L 182.431351 358.829065 
L 183.051695 360.51354 
L 183.67204 363.786332 
L 183.982212 363.894572 
L 184.912729 358.559433 
L 185.533074 357.899366 
L 185.843246 357.335458 
L 186.463591 355.216575 
L 186.773763 354.897173 
L 187.394108 356.280124 
L 187.70428 356.393196 
L 188.324625 355.294856 
L 189.255142 354.346311 
L 189.565314 354.420726 
L 191.116176 357.637465 
L 191.73652 359.003504 
L 192.046693 359.553882 
L 192.356865 360.430911 
L 193.597554 367.215685 
L 194.217899 369.712922 
L 195.148416 374.737839 
L 195.458588 375.296431 
L 195.76876 375.501313 
L 196.078933 375.441395 
L 196.389105 374.83883 
L 197.629794 370.678379 
L 199.180656 365.167351 
L 199.801001 363.15864 
L 200.111173 362.695724 
L 200.731518 362.602947 
L 201.662034 362.572505 
L 201.972207 363.096789 
L 202.592551 364.566236 
L 202.902724 364.686072 
L 203.212896 364.495204 
L 203.523068 364.54739 
L 203.833241 364.871625 
L 204.453585 365.97963 
L 205.07393 368.198054 
L 205.694275 370.478329 
L 206.004447 371.14951 
L 206.314619 371.459248 
L 206.934964 371.3196 
L 207.245136 370.797249 
L 207.555309 369.272233 
L 208.175653 364.47056 
L 208.485825 363.222908 
L 209.10617 362.733414 
L 209.416342 362.960524 
L 210.346859 364.69622 
L 210.657032 364.89192 
L 210.967204 364.881773 
L 211.277376 364.429487 
L 212.207893 361.060536 
L 213.758755 355.270695 
L 214.068927 354.394149 
L 214.999444 353.488128 
L 215.619789 351.405003 
L 215.929961 350.856558 
L 216.860478 351.493914 
L 217.480823 351.209302 
L 217.790995 351.222349 
L 218.41134 351.836511 
L 218.721512 351.650474 
L 219.962201 349.025186 
L 220.272374 348.457896 
L 220.582546 348.215807 
L 222.44358 349.865974 
L 222.753752 349.400641 
L 223.063924 348.72946 
L 223.374097 348.368501 
L 223.684269 348.456929 
L 224.304614 348.776332 
L 224.924958 349.236349 
L 225.235131 349.468291 
L 225.545303 349.434466 
L 225.855475 349.268241 
L 226.165648 349.239732 
L 226.47582 349.468291 
L 228.026681 351.806552 
L 228.957198 353.853919 
L 229.267371 353.694459 
L 230.197888 351.482317 
L 231.748749 347.154191 
L 232.058922 347.132446 
L 232.989439 348.476741 
L 233.919956 349.629684 
L 234.850472 349.591027 
L 235.160645 349.532075 
L 235.470817 349.256644 
L 236.711506 347.079776 
L 237.331851 345.352778 
L 237.642023 345.276431 
L 238.882713 348.672441 
L 240.123402 352.323588 
L 240.433574 352.572442 
L 241.053919 351.843759 
L 241.674263 350.664723 
L 241.984436 350.010937 
L 242.294608 349.622435 
L 242.914953 349.473123 
L 243.225125 349.61712 
L 244.155642 351.371661 
L 245.086159 351.55963 
L 245.706504 352.377708 
L 246.016676 352.576791 
L 246.637021 352.442941 
L 247.257365 352.401868 
L 247.87771 352.492712 
L 248.498054 352.024963 
L 248.808227 352.211 
L 249.738744 354.054452 
L 250.359088 354.770571 
L 250.669261 354.681177 
L 250.979433 353.94283 
L 251.599778 351.28275 
L 253.150639 342.664189 
L 253.460812 341.723376 
L 253.770984 341.600157 
L 254.081156 342.127824 
L 254.391329 342.982625 
L 255.011673 346.822708 
L 255.632018 350.631864 
L 256.252362 353.348963 
L 256.562535 354.193133 
L 256.872707 354.652184 
L 257.182879 354.784101 
L 257.493052 354.493208 
L 259.354086 350.821283 
L 259.97443 350.732856 
L 260.284603 350.867672 
L 260.904947 351.355232 
L 261.21512 351.295314 
L 261.525292 351.068688 
L 262.765981 350.659891 
L 263.076153 351.044044 
L 263.696498 352.465652 
L 264.00667 352.635259 
L 264.627015 352.291696 
L 264.937187 351.868886 
L 265.557532 350.403305 
L 265.867704 349.97373 
L 266.177877 349.830216 
L 266.488049 349.82925 
L 266.798221 349.993542 
L 267.728738 351.047909 
L 268.349083 351.378909 
L 268.659255 351.30981 
L 269.589772 350.444861 
L 270.210117 350.621234 
L 270.830461 351.013601 
L 271.450806 351.678017 
L 272.691495 353.379888 
L 273.31184 353.843288 
L 273.932185 354.582119 
L 274.242357 354.564723 
L 275.483046 353.006366 
L 275.793218 352.861402 
L 276.103391 353.005883 
L 276.723735 354.202314 
L 277.34408 355.905152 
L 277.964425 357.576097 
L 278.274597 357.770832 
L 279.205114 357.629251 
L 280.755976 356.429436 
L 281.37632 355.5152 
L 281.686492 354.918434 
L 282.617009 352.392204 
L 282.927182 352.15688 
L 283.237354 352.17041 
L 283.547526 352.338084 
L 285.098388 354.288326 
L 285.40856 354.343412 
L 285.718733 353.897891 
L 286.339077 352.440042 
L 286.64925 352.119189 
L 287.269594 351.691547 
L 287.579767 351.451391 
L 288.200111 351.285166 
L 288.510283 351.033413 
L 289.130628 350.270422 
L 289.4408 350.092117 
L 290.061145 350.113378 
L 290.68149 350.52894 
L 291.301834 351.247959 
L 291.922179 352.448257 
L 292.232351 352.827094 
L 292.852696 352.907791 
L 293.162868 353.161477 
L 293.783213 354.303306 
L 294.093385 354.510603 
L 294.403558 354.161241 
L 294.71373 353.98052 
L 295.023902 354.227925 
L 295.644247 356.001794 
L 295.954419 356.297036 
L 296.574764 355.589132 
L 296.884936 355.701237 
L 297.505281 356.630452 
L 297.815453 356.649298 
L 298.74597 355.836053 
L 299.366315 355.311768 
L 299.986659 354.710653 
L 301.537521 353.796417 
L 301.847693 354.129349 
L 302.157865 354.648319 
L 302.468038 354.941628 
L 303.088382 354.578253 
L 303.398555 354.780719 
L 304.329072 356.80006 
L 304.639244 356.713082 
L 304.949416 356.410591 
L 305.569761 356.172851 
L 306.500278 355.722015 
L 306.81045 355.739894 
L 307.430795 355.440786 
L 308.05114 354.997681 
L 308.981656 353.736982 
L 309.291829 353.79835 
L 309.912173 354.320701 
L 310.222346 354.301856 
L 310.532518 354.170422 
L 310.84269 354.216328 
L 311.152863 354.553126 
L 311.773207 355.410827 
L 312.08338 355.402129 
L 312.393552 355.156657 
L 312.703724 355.10592 
L 313.013897 355.359606 
L 313.324069 355.771786 
L 313.634241 355.935111 
L 313.944414 355.841851 
L 314.874931 355.101571 
L 315.495275 354.311037 
L 315.805447 354.110504 
L 316.425792 354.163174 
L 317.356309 354.349694 
L 317.666481 354.742062 
L 318.286826 355.926413 
L 318.596998 356.204743 
L 319.217343 356.515931 
L 320.458032 357.785328 
L 321.388549 359.808535 
L 322.008894 360.015349 
L 322.319066 360.519339 
L 322.939411 362.259384 
L 323.249583 362.470064 
L 323.869928 361.657785 
L 324.1801 361.585304 
L 324.490272 361.749596 
L 324.800445 361.723985 
L 325.110617 361.37414 
L 326.971651 358.190259 
L 328.21234 357.171166 
L 329.142857 357.044565 
L 329.453029 356.955171 
L 329.763202 357.404557 
L 330.383546 360.202352 
L 330.693719 360.949397 
L 331.003891 360.970175 
L 331.624236 360.502427 
L 331.934408 359.600754 
L 332.554753 356.050115 
L 333.175097 351.247959 
L 333.795442 343.720006 
L 335.346304 319.623696 
L 335.656476 317.555551 
L 335.966648 317.202806 
L 336.27682 318.368312 
L 336.586993 322.100155 
L 337.51751 337.766357 
L 338.448027 349.613254 
L 339.068371 355.072095 
L 339.378544 355.713317 
L 339.688716 355.115101 
L 339.998888 354.805846 
L 340.619233 354.69664 
L 341.859922 352.687929 
L 343.410784 350.14672 
L 343.720956 349.831183 
L 344.031128 349.691535 
L 344.341301 349.743721 
L 344.961645 350.108063 
L 345.271818 350.157834 
L 345.58199 350.344353 
L 345.892162 350.996689 
L 346.512507 352.891845 
L 346.822679 353.150363 
L 347.443024 352.740599 
L 347.753196 352.777807 
L 348.373541 353.100592 
L 348.683713 352.947414 
L 348.993885 352.587421 
L 349.304058 352.480148 
L 349.61423 352.944998 
L 350.544747 355.377485 
L 351.475264 356.829536 
L 351.785436 356.989479 
L 352.095609 356.983197 
L 352.405781 356.788946 
L 353.026126 355.960721 
L 354.88716 352.646373 
L 355.197332 352.596119 
L 356.127849 354.222126 
L 356.748193 355.39633 
L 357.368538 356.854179 
L 357.988883 357.820119 
L 358.609227 359.164897 
L 358.9194 358.987558 
L 360.780434 352.163162 
L 361.090606 352.357413 
L 361.400778 353.009748 
L 361.710951 353.170175 
L 362.641467 352.196503 
L 364.192329 352.718372 
L 365.122846 353.236858 
L 365.433018 353.267783 
L 366.053363 353.003467 
L 366.673708 352.444874 
L 367.604225 351.3504 
L 368.844914 350.363682 
L 369.155086 350.233698 
L 370.085603 350.416835 
L 370.705948 350.02785 
L 371.326292 349.361018 
L 372.256809 347.880941 
L 373.807671 346.840103 
L 374.117843 347.108769 
L 374.738188 348.351589 
L 375.04836 348.357388 
L 375.358533 347.911866 
L 375.668705 347.762071 
L 375.978877 348.195028 
L 376.289049 348.892786 
L 376.599222 349.312697 
L 377.219566 349.575081 
L 377.529739 349.528209 
L 377.839911 349.006341 
L 378.460256 346.724616 
L 379.390773 344.345765 
L 379.700945 343.843225 
L 380.32129 344.07565 
L 380.631462 343.875117 
L 381.251807 342.801904 
L 381.561979 342.60572 
L 382.182324 342.635196 
L 382.492496 342.732805 
L 383.11284 343.418482 
L 384.663702 345.759159 
L 385.284047 346.768588 
L 386.214564 346.821741 
L 386.834908 348.172801 
L 387.145081 348.321147 
L 388.075598 347.136795 
L 389.006115 346.902438 
L 389.626459 346.161191 
L 389.936631 346.095957 
L 390.556976 347.076394 
L 390.867148 347.153224 
L 391.177321 346.644886 
L 391.797665 345.346496 
L 392.728182 344.236559 
L 393.348527 343.42573 
L 393.968872 343.434911 
L 394.279044 343.595338 
L 394.589216 343.924405 
L 395.519733 345.919102 
L 396.140078 346.310503 
L 396.45025 346.445803 
L 396.760422 346.20613 
L 397.070595 345.706972 
L 397.380767 345.445072 
L 397.690939 345.747079 
L 398.311284 346.844935 
L 399.862146 347.92443 
L 400.48249 347.986764 
L 401.102835 348.349656 
L 401.413007 348.019139 
L 402.033352 346.596081 
L 402.343524 346.608645 
L 402.653696 347.232471 
L 402.963869 347.481808 
L 403.274041 346.852667 
L 403.894386 344.385389 
L 404.204558 344.268935 
L 404.51473 344.972974 
L 404.824903 345.234875 
L 405.135075 344.820279 
L 405.445247 343.827279 
L 405.75542 343.249358 
L 406.065592 343.203453 
L 406.685937 343.782341 
L 407.306281 344.017181 
L 408.236798 344.690295 
L 408.857143 344.64294 
L 409.167315 344.594619 
L 409.477487 344.422596 
L 409.78766 343.865936 
L 410.408004 341.732557 
L 410.718177 341.169133 
L 411.648694 340.793194 
L 412.269038 340.365069 
L 412.579211 340.319163 
L 413.199555 340.441416 
L 413.509728 340.254896 
L 414.130072 339.341626 
L 414.440245 339.294755 
L 414.750417 339.520898 
L 415.370762 340.265044 
L 416.301278 342.191608 
L 417.85214 343.616116 
L 419.092829 344.454488 
L 420.023346 345.830674 
L 420.643691 346.195016 
L 421.574208 346.330798 
L 421.88438 346.168922 
L 422.814897 344.858453 
L 423.125069 344.820279 
L 424.365759 345.122286 
L 424.986103 345.188486 
L 425.296276 345.13485 
L 425.606448 344.892278 
L 425.91662 344.279565 
L 426.536965 342.729423 
L 426.847137 342.418234 
L 427.467482 342.266023 
L 428.087827 342.048094 
L 428.708171 341.9587 
L 429.018344 341.942271 
L 429.328516 341.807938 
L 429.638688 341.418953 
L 430.259033 340.288721 
L 430.569205 340.071276 
L 431.499722 340.126845 
L 432.740411 340.928976 
L 433.050584 340.950721 
L 433.360756 341.116462 
L 433.670928 341.432483 
L 433.981101 341.587111 
L 434.291273 341.222769 
L 434.911618 339.522348 
L 435.22179 339.144476 
L 435.842135 338.994681 
L 436.462479 337.93983 
L 436.772651 337.388485 
L 437.082824 337.095659 
L 438.013341 336.82941 
L 438.323513 336.504208 
L 438.633685 336.381956 
L 438.943858 336.740015 
L 439.564202 338.494557 
L 439.874375 339.000962 
L 440.494719 339.433437 
L 440.804892 339.603527 
L 441.115064 339.635419 
L 441.425236 339.5122 
L 441.735409 339.131429 
L 442.355753 337.632024 
L 442.665926 337.269615 
L 443.906615 337.574522 
L 444.837132 338.1249 
L 445.147304 338.198348 
L 445.457476 338.496006 
L 447.008338 341.214071 
L 447.31851 341.612238 
L 447.628683 341.825817 
L 448.5592 341.828716 
L 449.179544 341.639781 
L 450.110061 340.516797 
L 450.420233 340.549172 
L 451.040578 340.898051 
L 451.971095 340.775315 
L 452.901612 341.755751 
L 453.832129 341.938889 
L 455.382991 342.948317 
L 456.003335 343.30686 
L 457.554197 343.854339 
L 458.794886 344.755529 
L 459.105058 345.115038 
L 459.415231 345.301558 
L 459.725403 345.139682 
L 460.345748 344.191621 
L 461.586437 343.264338 
L 463.137298 342.401322 
L 463.447471 342.437563 
L 464.067815 343.263371 
L 464.377988 343.103912 
L 464.998332 341.560534 
L 465.308505 341.625284 
L 465.928849 343.330055 
L 466.239022 343.354698 
L 466.859366 342.186293 
L 467.169539 342.245245 
L 467.789883 342.958465 
L 468.100056 342.92609 
L 468.7204 342.702363 
L 469.340745 342.704296 
L 470.581434 342.420167 
L 470.891606 342.282935 
L 471.511951 342.291633 
L 471.822123 341.976096 
L 472.442468 340.122496 
L 472.75264 339.637835 
L 473.372985 339.971251 
L 473.683157 339.76492 
L 474.613674 338.438021 
L 475.544191 337.129484 
L 475.854364 337.296192 
L 476.474708 337.993949 
L 477.095053 337.61946 
L 477.405225 337.907455 
L 478.335742 341.160435 
L 478.645914 341.232433 
L 478.956087 341.06186 
L 479.266259 341.332941 
L 479.886604 342.798522 
L 480.196776 343.166246 
L 481.127293 343.69053 
L 481.437465 343.615633 
L 482.05781 342.962331 
L 482.367982 343.287049 
L 482.678155 344.054389 
L 482.988327 344.464152 
L 483.298499 344.126387 
L 483.608671 343.29478 
L 483.918844 342.839112 
L 484.229016 343.03143 
L 484.539188 343.577942 
L 484.849361 343.751898 
L 485.159533 343.444093 
L 485.469705 342.934788 
L 485.779878 342.695598 
L 486.710395 342.777744 
L 487.020567 343.061389 
L 487.640912 344.137984 
L 487.951084 344.29986 
L 488.571429 344.084348 
L 489.501946 344.162628 
L 490.12229 343.905076 
L 490.432462 343.894446 
L 491.052807 344.178574 
L 491.362979 344.439992 
L 491.673152 344.864251 
L 492.293496 346.128333 
L 492.603669 346.436622 
L 493.844358 346.334181 
L 494.15453 346.151527 
L 494.774875 345.231492 
L 495.705392 344.013316 
L 496.325737 343.40302 
L 496.946081 343.477917 
L 497.256253 343.329571 
L 497.876598 342.611036 
L 498.496943 342.373296 
L 499.42746 342.374262 
L 500.047804 342.601372 
L 500.668149 343.297679 
L 500.978321 343.421865 
L 501.908838 342.538554 
L 502.839355 343.637377 
L 503.769872 343.876084 
L 504.080044 343.650907 
L 504.390217 343.246942 
L 504.700389 343.055107 
L 505.010561 343.289465 
L 505.320734 343.680866 
L 505.630906 343.775576 
L 506.251251 343.042544 
L 506.561423 342.974411 
L 508.732629 345.013564 
L 509.042802 345.088945 
L 509.352974 344.911123 
L 509.663146 344.339 
L 509.973319 343.252741 
L 510.283491 341.223735 
L 510.903835 334.555416 
L 511.52418 323.036136 
L 512.144525 306.996895 
L 512.764869 284.345387 
L 514.005559 236.092365 
L 514.315731 229.365577 
L 514.625903 225.75792 
L 514.936076 227.003156 
L 515.246248 232.937477 
L 516.176765 272.27428 
L 517.107282 310.61325 
L 517.727626 328.445689 
L 518.347971 340.49167 
L 518.968316 347.082675 
L 519.278488 348.465144 
L 519.898833 349.641764 
L 520.209005 349.911879 
L 521.759867 350.403788 
L 523.000556 349.518545 
L 523.620901 349.046447 
L 524.241245 348.775849 
L 524.551417 348.402809 
L 525.792107 345.905572 
L 526.412451 344.74973 
L 527.032796 344.053422 
L 527.342968 344.081449 
L 528.273485 345.819077 
L 529.824347 346.927565 
L 530.134519 346.95849 
L 531.065036 346.741528 
L 531.685381 346.854116 
L 532.305725 347.14501 
L 532.92607 347.487607 
L 533.236242 347.468761 
L 534.166759 346.973953 
L 534.476932 346.657933 
L 534.787104 346.109004 
L 535.717621 343.086033 
L 536.648138 340.287755 
L 536.95831 339.796329 
L 537.268482 339.633969 
L 537.888827 339.621889 
L 538.198999 339.806959 
L 538.509172 340.219622 
L 539.749861 343.234862 
L 540.370206 344.046657 
L 540.680378 344.093046 
L 541.300723 343.539768 
L 542.23124 343.01935 
L 542.851584 342.262157 
L 543.161757 341.694383 
L 543.471929 340.687371 
L 544.092273 337.255119 
L 544.712618 332.04175 
L 545.332963 325.374397 
L 545.953307 316.873256 
L 547.814341 285.291999 
L 548.124514 283.654395 
L 548.434686 284.311079 
L 548.744858 286.757096 
L 549.055031 290.798677 
L 551.226237 329.042939 
L 551.846581 335.013501 
L 552.466926 338.449618 
L 552.777098 339.295238 
L 553.397443 339.937426 
L 553.707615 340.224937 
L 554.32796 341.100516 
L 554.948305 341.487086 
L 555.568649 341.700665 
L 556.499166 341.570681 
L 557.119511 341.438281 
L 557.429683 341.502549 
L 558.3602 342.252493 
L 558.980545 342.023451 
L 559.290717 341.625284 
L 559.600889 340.880172 
L 559.911062 339.378834 
L 560.221234 336.528369 
L 560.531406 332.587779 
L 561.151751 320.196785 
L 561.772096 303.254422 
L 562.39244 277.770328 
L 564.253474 181.774072 
L 564.563646 176.583413 
L 564.873819 177.616036 
L 565.183991 185.342589 
L 565.804336 214.776937 
L 567.045025 285.123358 
L 567.66537 307.150556 
L 568.285714 321.698606 
L 568.906059 330.285276 
L 571.077265 339.832086 
L 571.69761 342.227849 
L 572.628127 344.105609 
L 573.248471 344.670967 
L 573.558644 344.69851 
L 574.178988 344.478165 
L 574.489161 344.589787 
L 575.109505 345.081213 
L 575.72985 345.146447 
L 576.040022 345.115038 
L 576.350195 344.955578 
L 577.280712 343.95678 
L 577.901056 343.542184 
L 579.141745 342.380544 
L 579.76209 341.24548 
L 580.072262 341.081188 
L 580.692607 341.567299 
L 581.002779 341.366766 
L 581.623124 340.13506 
L 581.933296 340.130228 
L 582.553641 341.272057 
L 582.863813 341.448429 
L 583.484158 341.353236 
L 585.655364 342.935271 
L 586.585881 344.107542 
L 587.206226 344.32837 
L 587.516398 344.640041 
L 588.446915 346.40183 
L 590.618121 347.667361 
L 591.238466 347.767869 
L 592.168983 347.700703 
L 594.960534 349.022287 
L 596.201223 350.108063 
L 598.062257 350.438096 
L 598.992774 351.101063 
L 599.613118 351.673185 
L 600.233463 351.838444 
L 600.853808 351.75823 
L 601.474152 351.49633 
L 601.784325 351.716674 
L 602.714842 353.37264 
L 604.265703 356.478241 
L 604.575875 356.722746 
L 606.126737 356.405276 
L 607.367426 355.598796 
L 608.297943 355.731196 
L 608.918288 355.781933 
L 609.22846 355.626822 
L 609.848805 354.634306 
L 610.158977 354.431357 
L 610.779322 354.662815 
L 612.020011 354.359841 
L 612.640356 354.397532 
L 613.2607 354.263682 
L 614.191217 353.872281 
L 614.811562 353.42531 
L 616.362424 351.629213 
L 616.672596 351.544168 
L 616.982768 351.724406 
L 617.603113 352.617381 
L 618.223457 354.038506 
L 620.084491 359.638444 
L 620.704836 360.334752 
L 621.015008 360.406751 
L 621.325181 360.332819 
L 621.635353 360.030812 
L 622.255698 359.211769 
L 622.876042 358.745953 
L 623.186215 358.666706 
L 623.496387 358.845494 
L 624.116732 359.612351 
L 624.426904 359.720107 
L 624.737076 359.701262 
L 625.047248 359.808052 
L 625.977765 360.601968 
L 626.908282 360.914606 
L 627.218455 360.759495 
L 627.838799 360.027913 
L 628.459144 358.920392 
L 629.079489 357.888252 
L 629.699833 357.223353 
L 630.940523 355.588648 
L 631.560867 355.108819 
L 631.871039 355.163905 
L 632.491384 355.864079 
L 632.801556 356.016291 
L 633.732073 356.017257 
L 634.66259 355.457215 
L 635.593107 355.327714 
L 636.213452 355.435954 
L 636.523624 355.308386 
L 637.143969 354.559891 
L 637.454141 354.538146 
L 638.074486 355.175986 
L 638.384658 355.157624 
L 639.005003 354.627541 
L 639.315175 354.644936 
L 640.866037 356.161254 
L 641.796554 356.61499 
L 642.106726 356.525112 
L 643.037243 355.577534 
L 643.347415 355.500704 
L 643.96776 355.926413 
L 644.277932 356.299453 
L 644.588105 356.859012 
L 644.898277 357.763584 
L 647.069483 367.263039 
L 647.379655 370.194201 
L 647.689828 366.938321 
L 648 382.873672 
L 648 382.873672 
" clip-path="url(#p2831a8dcd3)" style="fill: none; stroke: #1f77b4; stroke-width: 1.5; stroke-linecap: square"/>
   </g>
   <g id="LineCollection_1">
    <path d="M 126.319202 448.56 
L 126.319202 60.48 
" clip-path="url(#p2831a8dcd3)" style="fill: none; stroke-dasharray: 1.5,2.475; stroke-dashoffset: 0; stroke: #808080; stroke-width: 1.5"/>
   </g>
   <g id="LineCollection_2">
    <path d="M 515.836058 448.56 
L 515.836058 60.48 
" clip-path="url(#p2831a8dcd3)" style="fill: none; stroke-dasharray: 1.5,2.475; stroke-dashoffset: 0; stroke: #808080; stroke-width: 1.5"/>
   </g>
   <g id="LineCollection_3">
    <path d="M 564.954794 448.56 
L 564.954794 60.48 
" clip-path="url(#p2831a8dcd3)" style="fill: none; stroke-dasharray: 1.5,2.475; stroke-dashoffset: 0; stroke: #808080; stroke-width: 1.5"/>
   </g>
   <g id="LineCollection_4">
    <path d="M 335.205869 448.56 
L 335.205869 60.48 
" clip-path="url(#p2831a8dcd3)" style="fill: none; stroke-dasharray: 1.5,2.475; stroke-dashoffset: 0; stroke: #808080; stroke-width: 1.5"/>
   </g>
   <g id="LineCollection_5">
    <path d="M 549.110041 448.56 
L 549.110041 60.48 
" clip-path="url(#p2831a8dcd3)" style="fill: none; stroke-dasharray: 1.5,2.475; stroke-dashoffset: 0; stroke: #808080; stroke-width: 1.5"/>
   </g>
   <g id="patch_3">
    <path d="M 90 448.56 
L 90 60.48 
" style="fill: none; stroke: #000000; stroke-width: 0.8; stroke-linejoin: miter; stroke-linecap: square"/>
   </g>
   <g id="patch_4">
    <path d="M 648 448.56 
L 648 60.48 
" style="fill: none; stroke: #000000; stroke-width: 0.8; stroke-linejoin: miter; stroke-linecap: square"/>
   </g>
   <g id="patch_5">
    <path d="M 90 448.56 
L 648 448.56 
" style="fill: none; stroke: #000000; stroke-width: 0.8; stroke-linejoin: miter; stroke-linecap: square"/>
   </g>
   <g id="patch_6">
    <path d="M 90 60.48 
L 648 60.48 
" style="fill: none; stroke: #000000; stroke-width: 0.8; stroke-linejoin: miter; stroke-linecap: square"/>
   </g>
   <g id="text_18">
    <!-- Spectrum -->
    <g transform="translate(335.079531 40.48) scale(0.14 -0.14)">
     <defs>
      <path id="DejaVuSans-53" d="M 3425 4513 
L 3425 3897 
Q 3066 4069 2747 4153 
Q 2428 4238 2131 4238 
Q 1616 4238 1336 4038 
Q 1056 3838 1056 3469 
Q 1056 3159 1242 3001 
Q 1428 2844 1947 2747 
L 2328 2669 
Q 3034 2534 3370 2195 
Q 3706 1856 3706 1288 
Q 3706 609 3251 259 
Q 2797 -91 1919 -91 
Q 1588 -91 1214 -16 
Q 841 59 441 206 
L 441 856 
Q 825 641 1194 531 
Q 1563 422 1919 422 
Q 2459 422 2753 634 
Q 3047 847 3047 1241 
Q 3047 1584 2836 1778 
Q 2625 1972 2144 2069 
L 1759 2144 
Q 1053 2284 737 2584 
Q 422 2884 422 3419 
Q 422 4038 858 4394 
Q 1294 4750 2059 4750 
Q 2388 4750 2728 4690 
Q 3069 4631 3425 4513 
z
" transform="scale(0.015625)"/>
      <path id="DejaVuSans-70" d="M 1159 525 
L 1159 -1331 
L 581 -1331 
L 581 3500 
L 1159 3500 
L 1159 2969 
Q 1341 3281 1617 3432 
Q 1894 3584 2278 3584 
Q 2916 3584 3314 3078 
Q 3713 2572 3713 1747 
Q 3713 922 3314 415 
Q 2916 -91 2278 -91 
Q 1894 -91 1617 61 
Q 1341 213 1159 525 
z
M 3116 1747 
Q 3116 2381 2855 2742 
Q 2594 3103 2138 3103 
Q 1681 3103 1420 2742 
Q 1159 2381 1159 1747 
Q 1159 1113 1420 752 
Q 1681 391 2138 391 
Q 2594 391 2855 752 
Q 3116 1113 3116 1747 
z
" transform="scale(0.015625)"/>
      <path id="DejaVuSans-63" d="M 3122 3366 
L 3122 2828 
Q 2878 2963 2633 3030 
Q 2388 3097 2138 3097 
Q 1578 3097 1268 2742 
Q 959 2388 959 1747 
Q 959 1106 1268 751 
Q 1578 397 2138 397 
Q 2388 397 2633 464 
Q 2878 531 3122 666 
L 3122 134 
Q 2881 22 2623 -34 
Q 2366 -91 2075 -91 
Q 1284 -91 818 406 
Q 353 903 353 1747 
Q 353 2603 823 3093 
Q 1294 3584 2113 3584 
Q 2378 3584 2631 3529 
Q 2884 3475 3122 3366 
z
" transform="scale(0.015625)"/>
      <path id="DejaVuSans-75" d="M 544 1381 
L 544 3500 
L 1119 3500 
L 1119 1403 
Q 1119 906 1312 657 
Q 1506 409 1894 409 
Q 2359 409 2629 706 
Q 2900 1003 2900 1516 
L 2900 3500 
L 3475 3500 
L 3475 0 
L 2900 0 
L 2900 538 
Q 2691 219 2414 64 
Q 2138 -91 1772 -91 
Q 1169 -91 856 284 
Q 544 659 544 1381 
z
M 1991 3584 
L 1991 3584 
z
" transform="scale(0.015625)"/>
     </defs>
     <use xlink:href="#DejaVuSans-53"/>
     <use xlink:href="#DejaVuSans-70" x="63.476562"/>
     <use xlink:href="#DejaVuSans-65" x="126.953125"/>
     <use xlink:href="#DejaVuSans-63" x="188.476562"/>
     <use xlink:href="#DejaVuSans-74" x="243.457031"/>
     <use xlink:href="#DejaVuSans-72" x="282.666016"/>
     <use xlink:href="#DejaVuSans-75" x="323.779297"/>
     <use xlink:href="#DejaVuSans-6d" x="387.158203"/>
    </g>
   </g>
  </g>
 </g>
 <defs>
  <clipPath id="p2831a8dcd3">
   <rect x="90" y="60.48" width="558" height="388.08"/>
  </clipPath>
 </defs>
</svg>
